<?xml version="1.0" encoding="UTF-8"?> <svg xmlns="http://www.w3.org/2000/svg"  width="120" height="114" viewBox="0 0 110 114" fill="none"><path fill-rule="evenodd" clip-rule="evenodd" d="M82.6283 78.0419L108.855 72.0288C109.259 71.947 109.641 71.782 109.978 71.5442C110.315 71.3063 110.599 71.001 110.811 70.6476C111.023 70.2942 111.159 69.9004 111.211 69.4914C111.263 69.0824 111.229 68.6672 111.111 68.272L99.9577 19.8979C99.7564 19.0996 99.2466 18.4138 98.5402 17.9908C97.8338 17.5678 96.9884 17.4423 96.1895 17.6416L69.9741 23.6547C69.1805 23.8583 68.4998 24.3678 68.081 25.0718C67.6622 25.7758 67.5392 26.617 67.7391 27.4115L78.8601 75.7856C79.0615 76.5839 79.5713 77.2697 80.2777 77.6927C80.9841 78.1157 81.8294 78.2412 82.6283 78.0419Z" fill="#020A47"></path><path fill-rule="evenodd" clip-rule="evenodd" d="M73.591 107.934L105.389 78.4952C106.587 77.2861 106.285 76.5412 104.633 77.1349L82.7793 82.1008C81.8756 82.3241 81.0428 82.7715 80.3577 83.4017C79.6727 84.0319 79.1576 84.8246 78.86 85.7065L72.2305 107.038C71.7771 108.69 72.3817 109.143 73.591 107.934Z" fill="#020A47"></path><path fill-rule="evenodd" clip-rule="evenodd" d="M15.5781 98.3263L63.1935 113.04C64.007 113.192 64.8479 113.049 65.5659 112.638C66.2839 112.227 66.8322 111.573 67.1129 110.795L75.0919 85.253C75.2074 84.8547 75.2432 84.4374 75.1971 84.0252C75.151 83.6131 75.0241 83.214 74.8234 82.851C74.6228 82.4879 74.3525 82.168 74.0281 81.9096C73.7036 81.6512 73.3313 81.4594 72.9325 81.3451L25.3172 66.7713C24.5111 66.5408 23.6466 66.6384 22.9123 67.0429C22.178 67.4474 21.6335 68.126 21.3978 68.9304L13.4727 94.4183C13.2373 95.2157 13.3265 96.0737 13.7208 96.8056C14.1152 97.5376 14.7827 98.0841 15.5781 98.3263Z" fill="#020A47"></path><path fill-rule="evenodd" clip-rule="evenodd" d="M0.202816 46.0442L9.85545 88.3081C10.1578 89.9598 10.9352 89.9598 11.3563 88.3081L17.9857 66.9764C18.2116 66.0675 18.2208 65.1182 18.0127 64.205C17.8045 63.2919 17.3848 62.4404 16.7872 61.7191L1.56326 45.2885C0.505136 44.047 -0.283055 44.3925 0.202816 46.0442Z" fill="#020A47"></path><path fill-rule="evenodd" clip-rule="evenodd" d="M37.4315 0.865421L0.958833 34.6226C0.373693 35.1796 0.0301502 35.9436 0.00189163 36.7509C-0.0263669 37.5581 0.262909 38.3443 0.807673 38.9408L19.044 58.664C19.606 59.2601 20.3806 59.6103 21.1994 59.6386C22.0182 59.6669 22.8151 59.371 23.4169 58.8151L59.8788 25.0039C60.469 24.4499 60.8161 23.6849 60.8445 22.876C60.8728 22.067 60.58 21.2797 60.0299 20.6858L41.826 0.973375C41.546 0.675387 41.2095 0.435977 40.8362 0.269043C40.4629 0.102108 40.0602 0.0109747 39.6513 0.00093157C39.2425 -0.00911159 38.8358 0.0621362 38.4547 0.210539C38.0736 0.358941 37.7259 0.581542 37.4315 0.865421Z" fill="#020A47"></path><path fill-rule="evenodd" clip-rule="evenodd" d="M72.6843 77.2862C74.3471 77.7396 75.3944 76.8436 74.9517 75.1271L64.4029 29.4626C63.9495 27.8109 62.589 27.3575 61.3905 28.5558L27.0341 60.467C25.8248 61.6652 26.1271 63.0147 27.7791 63.4681L72.6843 77.2862Z" fill="#020A47"></path><path fill-rule="evenodd" clip-rule="evenodd" d="M90.6181 13.5934L49.0275 0.865592C47.3756 0.412186 47.0733 1.01673 48.4229 2.36615L63.6469 18.7428C64.3298 19.3811 65.1558 19.8465 66.0556 20.1C66.9554 20.3536 67.9029 20.3879 68.8187 20.2001L90.6721 15.2451C92.2809 14.7917 92.2809 14.036 90.6181 13.5934Z" fill="#020A47"></path></svg> 