<svg xmlns="http://www.w3.org/2000/svg" width="740" height="170" fill="none" viewBox="0 0 200 170"><path fill="#1EBCA1" d="M100 170C97.81 170 81.8 157.2 78.7 153.55C76.26 157.28 72.26 161.51 72.26 161.51C61.21 155.94 47.09 141.45 44.43 136.38C41.81 131.38 32.3 73.8 32.04 57.08C31.7 47.67 37.89 28.59 100 28.59C162.11 28.59 168.29 47.67 167.96 57.08C167.71 73.8 158.2 131.38 155.57 136.38C152.91 141.45 138.79 155.94 127.74 161.51C127.74 161.51 123.74 157.28 121.3 153.55C118.2 157.2 102.19 170 100 170Z"/><path fill="#183134" d="M100 132.92C79.27 132.92 66.04 121.97 66.04 121.97L67.95 95.3001L46.2 93.3601L42.29 61.8101H157.72L153.81 93.3601L132.06 95.3001L133.97 121.97C133.97 121.97 120.74 132.92 100.01 132.92H100Z"/><path fill="#4FF8D2" d="M121.48 75.79L200 48.61C195.33 20.67 170.84 0 170.84 0V30.78L156.3 34.53L147.19 23.56L139.39 38.9L100.01 49.06L60.63 38.9L52.83 23.56L43.72 34.53L29.18 30.78V0C29.18 0 4.67 20.67 0 48.61L78.52 75.79L75.72 113.18C82.42 114.88 89.47 116.57 100 116.57C110.53 116.57 117.57 114.88 124.27 113.18L121.47 75.79H121.48Z"/></svg>