<svg xmlns="http://www.w3.org/2000/svg" width="217.297" height="140.018" filter="invert(93%) hue-rotate(180deg)" version="1.1" viewBox="0 0 217.297 140.018"><defs><style class="style-fonts">@font-face{font-family:&quot;Virgil&quot;;src:url(https://excalidraw.com/Virgil.woff2)}@font-face{font-family:&quot;Cascadia&quot;;src:url(https://excalidraw.com/Cascadia.woff2)}@font-face{font-family:&quot;Assistant&quot;;src:url(https://excalidraw.com/Assistant-Regular.woff2)}</style></defs><rect width="217.297" height="140.018" x="0" y="0" fill="#fff"/><g stroke-linecap="round"><path fill="none" stroke="#96f2d7" stroke-width=".5" d="M0 0 C0 0, 0 0, 0 0 M0 0 C0 0, 0 0, 0 0 M-0.26 6.4 C1.25 4.48, 3.36 2.26, 4.99 0.36 M-0.26 6.4 C1.94 4.02, 4.26 1.89, 4.99 0.36 M0.13 12.04 C4.01 7.97, 7.06 5.45, 10.63 -0.03 M0.13 12.04 C2.01 9.15, 4.8 5.84, 10.63 -0.03 M-0.13 18.44 C3.05 12.85, 10.9 8.94, 15.62 0.33 M-0.13 18.44 C7.01 10.88, 12.2 4.2, 15.62 0.33 M0.27 24.08 C6.98 16.09, 9.75 12.63, 21.26 -0.07 M0.27 24.08 C5.63 18.79, 10.71 11.43, 21.26 -0.07 M0 30.48 C7.66 19.59, 15.44 10.78, 26.25 0.29 M0 30.48 C5.89 22.9, 11.93 16, 26.25 0.29 M-0.26 36.88 C7.05 26.66, 16.47 20.75, 31.89 -0.1 M-0.26 36.88 C9.3 26.09, 20.98 14.49, 31.89 -0.1 M0.14 42.52 C13.86 27.04, 28.92 9.65, 36.88 0.26 M0.14 42.52 C7.15 34, 16.53 24.35, 36.88 0.26 M-0.12 48.92 C11.91 32.21, 26.33 19.46, 42.52 -0.14 M-0.12 48.92 C14.65 31.43, 28.58 15.86, 42.52 -0.14 M0.27 54.56 C15.1 37.28, 30.52 19.81, 47.51 0.22 M0.27 54.56 C13.64 39.54, 27.95 22.66, 47.51 0.22 M0.01 60.96 C13.37 45.54, 26.3 32.32, 53.15 -0.17 M0.01 60.96 C17.46 41.02, 33.64 21.43, 53.15 -0.17 M-0.25 67.36 C24.15 43.52, 44.82 17.72, 58.14 0.19 M-0.25 67.36 C18.42 45.98, 37.85 25.2, 58.14 0.19 M0.14 73 C18.5 51.94, 36.06 31.21, 63.78 -0.21 M0.14 73 C18.94 51.27, 36.2 30.19, 63.78 -0.21 M-0.12 79.4 C14.09 63.12, 27.85 45.72, 68.77 0.15 M-0.12 79.4 C18.63 57.61, 37.06 34.76, 68.77 0.15 M0.28 85.04 C17.04 65.4, 31.34 51.15, 74.41 -0.24 M0.28 85.04 C21.55 59.77, 43.8 35.84, 74.41 -0.24 M0.01 91.44 C27.36 60.88, 51.59 30.51, 79.4 0.12 M0.01 91.44 C31.3 54.93, 62.19 19.34, 79.4 0.12 M-0.25 97.84 C31.26 65.39, 58.47 28.12, 85.04 -0.28 M-0.25 97.84 C20.18 73, 44.08 48.28, 85.04 -0.28 M0.15 103.48 C25.21 76.4, 48.14 50.84, 90.03 0.08 M0.15 103.48 C22.99 77, 44.57 49.89, 90.03 0.08 M-0.11 109.88 C23.75 85.45, 43.51 58.88, 95.67 -0.31 M-0.11 109.88 C34.34 71.82, 67.48 33.31, 95.67 -0.31 M0.28 115.52 C37.86 71.77, 77.18 27.21, 100.66 0.05 M0.28 115.52 C27.13 84.86, 53.9 53.67, 100.66 0.05 M1.99 119.65 C24.59 93.79, 46.55 66.25, 106.3 -0.34 M1.99 119.65 C40.94 74.35, 79.41 30.41, 106.3 -0.34 M6.97 120.01 C34.05 87.56, 63.48 55.4, 111.29 0.02 M6.97 120.01 C28.27 96.3, 51.21 70.97, 111.29 0.02 M12.62 119.62 C48.85 77.32, 83.3 36.08, 116.27 0.38 M12.62 119.62 C53.22 75.12, 91.73 31.34, 116.27 0.38 M17.6 119.98 C52.59 76.78, 90.38 37.8, 121.92 -0.02 M17.6 119.98 C48.68 85.34, 78.58 50.23, 121.92 -0.02 M23.25 119.58 C55.89 77.98, 92.43 40.09, 126.91 0.34 M23.25 119.58 C48.51 89.09, 75.65 57.48, 126.91 0.34 M28.23 119.94 C56.87 86.88, 85.44 52.05, 132.55 -0.05 M28.23 119.94 C56.91 89.13, 82.04 58.41, 132.55 -0.05 M33.88 119.55 C53.55 96.15, 75.8 69, 137.54 0.31 M33.88 119.55 C70.9 78.1, 108.9 35.78, 137.54 0.31 M38.86 119.91 C73.79 79.32, 112.18 38.94, 143.18 -0.09 M38.86 119.91 C73.66 81.55, 105.66 42.46, 143.18 -0.09 M44.51 119.52 C67.38 92.4, 91.93 63.09, 148.17 0.27 M44.51 119.52 C72.14 87.25, 100.6 55.65, 148.17 0.27 M49.49 119.88 C75.72 91.27, 97.87 62.43, 153.81 -0.12 M49.49 119.88 C72.69 90.34, 97.64 63.29, 153.81 -0.12 M55.14 119.48 C92.71 74.51, 132.07 31.17, 158.8 0.24 M55.14 119.48 C77.91 94.07, 99.96 67.47, 158.8 0.24 M60.12 119.84 C92.9 82.68, 125.55 44.69, 164.44 -0.16 M60.12 119.84 C99.85 73.64, 138.09 30.25, 164.44 -0.16 M65.77 119.45 C90.59 88.06, 117.86 56.96, 169.43 0.2 M65.77 119.45 C95.53 84.24, 123.5 51.72, 169.43 0.2 M70.76 119.81 C106.62 79.14, 143.59 40.97, 175.07 -0.19 M70.76 119.81 C101.57 85.45, 131.03 50.59, 175.07 -0.19 M76.4 119.41 C100.28 92.44, 127.74 59.97, 180.06 0.17 M76.4 119.41 C115.68 73.19, 156.38 28.56, 180.06 0.17 M81.39 119.77 C114.31 83.09, 144.68 42.77, 185.7 -0.23 M81.39 119.77 C119.59 77.74, 158.48 33.64, 185.7 -0.23 M87.03 119.38 C117.26 84.93, 149 46.79, 190.69 0.13 M87.03 119.38 C119.45 82.32, 151.85 46.11, 190.69 0.13 M92.02 119.74 C118.23 88.66, 147.26 56.79, 196.33 -0.26 M92.02 119.74 C125.1 80.67, 158.11 40.96, 196.33 -0.26 M97 120.1 C129.57 81.45, 164.74 40.51, 199.35 2.36 M97 120.1 C120.24 92.68, 144.57 64.86, 199.35 2.36 M102.65 119.7 C128.44 90.76, 154.93 60.07, 199.74 8.01 M102.65 119.7 C135.25 83.39, 168.06 45.95, 199.74 8.01 M107.63 120.06 C136.54 87.68, 161.76 57.48, 199.48 14.4 M107.63 120.06 C132.57 92.96, 156.21 65.01, 199.48 14.4 M113.28 119.67 C144.74 83.15, 178.9 46.84, 199.88 20.05 M113.28 119.67 C141.44 86.56, 170.5 53.19, 199.88 20.05 M118.26 120.03 C136.55 97.91, 156.41 77.08, 199.61 26.45 M118.26 120.03 C139.54 96.58, 160.9 72.06, 199.61 26.45 M123.91 119.63 C151.44 90.18, 177.7 59.39, 199.35 32.84 M123.91 119.63 C144.13 95.3, 165.07 72.42, 199.35 32.84 M128.89 119.99 C147.45 99.98, 164.09 77.28, 199.75 38.49 M128.89 119.99 C144.97 102.01, 159.03 85.66, 199.75 38.49 M134.54 119.6 C154.4 96.73, 173.89 76.67, 199.49 44.88 M134.54 119.6 C152.87 98.9, 169.45 81.02, 199.49 44.88 M139.52 119.96 C164.39 92.74, 184.19 69.56, 199.88 50.53 M139.52 119.96 C156.62 101.19, 172.3 81.69, 199.88 50.53 M145.17 119.57 C157.65 106.19, 170.68 91.55, 199.62 56.92 M145.17 119.57 C159.72 102.63, 174.69 87.55, 199.62 56.92 M150.15 119.93 C162.04 104.46, 174.93 90.49, 199.36 63.32 M150.15 119.93 C166.82 102.41, 180.93 83.76, 199.36 63.32 M155.8 119.53 C168.44 101.12, 185.54 87.88, 199.75 68.97 M155.8 119.53 C172.01 101.16, 188.05 81.72, 199.75 68.97 M160.78 119.89 C170.61 105.65, 180.73 93.64, 199.49 75.36 M160.78 119.89 C169.65 110.56, 177.53 100.52, 199.49 75.36 M166.43 119.5 C175.39 110.9, 183.17 98.14, 199.88 81.01 M166.43 119.5 C178.16 107.46, 188.33 93.57, 199.88 81.01 M171.41 119.86 C179.03 111.35, 186.7 104.17, 199.62 87.4 M171.41 119.86 C180.5 110.48, 189.8 99.91, 199.62 87.4 M177.06 119.46 C184.29 112.89, 187.85 104.41, 199.36 93.8 M177.06 119.46 C183.09 114.33, 187.76 107.23, 199.36 93.8 M182.04 119.82 C190.04 112.64, 192.58 104.3, 199.76 99.45 M182.04 119.82 C188.74 112.58, 194.43 104.27, 199.76 99.45 M187.69 119.43 C191.15 116.62, 195.22 113.53, 199.5 105.84 M187.69 119.43 C190.17 115.85, 192.74 112.78, 199.5 105.84 M192.67 119.79 C195.57 116.72, 197.66 114.88, 199.89 111.49 M192.67 119.79 C194.24 118.41, 195.99 116.19, 199.89 111.49 M-0.34 117.76 C-0.34 117.76, -0.34 117.76, -0.34 117.76 M-0.34 117.76 C-0.34 117.76, -0.34 117.76, -0.34 117.76 M6.05 118.02 C5.49 116.81, 3.54 115.47, 0.02 112.78 M6.05 118.02 C4.44 116.64, 2.91 115.3, 0.02 112.78 M12.45 118.29 C8.66 112.91, 2.41 109.34, 0.38 107.79 M12.45 118.29 C8.53 114.88, 3.67 110.46, 0.38 107.79 M18.1 117.89 C12.96 115.45, 9.26 110.43, -0.02 102.15 M18.1 117.89 C14.32 115.04, 11.11 111.16, -0.02 102.15 M24.49 118.15 C17.94 110.38, 8.63 103.62, 0.34 97.16 M24.49 118.15 C16.96 111.43, 9.81 105.92, 0.34 97.16 M30.14 117.76 C21.46 110.34, 12.54 101.48, -0.05 91.52 M30.14 117.76 C17.91 107.51, 6.19 97.91, -0.05 91.52 M36.53 118.02 C26.36 109.17, 18.9 101.57, 0.31 86.53 M36.53 118.02 C28.19 112.12, 20.41 104.25, 0.31 86.53 M42.93 118.28 C26.46 104.11, 12.16 89.32, -0.09 80.89 M42.93 118.28 C31.98 109.31, 20.74 100.86, -0.09 80.89 M48.57 117.89 C38.39 109.23, 23.17 98.39, 0.27 75.9 M48.57 117.89 C28.75 101.24, 10.62 84.76, 0.27 75.9 M54.97 118.15 C32.7 100.13, 13.69 81.85, -0.12 70.26 M54.97 118.15 C34.01 100.48, 14.64 82.34, -0.12 70.26 M60.62 117.75 C46.09 104.1, 28.06 89.49, 0.24 65.27 M60.62 117.75 C47.76 106.55, 35.56 95.16, 0.24 65.27 M67.01 118.01 C45.45 100.48, 22.96 79.54, -0.16 59.63 M67.01 118.01 C41.35 93.83, 14.91 72.95, -0.16 59.63 M73.41 118.28 C56.17 105.95, 42.94 90.02, 0.2 54.64 M73.41 118.28 C44.2 92.03, 16.08 67.36, 0.2 54.64 M79.05 117.88 C52.99 94.25, 22.91 67.38, -0.19 49 M79.05 117.88 C59.59 100.89, 40.92 84.14, -0.19 49 M85.45 118.14 C66.36 104.36, 49.85 85.73, 0.17 44.01 M85.45 118.14 C52.32 90.13, 20.32 60.75, 0.17 44.01 M91.09 117.75 C69.56 97.8, 45.14 79.01, -0.22 38.37 M91.09 117.75 C63.99 92.69, 36.51 69.46, -0.22 38.37 M97.49 118.01 C74.6 96.94, 52.89 77.62, 0.14 33.38 M97.49 118.01 C59.69 86.68, 22.79 54.48, 0.14 33.38 M103.89 118.27 C67.42 88.14, 30.13 55.59, -0.26 27.73 M103.89 118.27 C74.03 93.11, 44.11 68.01, -0.26 27.73 M109.53 117.88 C80.64 91.59, 47.99 64.87, 0.1 22.75 M109.53 117.88 C81.01 91.42, 49.93 66.14, 0.1 22.75 M115.93 118.14 C94.26 96.06, 70.91 77.74, -0.29 17.1 M115.93 118.14 C77.87 83.69, 39.48 50.77, -0.29 17.1 M121.57 117.74 C94.45 95.81, 67.58 68.74, 0.07 12.12 M121.57 117.74 C83.97 84.13, 46.15 50.58, 0.07 12.12 M127.97 118 C82 78.65, 40.55 39.44, -0.33 6.47 M127.97 118 C91.62 84.12, 53.2 53.17, -0.33 6.47 M134.37 118.27 C85.6 77.75, 37.21 32.92, 0.03 1.49 M134.37 118.27 C100.82 89.86, 68.48 59.64, 0.03 1.49 M140.01 117.87 C88.89 77.38, 41.37 33.59, 1.9 -2.19 M140.01 117.87 C103.11 85.7, 66.11 51.03, 1.9 -2.19 M146.41 118.13 C112.82 88.64, 80.64 59.21, 8.3 -1.93 M146.41 118.13 C116.02 91.85, 85.14 66.58, 8.3 -1.93 M152.05 117.74 C110.37 82.58, 65.09 44.12, 13.94 -2.32 M152.05 117.74 C111.17 82.89, 69.5 46.74, 13.94 -2.32 M158.45 118 C122.09 85.63, 85.12 55.74, 20.34 -2.06 M158.45 118 C130.59 92.98, 101.76 68.96, 20.34 -2.06 M164.85 118.26 C110.91 70.44, 53.59 22, 25.98 -2.45 M164.85 118.26 C132.68 90.25, 101.29 63.89, 25.98 -2.45 M170.49 117.87 C135.21 87.58, 94.76 54.54, 32.38 -2.19 M170.49 117.87 C115.46 68.22, 59.91 20.52, 32.38 -2.19 M176.89 118.13 C138.55 85.47, 96.73 48.14, 38.78 -1.93 M176.89 118.13 C143.49 90.23, 109.86 59.95, 38.78 -1.93 M182.53 117.73 C135.17 77.44, 90.26 40.47, 44.42 -2.33 M182.53 117.73 C145.86 86.94, 109.44 53.22, 44.42 -2.33 M188.93 118 C141.47 76.44, 94.62 35.68, 50.82 -2.06 M188.93 118 C139.55 74.88, 91.7 32.05, 50.82 -2.06 M195.33 118.26 C168.1 91.83, 138.38 67.45, 56.46 -2.46 M195.33 118.26 C162.04 90.3, 129.16 61.54, 56.46 -2.46 M198.71 115.89 C161.9 86.61, 126.62 55.44, 62.86 -2.2 M198.71 115.89 C156.15 78.87, 114.87 42.08, 62.86 -2.2 M199.07 110.91 C167.27 83.58, 134.42 55.48, 69.26 -1.94 M199.07 110.91 C165.52 80.84, 131.42 52.73, 69.26 -1.94 M198.67 105.26 C150.44 67.52, 107 26.3, 74.9 -2.33 M198.67 105.26 C162.19 75.09, 128.28 44.05, 74.9 -2.33 M199.03 100.28 C166.2 73, 133.47 40.85, 81.3 -2.07 M199.03 100.28 C176.5 80.55, 152.06 59.75, 81.3 -2.07 M198.64 94.63 C159.9 59.38, 119.18 26.09, 86.94 -2.46 M198.64 94.63 C155.83 57.28, 113.27 19.95, 86.94 -2.46 M199 89.65 C158.68 54.14, 118.63 18.63, 93.34 -2.2 M199 89.65 C171.23 64.82, 143.45 40.73, 93.34 -2.2 M198.6 84 C166.66 53.93, 131.12 26.43, 99.74 -1.94 M198.6 84 C165.87 54.18, 132.95 26.97, 99.74 -1.94 M198.96 79.02 C175.59 60.2, 150.24 37.13, 105.38 -2.33 M198.96 79.02 C178.95 61.93, 161.28 45.58, 105.38 -2.33 M199.32 74.03 C166.6 44.06, 133.18 15.73, 111.78 -2.07 M199.32 74.03 C181.28 57.17, 163.35 42.25, 111.78 -2.07 M198.93 68.39 C179.45 50.77, 156.07 32.85, 117.42 -2.47 M198.93 68.39 C177.75 51.03, 156.9 31.59, 117.42 -2.47 M199.29 63.4 C181.13 49.25, 166.04 31.61, 123.82 -2.21 M199.29 63.4 C178.05 44.46, 156.29 25.2, 123.82 -2.21 M198.9 57.76 C184.8 44.64, 172.19 33.03, 130.22 -1.95 M198.9 57.76 C180.3 42.54, 162.76 27.45, 130.22 -1.95 M199.26 52.77 C177.2 32.83, 159.03 16.73, 135.86 -2.34 M199.26 52.77 C186.19 41.42, 172.66 31.19, 135.86 -2.34 M198.86 47.13 C182.19 33.76, 164.29 17.81, 142.26 -2.08 M198.86 47.13 C182.46 31.46, 166.73 18.94, 142.26 -2.08 M199.22 42.14 C178.72 24.76, 160.79 8.69, 147.9 -2.47 M199.22 42.14 C189.14 32.95, 178.06 23.95, 147.9 -2.47 M198.83 36.5 C183.01 23.78, 169.76 13.46, 154.3 -2.21 M198.83 36.5 C187.14 28.22, 176.46 19.05, 154.3 -2.21 M199.19 31.51 C187.64 23.16, 179.39 15.26, 160.7 -1.95 M199.19 31.51 C188.72 22.81, 178.93 12.54, 160.7 -1.95 M198.79 25.87 C188.76 18.47, 178.43 8.22, 166.34 -2.34 M198.79 25.87 C190.54 17.52, 181.33 10.41, 166.34 -2.34 M199.15 20.88 C191.89 17.06, 186.12 8.9, 172.74 -2.08 M199.15 20.88 C192.3 16.32, 187.86 10.77, 172.74 -2.08 M198.76 15.24 C191.77 10.74, 183.67 1.09, 178.38 -2.48 M198.76 15.24 C193.03 9.3, 186.55 4.01, 178.38 -2.48 M199.12 10.25 C192.96 5.51, 189.71 -0.32, 184.78 -2.22 M199.12 10.25 C193.29 5.61, 186.79 -0.3, 184.78 -2.22 M198.72 4.61 C195.04 2.68, 193.66 0.03, 191.18 -1.95 M198.72 4.61 C195.57 2.63, 193.4 -0.17, 191.18 -1.95" transform="translate(10 10) rotate(0 98.6484558510765 59.030634749439116)"/><path fill="none" stroke="#1e1e1e" stroke-width="1" d="M0 0 C64.79 0.16, 129.95 -0.17, 197.3 0 M0 0 C79.23 -0.71, 157.21 -0.81, 197.3 0 M197.3 0 C195.42 25.91, 197.95 48.58, 197.3 118.06 M197.3 0 C197.54 44.36, 197.26 87.27, 197.3 118.06 M197.3 118.06 C131.34 118.82, 63.03 118.27, 0 118.06 M197.3 118.06 C125.08 118.96, 50.55 119.71, 0 118.06 M0 118.06 C-1.14 87.3, 0.23 57.85, 0 0 M0 118.06 C0.35 90.77, 0.33 65.56, 0 0" transform="translate(10 10) rotate(0 98.6484558510765 59.030634749439116)"/></g><g><text x="0" y="77.108" fill="#1e1e1e" direction="ltr" dominant-baseline="alphabetic" font-family="Virgil, Segoe UI Emoji" font-size="88.023" text-anchor="start" style="white-space:pre" transform="translate(28.490585920240846 19.988990886439183) rotate(0 83.35782308203034 55.01440517928711)">C++</text></g></svg>