<svg version="1.1" xmlns="http://www.w3.org/2000/svg" viewBox="0 0 77.0045186776124 70.92488761184188" width="77.0045186776124" height="70.92488761184188" filter="invert(93%) hue-rotate(180deg)">
  <!-- svg-source:excalidraw -->
  
  <defs>
    <style class="style-fonts">
      @font-face {
        font-family: "Virgil";
        src: url("https://excalidraw.com/Virgil.woff2");
      }
      @font-face {
        font-family: "Cascadia";
        src: url("https://excalidraw.com/Cascadia.woff2");
      }
      @font-face {
        font-family: "Assistant";
        src: url("https://excalidraw.com/Assistant-Regular.woff2");
      }
    </style>
    
  </defs>
  <rect x="0" y="0" width="77.0045186776124" height="70.92488761184188" fill="#ffffff"></rect><g stroke-opacity="0.9" fill-opacity="0.9" stroke-linecap="round" transform="translate(11.421438212881185 38.97392178459688) rotate(0 8.085123416116858 9.14015719084864)"><path d="M1.29 3.77 C1.29 3.77, 1.29 3.77, 1.29 3.77 M1.29 3.77 C1.29 3.77, 1.29 3.77, 1.29 3.77 M0.56 10.8 C1.89 8.18, 5.18 4.71, 8.92 1.5 M0.46 10.81 C3.77 7.77, 5.37 4.32, 9.16 1.05 M2.51 13.55 C4.96 9.47, 7.7 8.55, 12.44 3 M2.22 14.97 C6.8 9.3, 9.62 5.2, 13.04 2.96 M4.63 19.01 C8.62 14.49, 11.75 11.86, 16.25 7.06 M4.68 18.03 C7.28 14.66, 10.76 10.67, 16.16 5.65 M9.89 19.65 C10.31 16.87, 13.9 14.5, 16.55 9.66 M9.33 19.27 C11.52 17.07, 13.84 13.98, 17.09 10.69" stroke="#a5d8ff" stroke-width="0.5" fill="none"></path><path d="M10.72 1.23 C12.38 1.71, 13.92 2.96, 14.86 4.4 C15.81 5.84, 16.66 7.79, 16.39 9.88 C16.11 11.97, 14.59 15.39, 13.22 16.94 C11.85 18.48, 9.81 19.31, 8.18 19.15 C6.56 18.99, 4.9 17.4, 3.46 15.97 C2.02 14.54, -0.08 12.6, -0.45 10.58 C-0.82 8.55, 0.32 5.51, 1.24 3.82 C2.16 2.13, 3.29 0.94, 5.08 0.43 C6.88 -0.09, 10.51 0.56, 12.02 0.74 C13.53 0.91, 14.33 1.28, 14.15 1.46 M10.88 1.42 C12.72 1.71, 14.71 2.31, 15.69 3.93 C16.66 5.55, 16.9 8.92, 16.73 11.13 C16.57 13.34, 16.18 15.93, 14.7 17.19 C13.22 18.46, 9.86 18.66, 7.84 18.73 C5.81 18.8, 3.7 18.62, 2.54 17.62 C1.38 16.62, 1.04 14.97, 0.85 12.73 C0.66 10.48, 0.65 6.07, 1.4 4.15 C2.15 2.23, 3.98 1.61, 5.35 1.22 C6.72 0.83, 8.86 2.02, 9.62 1.8 C10.38 1.59, 9.59 -0.12, 9.89 -0.06" stroke="#1e1e1e" stroke-width="1" fill="none"></path></g><g stroke-opacity="0.9" fill-opacity="0.9" stroke-linecap="round" transform="translate(30.004774312799782 13.4314196517264) rotate(0 8.085123416116858 9.14015719084864)"><path d="M3.41 2.96 C3.41 2.96, 3.41 2.96, 3.41 2.96 M3.41 2.96 C3.41 2.96, 3.41 2.96, 3.41 2.96 M3.21 9.46 C4.74 7.02, 5.65 5.32, 10.55 2.15 M2.38 9.54 C5.45 7.72, 7.84 4.76, 10.35 1.08 M1.75 16.32 C7.27 10.25, 9.32 7.03, 14.41 2.92 M2.3 15.88 C5.85 13.01, 8.1 9.08, 13.61 2.49 M6.82 19.98 C9.55 14.84, 11.81 12.86, 14.2 7.73 M5.15 19.73 C8.42 14.77, 12.57 11.07, 16.06 7.34 M9.54 19.93 C12.06 18.19, 12.9 17.22, 14.89 14.69 M10.08 19.28 C11.79 17.98, 13.29 15.94, 14.63 14.3" stroke="#a5d8ff" stroke-width="0.5" fill="none"></path><path d="M9.19 0.44 C10.76 0.36, 11.42 0.18, 12.45 1.51 C13.47 2.84, 14.93 6.36, 15.35 8.42 C15.76 10.49, 15.62 12.17, 14.95 13.9 C14.29 15.63, 13.04 18.03, 11.36 18.79 C9.67 19.55, 6.51 19.3, 4.83 18.47 C3.15 17.64, 2.01 15.52, 1.28 13.82 C0.55 12.11, 0.1 10.06, 0.46 8.24 C0.83 6.42, 1.92 4.16, 3.47 2.9 C5.01 1.64, 8.41 1.06, 9.74 0.69 C11.07 0.31, 11.33 0.69, 11.43 0.66 M9.85 0.13 C11.37 0.16, 12.43 -0.2, 13.37 1.4 C14.31 3.01, 15.22 7.72, 15.47 9.74 C15.71 11.76, 15.77 12, 14.83 13.54 C13.9 15.07, 11.59 18.31, 9.86 18.94 C8.13 19.57, 6.15 18.2, 4.46 17.3 C2.77 16.4, 0.65 15.24, -0.29 13.55 C-1.23 11.87, -2.04 9.29, -1.19 7.19 C-0.33 5.09, 3.18 1.9, 4.85 0.96 C6.52 0.01, 8.3 1.42, 8.83 1.52 C9.35 1.63, 7.82 1.59, 7.99 1.58" stroke="#1e1e1e" stroke-width="1" fill="none"></path></g><g stroke-opacity="0.9" fill-opacity="0.9" stroke-linecap="round" transform="translate(47.6264123763176 36.910271626216286) rotate(0 8.085123416116858 9.14015719084864)"><path d="M1.99 3.05 C1.99 3.05, 1.99 3.05, 1.99 3.05 M1.99 3.05 C1.99 3.05, 1.99 3.05, 1.99 3.05 M0.4 10.02 C2.98 7.39, 7.53 5.05, 10.6 -0.29 M1.34 10.48 C3.66 6.43, 6.59 4.28, 9.23 0.13 M2.68 14.7 C5.2 11.59, 7.09 8.5, 13.9 3.38 M2.67 15.47 C5.43 11.58, 8.36 6.87, 12.55 3.79 M5.57 16.92 C7.89 14.48, 9.89 11.97, 16.93 5.56 M4.64 17.15 C9.06 12.53, 12.9 7.9, 15.92 4.46 M7.57 19.61 C11.51 15.48, 16.86 11.35, 19.2 8.06 M8.36 20.54 C11.8 17.07, 14.85 13.02, 17.91 9.32" stroke="#a5d8ff" stroke-width="0.5" fill="none"></path><path d="M7.88 -0.95 C9.58 -0.93, 11.85 1.36, 13.11 2.68 C14.38 3.99, 14.92 5.29, 15.46 6.95 C16 8.61, 16.88 10.74, 16.35 12.62 C15.82 14.5, 13.98 17.24, 12.28 18.24 C10.59 19.24, 8.09 19.35, 6.19 18.61 C4.3 17.87, 2.04 15.51, 0.91 13.81 C-0.22 12.12, -0.81 10.26, -0.59 8.43 C-0.38 6.6, 0.43 4.07, 2.2 2.81 C3.97 1.55, 8.59 1.4, 10 0.88 C11.41 0.35, 10.71 -0.19, 10.66 -0.34 M11.73 0.39 C13.46 0.85, 15 2.53, 15.81 4.51 C16.63 6.48, 16.93 10.45, 16.62 12.22 C16.31 13.99, 15.55 14.27, 13.98 15.14 C12.41 16.01, 8.93 17.44, 7.19 17.43 C5.45 17.42, 4.61 16.49, 3.53 15.06 C2.45 13.64, 1.14 10.87, 0.71 8.87 C0.27 6.87, 0.05 4.27, 0.91 3.09 C1.77 1.91, 4.15 2.2, 5.89 1.79 C7.62 1.38, 10.42 0.83, 11.33 0.64 C12.24 0.44, 11.67 0.23, 11.35 0.6" stroke="#1e1e1e" stroke-width="1" fill="none"></path></g><g stroke-linecap="round"><g stroke-opacity="0.9" fill-opacity="0.9" transform="translate(33.841802255195944 30.447101230880435) rotate(0 -4.974134591592247 5.5358520716126804)"><path d="M-1.13 -0.15 C-2.73 1.64, -7.51 8.49, -9.06 10.39 M0.47 -1.27 C-1.25 0.69, -7.55 9.25, -9.54 11.57" stroke="#1e1e1e" stroke-width="1" fill="none"></path></g></g><mask></mask><g stroke-linecap="round"><g stroke-opacity="0.9" fill-opacity="0.9" transform="translate(43.3882648054996 30.526834874339215) rotate(0 3.7307183388420526 4.853749522507485)"><path d="M0.06 0.33 C1.17 1.81, 5.91 7.54, 7.13 9.23 M-0.82 -0.16 C0.11 1.38, 5.09 8.36, 6.37 9.94" stroke="#1e1e1e" stroke-width="1" fill="none"></path></g></g><mask></mask><g stroke-opacity="0.1" fill-opacity="0.1" stroke-linecap="round" transform="translate(10 10) rotate(0 28.502259338806198 25.46244380592094)"><path d="M0 0 C16.68 0, 33.36 0, 57 0 M0 0 C11.84 0, 23.68 0, 57 0 M57 0 C57 20.33, 57 40.66, 57 50.92 M57 0 C57 19.3, 57 38.61, 57 50.92 M57 50.92 C44.15 50.92, 31.3 50.92, 0 50.92 M57 50.92 C39.4 50.92, 21.8 50.92, 0 50.92 M0 50.92 C0 38.84, 0 26.76, 0 0 M0 50.92 C0 36.04, 0 21.16, 0 0" stroke="#ffffff" stroke-width="1" fill="none"></path></g></svg>