<svg version="1.1" xmlns="http://www.w3.org/2000/svg" viewBox="0 0 154.2263875233266 153.73472319403095" width="462.6791625699798" height="461.20416958209285" filter="invert(93%) hue-rotate(180deg)">
  <!-- svg-source:excalidraw -->
  
  <defs>
    <style class="style-fonts">
      @font-face {
        font-family: "Virgil";
        src: url("https://excalidraw.com/Virgil.woff2");
      }
      @font-face {
        font-family: "Cascadia";
        src: url("https://excalidraw.com/Cascadia.woff2");
      }
      @font-face {
        font-family: "Assistant";
        src: url("https://excalidraw.com/Assistant-Regular.woff2");
      }
    </style>
    
  </defs>
  <rect x="0" y="0" width="154.2263875233266" height="153.73472319403095" fill="#ffffff"></rect><g stroke-linecap="round" transform="translate(20.81676559380594 28.683488021358016) rotate(0 54.12892777706247 47.44632049715392)"><path d="M5.66 6.24 C5.66 6.24, 5.66 6.24, 5.66 6.24 M5.66 6.24 C5.66 6.24, 5.66 6.24, 5.66 6.24 M0.54 24.32 C8.8 14.82, 17.07 5.32, 21.54 0.17 M0.54 24.32 C6.33 17.67, 12.11 11.02, 21.54 0.17 M0.68 36.36 C13.25 21.9, 25.82 7.44, 32.17 0.14 M0.68 36.36 C7.59 28.41, 14.51 20.45, 32.17 0.14 M0.81 48.4 C15.2 31.85, 29.58 15.3, 42.8 0.1 M0.81 48.4 C14.74 32.38, 28.66 16.36, 42.8 0.1 M0.29 61.2 C14.67 44.65, 29.06 28.1, 52.77 0.82 M0.29 61.2 C12.39 47.27, 24.5 33.35, 52.77 0.82 M0.42 73.24 C15.89 55.44, 31.36 37.64, 63.4 0.79 M0.42 73.24 C13.18 58.56, 25.94 43.89, 63.4 0.79 M2.52 83.02 C22.11 60.49, 41.69 37.96, 74.03 0.75 M2.52 83.02 C19.52 63.46, 36.52 43.9, 74.03 0.75 M7.25 89.78 C30.65 62.86, 54.05 35.94, 84.66 0.72 M7.25 89.78 C28.01 65.89, 48.77 42, 84.66 0.72 M14.6 93.51 C43.72 60.02, 72.84 26.52, 94.64 1.44 M14.6 93.51 C31.03 74.61, 47.47 55.7, 94.64 1.44 M23.91 94.99 C50.73 64.15, 77.54 33.3, 101.99 5.18 M23.91 94.99 C53.37 61.1, 82.82 27.22, 101.99 5.18 M34.54 94.95 C58.89 66.94, 83.24 38.93, 106.05 12.69 M34.54 94.95 C60.75 64.8, 86.96 34.65, 106.05 12.69 M45.17 94.92 C59.75 78.16, 74.32 61.39, 108.16 22.47 M45.17 94.92 C60.75 77, 76.32 59.09, 108.16 22.47 M55.8 94.89 C67.97 80.89, 80.14 66.9, 108.29 34.51 M55.8 94.89 C67.52 81.41, 79.23 67.94, 108.29 34.51 M66.43 94.85 C77.33 82.32, 88.23 69.78, 108.42 46.55 M66.43 94.85 C77.54 82.08, 88.64 69.3, 108.42 46.55 M76.41 95.57 C85.75 84.82, 95.1 74.07, 107.9 59.35 M76.41 95.57 C87.3 83.04, 98.19 70.51, 107.9 59.35 M87.69 94.78 C94.87 86.53, 102.04 78.28, 108.03 71.39 M87.69 94.78 C93.47 88.14, 99.24 81.5, 108.03 71.39" stroke="#ced4da" stroke-width="1" fill="none"></path><path d="M23.72 0 C43.09 0, 62.46 0, 84.53 0 M23.72 0 C36.9 0, 50.09 0, 84.53 0 M84.53 0 C100.35 0, 108.26 7.91, 108.26 23.72 M84.53 0 C100.35 0, 108.26 7.91, 108.26 23.72 M108.26 23.72 C108.26 37.63, 108.26 51.55, 108.26 71.17 M108.26 23.72 C108.26 42.02, 108.26 60.32, 108.26 71.17 M108.26 71.17 C108.26 86.98, 100.35 94.89, 84.53 94.89 M108.26 71.17 C108.26 86.98, 100.35 94.89, 84.53 94.89 M84.53 94.89 C66.88 94.89, 49.22 94.89, 23.72 94.89 M84.53 94.89 C64.5 94.89, 44.47 94.89, 23.72 94.89 M23.72 94.89 C7.91 94.89, 0 86.98, 0 71.17 M23.72 94.89 C7.91 94.89, 0 86.98, 0 71.17 M0 71.17 C0 59.22, 0 47.28, 0 23.72 M0 71.17 C0 57.09, 0 43.01, 0 23.72 M0 23.72 C0 7.91, 7.91 0, 23.72 0 M0 23.72 C0 7.91, 7.91 0, 23.72 0" stroke="#1e1e1e" stroke-width="2" fill="none"></path></g><g transform="translate(41.50331055836887 53.296006210136056) rotate(0 33.4423828125 22.83380230837588)"><text x="33.4423828125" y="0" font-family="Cascadia, Segoe UI Emoji" font-size="38.05633718062651px" fill="#1e1e1e" text-anchor="middle" style="white-space: pre;" direction="ltr" dominant-baseline="text-before-edge">0/1</text></g><g stroke-opacity="0" fill-opacity="0" stroke-linecap="round" transform="translate(10 10) rotate(0 67.1131937616633 66.86736159701547)"><path d="M0 0 C39.66 0, 79.32 0, 134.23 0 M0 0 C42.91 0, 85.82 0, 134.23 0 M134.23 0 C134.23 42.13, 134.23 84.27, 134.23 133.73 M134.23 0 C134.23 46.46, 134.23 92.93, 134.23 133.73 M134.23 133.73 C95.01 133.73, 55.79 133.73, 0 133.73 M134.23 133.73 C82.55 133.73, 30.88 133.73, 0 133.73 M0 133.73 C0 95.15, 0 56.56, 0 0 M0 133.73 C0 98.88, 0 64.03, 0 0" stroke="#1e1e1e" stroke-width="1" fill="none"></path></g></svg>