<svg version="1.1" xmlns="http://www.w3.org/2000/svg" viewBox="0 0 479.76266605057754 236.57129169135243" width="1439.2879981517326" height="709.7138750740573">
  <!-- svg-source:excalidraw -->
  
  <defs>
    <style class="style-fonts">
      @font-face {
        font-family: "Virgil";
        src: url("https://excalidraw.com/Virgil.woff2");
      }
      @font-face {
        font-family: "Cascadia";
        src: url("https://excalidraw.com/Cascadia.woff2");
      }
      @font-face {
        font-family: "Assistant";
        src: url("https://excalidraw.com/Assistant-Regular.woff2");
      }
    </style>
    
  </defs>
  <rect x="0" y="0" width="479.76266605057754" height="236.57129169135243" fill="#ffffff"></rect><g stroke-linecap="round" transform="translate(34.732344556635326 134.4147463163327) rotate(0 15.640164772479238 18.384065265231868)"><path d="M2.08 1.81 C2.08 1.81, 2.08 1.81, 2.08 1.81 M2.08 1.81 C2.08 1.81, 2.08 1.81, 2.08 1.81 M1.16 8.96 C2.65 7.25, 4.14 5.53, 8.38 0.66 M1.16 8.96 C2.95 6.91, 4.74 4.85, 8.38 0.66 M0.9 15.36 C4.14 11.64, 7.37 7.92, 13.37 1.02 M0.9 15.36 C3.99 11.81, 7.07 8.26, 13.37 1.02 M0.64 21.76 C5.38 16.31, 10.11 10.86, 19.01 0.63 M0.64 21.76 C4.62 17.18, 8.6 12.6, 19.01 0.63 M1.04 27.4 C7.46 20.01, 13.88 12.62, 24 0.99 M1.04 27.4 C8.3 19.04, 15.57 10.68, 24 0.99 M1.43 33.04 C10.81 22.26, 20.19 11.47, 28.98 1.35 M1.43 33.04 C9.42 23.85, 17.41 14.66, 28.98 1.35 M3.79 36.42 C10.77 28.39, 17.75 20.37, 31.35 4.72 M3.79 36.42 C9.33 30.05, 14.86 23.69, 31.35 4.72 M8.78 36.78 C15.33 29.25, 21.88 21.72, 31.09 11.12 M8.78 36.78 C17.03 27.29, 25.28 17.8, 31.09 11.12 M14.42 36.39 C18.86 31.28, 23.3 26.18, 31.48 16.77 M14.42 36.39 C19.76 30.25, 25.1 24.11, 31.48 16.77 M19.41 36.75 C23.63 31.9, 27.85 27.04, 31.88 22.41 M19.41 36.75 C22.88 32.76, 26.34 28.78, 31.88 22.41 M25.05 36.35 C27.43 33.62, 29.8 30.89, 31.61 28.81 M25.05 36.35 C27.57 33.46, 30.08 30.57, 31.61 28.81 M1.72 34.61 C1.72 34.61, 1.72 34.61, 1.72 34.61 M1.72 34.61 C1.72 34.61, 1.72 34.61, 1.72 34.61 M9.62 36.18 C7.8 34.59, 5.97 33.01, 0.57 28.31 M9.62 36.18 C7.26 34.12, 4.89 32.06, 0.57 28.31 M15.27 35.79 C11.08 32.15, 6.89 28.51, 0.93 23.32 M15.27 35.79 C11.57 32.57, 7.88 29.36, 0.93 23.32 M21.67 36.05 C17.39 32.33, 13.11 28.61, 0.53 17.68 M21.67 36.05 C15 30.25, 8.33 24.45, 0.53 17.68 M27.31 35.65 C18.1 27.65, 8.89 19.64, 0.89 12.69 M27.31 35.65 C17.65 27.26, 7.99 18.86, 0.89 12.69 M30.69 33.29 C19.51 23.58, 8.34 13.87, 0.5 7.05 M30.69 33.29 C23.66 27.18, 16.62 21.06, 0.5 7.05 M31.8 28.96 C19.95 18.66, 8.1 8.35, 1.61 2.72 M31.8 28.96 C20.48 19.12, 9.17 9.28, 1.61 2.72 M31.41 23.32 C23.73 16.64, 16.05 9.96, 4.99 0.35 M31.41 23.32 C25.62 18.28, 19.83 13.25, 4.99 0.35 M31.01 17.67 C23.6 11.23, 16.19 4.79, 9.88 -0.7 M31.01 17.67 C24.67 12.15, 18.32 6.64, 9.88 -0.7 M31.37 12.69 C26.36 8.33, 21.34 3.97, 16.28 -0.44 M31.37 12.69 C25.36 7.46, 19.34 2.22, 16.28 -0.44 M30.98 7.04 C28.23 4.65, 25.47 2.26, 22.68 -0.17 M30.98 7.04 C28.69 5.05, 26.4 3.06, 22.68 -0.17" stroke="#a5d8ff" stroke-width="0.5" fill="none"></path><path d="M7.82 0 C12.46 0, 17.09 0, 23.46 0 M7.82 0 C11.26 0, 14.69 0, 23.46 0 M23.46 0 C28.67 0, 31.28 2.61, 31.28 7.82 M23.46 0 C28.67 0, 31.28 2.61, 31.28 7.82 M31.28 7.82 C31.28 12.56, 31.28 17.3, 31.28 28.95 M31.28 7.82 C31.28 15.68, 31.28 23.53, 31.28 28.95 M31.28 28.95 C31.28 34.16, 28.67 36.77, 23.46 36.77 M31.28 28.95 C31.28 34.16, 28.67 36.77, 23.46 36.77 M23.46 36.77 C18.26 36.77, 13.05 36.77, 7.82 36.77 M23.46 36.77 C19.2 36.77, 14.95 36.77, 7.82 36.77 M7.82 36.77 C2.61 36.77, 0 34.16, 0 28.95 M7.82 36.77 C2.61 36.77, 0 34.16, 0 28.95 M0 28.95 C0 22.03, 0 15.12, 0 7.82 M0 28.95 C0 22.46, 0 15.98, 0 7.82 M0 7.82 C0 2.61, 2.61 0, 7.82 0 M0 7.82 C0 2.61, 2.61 0, 7.82 0" stroke="#1971c2" stroke-width="1" fill="none"></path></g><g transform="translate(40.99750932911411 143.1988115815646) rotate(0 9.375 9.600000000000023)"><text x="9.375" y="0" font-family="Cascadia, Segoe UI Emoji" font-size="16px" fill="#1971c2" text-anchor="middle" style="white-space: pre;" direction="ltr" dominant-baseline="text-before-edge">33</text></g><g stroke-linecap="round" transform="translate(80.25848355663311 134.4147463163327) rotate(0 15.640164772479238 18.384065265231868)"><path d="M7.82 0 C11.46 0, 15.11 0, 23.46 0 M7.82 0 C12.51 0, 17.21 0, 23.46 0 M23.46 0 C28.67 0, 31.28 2.61, 31.28 7.82 M23.46 0 C28.67 0, 31.28 2.61, 31.28 7.82 M31.28 7.82 C31.28 16.03, 31.28 24.24, 31.28 28.95 M31.28 7.82 C31.28 12.68, 31.28 17.54, 31.28 28.95 M31.28 28.95 C31.28 34.16, 28.67 36.77, 23.46 36.77 M31.28 28.95 C31.28 34.16, 28.67 36.77, 23.46 36.77 M23.46 36.77 C18.24 36.77, 13.02 36.77, 7.82 36.77 M23.46 36.77 C18.28 36.77, 13.1 36.77, 7.82 36.77 M7.82 36.77 C2.61 36.77, 0 34.16, 0 28.95 M7.82 36.77 C2.61 36.77, 0 34.16, 0 28.95 M0 28.95 C0 22.2, 0 15.45, 0 7.82 M0 28.95 C0 22.45, 0 15.96, 0 7.82 M0 7.82 C0 2.61, 2.61 0, 7.82 0 M0 7.82 C0 2.61, 2.61 0, 7.82 0" stroke="#1971c2" stroke-width="1" fill="none"></path></g><g transform="translate(86.5236483291119 143.1988115815646) rotate(0 9.375 9.600000000000023)"><text x="9.375" y="0" font-family="Cascadia, Segoe UI Emoji" font-size="16px" fill="#1971c2" text-anchor="middle" style="white-space: pre;" direction="ltr" dominant-baseline="text-before-edge">21</text></g><g stroke-linecap="round" transform="translate(125.78462255663453 134.41474631633247) rotate(0 15.640164772479238 18.384065265231868)"><path d="M7.82 0 C12.64 0, 17.45 0, 23.46 0 M7.82 0 C12.29 0, 16.76 0, 23.46 0 M23.46 0 C28.67 0, 31.28 2.61, 31.28 7.82 M23.46 0 C28.67 0, 31.28 2.61, 31.28 7.82 M31.28 7.82 C31.28 15.88, 31.28 23.94, 31.28 28.95 M31.28 7.82 C31.28 15.33, 31.28 22.84, 31.28 28.95 M31.28 28.95 C31.28 34.16, 28.67 36.77, 23.46 36.77 M31.28 28.95 C31.28 34.16, 28.67 36.77, 23.46 36.77 M23.46 36.77 C18.37 36.77, 13.29 36.77, 7.82 36.77 M23.46 36.77 C18.36 36.77, 13.25 36.77, 7.82 36.77 M7.82 36.77 C2.61 36.77, 0 34.16, 0 28.95 M7.82 36.77 C2.61 36.77, 0 34.16, 0 28.95 M0 28.95 C0 22.95, 0 16.95, 0 7.82 M0 28.95 C0 22.7, 0 16.45, 0 7.82 M0 7.82 C0 2.61, 2.61 0, 7.82 0 M0 7.82 C0 2.61, 2.61 0, 7.82 0" stroke="#1971c2" stroke-width="1" fill="none"></path></g><g transform="translate(132.04978732911331 143.19881158156437) rotate(0 9.375 9.600000000000023)"><text x="9.375" y="0" font-family="Cascadia, Segoe UI Emoji" font-size="16px" fill="#1971c2" text-anchor="middle" style="white-space: pre;" direction="ltr" dominant-baseline="text-before-edge">54</text></g><g stroke-linecap="round" transform="translate(171.31076155663504 134.41474631633247) rotate(0 15.640164772479238 18.384065265231868)"><path d="M7.82 0 C13.61 0, 19.4 0, 23.46 0 M7.82 0 C11.98 0, 16.13 0, 23.46 0 M23.46 0 C28.67 0, 31.28 2.61, 31.28 7.82 M23.46 0 C28.67 0, 31.28 2.61, 31.28 7.82 M31.28 7.82 C31.28 13.9, 31.28 19.97, 31.28 28.95 M31.28 7.82 C31.28 14.15, 31.28 20.48, 31.28 28.95 M31.28 28.95 C31.28 34.16, 28.67 36.77, 23.46 36.77 M31.28 28.95 C31.28 34.16, 28.67 36.77, 23.46 36.77 M23.46 36.77 C19.59 36.77, 15.72 36.77, 7.82 36.77 M23.46 36.77 C17.23 36.77, 11 36.77, 7.82 36.77 M7.82 36.77 C2.61 36.77, 0 34.16, 0 28.95 M7.82 36.77 C2.61 36.77, 0 34.16, 0 28.95 M0 28.95 C0 23.89, 0 18.83, 0 7.82 M0 28.95 C0 22.58, 0 16.2, 0 7.82 M0 7.82 C0 2.61, 2.61 0, 7.82 0 M0 7.82 C0 2.61, 2.61 0, 7.82 0" stroke="#1971c2" stroke-width="1" fill="none"></path></g><g transform="translate(182.26342632911383 143.19881158156437) rotate(0 4.6875 9.600000000000023)"><text x="4.6875" y="0" font-family="Cascadia, Segoe UI Emoji" font-size="16px" fill="#1971c2" text-anchor="middle" style="white-space: pre;" direction="ltr" dominant-baseline="text-before-edge">1</text></g><g transform="translate(43.0313845791743 100.51997671698439) rotate(0 7.341125341676161 13.337805727373592)"><text x="0" y="0" font-family="Virgil, Segoe UI Emoji" font-size="21.3404891637977px" fill="#1e1e1e" text-anchor="start" style="white-space: pre;" direction="ltr" dominant-baseline="text-before-edge">0</text></g><g transform="translate(88.7019545791727 100.51997671698422) rotate(0 2.8915634155273438 13.337805727373564)"><text x="0" y="0" font-family="Virgil, Segoe UI Emoji" font-size="21.3404891637977px" fill="#1e1e1e" text-anchor="start" style="white-space: pre;" direction="ltr" dominant-baseline="text-before-edge">1</text></g><g transform="translate(133.82774957917354 100.5199767169841) rotate(0 7.597038269042969 13.337805727373564)"><text x="0" y="0" font-family="Virgil, Segoe UI Emoji" font-size="21.3404891637977px" fill="#1e1e1e" text-anchor="start" style="white-space: pre;" direction="ltr" dominant-baseline="text-before-edge">2</text></g><g transform="translate(179.6846605791743 100.51997671698405) rotate(0 7.266265869140625 13.337805727373535)"><text x="0" y="0" font-family="Virgil, Segoe UI Emoji" font-size="21.3404891637977px" fill="#1e1e1e" text-anchor="start" style="white-space: pre;" direction="ltr" dominant-baseline="text-before-edge">3</text></g><g transform="translate(96.48774730496825 27.819885451376763) rotate(0 29.296875 12)"><text x="0" y="0" font-family="Cascadia, Segoe UI Emoji" font-size="20px" fill="#1e1e1e" text-anchor="start" style="white-space: pre;" direction="ltr" dominant-baseline="text-before-edge">Array</text></g><g transform="translate(87.49752630496914 70.15506958671995) rotate(0 23.4375 9.599999999999994)"><text x="0" y="0" font-family="Cascadia, Segoe UI Emoji" font-size="16px" fill="#1e1e1e" text-anchor="start" style="white-space: pre;" direction="ltr" dominant-baseline="text-before-edge">Index</text></g><g stroke-linecap="round"><g transform="translate(229.09623722840115 27.78796675128217) rotate(0 0.5374316221800655 99.01795782723266)"><path d="M0.28 0.03 C0.59 33.25, 1.03 165.83, 1 198.78" stroke="#1e1e1e" stroke-width="1.5" fill="none" stroke-dasharray="8 9"></path></g></g><mask></mask><g transform="translate(247.80157797613174 39.44216017501623) rotate(0 107.8125 9.599999999999994)"><text x="0" y="0" font-family="Cascadia, Segoe UI Emoji" font-size="16px" fill="#e03131" text-anchor="start" style="white-space: pre;" direction="ltr" dominant-baseline="text-before-edge">int arr[] = { 10, 20 };</text></g><g transform="translate(247.80157797613083 85.90022117501616) rotate(0 56.25 9.599999999999994)"><text x="0" y="0" font-family="Cascadia, Segoe UI Emoji" font-size="16px" fill="#1e1e1e" text-anchor="start" style="white-space: pre;" direction="ltr" dominant-baseline="text-before-edge">int len = 2;</text></g><g transform="translate(247.80157704093745 132.3582827650592) rotate(0 89.0625 9.600000000000023)"><text x="0" y="0" font-family="Cascadia, Segoe UI Emoji" font-size="16px" fill="#1e1e1e" text-anchor="start" style="white-space: pre;" direction="ltr" dominant-baseline="text-before-edge">cout&lt;&lt;arr[0]&lt;&lt;endl;</text></g><g transform="translate(247.80157704093654 175.92964476505932) rotate(0 98.4375 9.600000000000023)"><text x="0" y="0" font-family="Cascadia, Segoe UI Emoji" font-size="16px" fill="#1971c2" text-anchor="start" style="white-space: pre;" direction="ltr" dominant-baseline="text-before-edge">sort(arr, arr + len);</text></g><g stroke-linecap="round"><g transform="translate(82.85671717491914 80.5710048454838) rotate(0 -13.419868327519907 9.353968658857696)"><path d="M0.15 0.71 C-1.84 0.43, -9.65 -2.46, -14.11 0.22 C-18.56 2.91, -24.7 13.84, -26.58 16.8 M-3.21 -1.37 C-5.45 -1.38, -12.61 0.25, -16.78 3.63 C-20.95 7, -27.04 16.12, -28.24 18.88" stroke="#1971c2" stroke-width="1" fill="none"></path></g><g transform="translate(82.85671717491914 80.5710048454838) rotate(0 -13.419868327519907 9.353968658857696)"><path d="M-25.74 7.12 C-26.93 10.44, -28.56 13.86, -28.83 17.5 M-27.16 7.77 C-27.96 11.99, -27.23 14.02, -27.34 18.27" stroke="#1971c2" stroke-width="1" fill="none"></path></g><g transform="translate(82.85671717491914 80.5710048454838) rotate(0 -13.419868327519907 9.353968658857696)"><path d="M-19.05 10.96 C-21.77 13.43, -24.88 16, -28.83 17.5 M-20.46 11.61 C-23.14 14.78, -24.29 15.73, -27.34 18.27" stroke="#1971c2" stroke-width="1" fill="none"></path></g></g><mask></mask><g transform="translate(91.59351857749152 185.5296448210218) rotate(0 23.4375 9.600000000000023)"><text x="0" y="0" font-family="Cascadia, Segoe UI Emoji" font-size="16px" fill="#1971c2" text-anchor="start" style="white-space: pre;" direction="ltr" dominant-baseline="text-before-edge">Value</text></g><g stroke-linecap="round"><g transform="translate(89.29748292607565 195.35696955108898) rotate(0 -13.67652858786687 -9.857285559662557)"><path d="M0 0 C-3.01 -0.35, -13.53 1.18, -18.09 -2.11 C-22.65 -5.4, -25.81 -16.78, -27.35 -19.71 M0 0 C-3.01 -0.35, -13.53 1.18, -18.09 -2.11 C-22.65 -5.4, -25.81 -16.78, -27.35 -19.71" stroke="#2f9e44" stroke-width="1" fill="none"></path></g><g transform="translate(89.29748292607565 195.35696955108898) rotate(0 -13.67652858786687 -9.857285559662557)"><path d="M-20.68 -12.34 C-22.89 -14.78, -25.09 -17.22, -27.35 -19.71 M-20.68 -12.34 C-22.03 -13.83, -23.37 -15.32, -27.35 -19.71" stroke="#2f9e44" stroke-width="1" fill="none"></path></g><g transform="translate(89.29748292607565 195.35696955108898) rotate(0 -13.67652858786687 -9.857285559662557)"><path d="M-26.98 -9.77 C-27.1 -13.06, -27.23 -16.35, -27.35 -19.71 M-26.98 -9.77 C-27.06 -11.78, -27.13 -13.79, -27.35 -19.71" stroke="#2f9e44" stroke-width="1" fill="none"></path></g></g><mask></mask><g stroke-opacity="0" fill-opacity="0" stroke-linecap="round" transform="translate(10 10) rotate(0 229.88133302528877 108.28564569304822)"><path d="M32 0 C178.73 0, 325.47 0, 427.76 0 M32 0 C159.14 0, 286.27 0, 427.76 0 M427.76 0 C449.1 0, 459.76 10.67, 459.76 32 M427.76 0 C449.1 0, 459.76 10.67, 459.76 32 M459.76 32 C459.76 91.06, 459.76 150.12, 459.76 184.57 M459.76 32 C459.76 74.31, 459.76 116.62, 459.76 184.57 M459.76 184.57 C459.76 205.9, 449.1 216.57, 427.76 216.57 M459.76 184.57 C459.76 205.9, 449.1 216.57, 427.76 216.57 M427.76 216.57 C337.8 216.57, 247.84 216.57, 32 216.57 M427.76 216.57 C328.73 216.57, 229.69 216.57, 32 216.57 M32 216.57 C10.67 216.57, 0 205.9, 0 184.57 M32 216.57 C10.67 216.57, 0 205.9, 0 184.57 M0 184.57 C0 127.48, 0 70.39, 0 32 M0 184.57 C0 136.04, 0 87.51, 0 32 M0 32 C0 10.67, 10.67 0, 32 0 M0 32 C0 10.67, 10.67 0, 32 0" stroke="#1e1e1e" stroke-width="1" fill="none"></path></g></svg>