<svg version="1.1" xmlns="http://www.w3.org/2000/svg" viewBox="0 0 535.7842449951895 267.16738474647315" width="1607.3527349855685" height="801.5021542394195">
  <!-- svg-source:excalidraw -->
  
  <defs>
    <style class="style-fonts">
      @font-face {
        font-family: "Virgil";
        src: url("https://excalidraw.com/Virgil.woff2");
      }
      @font-face {
        font-family: "Cascadia";
        src: url("https://excalidraw.com/Cascadia.woff2");
      }
      @font-face {
        font-family: "Assistant";
        src: url("https://excalidraw.com/Assistant-Regular.woff2");
      }
    </style>
    
  </defs>
  <rect x="0" y="0" width="535.7842449951895" height="267.16738474647315" fill="#ffffff"></rect><g stroke-opacity="0.6" fill-opacity="0.6" stroke-linecap="round" transform="translate(10 129.62052528769618) rotate(0 20.786951754286747 18.79863738808288)"><path d="M0.33 5.59 C0.33 5.59, 0.33 5.59, 0.33 5.59 M0.33 5.59 C0.33 5.59, 0.33 5.59, 0.33 5.59 M0.72 11.23 C3.94 7.57, 4.68 5.19, 9.91 0.66 M0.72 11.23 C2.71 8.28, 4.85 5.74, 9.91 0.66 M0.46 17.63 C5.54 13.75, 9.33 8.01, 15.55 0.27 M0.46 17.63 C6.34 11.95, 10.05 5.91, 15.55 0.27 M0.2 24.02 C7.42 17.13, 12.81 8.75, 20.54 0.63 M0.2 24.02 C8.52 15.21, 15.77 7.5, 20.54 0.63 M0.59 29.67 C10.98 20.95, 17.12 8.29, 26.18 0.23 M0.59 29.67 C9.18 19.45, 18.73 8.97, 26.18 0.23 M2.3 33.8 C7.26 25.52, 15.07 20.04, 31.17 0.59 M2.3 33.8 C13.22 22.15, 23.62 9.67, 31.17 0.59 M5.32 36.42 C15.75 23.02, 23.87 11.01, 35.5 1.71 M5.32 36.42 C10.58 30.16, 17.2 22.3, 35.5 1.71 M9.65 37.54 C20.46 24.88, 31.02 13.19, 39.83 2.82 M9.65 37.54 C16.69 29.02, 24.98 18.32, 39.83 2.82 M14.64 37.9 C21.76 32.39, 25.93 25.52, 41.54 6.96 M14.64 37.9 C20.23 31.19, 26.27 25.04, 41.54 6.96 M20.28 37.51 C26.93 31.4, 31.75 22.56, 41.93 12.6 M20.28 37.51 C28.14 28.59, 34.92 19.84, 41.93 12.6 M25.27 37.87 C28.47 34.98, 32.35 29.78, 41.67 19 M25.27 37.87 C29.12 33.45, 33.9 28.11, 41.67 19 M30.91 37.47 C34.72 33.01, 37.53 32.86, 42.06 24.64 M30.91 37.47 C33.97 33.98, 36.7 30.07, 42.06 24.64 M36.55 37.08 C37.22 35.98, 38.69 34.41, 39.83 33.3 M36.55 37.08 C37.12 36.06, 38.11 35.51, 39.83 33.3" stroke="#e03131" stroke-width="0.5" fill="none"></path><path d="M9.4 0 C13.94 -0.76, 20.52 1.94, 32.17 0 M9.4 0 C16.56 -0.06, 25.27 1.06, 32.17 0 M32.17 0 C39.05 -0.76, 41.12 3.13, 41.57 9.4 M32.17 0 C40.25 2.21, 43.09 2.84, 41.57 9.4 M41.57 9.4 C39.75 17.49, 43.18 22.67, 41.57 28.2 M41.57 9.4 C42.31 14.1, 42.21 17.78, 41.57 28.2 M41.57 28.2 C41.41 35.39, 37.74 39.31, 32.17 37.6 M41.57 28.2 C42.38 32.29, 39.77 39.02, 32.17 37.6 M32.17 37.6 C25.91 37, 21.99 38.62, 9.4 37.6 M32.17 37.6 C25.7 37.9, 19.24 37.07, 9.4 37.6 M9.4 37.6 C2.16 39.48, 0.63 35.82, 0 28.2 M9.4 37.6 C3.33 39.15, 0.02 32.85, 0 28.2 M0 28.2 C1.13 23.13, -0.52 17.43, 0 9.4 M0 28.2 C-0.48 23.22, -0.21 17.95, 0 9.4 M0 9.4 C1.61 4.07, 2.14 1.58, 9.4 0 M0 9.4 C2.03 2.95, 3.41 -0.73, 9.4 0" stroke="#fa5252" stroke-width="1" fill="none"></path></g><g stroke-opacity="0.6" fill-opacity="0.6" stroke-linecap="round" transform="translate(59.40483579827742 130.58272017713674) rotate(0 20.786951754286747 18.79863738808288)"><path d="M0.33 5.59 C0.33 5.59, 0.33 5.59, 0.33 5.59 M0.33 5.59 C0.33 5.59, 0.33 5.59, 0.33 5.59 M0.72 11.23 C2.87 9.06, 3.74 6.33, 9.91 0.66 M0.72 11.23 C4.07 7.84, 6.76 4.44, 9.91 0.66 M0.46 17.63 C4.76 11.04, 13.66 4.11, 15.55 0.27 M0.46 17.63 C3.48 13.29, 8.06 8.69, 15.55 0.27 M0.2 24.02 C3.95 19.68, 9.4 11.57, 20.54 0.63 M0.2 24.02 C8.08 15.17, 15.12 6.58, 20.54 0.63 M0.59 29.67 C10.11 22.32, 15.72 13.34, 26.18 0.23 M0.59 29.67 C6.42 22.14, 12 16.21, 26.18 0.23 M2.3 33.8 C14.79 18.91, 23.63 8.89, 31.17 0.59 M2.3 33.8 C11.6 24.5, 19.88 14.03, 31.17 0.59 M5.32 36.42 C13.22 26.5, 20.99 22.17, 35.5 1.71 M5.32 36.42 C14.27 24.91, 23.24 15.8, 35.5 1.71 M9.65 37.54 C21.11 27.89, 30.91 16.75, 39.83 2.82 M9.65 37.54 C21.7 23.96, 32.72 9.85, 39.83 2.82 M14.64 37.9 C19.87 32.76, 26.47 27.14, 41.54 6.96 M14.64 37.9 C20.93 29.92, 27.8 23.36, 41.54 6.96 M20.28 37.51 C22.78 30.72, 29.76 26.98, 41.93 12.6 M20.28 37.51 C28 28.85, 34.35 22.28, 41.93 12.6 M25.27 37.87 C28.66 34.92, 31.31 28.59, 41.67 19 M25.27 37.87 C30.77 32.37, 36.45 24.96, 41.67 19 M30.91 37.47 C34.85 33.31, 38.16 28.5, 42.06 24.64 M30.91 37.47 C33.77 33.12, 38.88 29.12, 42.06 24.64 M36.55 37.08 C37.8 36.38, 38.87 34.28, 39.83 33.3 M36.55 37.08 C37.26 35.93, 38.48 34.87, 39.83 33.3" stroke="#e03131" stroke-width="0.5" fill="none"></path><path d="M9.4 0 C17.46 -0.92, 25.67 1.18, 32.17 0 M9.4 0 C13.9 -0.39, 20.49 -0.1, 32.17 0 M32.17 0 C36.99 -0.19, 39.68 2.64, 41.57 9.4 M32.17 0 C38.23 -1.48, 42.61 4.06, 41.57 9.4 M41.57 9.4 C41.37 14.18, 43.19 21.62, 41.57 28.2 M41.57 9.4 C42.04 14.21, 41.52 19.81, 41.57 28.2 M41.57 28.2 C39.66 36.04, 39.73 37.91, 32.17 37.6 M41.57 28.2 C42 36.63, 37.88 39.39, 32.17 37.6 M32.17 37.6 C23.67 38.63, 17.49 35.78, 9.4 37.6 M32.17 37.6 C27.04 37.46, 20.34 38.16, 9.4 37.6 M9.4 37.6 C2.9 35.73, -0.8 35.33, 0 28.2 M9.4 37.6 C1.82 36.11, 0.8 34.57, 0 28.2 M0 28.2 C1.11 21.77, 1.33 13.85, 0 9.4 M0 28.2 C0.06 20.99, -0.95 14.5, 0 9.4 M0 9.4 C-1.98 2.21, 1.91 -1.93, 9.4 0 M0 9.4 C1.21 2.2, 2.3 1.41, 9.4 0" stroke="#fa5252" stroke-width="1" fill="none"></path></g><g stroke-opacity="0.6" fill-opacity="0.6" stroke-linecap="round" transform="translate(110.25569834929047 130.4603812114294) rotate(0 20.786951754286747 18.79863738808288)"><path d="M0.33 5.59 C0.33 5.59, 0.33 5.59, 0.33 5.59 M0.33 5.59 C0.33 5.59, 0.33 5.59, 0.33 5.59 M0.72 11.23 C3.66 7.66, 6.4 4.12, 9.91 0.66 M0.72 11.23 C4 7.04, 7.4 2.48, 9.91 0.66 M0.46 17.63 C2.65 14.27, 8.56 11.53, 15.55 0.27 M0.46 17.63 C6.46 11.39, 11.94 4.69, 15.55 0.27 M0.2 24.02 C3.69 17.13, 10.1 13.32, 20.54 0.63 M0.2 24.02 C6.23 16.43, 13.04 8.23, 20.54 0.63 M0.59 29.67 C9.17 19.52, 14.92 9.4, 26.18 0.23 M0.59 29.67 C8.37 19.64, 18.17 9.43, 26.18 0.23 M2.3 33.8 C10.26 22.84, 21.57 12.59, 31.17 0.59 M2.3 33.8 C10.36 24.38, 18.03 16.72, 31.17 0.59 M5.32 36.42 C16.13 25.98, 26.23 13.07, 35.5 1.71 M5.32 36.42 C14.05 24.66, 23.18 14.48, 35.5 1.71 M9.65 37.54 C22.37 22.06, 34.33 12.16, 39.83 2.82 M9.65 37.54 C21.68 24.94, 30.98 12.26, 39.83 2.82 M14.64 37.9 C24.04 26.61, 32.05 17.39, 41.54 6.96 M14.64 37.9 C24.16 28.42, 31.85 18.09, 41.54 6.96 M20.28 37.51 C26.1 32.13, 30.3 25.57, 41.93 12.6 M20.28 37.51 C28.56 28.68, 34.79 20.69, 41.93 12.6 M25.27 37.87 C29.88 31.35, 37.75 22.97, 41.67 19 M25.27 37.87 C30.58 32.25, 35.66 24.57, 41.67 19 M30.91 37.47 C32.72 32.22, 38.4 30.25, 42.06 24.64 M30.91 37.47 C34.15 33.73, 37.99 28.48, 42.06 24.64 M36.55 37.08 C37.59 36.28, 39.24 34.04, 39.83 33.3 M36.55 37.08 C37.47 35.82, 38.85 34.68, 39.83 33.3" stroke="#e03131" stroke-width="0.5" fill="none"></path><path d="M9.4 0 C17.36 -1.05, 23.37 1.66, 32.17 0 M9.4 0 C14.34 -0.77, 19.97 -0.26, 32.17 0 M32.17 0 C37.22 -1.93, 42.62 2.32, 41.57 9.4 M32.17 0 C37.6 1.41, 39.96 4.15, 41.57 9.4 M41.57 9.4 C42.38 14.18, 42.81 19.6, 41.57 28.2 M41.57 9.4 C41.31 12.49, 42.24 16.66, 41.57 28.2 M41.57 28.2 C43.16 35.35, 38.5 38.17, 32.17 37.6 M41.57 28.2 C39.45 34.78, 39.07 37.7, 32.17 37.6 M32.17 37.6 C25.89 37.92, 21.37 37.71, 9.4 37.6 M32.17 37.6 C24.05 37.83, 14.34 37.72, 9.4 37.6 M9.4 37.6 C3.18 35.61, 0.59 33.61, 0 28.2 M9.4 37.6 C3.85 36.29, -1.11 36.62, 0 28.2 M0 28.2 C-0.97 25.29, -1.05 20.52, 0 9.4 M0 28.2 C0.4 22.62, 0.65 15.98, 0 9.4 M0 9.4 C1.67 4.84, 2.37 1.99, 9.4 0 M0 9.4 C-1.67 3.85, 2.56 0.22, 9.4 0" stroke="#fa5252" stroke-width="1" fill="none"></path></g><g stroke-opacity="0.6" fill-opacity="0.6" stroke-linecap="round" transform="translate(161.46809516968005 129.61501507875806) rotate(0 20.786951754286747 18.79863738808288)"><path d="M0.33 5.59 C0.33 5.59, 0.33 5.59, 0.33 5.59 M0.33 5.59 C0.33 5.59, 0.33 5.59, 0.33 5.59 M0.72 11.23 C1.74 9.56, 5.78 5.17, 9.91 0.66 M0.72 11.23 C2.87 8.43, 4.46 5.53, 9.91 0.66 M0.46 17.63 C6.16 10.41, 11.66 3.96, 15.55 0.27 M0.46 17.63 C4.94 12.11, 11.82 4.5, 15.55 0.27 M0.2 24.02 C7.08 15.61, 15.28 8.65, 20.54 0.63 M0.2 24.02 C5.86 16.16, 12.48 9.97, 20.54 0.63 M0.59 29.67 C7.28 24.05, 13.49 14.8, 26.18 0.23 M0.59 29.67 C5.21 23.21, 11.94 17.93, 26.18 0.23 M2.3 33.8 C10.42 24.45, 15.48 19.22, 31.17 0.59 M2.3 33.8 C11.55 24.4, 19.06 14.26, 31.17 0.59 M5.32 36.42 C10.13 28.8, 17.53 21.98, 35.5 1.71 M5.32 36.42 C14.87 25.75, 22.35 17.19, 35.5 1.71 M9.65 37.54 C17.24 28.3, 22.01 20.91, 39.83 2.82 M9.65 37.54 C21.38 23.58, 33.25 10.9, 39.83 2.82 M14.64 37.9 C19.91 31.27, 29.84 22.2, 41.54 6.96 M14.64 37.9 C25.37 25.15, 36.27 13.1, 41.54 6.96 M20.28 37.51 C25.58 32.01, 32.14 22.84, 41.93 12.6 M20.28 37.51 C26.83 29.58, 35.42 20.64, 41.93 12.6 M25.27 37.87 C27.6 34.85, 34.78 28.98, 41.67 19 M25.27 37.87 C30.35 30.44, 35.53 23.9, 41.67 19 M30.91 37.47 C33.5 33.6, 35.95 30.01, 42.06 24.64 M30.91 37.47 C35 33.9, 37.48 29.74, 42.06 24.64 M36.55 37.08 C38.11 35.6, 38.86 33.82, 39.83 33.3 M36.55 37.08 C37.8 35.93, 38.55 34.48, 39.83 33.3" stroke="#e03131" stroke-width="0.5" fill="none"></path><path d="M9.4 0 C14.32 0.49, 18.96 0.5, 32.17 0 M9.4 0 C15.87 1.12, 20.73 -0.01, 32.17 0 M32.17 0 C38.11 -0.85, 39.84 1.61, 41.57 9.4 M32.17 0 C40.1 0.57, 40.35 3.79, 41.57 9.4 M41.57 9.4 C43.48 18.16, 42.72 24.15, 41.57 28.2 M41.57 9.4 C41.31 14.86, 40.77 21.59, 41.57 28.2 M41.57 28.2 C41.02 35.51, 38.98 39.36, 32.17 37.6 M41.57 28.2 C40.16 33.5, 38.29 37, 32.17 37.6 M32.17 37.6 C24.89 38.12, 20.31 35.71, 9.4 37.6 M32.17 37.6 C27.43 36.92, 22.07 38.35, 9.4 37.6 M9.4 37.6 C1.25 38.32, 0.56 32.47, 0 28.2 M9.4 37.6 C1.23 37.5, -0.06 35.41, 0 28.2 M0 28.2 C0.36 22.25, 0.34 19.45, 0 9.4 M0 28.2 C0.33 22.49, 0.32 15.58, 0 9.4 M0 9.4 C0.18 2.32, 3.5 -1.47, 9.4 0 M0 9.4 C-2.28 1, 2.11 2.09, 9.4 0" stroke="#fa5252" stroke-width="1" fill="none"></path></g><g stroke-opacity="0.6" fill-opacity="0.6" stroke-linecap="round" transform="translate(242.45785021030042 66.42971333967115) rotate(0 20.786951754286747 18.79863738808288)"><path d="M0.33 5.59 C0.33 5.59, 0.33 5.59, 0.33 5.59 M0.33 5.59 C0.33 5.59, 0.33 5.59, 0.33 5.59 M0.72 11.23 C3.15 7.62, 7.4 6.38, 9.91 0.66 M0.72 11.23 C2.54 8.54, 4.69 6.15, 9.91 0.66 M0.46 17.63 C5.6 13.23, 8.58 10.36, 15.55 0.27 M0.46 17.63 C3.09 14.28, 7 9.47, 15.55 0.27 M0.2 24.02 C9.26 16.15, 13.05 7.45, 20.54 0.63 M0.2 24.02 C4.42 19.69, 9.43 13.26, 20.54 0.63 M1.25 28.91 C10.41 19.31, 18.31 8.01, 26.18 0.23 M1.25 28.91 C8.48 19.03, 17.79 9.58, 26.18 0.23 M2.3 33.8 C14.03 22.34, 23.49 7.39, 31.17 0.59 M2.3 33.8 C8.51 27.47, 13.8 20.03, 31.17 0.59 M4.66 37.18 C13.49 25.08, 23.84 18.76, 34.84 2.46 M4.66 37.18 C15.17 26.93, 23.13 15.6, 34.84 2.46 M9.65 37.54 C18.64 26.54, 28.16 19.54, 39.83 2.82 M9.65 37.54 C18.87 27.64, 29.59 16.44, 39.83 2.82 M14.64 37.9 C24.09 28.88, 29.49 20.23, 41.54 6.96 M14.64 37.9 C23.82 28.08, 30.71 19.13, 41.54 6.96 M20.28 37.51 C26.82 29.2, 34.83 22.23, 43.24 11.09 M20.28 37.51 C27.84 29.68, 34.46 22.51, 43.24 11.09 M25.27 37.87 C31.09 32.35, 38.45 22.8, 43.64 16.73 M25.27 37.87 C31.63 30.86, 37.76 24.57, 43.64 16.73 M30.91 37.47 C34.64 34.19, 36.21 30.36, 43.38 23.13 M30.91 37.47 C34.61 34.04, 37.29 30.67, 43.38 23.13 M34.59 39.34 C37.09 37.36, 39.34 33.91, 43.11 29.53 M34.59 39.34 C36.76 36.66, 38.47 34.22, 43.11 29.53" stroke="#228be6" stroke-width="0.5" fill="none"></path><path d="M9.4 0 C16.33 0.42, 20.72 0.12, 32.17 0 M9.4 0 C14.32 -0.76, 20.77 1.08, 32.17 0 M32.17 0 C37.75 0.21, 42.38 1.26, 41.57 9.4 M32.17 0 C39.56 2.06, 42.93 0.91, 41.57 9.4 M41.57 9.4 C40.46 13.79, 42.82 18.84, 41.57 28.2 M41.57 9.4 C40.6 15.03, 41.7 18.83, 41.57 28.2 M41.57 28.2 C40.41 36.18, 38.82 37.63, 32.17 37.6 M41.57 28.2 C40.83 32.46, 36.56 38.59, 32.17 37.6 M32.17 37.6 C22.94 38.6, 14.45 38.67, 9.4 37.6 M32.17 37.6 C24.62 38.32, 14.99 37.93, 9.4 37.6 M9.4 37.6 C1.19 38.49, -0.45 34.31, 0 28.2 M9.4 37.6 C3.89 38.81, -0.04 34.35, 0 28.2 M0 28.2 C0.33 21.39, -1.29 12.58, 0 9.4 M0 28.2 C0.4 23.22, -0.93 18.98, 0 9.4 M0 9.4 C1.48 1.24, 2.79 0.97, 9.4 0 M0 9.4 C1.46 1.33, 2.75 2.28, 9.4 0" stroke="#1971c2" stroke-width="1" fill="none"></path></g><g stroke-linecap="round"><g stroke-opacity="0.6" fill-opacity="0.6" transform="translate(263.26229917397177 116.17604500849868) rotate(0 -24.88300217251981 16.46669097193346)"><path d="M0.62 -0.19 C-2.92 4.21, -11.97 20.75, -20.52 26.15 C-29.06 31.54, -45.77 31.17, -50.65 32.17 M-0.52 -1.34 C-4.3 2.76, -13.72 18.76, -21.67 24.5 C-29.62 30.24, -43.57 31.7, -48.22 33.09" stroke="#1971c2" stroke-width="1" fill="none"></path></g><g stroke-opacity="0.6" fill-opacity="0.6" transform="translate(263.26229917397177 116.17604500849868) rotate(0 -24.88300217251981 16.46669097193346)"><path d="M-35.3 24.88 C-40.18 27.38, -43.41 29.69, -48.22 33.09 M-35.3 24.88 C-38.05 27.38, -41.94 28.69, -48.22 33.09" stroke="#1971c2" stroke-width="1" fill="none"></path></g><g stroke-opacity="0.6" fill-opacity="0.6" transform="translate(263.26229917397177 116.17604500849868) rotate(0 -24.88300217251981 16.46669097193346)"><path d="M-33.04 35.1 C-38.7 33.96, -42.74 32.62, -48.22 33.09 M-33.04 35.1 C-36.33 35.17, -40.75 34.06, -48.22 33.09" stroke="#1971c2" stroke-width="1" fill="none"></path></g></g><mask></mask><g stroke-opacity="0.9" fill-opacity="0.9" transform="translate(22.482636281635678 102.3686147282161) rotate(0 7.253475017330402 13.178557254741074)"><text x="0" y="0" font-family="Virgil, Segoe UI Emoji" font-size="21.085691607585723px" fill="#1e1e1e" text-anchor="start" style="white-space: pre;" direction="ltr" dominant-baseline="text-before-edge">0</text></g><g stroke-opacity="0.9" fill-opacity="0.9" transform="translate(75.72820990548007 102.05642750067551) rotate(0 2.8563385009765625 13.178557254741076)"><text x="0" y="0" font-family="Virgil, Segoe UI Emoji" font-size="21.085691607585723px" fill="#1e1e1e" text-anchor="start" style="white-space: pre;" direction="ltr" dominant-baseline="text-before-edge">1</text></g><g stroke-opacity="0.9" fill-opacity="0.9" transform="translate(122.62052699409833 102.60858974959288) rotate(0 7.504478454589844 13.178557254741076)"><text x="0" y="0" font-family="Virgil, Segoe UI Emoji" font-size="21.085691607585723px" fill="#1e1e1e" text-anchor="start" style="white-space: pre;" direction="ltr" dominant-baseline="text-before-edge">2</text></g><g stroke-opacity="0.9" fill-opacity="0.9" transform="translate(173.97023758728847 101.52984066365323) rotate(0 7.177734375 13.178557254741076)"><text x="0" y="0" font-family="Virgil, Segoe UI Emoji" font-size="21.085691607585723px" fill="#1e1e1e" text-anchor="start" style="white-space: pre;" direction="ltr" dominant-baseline="text-before-edge">3</text></g><g stroke-opacity="0.8" fill-opacity="0.8" transform="translate(254.4236929719391 39.543254582709594) rotate(0 6.745597839355469 13.178557254741072)"><text x="0" y="0" font-family="Virgil, Segoe UI Emoji" font-size="21.085691607585723px" fill="#1971c2" text-anchor="start" style="white-space: pre;" direction="ltr" dominant-baseline="text-before-edge">4</text></g><g transform="translate(82.08029382442965 182.48732732912805) rotate(0 29.423919677734375 13.872881879096933)"><text x="0" y="0" font-family="Virgil, Segoe UI Emoji" font-size="22.196611006555095px" fill="#1e1e1e" text-anchor="start" style="white-space: pre;" direction="ltr" dominant-baseline="text-before-edge">Array</text></g><g stroke-opacity="0.8" fill-opacity="0.8" stroke-linecap="round" transform="translate(352.8864377788941 59.556683425247115) rotate(0 44.05039460238186 77.91413335247645)"><path d="M5.21 5.85 C5.21 5.85, 5.21 5.85, 5.21 5.85 M5.21 5.85 C5.21 5.85, 5.21 5.85, 5.21 5.85 M0.35 17.53 C3.97 10.09, 10.65 6.74, 14.13 1.68 M0.35 17.53 C5.67 12.2, 9.21 7.3, 14.13 1.68 M0.75 23.17 C5.77 17.23, 10.5 11.41, 20.43 0.53 M0.75 23.17 C9.19 13.6, 15.21 5.2, 20.43 0.53 M0.49 29.57 C9.64 19.39, 18.27 9.91, 26.07 0.14 M0.49 29.57 C7.81 19.46, 16.75 11.95, 26.07 0.14 M0.88 35.22 C7.48 27.16, 16.36 18.32, 31.06 0.5 M0.88 35.22 C10.83 23.73, 19.82 12.05, 31.06 0.5 M0.62 41.61 C9.37 31.2, 16.54 22.84, 36.7 0.1 M0.62 41.61 C10.36 32.46, 18.68 21.82, 36.7 0.1 M0.36 48.01 C10.76 34.77, 21.57 21.69, 41.69 0.46 M0.36 48.01 C14.9 31.44, 29.96 13.2, 41.69 0.46 M0.75 53.65 C12 40.6, 21.24 27.43, 47.33 0.07 M0.75 53.65 C16.49 36.71, 31.67 18.14, 47.33 0.07 M0.49 60.05 C16.12 40.3, 33.11 21.99, 52.32 0.43 M0.49 60.05 C18.12 38.66, 37.47 16.73, 52.32 0.43 M0.23 66.45 C19.85 44, 38.71 22.85, 57.96 0.04 M0.23 66.45 C21.94 43.77, 41.65 19.86, 57.96 0.04 M0.62 72.09 C14.93 58.94, 25.19 44.62, 62.95 0.4 M0.62 72.09 C21.65 49.29, 42.18 26.32, 62.95 0.4 M0.36 78.49 C24.61 51.84, 47.95 20.36, 67.94 0.76 M0.36 78.49 C20.99 55.1, 39.54 32.95, 67.94 0.76 M0.76 84.13 C25.57 57.87, 48.65 27.18, 72.92 1.12 M0.76 84.13 C20.95 60.58, 41.67 35.55, 72.92 1.12 M0.5 90.53 C23.76 62.56, 50.07 30.22, 77.25 2.23 M0.5 90.53 C21.84 65.78, 44.17 38.98, 77.25 2.23 M0.23 96.93 C28.21 65.07, 54.45 33.72, 80.93 4.1 M0.23 96.93 C17.11 76.36, 36.28 53.68, 80.93 4.1 M0.63 102.57 C27.06 70.88, 55.15 40.98, 83.29 7.48 M0.63 102.57 C23.99 74.33, 47.49 47.17, 83.29 7.48 M0.37 108.97 C25.02 80.8, 54.64 48.86, 85.65 10.86 M0.37 108.97 C26.97 76.7, 55.22 44.74, 85.65 10.86 M0.11 115.37 C28.63 81.14, 58.78 46.09, 87.36 14.99 M0.11 115.37 C35.54 75.36, 69.32 35.36, 87.36 14.99 M0.5 121.01 C25.25 95.15, 45.85 65.89, 87.76 20.63 M0.5 121.01 C29.49 86.19, 60.02 52.23, 87.76 20.63 M0.24 127.41 C33.32 90.69, 62.56 54.05, 88.81 25.52 M0.24 127.41 C26.87 94.92, 56.13 62.06, 88.81 25.52 M0.63 133.05 C33.32 95.37, 66.63 58.92, 88.55 31.92 M0.63 133.05 C19.97 112.61, 38.25 91.01, 88.55 31.92 M1.03 138.7 C18.2 116.42, 37.84 96.35, 88.94 37.56 M1.03 138.7 C30.66 105.22, 58.22 72.71, 88.94 37.56 M2.08 143.58 C27.83 114.02, 50.72 84.81, 88.68 43.96 M2.08 143.58 C22.64 120.26, 44.12 95.75, 88.68 43.96 M3.79 147.72 C26.81 121.57, 47.82 94.59, 88.42 50.36 M3.79 147.72 C25.85 121.43, 49.22 96.14, 88.42 50.36 M6.15 151.1 C39.76 113.09, 70.79 77.89, 88.81 56 M6.15 151.1 C34.53 119.53, 61.34 88.06, 88.81 56 M9.82 152.97 C26.89 131.94, 44.28 113.53, 88.55 62.4 M9.82 152.97 C26.02 135.62, 41.94 117.07, 88.55 62.4 M14.15 154.08 C44.4 119.71, 72.34 86.06, 88.29 68.8 M14.15 154.08 C42.72 121.5, 69.76 90.47, 88.29 68.8 M18.49 155.2 C41.36 130.63, 61.76 105.11, 88.68 74.44 M18.49 155.2 C41.04 128.45, 65.75 100.74, 88.68 74.44 M23.47 155.56 C42.59 132.72, 62.12 112.48, 88.42 80.84 M23.47 155.56 C37.15 139.99, 52.71 122.92, 88.42 80.84 M28.46 155.92 C40.63 139.25, 54.22 125.3, 88.82 86.48 M28.46 155.92 C44.44 136.94, 61.91 117.32, 88.82 86.48 M34.1 155.52 C50.22 137.75, 62.75 121.53, 88.56 92.88 M34.1 155.52 C52.26 135.08, 68.57 115.58, 88.56 92.88 M39.09 155.88 C49.82 143.17, 62.6 128.03, 88.29 99.28 M39.09 155.88 C48.41 145.09, 58.73 132.95, 88.29 99.28 M44.73 155.49 C59.59 138.91, 76.57 118.09, 88.69 104.92 M44.73 155.49 C58.08 139.82, 71.62 125.35, 88.69 104.92 M49.72 155.85 C60.76 142.05, 73.63 129.66, 88.43 111.32 M49.72 155.85 C61.62 141.43, 73.31 129.17, 88.43 111.32 M55.36 155.45 C67.99 143.87, 78.27 129.09, 88.17 117.72 M55.36 155.45 C65.81 142.5, 77.82 128.66, 88.17 117.72 M60.35 155.81 C71.88 143.63, 79.08 132.38, 88.56 123.36 M60.35 155.81 C68.91 147.48, 75.43 136.86, 88.56 123.36 M65.34 156.17 C70.78 146.49, 78.17 139.52, 88.3 129.76 M65.34 156.17 C70.79 149.84, 77.94 142.3, 88.3 129.76 M70.98 155.78 C75.59 147.85, 83.71 142.52, 88.69 135.4 M70.98 155.78 C75.64 150.73, 81.02 144.64, 88.69 135.4 M79.9 151.61 C82.26 149.59, 82.79 148.01, 86.46 144.06 M79.9 151.61 C81.36 149.8, 82.81 147.87, 86.46 144.06" stroke="#ffffff" stroke-width="0.5" fill="none"></path><path d="M22.03 0 C36.26 0.6, 51.41 1.27, 66.08 0 M22.03 0 C34.15 -0.58, 44.7 -0.09, 66.08 0 M66.08 0 C81.95 -0.52, 89.03 8.81, 88.1 22.03 M66.08 0 C78.51 0.3, 88.17 7.56, 88.1 22.03 M88.1 22.03 C89.13 66.19, 86.14 112.59, 88.1 133.8 M88.1 22.03 C89.25 45.28, 88.14 68.02, 88.1 133.8 M88.1 133.8 C86.5 148.25, 81.39 154.28, 66.08 155.83 M88.1 133.8 C85.87 149.55, 82.71 154.54, 66.08 155.83 M66.08 155.83 C56.46 156.13, 46.91 156.63, 22.03 155.83 M66.08 155.83 C53.77 154.83, 41.46 156.4, 22.03 155.83 M22.03 155.83 C8.86 154.74, -0.49 148.29, 0 133.8 M22.03 155.83 C5.82 154.57, 0.31 149.14, 0 133.8 M0 133.8 C-1.58 92.14, 0.51 48.79, 0 22.03 M0 133.8 C-1.1 107.86, 0.19 83.22, 0 22.03 M0 22.03 C-0.81 5.38, 6.61 1.45, 22.03 0 M0 22.03 C1.03 5.88, 5.43 0.1, 22.03 0" stroke="#343a40" stroke-width="1" fill="none"></path></g><g stroke-linecap="round" transform="translate(309.93732824741073 10) rotate(0 104.61968718065691 33.58842798480269)"><path d="M16.79 0 C57.64 -1.49, 94.77 -6.56, 192.45 0 C202.11 -1.09, 211.7 7.75, 209.24 16.79 C207.7 23.23, 210.88 34.31, 209.24 50.38 C211.26 63.72, 205.98 67.42, 192.45 67.18 C135.33 67.63, 83.83 68.19, 16.79 67.18 C7.8 70.34, -2.57 61.89, 0 50.38 C-2.15 43.36, 2.76 32.53, 0 16.79 C-1.27 5.07, 6.49 1.77, 16.79 0" stroke="none" stroke-width="0" fill="#ffffff"></path><path d="M16.79 0 C65.75 0.43, 113.59 -1.45, 192.45 0 M16.79 0 C54.01 -0.83, 91.48 -1.84, 192.45 0 M192.45 0 C203.55 1.41, 208.58 6.16, 209.24 16.79 M192.45 0 C203.29 -0.15, 209.24 5.33, 209.24 16.79 M209.24 16.79 C209.35 25.59, 210.18 29.61, 209.24 50.38 M209.24 16.79 C209.38 27.16, 210.1 39.57, 209.24 50.38 M209.24 50.38 C210.08 62.37, 202.91 69.09, 192.45 67.18 M209.24 50.38 C208.66 61.55, 202.7 67.06, 192.45 67.18 M192.45 67.18 C151.4 65.86, 113.02 65.58, 16.79 67.18 M192.45 67.18 C139.63 68.5, 85.11 67.8, 16.79 67.18 M16.79 67.18 C4.19 67.72, 1.15 62.13, 0 50.38 M16.79 67.18 C7.44 68.84, 1.69 60.88, 0 50.38 M0 50.38 C-1.48 39.54, -1.81 29.92, 0 16.79 M0 50.38 C-0.92 38.64, -0.07 26.01, 0 16.79 M0 16.79 C0.5 4.12, 6 0.38, 16.79 0 M0 16.79 C-0.88 6.16, 5.2 1.16, 16.79 0" stroke="transparent" stroke-width="1" fill="none"></path></g><g stroke-linecap="round" transform="translate(472.37315834369383 40.284677796435034) rotate(0 26.70554332574784 11.287898913454868)"><path d="M1.5 1.31 C1.5 1.31, 1.5 1.31, 1.5 1.31 M1.5 1.31 C1.5 1.31, 1.5 1.31, 1.5 1.31 M1.9 6.95 C3.07 6.12, 4.16 4.26, 7.15 0.91 M1.9 6.95 C3.42 5.33, 4.54 4.03, 7.15 0.91 M1.64 13.35 C5.15 10.86, 6.72 5.71, 12.13 1.27 M1.64 13.35 C5.11 9.4, 9.78 4.81, 12.13 1.27 M1.37 19.74 C3.87 15.05, 10.3 11.9, 17.78 0.88 M1.37 19.74 C7.1 14.63, 12.26 7.4, 17.78 0.88 M3.74 23.12 C7.77 16.14, 12.6 12.23, 22.76 1.24 M3.74 23.12 C9.43 16.84, 16.21 10.2, 22.76 1.24 M9.38 22.73 C11.79 17.52, 17.16 12.78, 27.75 1.6 M9.38 22.73 C13.8 18.39, 17.93 14.48, 27.75 1.6 M14.37 23.09 C21.14 15.74, 26.14 11.84, 33.39 1.2 M14.37 23.09 C19.13 17.73, 23.65 13.87, 33.39 1.2 M20.01 22.69 C25.14 17.83, 29.7 8.01, 38.38 1.56 M20.01 22.69 C28.01 15.12, 34.51 5.24, 38.38 1.56 M25 23.05 C32.03 16.75, 36.12 9.47, 44.02 1.17 M25 23.05 C30.98 16.13, 37.39 10.02, 44.02 1.17 M29.98 23.41 C33.83 18.91, 39.79 12.22, 49.01 1.53 M29.98 23.41 C34.36 15.97, 41.08 11.37, 49.01 1.53 M35.63 23.02 C43.09 15.08, 48.47 10.95, 53.34 2.64 M35.63 23.02 C41.4 16.41, 45.59 11.64, 53.34 2.64 M40.61 23.38 C43.98 19.9, 48.62 14.37, 55.7 6.02 M40.61 23.38 C43.54 18.49, 47.46 16.07, 55.7 6.02 M46.26 22.99 C47.76 19.57, 50.76 16.25, 56.1 11.66 M46.26 22.99 C49.7 17.99, 54.67 13.75, 56.1 11.66" stroke="#a5d8ff" stroke-width="0.5" fill="none"></path><path d="M5.64 0 C15.15 0.26, 26.39 0.09, 47.77 0 M5.64 0 C18.66 -0.04, 32.45 -0.21, 47.77 0 M47.77 0 C50.69 1.95, 52.65 0.26, 53.41 5.64 M47.77 0 C52.01 -2.17, 51.47 0.18, 53.41 5.64 M53.41 5.64 C52.65 8.34, 53.2 13.99, 53.41 16.93 M53.41 5.64 C53.28 9.25, 53.56 13.57, 53.41 16.93 M53.41 16.93 C53.94 21.34, 50.65 21.21, 47.77 22.58 M53.41 16.93 C54.82 20.33, 51.61 21.02, 47.77 22.58 M47.77 22.58 C32.97 22.01, 21.88 22.01, 5.64 22.58 M47.77 22.58 C38.3 22.24, 28.42 21.87, 5.64 22.58 M5.64 22.58 C2.48 22.09, 0.69 20.34, 0 16.93 M5.64 22.58 C0.62 23.44, -0.75 22.9, 0 16.93 M0 16.93 C-0.36 13.73, -0.73 9.14, 0 5.64 M0 16.93 C0.58 12.06, 0.22 7.81, 0 5.64 M0 5.64 C1.99 3.54, 3.51 -0.45, 5.64 0 M0 5.64 C-0.06 2.75, 3.28 -0.76, 5.64 0" stroke="#1971c2" stroke-width="1" fill="none"></path></g><g stroke-linecap="round" transform="translate(371.1458867668416 179.13205890305056) rotate(0 26.70554332574784 10.737282634087322)"><path d="M1.43 1.24 C1.43 1.24, 1.43 1.24, 1.43 1.24 M1.43 1.24 C1.43 1.24, 1.43 1.24, 1.43 1.24 M0.51 8.39 C2.53 6.45, 4.24 3.05, 7.07 0.85 M0.51 8.39 C2.6 6.74, 3.91 4.8, 7.07 0.85 M0.25 14.79 C3.53 8.47, 8 3.42, 12.72 0.45 M0.25 14.79 C4.33 11.14, 7.82 6.77, 12.72 0.45 M1.3 19.68 C4.82 15.26, 9.67 11.24, 17.7 0.81 M1.3 19.68 C6.66 13.02, 12.31 8.71, 17.7 0.81 M4.98 21.55 C10.93 12.85, 19.09 7.28, 23.35 0.42 M4.98 21.55 C11.47 15.41, 16.83 9.51, 23.35 0.42 M9.96 21.91 C18.33 15.05, 24.08 5.03, 28.33 0.78 M9.96 21.91 C13.88 17.66, 19.02 11.91, 28.33 0.78 M15.61 21.52 C20.74 17.01, 25.99 10.59, 33.98 0.38 M15.61 21.52 C19.62 16.01, 24.61 9.53, 33.98 0.38 M20.59 21.88 C25.73 17.84, 30.58 10.52, 38.96 0.74 M20.59 21.88 C25.75 15.35, 32.62 9.16, 38.96 0.74 M26.24 21.48 C31.83 15.92, 37.27 8.89, 43.95 1.1 M26.24 21.48 C32.1 16.63, 36.5 10.39, 43.95 1.1 M31.22 21.84 C35.84 19.14, 38.08 13.29, 49.59 0.71 M31.22 21.84 C38.77 14.46, 44.89 6.34, 49.59 0.71 M36.21 22.2 C39.91 16.56, 43.76 13.84, 53.27 2.58 M36.21 22.2 C41.36 15.92, 45.55 10.88, 53.27 2.58 M41.85 21.81 C44.54 16.51, 50.04 10.19, 53.66 8.22 M41.85 21.81 C45.83 16.9, 49.02 12.39, 53.66 8.22 M46.84 22.17 C49.08 19.79, 50.59 16.84, 53.4 14.62 M46.84 22.17 C49.53 19.49, 51.93 17.07, 53.4 14.62" stroke="#a5d8ff" stroke-width="0.5" fill="none"></path><path d="M5.37 0 C14.83 1.68, 27.85 -1.86, 48.04 0 M5.37 0 C20.07 0.26, 36.51 -1.01, 48.04 0 M48.04 0 C49.91 -0.45, 54.66 2.47, 53.41 5.37 M48.04 0 C51.97 -2.03, 53.19 2.63, 53.41 5.37 M53.41 5.37 C54.25 8.93, 54.31 13.8, 53.41 16.11 M53.41 5.37 C54.01 8.55, 53.68 12.56, 53.41 16.11 M53.41 16.11 C52.27 20.06, 52.6 19.8, 48.04 21.47 M53.41 16.11 C53.35 19.39, 53.47 19.76, 48.04 21.47 M48.04 21.47 C33.48 21.28, 16.91 21.82, 5.37 21.47 M48.04 21.47 C37.28 21.68, 26.82 20.82, 5.37 21.47 M5.37 21.47 C1.95 20.33, 1.01 21.5, 0 16.11 M5.37 21.47 C3.66 22.33, 0.09 19.86, 0 16.11 M0 16.11 C-0.48 13.42, 1.01 8.57, 0 5.37 M0 16.11 C0.33 13.76, -0.18 11.94, 0 5.37 M0 5.37 C-1.75 1.45, 2.25 0.65, 5.37 0 M0 5.37 C2.03 3.29, 0.9 -2.26, 5.37 0" stroke="#1971c2" stroke-width="1" fill="none"></path></g><g stroke-linecap="round" transform="translate(370.68395165655966 148.3854354939013) rotate(0 26.70554332574784 10.737282634087322)"><path d="M1.43 1.24 C1.43 1.24, 1.43 1.24, 1.43 1.24 M1.43 1.24 C1.43 1.24, 1.43 1.24, 1.43 1.24 M0.51 8.39 C3.08 5.73, 3.37 3.2, 7.07 0.85 M0.51 8.39 C2.18 6.4, 3.61 4.44, 7.07 0.85 M0.25 14.79 C3.36 12.93, 7.08 6.39, 12.72 0.45 M0.25 14.79 C3.49 11.55, 6.68 6.98, 12.72 0.45 M1.3 19.68 C7.55 15.23, 11.27 8.35, 17.7 0.81 M1.3 19.68 C7.21 13.35, 12.11 6.09, 17.7 0.81 M4.98 21.55 C11.59 14.91, 15.26 9.18, 23.35 0.42 M4.98 21.55 C12.1 12.66, 19.72 5.58, 23.35 0.42 M9.96 21.91 C16.71 17.28, 22.31 10.18, 28.33 0.78 M9.96 21.91 C14.81 15.77, 21.63 8.26, 28.33 0.78 M15.61 21.52 C19.74 16.28, 25.97 11.01, 33.98 0.38 M15.61 21.52 C22.84 13.9, 30.17 5.44, 33.98 0.38 M20.59 21.88 C26.68 14.53, 32.19 8.4, 38.96 0.74 M20.59 21.88 C27.75 14.34, 33.8 6.12, 38.96 0.74 M26.24 21.48 C31.41 17.38, 34.05 11.44, 43.95 1.1 M26.24 21.48 C33.47 14, 39.43 5.59, 43.95 1.1 M31.22 21.84 C36.47 15.56, 42.79 7.72, 49.59 0.71 M31.22 21.84 C39 13.05, 44.84 5.18, 49.59 0.71 M36.21 22.2 C43.51 13.52, 48.48 8.25, 53.27 2.58 M36.21 22.2 C41.01 16.2, 45.21 11.3, 53.27 2.58 M41.85 21.81 C47.42 17.72, 49.65 10.84, 53.66 8.22 M41.85 21.81 C44.09 19.35, 47.04 15.37, 53.66 8.22 M46.84 22.17 C50.06 20.34, 51.83 17.51, 53.4 14.62 M46.84 22.17 C49.5 19.92, 51.49 16.97, 53.4 14.62" stroke="#a5d8ff" stroke-width="0.5" fill="none"></path><path d="M5.37 0 C15.02 -0.16, 26.51 -2.23, 48.04 0 M5.37 0 C16.98 1.19, 28.54 0.41, 48.04 0 M48.04 0 C51.93 -1.95, 52.23 0.09, 53.41 5.37 M48.04 0 C51.69 0.53, 54.58 2.54, 53.41 5.37 M53.41 5.37 C53.93 7.99, 53.79 11.28, 53.41 16.11 M53.41 5.37 C53.76 8.74, 53.52 11.4, 53.41 16.11 M53.41 16.11 C54.99 18.91, 52.6 23.08, 48.04 21.47 M53.41 16.11 C52.73 19.84, 53.75 23.56, 48.04 21.47 M48.04 21.47 C37.32 23.69, 27.11 23.72, 5.37 21.47 M48.04 21.47 C36.92 21.14, 25.28 20.54, 5.37 21.47 M5.37 21.47 C0.01 21.57, -1.41 18.21, 0 16.11 M5.37 21.47 C1.75 22.98, -2.24 19.19, 0 16.11 M0 16.11 C-1 14.16, 0.75 11.4, 0 5.37 M0 16.11 C-0.37 12.58, 0.09 9.13, 0 5.37 M0 5.37 C0.46 1.7, 1.25 -1.36, 5.37 0 M0 5.37 C1.53 3.66, 0.96 1.6, 5.37 0" stroke="#1971c2" stroke-width="1" fill="none"></path></g><g stroke-linecap="round" transform="translate(370.22197453654735 117.08819055416828) rotate(0 26.70554332574784 10.737282634087322)"><path d="M1.43 1.24 C1.43 1.24, 1.43 1.24, 1.43 1.24 M1.43 1.24 C1.43 1.24, 1.43 1.24, 1.43 1.24 M0.51 8.39 C2.42 5.88, 5.14 4.32, 7.07 0.85 M0.51 8.39 C2.38 6.59, 3.68 4.96, 7.07 0.85 M0.25 14.79 C4.18 11.88, 10.08 7.2, 12.72 0.45 M0.25 14.79 C3.52 10.57, 9.44 5.57, 12.72 0.45 M1.3 19.68 C8.77 13.22, 11.68 6.12, 17.7 0.81 M1.3 19.68 C5.57 14.81, 9.75 9.7, 17.7 0.81 M4.98 21.55 C10.82 16.75, 15.4 9.16, 23.35 0.42 M4.98 21.55 C10.82 14.97, 16.82 7.95, 23.35 0.42 M9.96 21.91 C15.89 14.73, 19 10.04, 28.33 0.78 M9.96 21.91 C15.12 15.82, 21.07 8.91, 28.33 0.78 M15.61 21.52 C20.96 17.23, 23.17 14.09, 33.98 0.38 M15.61 21.52 C21.67 13.46, 27.99 5.79, 33.98 0.38 M20.59 21.88 C28.74 13.52, 33.01 5.61, 38.96 0.74 M20.59 21.88 C27.85 13.54, 34.72 6.53, 38.96 0.74 M26.24 21.48 C29.96 17.35, 34.09 11.39, 43.95 1.1 M26.24 21.48 C32.37 14.79, 38.25 7.48, 43.95 1.1 M31.22 21.84 C35.34 14.46, 40.74 10.49, 49.59 0.71 M31.22 21.84 C38.22 13.45, 44.58 7.27, 49.59 0.71 M36.21 22.2 C38.44 16.44, 42.89 13.4, 53.27 2.58 M36.21 22.2 C40.99 15.26, 46.33 8.9, 53.27 2.58 M41.85 21.81 C46.44 17.9, 50.09 10.6, 53.66 8.22 M41.85 21.81 C45.74 17.27, 49.91 11.72, 53.66 8.22 M46.84 22.17 C50.07 19.4, 51.01 16.34, 53.4 14.62 M46.84 22.17 C49.26 19.61, 52.03 17.08, 53.4 14.62" stroke="#a5d8ff" stroke-width="0.5" fill="none"></path><path d="M5.37 0 C21.09 0.8, 34.42 -0.22, 48.04 0 M5.37 0 C19.08 0.15, 31.24 0.54, 48.04 0 M48.04 0 C53.42 1.25, 55.21 1.99, 53.41 5.37 M48.04 0 C50.51 1.25, 54.96 2.13, 53.41 5.37 M53.41 5.37 C54.3 9.81, 54.06 13.29, 53.41 16.11 M53.41 5.37 C53.71 9, 53.11 11.93, 53.41 16.11 M53.41 16.11 C54.97 20.39, 50.75 22.26, 48.04 21.47 M53.41 16.11 C53.61 21.37, 53.71 22.33, 48.04 21.47 M48.04 21.47 C39.79 22.2, 30.75 20.09, 5.37 21.47 M48.04 21.47 C35.8 21.28, 24.36 21.93, 5.37 21.47 M5.37 21.47 C-0.03 22.89, -0.28 20.04, 0 16.11 M5.37 21.47 C-0.03 20.04, -0.73 21.42, 0 16.11 M0 16.11 C-0.16 13.3, -0.55 7.86, 0 5.37 M0 16.11 C-0.24 12.54, 0.07 9.14, 0 5.37 M0 5.37 C-0.31 2.01, 2.21 -1.18, 5.37 0 M0 5.37 C1.88 3.75, 0.86 2.18, 5.37 0" stroke="#1971c2" stroke-width="1" fill="none"></path></g><g stroke-linecap="round"><g transform="translate(458.60736802072006 53.47458400092185) rotate(0 -25.328989499289037 27.544085910710578)"><path d="M0.74 -0.58 C-4.38 1.34, -22.47 1.45, -31.1 10.91 C-39.73 20.38, -47.94 48.74, -51.04 56.2 M-0.33 1.73 C-5.56 3.9, -23.28 3.6, -31.89 12.38 C-40.51 21.17, -49.16 47.6, -52.01 54.44" stroke="#1971c2" stroke-width="1" fill="none"></path></g><g transform="translate(458.60736802072006 53.47458400092185) rotate(0 -25.328989499289037 27.544085910710578)"><path d="M-51.66 30.41 C-52.85 37.38, -52.18 42.75, -52.01 54.44 M-51.66 30.41 C-51.09 39.58, -52.41 49.8, -52.01 54.44" stroke="#1971c2" stroke-width="1" fill="none"></path></g><g transform="translate(458.60736802072006 53.47458400092185) rotate(0 -25.328989499289037 27.544085910710578)"><path d="M-36.29 36.25 C-41.59 41.74, -45.08 45.53, -52.01 54.44 M-36.29 36.25 C-41.8 43.21, -49.16 51.13, -52.01 54.44" stroke="#1971c2" stroke-width="1" fill="none"></path></g></g><mask></mask><g transform="translate(369.4955019884919 231.0350473018334) rotate(0 29.57133805943613 13.066168722319873)"><text x="0" y="0" font-family="Virgil, Segoe UI Emoji" font-size="20.905869955711793px" fill="#1e1e1e" text-anchor="start" style="white-space: pre;" direction="ltr" dominant-baseline="text-before-edge">Stack</text></g></svg>