<svg version="1.1" xmlns="http://www.w3.org/2000/svg" viewBox="0 0 425.4848698825963 255.64465654643237" width="1276.4546096477889" height="766.9339696392972">
  <!-- svg-source:excalidraw -->
  
  <defs>
    <style class="style-fonts">
      @font-face {
        font-family: "Virgil";
        src: url("https://excalidraw.com/Virgil.woff2");
      }
      @font-face {
        font-family: "Cascadia";
        src: url("https://excalidraw.com/Cascadia.woff2");
      }
      @font-face {
        font-family: "Assistant";
        src: url("https://excalidraw.com/Assistant-Regular.woff2");
      }
    </style>
    
  </defs>
  <rect x="0" y="0" width="425.4848698825963" height="255.64465654643237" fill="#ffffff"></rect><g stroke-linecap="round" transform="translate(10 156.74898606215078) rotate(0 15.640164772479238 18.384065265231868)"><path d="M0.49 4.4 C0.49 4.4, 0.49 4.4, 0.49 4.4 M0.49 4.4 C0.49 4.4, 0.49 4.4, 0.49 4.4 M0.23 10.8 C1.94 7.69, 3.7 6.12, 9.41 0.23 M0.23 10.8 C1.88 8.62, 3.77 6.94, 9.41 0.23 M0.62 16.44 C3.69 10.83, 10.25 7.89, 14.4 0.59 M0.62 16.44 C6.71 9.44, 10.84 4.9, 14.4 0.59 M0.36 22.84 C3.54 15.38, 12 12.71, 20.04 0.2 M0.36 22.84 C7.38 14.15, 15.22 6.1, 20.04 0.2 M0.75 28.48 C8.93 16.56, 21.39 6.06, 25.03 0.56 M0.75 28.48 C5.06 23.5, 11.09 16.31, 25.03 0.56 M1.81 33.37 C8.55 23.09, 19.09 13.62, 28.7 2.43 M1.81 33.37 C10.73 22.59, 20.26 13.23, 28.7 2.43 M4.82 35.99 C14.63 23.62, 23.95 16.03, 31.07 5.81 M4.82 35.99 C12.73 27.75, 21.31 17.87, 31.07 5.81 M9.81 36.35 C15.83 28.49, 23.25 21.32, 30.8 12.2 M9.81 36.35 C14.97 30.33, 19.28 25.22, 30.8 12.2 M14.8 36.71 C18.87 32.76, 25.34 26.06, 31.2 17.85 M14.8 36.71 C19.72 29.28, 27.01 23.88, 31.2 17.85 M20.44 36.32 C24.68 32.34, 26.21 27.13, 31.59 23.49 M20.44 36.32 C24.41 31.45, 28.08 26.82, 31.59 23.49 M25.43 36.68 C27.59 35.8, 27.67 33.67, 31.99 29.13 M25.43 36.68 C27.69 33.88, 30.45 31.61, 31.99 29.13" stroke="#a5d8ff" stroke-width="0.5" fill="none"></path><path d="M7.82 0 C11.76 0.54, 17.58 -0.29, 23.46 0 M7.82 0 C13.64 0.44, 18.57 0.11, 23.46 0 M23.46 0 C29.95 -0.98, 31.37 3.4, 31.28 7.82 M23.46 0 C27.78 -1.12, 32.79 3.21, 31.28 7.82 M31.28 7.82 C32.86 12.82, 29.58 22.15, 31.28 28.95 M31.28 7.82 C30.84 15.38, 31.74 24.63, 31.28 28.95 M31.28 28.95 C31.12 33.84, 26.96 38.12, 23.46 36.77 M31.28 28.95 C33.35 32.32, 28.26 34.59, 23.46 36.77 M23.46 36.77 C19.86 36.14, 14.24 37.46, 7.82 36.77 M23.46 36.77 C17.45 36.71, 12.77 36.12, 7.82 36.77 M7.82 36.77 C1.89 35.62, 1.12 34.88, 0 28.95 M7.82 36.77 C2.57 36.8, 1.15 33.38, 0 28.95 M0 28.95 C-0.34 23.09, -0.3 15.05, 0 7.82 M0 28.95 C0.65 22.92, 0.5 18.95, 0 7.82 M0 7.82 C-0.2 2.12, 3.46 -0.07, 7.82 0 M0 7.82 C-0.19 4.06, 1.52 0.06, 7.82 0" stroke="#1971c2" stroke-width="1" fill="none"></path></g><g stroke-linecap="round" transform="translate(55.670570000000225 156.74898606215066) rotate(0 15.640164772479238 18.384065265231868)"><path d="M0.49 4.4 C0.49 4.4, 0.49 4.4, 0.49 4.4 M0.49 4.4 C0.49 4.4, 0.49 4.4, 0.49 4.4 M0.23 10.8 C3.23 8.15, 4.71 3.16, 8.76 0.99 M0.23 10.8 C2.94 8, 5.5 4.4, 8.76 0.99 M0.62 16.44 C4.39 12.9, 10.45 4.74, 13.74 1.35 M0.62 16.44 C6.42 9.93, 10.21 5.16, 13.74 1.35 M0.36 22.84 C6.73 14.71, 12.01 9.82, 19.39 0.95 M0.36 22.84 C5.94 16.74, 9.88 11.19, 19.39 0.95 M0.75 28.48 C11 19.92, 21.24 5.86, 24.37 1.31 M0.75 28.48 C5.27 22.14, 10.76 16.59, 24.37 1.31 M1.81 33.37 C9.1 23.14, 16.08 17.02, 28.7 2.43 M1.81 33.37 C11.17 22.04, 21.46 12.77, 28.7 2.43 M4.82 35.99 C16.1 24.27, 24.73 10.79, 31.72 5.05 M4.82 35.99 C12.71 27.24, 21.51 17.3, 31.72 5.05 M9.81 36.35 C19.11 29.33, 25.85 17.78, 31.46 11.45 M9.81 36.35 C18.46 26.01, 25.82 16.92, 31.46 11.45 M14.8 36.71 C23.07 29.21, 28.89 21.46, 31.86 17.09 M14.8 36.71 C22.46 29.27, 28.81 20.45, 31.86 17.09 M20.44 36.32 C26.06 31.18, 29.4 26.61, 32.25 22.73 M20.44 36.32 C24.23 33.07, 27.38 28.41, 32.25 22.73 M25.43 36.68 C28.17 33.76, 29.94 31.47, 31.99 29.13 M25.43 36.68 C27.92 34.24, 29.72 31.35, 31.99 29.13" stroke="#a5d8ff" stroke-width="0.5" fill="none"></path><path d="M7.82 0 C14.5 1.23, 19.59 1.31, 23.46 0 M7.82 0 C12.35 -0.51, 15.5 -0.53, 23.46 0 M23.46 0 C29.25 0.55, 30.37 1.18, 31.28 7.82 M23.46 0 C29.19 -0.95, 29.28 3.19, 31.28 7.82 M31.28 7.82 C30.91 14.59, 32.52 21.97, 31.28 28.95 M31.28 7.82 C30.98 15.17, 31.41 24.98, 31.28 28.95 M31.28 28.95 C30.62 34.7, 29.6 36.38, 23.46 36.77 M31.28 28.95 C33.03 34.76, 27.49 36.8, 23.46 36.77 M23.46 36.77 C16.73 37.3, 13.32 35.67, 7.82 36.77 M23.46 36.77 C18.09 36.11, 12.6 37.46, 7.82 36.77 M7.82 36.77 C1.96 35.31, 0.38 36.09, 0 28.95 M7.82 36.77 C3.76 38.61, -2.25 32.12, 0 28.95 M0 28.95 C0.29 25.94, -0.07 19.84, 0 7.82 M0 28.95 C-0.95 22.31, -0.7 16.81, 0 7.82 M0 7.82 C1.29 3.87, 4.54 0.29, 7.82 0 M0 7.82 C1.65 1.48, 0.68 -0.87, 7.82 0" stroke="#1971c2" stroke-width="1" fill="none"></path></g><g stroke-linecap="round" transform="translate(101.34114200000022 156.74898606215055) rotate(0 15.640164772479238 18.384065265231868)"><path d="M0.49 4.4 C0.49 4.4, 0.49 4.4, 0.49 4.4 M0.49 4.4 C0.49 4.4, 0.49 4.4, 0.49 4.4 M0.23 10.8 C2.87 7.76, 5.92 4.68, 8.76 0.99 M0.23 10.8 C3.98 7.05, 6.71 3.87, 8.76 0.99 M0.62 16.44 C4.37 11.64, 9.37 6.35, 13.74 1.35 M0.62 16.44 C5.81 10.36, 10.1 5.59, 13.74 1.35 M0.36 22.84 C5.51 17.05, 14.9 6.84, 19.39 0.95 M0.36 22.84 C8.49 13.92, 14.23 5.94, 19.39 0.95 M0.75 28.48 C7.82 20.84, 14.41 12.69, 24.37 1.31 M0.75 28.48 C7.33 19.26, 15.51 11, 24.37 1.31 M1.81 33.37 C8.62 24.09, 19.46 13.81, 28.7 2.43 M1.81 33.37 C9.86 23.5, 18.41 15.7, 28.7 2.43 M4.82 35.99 C14.46 26.18, 24.33 13.81, 31.72 5.05 M4.82 35.99 C10.35 28.52, 16.34 22.54, 31.72 5.05 M9.81 36.35 C16 30.76, 18.05 26.58, 31.46 11.45 M9.81 36.35 C14.8 30.15, 18.4 24.82, 31.46 11.45 M14.8 36.71 C20.19 29.12, 24.77 23.96, 31.86 17.09 M14.8 36.71 C18.37 31.26, 23.35 26.99, 31.86 17.09 M20.44 36.32 C26.12 32.34, 29.4 24.18, 32.25 22.73 M20.44 36.32 C22.99 32.74, 27.01 29.38, 32.25 22.73 M25.43 36.68 C26.26 35.53, 27.73 33.79, 31.99 29.13 M25.43 36.68 C27.14 34.1, 29.05 31.84, 31.99 29.13" stroke="#a5d8ff" stroke-width="0.5" fill="none"></path><path d="M7.82 0 C12.06 0.78, 16.48 -0.78, 23.46 0 M7.82 0 C11.36 0.68, 16.12 0.45, 23.46 0 M23.46 0 C30.01 -0.96, 29.87 4, 31.28 7.82 M23.46 0 C28.75 1.89, 30.39 3.51, 31.28 7.82 M31.28 7.82 C30.18 10.87, 32.51 18.74, 31.28 28.95 M31.28 7.82 C32.22 12.22, 30.57 18.13, 31.28 28.95 M31.28 28.95 C33.21 35.97, 27.21 34.89, 23.46 36.77 M31.28 28.95 C32.48 35.66, 28.17 35.43, 23.46 36.77 M23.46 36.77 C17.59 37.69, 12.7 35.44, 7.82 36.77 M23.46 36.77 C18.7 36.47, 14.76 36.21, 7.82 36.77 M7.82 36.77 C4.5 37.95, 1.91 34.61, 0 28.95 M7.82 36.77 C1.16 37.58, 0.41 32.65, 0 28.95 M0 28.95 C0.4 22.59, 1.49 18.35, 0 7.82 M0 28.95 C0.13 22.84, 0.75 15.54, 0 7.82 M0 7.82 C-1.15 4.33, 3.04 0.96, 7.82 0 M0 7.82 C0.79 1.16, 1.12 -0.24, 7.82 0" stroke="#1971c2" stroke-width="1" fill="none"></path></g><g stroke-linecap="round" transform="translate(147.0117140000002 156.74898606215044) rotate(0 15.640164772479238 18.384065265231868)"><path d="M0.49 4.4 C0.49 4.4, 0.49 4.4, 0.49 4.4 M0.49 4.4 C0.49 4.4, 0.49 4.4, 0.49 4.4 M0.23 10.8 C1.87 7.59, 4.02 6.38, 9.41 0.23 M0.23 10.8 C2.73 8.46, 3.79 6.61, 9.41 0.23 M0.62 16.44 C4.66 11.27, 5.62 7.78, 14.4 0.59 M0.62 16.44 C4.79 10.91, 8.55 6.63, 14.4 0.59 M0.36 22.84 C3.75 16.04, 10.06 11.7, 20.04 0.2 M0.36 22.84 C8.78 14.49, 15.83 3.94, 20.04 0.2 M0.75 28.48 C5.89 21.15, 14.28 14.3, 25.03 0.56 M0.75 28.48 C5.39 23, 10.49 17.08, 25.03 0.56 M1.81 33.37 C8.86 22.81, 16.69 13.58, 28.7 2.43 M1.81 33.37 C8.08 27.21, 13.86 19.14, 28.7 2.43 M4.82 35.99 C15.36 25.02, 26.13 13.58, 31.07 5.81 M4.82 35.99 C13.2 26.67, 22.68 15.46, 31.07 5.81 M9.81 36.35 C17.81 28.18, 23.65 17.25, 30.8 12.2 M9.81 36.35 C14.66 31.35, 18.68 25.27, 30.8 12.2 M14.8 36.71 C19.31 29.31, 28.57 22.98, 31.2 17.85 M14.8 36.71 C18.25 33.02, 21.99 28.23, 31.2 17.85 M20.44 36.32 C25.6 30.26, 29.12 28.24, 31.59 23.49 M20.44 36.32 C22.76 32.77, 27.26 29.62, 31.59 23.49 M25.43 36.68 C28.06 34.54, 29.54 31.96, 31.99 29.13 M25.43 36.68 C26.93 34.88, 28.5 33.2, 31.99 29.13" stroke="#a5d8ff" stroke-width="0.5" fill="none"></path><path d="M7.82 0 C12.84 1.28, 20.01 0.69, 23.46 0 M7.82 0 C12.97 0.78, 17.52 0.28, 23.46 0 M23.46 0 C30.15 0.12, 31.98 2.58, 31.28 7.82 M23.46 0 C30.83 0.38, 30.52 4.86, 31.28 7.82 M31.28 7.82 C32.88 14.94, 31.49 22.82, 31.28 28.95 M31.28 7.82 C31.4 14.65, 30.5 20.56, 31.28 28.95 M31.28 28.95 C33.21 33.46, 29.63 37.08, 23.46 36.77 M31.28 28.95 C32.82 32.96, 30.33 35.45, 23.46 36.77 M23.46 36.77 C19.04 35.64, 13.45 37.42, 7.82 36.77 M23.46 36.77 C20.05 37.38, 15.33 36.31, 7.82 36.77 M7.82 36.77 C4.16 38.46, -1.17 35.58, 0 28.95 M7.82 36.77 C0.95 38.89, 2.1 32.71, 0 28.95 M0 28.95 C0.06 21.94, 0.65 17.61, 0 7.82 M0 28.95 C0.97 21.29, -0.4 14, 0 7.82 M0 7.82 C0.7 1.02, 2.86 0.72, 7.82 0 M0 7.82 C-0.85 0.9, 2.95 1.09, 7.82 0" stroke="#1971c2" stroke-width="1" fill="none"></path></g><g stroke-linecap="round" transform="translate(212.43828399999984 93.30524406215028) rotate(0 15.640164772479238 18.384065265231868)"><path d="M0.49 4.4 C0.49 4.4, 0.49 4.4, 0.49 4.4 M0.49 4.4 C0.49 4.4, 0.49 4.4, 0.49 4.4 M0.23 10.8 C1.27 7.35, 4.76 5, 9.41 0.23 M0.23 10.8 C3.66 6.48, 7.12 2.24, 9.41 0.23 M0.62 16.44 C5.16 13.06, 6.37 10.93, 14.4 0.59 M0.62 16.44 C5.63 10.75, 11.44 5.87, 14.4 0.59 M0.36 22.84 C8.22 16.2, 12.23 8.29, 20.04 0.2 M0.36 22.84 C5.63 16.84, 10.13 11.46, 20.04 0.2 M0.75 28.48 C11.38 18, 20.04 8.9, 25.03 0.56 M0.75 28.48 C7.67 21.18, 14.72 13.11, 25.03 0.56 M1.81 33.37 C6.31 28.5, 14.31 21.27, 28.7 2.43 M1.81 33.37 C11.21 23.41, 18.79 14.4, 28.7 2.43 M4.82 35.99 C13.35 25.92, 19.02 16.62, 31.07 5.81 M4.82 35.99 C13.86 24.55, 24.58 13.64, 31.07 5.81 M9.81 36.35 C15.03 29.83, 20.58 22.33, 30.8 12.2 M9.81 36.35 C15.21 30.38, 18.52 24.49, 30.8 12.2 M14.8 36.71 C17.67 32.72, 21.55 28.61, 31.2 17.85 M14.8 36.71 C19.76 32.19, 23.06 26.39, 31.2 17.85 M20.44 36.32 C25.02 31.39, 28.13 27.58, 31.59 23.49 M20.44 36.32 C22.35 33.28, 24.72 31.59, 31.59 23.49 M25.43 36.68 C27.89 34.94, 28.58 32.06, 31.99 29.13 M25.43 36.68 C27.64 33.9, 29.6 32.17, 31.99 29.13" stroke="#a5d8ff" stroke-width="0.5" fill="none"></path><path d="M7.82 0 C13.18 1, 14.87 -0.17, 23.46 0 M7.82 0 C14.62 -0.62, 19.46 -0.7, 23.46 0 M23.46 0 C28.03 -1.27, 30.77 3.4, 31.28 7.82 M23.46 0 C27.81 -0.38, 29.98 2.1, 31.28 7.82 M31.28 7.82 C31.93 12.44, 32.44 19.07, 31.28 28.95 M31.28 7.82 C30.84 14.34, 30.6 20.74, 31.28 28.95 M31.28 28.95 C30.96 33.18, 27.38 37.09, 23.46 36.77 M31.28 28.95 C31.73 33.04, 29.54 35.03, 23.46 36.77 M23.46 36.77 C19.42 38.02, 14.2 37.89, 7.82 36.77 M23.46 36.77 C19.05 36.55, 13.06 36.82, 7.82 36.77 M7.82 36.77 C2.32 35.3, -1.71 34.94, 0 28.95 M7.82 36.77 C4.34 38.77, -0.17 35.49, 0 28.95 M0 28.95 C1.2 20.06, 1.65 14.72, 0 7.82 M0 28.95 C0.84 23.46, -0.35 19.46, 0 7.82 M0 7.82 C0.88 4.06, 1.6 -1.08, 7.82 0 M0 7.82 C1.02 1.32, 0.63 -1.49, 7.82 0" stroke="#1971c2" stroke-width="1" fill="none"></path></g><g transform="translate(18.299040022538975 130.0733744628023) rotate(0 7.341125341676161 13.337805727373564)"><text x="0" y="0" font-family="Virgil, Segoe UI Emoji" font-size="21.3404891637977px" fill="#1e1e1e" text-anchor="start" style="white-space: pre;" direction="ltr" dominant-baseline="text-before-edge">0</text></g><g transform="translate(63.9696100225392 130.07337446280218) rotate(0 2.8915634155273438 13.337805727373564)"><text x="0" y="0" font-family="Virgil, Segoe UI Emoji" font-size="21.3404891637977px" fill="#1e1e1e" text-anchor="start" style="white-space: pre;" direction="ltr" dominant-baseline="text-before-edge">1</text></g><g transform="translate(109.6401820225392 130.07337446280206) rotate(0 7.597038269042969 13.337805727373564)"><text x="0" y="0" font-family="Virgil, Segoe UI Emoji" font-size="21.3404891637977px" fill="#1e1e1e" text-anchor="start" style="white-space: pre;" direction="ltr" dominant-baseline="text-before-edge">2</text></g><g transform="translate(155.3107540225392 130.07337446280195) rotate(0 7.266265869140625 13.337805727373564)"><text x="0" y="0" font-family="Virgil, Segoe UI Emoji" font-size="21.3404891637977px" fill="#1e1e1e" text-anchor="start" style="white-space: pre;" direction="ltr" dominant-baseline="text-before-edge">3</text></g><g transform="translate(220.73732402253881 66.6296324628018) rotate(0 6.82879638671875 13.337805727373564)"><text x="0" y="0" font-family="Virgil, Segoe UI Emoji" font-size="21.3404891637977px" fill="#1e1e1e" text-anchor="start" style="white-space: pre;" direction="ltr" dominant-baseline="text-before-edge">4</text></g><g stroke-linecap="round"><g transform="translate(231.3319094970375 143.12226535378016) rotate(0 -19.20720924528314 16.188944871029435)"><path d="M0.33 -0.43 C-1.18 4.1, -2.58 20.72, -9.2 26.08 C-15.81 31.45, -34.33 30.69, -39.35 31.74 M-0.96 -1.71 C-2.61 2.6, -4.08 18.66, -10.07 24.4 C-16.07 30.14, -32.03 31.2, -36.94 32.73" stroke="#1e1e1e" stroke-width="1" fill="none"></path></g><g transform="translate(231.3319094970375 143.12226535378016) rotate(0 -19.20720924528314 16.188944871029435)"><path d="M-24.17 24.91 C-28.49 27.38, -30.6 28.32, -36.94 32.73 M-24.17 24.91 C-27.95 26.66, -30.99 28.43, -36.94 32.73" stroke="#1e1e1e" stroke-width="1" fill="none"></path></g><g transform="translate(231.3319094970375 143.12226535378016) rotate(0 -19.20720924528314 16.188944871029435)"><path d="M-22.14 34.95 C-26.95 34.51, -29.65 32.54, -36.94 32.73 M-22.14 34.95 C-26.34 34.22, -29.88 33.51, -36.94 32.73" stroke="#1e1e1e" stroke-width="1" fill="none"></path></g></g><mask></mask><g stroke-linecap="round"><g transform="translate(10.000000635684046 209.51659870148018) rotate(0 80.3781594565653 -0.7697897296445717)"><path d="M1.13 0.53 C28.12 0.12, 134.79 -1.61, 161.24 -1.89 M0.26 -0.24 C27.2 -0.53, 133.55 -0.03, 160.55 -0.54" stroke="#1e1e1e" stroke-width="1" fill="none"></path></g></g><mask></mask><g stroke-linecap="round"><g transform="translate(178.51220469258442 208.6320742844959) rotate(0 6.7357972585468815 -0.5051835096396644)"><path d="M0.06 -0.23 C2.24 -0.46, 11.16 -1.08, 13.42 -1.21 M-0.58 -0.82 C1.5 -0.99, 10.65 -0.68, 12.97 -0.62" stroke="#1e1e1e" stroke-width="1" fill="none"></path></g></g><mask></mask><g stroke-linecap="round"><g transform="translate(198.35065269258394 208.12689028449591) rotate(0 6.7357972585468815 -0.5051835096396644)"><path d="M-0.19 -0.47 C1.9 -0.62, 10.92 -0.86, 13.12 -0.96 M0.71 0.47 C2.93 0.42, 11.94 -0.07, 14.18 -0.23" stroke="#1e1e1e" stroke-width="1" fill="none"></path></g></g><mask></mask><g stroke-linecap="round"><g transform="translate(220.73732469258357 207.16689928449574) rotate(0 6.7357972585468815 -0.5051835096396644)"><path d="M0.32 -0.28 C2.6 -0.46, 11.11 -0.81, 13.34 -0.9 M-0.19 0.77 C2.05 0.39, 10.57 -1.38, 12.84 -1.81" stroke="#1e1e1e" stroke-width="1" fill="none"></path></g></g><mask></mask><g transform="translate(33.435753915896385 216.87792724250102) rotate(0 60.9375 9.600000000000023)"><text x="0" y="0" font-family="Cascadia, Segoe UI Emoji" font-size="16px" fill="#1e1e1e" text-anchor="start" style="white-space: pre;" direction="ltr" dominant-baseline="text-before-edge">No Fixed Size</text></g><g transform="translate(81.51518174833382 93.30524433253794) rotate(0 28.125 9.600000000000023)"><text x="0" y="0" font-family="Cascadia, Segoe UI Emoji" font-size="16px" fill="#1e1e1e" text-anchor="start" style="white-space: pre;" direction="ltr" dominant-baseline="text-before-edge">Vector</text></g><g stroke-opacity="0.8" fill-opacity="0.8" stroke-linecap="round" transform="translate(279.6495032544253 71.77037968890619) rotate(0 34.607735038794544 61.2124296996422)"><path d="M2.11 7.13 C2.11 7.13, 2.11 7.13, 2.11 7.13 M2.11 7.13 C2.11 7.13, 2.11 7.13, 2.11 7.13 M0.53 15.04 C2.94 9.83, 6.27 6.65, 12.34 1.46 M0.53 15.04 C5.48 10.64, 8.94 5.51, 12.34 1.46 M0.27 21.44 C8.28 15.91, 13.44 5.49, 18.64 0.31 M0.27 21.44 C5.62 14.9, 9.12 9.42, 18.64 0.31 M0.67 27.08 C11.05 15.94, 18.67 4.41, 24.29 -0.09 M0.67 27.08 C9.97 16.86, 17.76 7.32, 24.29 -0.09 M0.41 33.48 C7.37 27.36, 13.29 18.27, 29.27 0.27 M0.41 33.48 C9.77 22.73, 17.95 13.68, 29.27 0.27 M0.8 39.12 C9.18 30.72, 15.23 19.87, 34.26 0.63 M0.8 39.12 C7.43 30.11, 15.46 23.65, 34.26 0.63 M0.54 45.52 C10.83 36.39, 19.89 22.58, 39.9 0.24 M0.54 45.52 C10.46 32.73, 22.78 22.05, 39.9 0.24 M0.28 51.92 C10.31 41.22, 19.69 28.54, 44.89 0.6 M0.28 51.92 C12.39 38.24, 23.28 25.15, 44.89 0.6 M0.67 57.56 C12.27 42.79, 21.31 33.02, 50.53 0.2 M0.67 57.56 C13.52 43.52, 25.1 28.67, 50.53 0.2 M0.41 63.96 C13.54 49.62, 29.79 31.52, 55.52 0.56 M0.41 63.96 C12.77 49.85, 23.21 37.41, 55.52 0.56 M0.15 70.36 C18.64 50.69, 37.24 29.28, 59.2 2.43 M0.15 70.36 C15.76 51.64, 31.99 33.13, 59.2 2.43 M0.54 76 C20.23 51.04, 42.42 29.19, 63.53 3.55 M0.54 76 C19.43 54.9, 37.49 32.85, 63.53 3.55 M0.28 82.4 C22.08 56.43, 44.59 33.11, 66.55 6.17 M0.28 82.4 C17.87 65.46, 33.51 46.54, 66.55 6.17 M0.02 88.79 C14.3 70.43, 30.73 56.24, 68.25 10.3 M0.02 88.79 C16.84 68.83, 33.64 49.64, 68.25 10.3 M0.42 94.44 C20.9 69, 42.84 45.18, 69.3 15.19 M0.42 94.44 C16.05 76.17, 31.47 59.65, 69.3 15.19 M0.15 100.84 C25.09 74.55, 47.35 45.41, 69.7 20.84 M0.15 100.84 C25.09 74.18, 48.3 46.85, 69.7 20.84 M0.55 106.48 C22.57 78.64, 45.86 54.01, 69.44 27.23 M0.55 106.48 C26.41 74.57, 53.63 43.25, 69.44 27.23 M0.94 112.12 C17.68 92.32, 38.42 69.93, 69.83 32.88 M0.94 112.12 C25.04 85.64, 47.93 59.28, 69.83 32.88 M3.31 115.5 C26.33 87.99, 49.48 62.63, 69.57 39.28 M3.31 115.5 C18.54 99.84, 31.63 83.29, 69.57 39.28 M5.67 118.88 C24.69 94.99, 46.12 73.03, 69.96 44.92 M5.67 118.88 C27.42 93.59, 49.53 69.65, 69.96 44.92 M9.34 120.75 C30.22 92.83, 54.68 69.06, 69.7 51.32 M9.34 120.75 C28.37 97.57, 49.46 76.67, 69.7 51.32 M13.68 121.86 C25.09 106.52, 38.09 93.61, 69.44 57.71 M13.68 121.86 C33.38 98.47, 53.42 76.62, 69.44 57.71 M18.66 122.22 C38.62 101.94, 56.27 80.95, 69.84 63.36 M18.66 122.22 C30.51 108.9, 40.9 95.39, 69.84 63.36 M24.31 121.83 C38.3 107.57, 50.62 89.69, 69.57 69.75 M24.31 121.83 C37.7 105.75, 53.74 88.22, 69.57 69.75 M29.29 122.19 C41.86 107.75, 52.26 96.14, 69.31 76.15 M29.29 122.19 C44.27 104.64, 58.84 88.55, 69.31 76.15 M34.94 121.8 C43.78 112.07, 49.95 103.76, 69.71 81.8 M34.94 121.8 C45.51 109.97, 55.95 97.57, 69.71 81.8 M40.58 121.4 C47.76 113.72, 54.07 106.4, 69.45 88.19 M40.58 121.4 C50.38 110.56, 59.32 101.1, 69.45 88.19 M45.57 121.76 C53.04 112.91, 60.72 106.94, 69.18 94.59 M45.57 121.76 C51.95 114.81, 58.48 106.75, 69.18 94.59 M51.21 121.37 C58.94 113.64, 65.25 105.47, 69.58 100.23 M51.21 121.37 C56.34 115.04, 63.02 108, 69.58 100.23 M56.2 121.73 C59.65 116.05, 65.05 110.51, 69.32 106.63 M56.2 121.73 C60.94 117.57, 63.86 113.55, 69.32 106.63 M63.15 119.82 C64.32 118.24, 65.51 117.6, 66.43 116.05 M63.15 119.82 C63.9 119.03, 64.89 118.27, 66.43 116.05" stroke="#ffffff" stroke-width="0.5" fill="none"></path><path d="M17.3 0 C29.88 0.57, 45.32 -0.7, 51.91 0 M17.3 0 C26.76 0.89, 34.53 0.89, 51.91 0 M51.91 0 C65.02 -0.84, 67.3 5.99, 69.22 17.3 M51.91 0 C61.94 -1.77, 70.41 7.72, 69.22 17.3 M69.22 17.3 C68.82 52.91, 70.41 83.05, 69.22 105.12 M69.22 17.3 C69.02 41.17, 69.78 63.79, 69.22 105.12 M69.22 105.12 C70.96 117.2, 63.93 122.84, 51.91 122.42 M69.22 105.12 C70.43 115.93, 63.16 124.4, 51.91 122.42 M51.91 122.42 C42.58 121.17, 34.44 120.83, 17.3 122.42 M51.91 122.42 C44.08 121.45, 37.31 122.53, 17.3 122.42 M17.3 122.42 C4.09 123.83, -1.96 118.04, 0 105.12 M17.3 122.42 C6.41 124.16, -2.26 118.19, 0 105.12 M0 105.12 C2.19 75.56, -0.07 44.33, 0 17.3 M0 105.12 C0.28 75.46, -0.91 47.46, 0 17.3 M0 17.3 C0.51 5.49, 5.8 -0.85, 17.3 0 M0 17.3 C0.32 7.16, 4.09 -0.63, 17.3 0" stroke="#343a40" stroke-width="1" fill="none"></path></g><g stroke-linecap="round" transform="translate(373.52300434986137 56.62952861394166) rotate(0 20.98093276636746 8.868220552113257)"><path d="M1.18 1.03 C1.18 1.03, 1.18 1.03, 1.18 1.03 M1.18 1.03 C1.18 1.03, 1.18 1.03, 1.18 1.03 M0.26 8.18 C2.07 5.13, 5.9 3.22, 7.48 -0.12 M0.26 8.18 C2.71 5.41, 5.42 2.62, 7.48 -0.12 M0.66 13.82 C4.25 8.76, 6.11 7.26, 12.47 0.24 M0.66 13.82 C3.04 9.5, 8.01 7.12, 12.47 0.24 M2.36 17.96 C7.56 10.37, 15.67 5.31, 17.45 0.6 M2.36 17.96 C6.12 13.55, 10.02 7.56, 17.45 0.6 M8.01 17.56 C11.64 12.6, 17.28 7.15, 23.1 0.2 M8.01 17.56 C12.88 12.45, 17.29 6.33, 23.1 0.2 M12.99 17.92 C18.05 9.75, 22.7 3.54, 28.08 0.56 M12.99 17.92 C17.94 13.64, 21.23 7.84, 28.08 0.56 M18.64 17.53 C25.07 9.38, 28.6 3.96, 33.73 0.17 M18.64 17.53 C22.7 14.65, 24.45 9.43, 33.73 0.17 M23.62 17.89 C26.34 13.13, 31.82 6.23, 38.71 0.53 M23.62 17.89 C27.86 12.32, 31.45 8.92, 38.71 0.53 M29.27 17.49 C32.28 14.06, 36.92 8.79, 41.73 3.15 M29.27 17.49 C31.39 14.13, 33.97 11.93, 41.73 3.15 M34.25 17.85 C37.63 14.99, 38.17 12.15, 42.13 8.8 M34.25 17.85 C36.25 15.32, 38.58 12.73, 42.13 8.8" stroke="#a5d8ff" stroke-width="0.5" fill="none"></path><path d="M4.43 0 C13.15 -0.98, 19.15 -0.64, 37.53 0 M4.43 0 C11.14 0.4, 19.46 -0.62, 37.53 0 M37.53 0 C38.57 0.22, 40.65 -0.06, 41.96 4.43 M37.53 0 C41.67 1.95, 43.88 1.71, 41.96 4.43 M41.96 4.43 C42.43 6.07, 41.59 9.69, 41.96 13.3 M41.96 4.43 C41.89 8.09, 42.28 11.23, 41.96 13.3 M41.96 13.3 C42.44 16.67, 41.54 17.11, 37.53 17.74 M41.96 13.3 C41.68 18.23, 39.9 15.99, 37.53 17.74 M37.53 17.74 C27.31 15.71, 12.29 15.61, 4.43 17.74 M37.53 17.74 C28.08 17.56, 17.4 18.13, 4.43 17.74 M4.43 17.74 C-0.48 19.12, 0.56 17.77, 0 13.3 M4.43 17.74 C-0.78 19.27, 1.18 15.56, 0 13.3 M0 13.3 C-0.23 10.28, 0.16 7, 0 4.43 M0 13.3 C-0.23 11.26, 0.04 9.21, 0 4.43 M0 4.43 C0.03 0.63, 1.76 1.21, 4.43 0 M0 4.43 C-1.68 0.85, -0.54 -1.57, 4.43 0" stroke="#1971c2" stroke-width="1" fill="none"></path></g><g stroke-linecap="round" transform="translate(293.9948497202922 165.71353159602683) rotate(0 20.98093276636746 8.435634590593395)"><path d="M1.12 0.98 C1.12 0.98, 1.12 0.98, 1.12 0.98 M1.12 0.98 C1.12 0.98, 1.12 0.98, 1.12 0.98 M0.86 7.37 C2.81 6.37, 4.08 5.01, 6.77 0.58 M0.86 7.37 C3.15 5.12, 4.9 2.92, 6.77 0.58 M0.6 13.77 C4.47 9.31, 9.13 4.42, 12.41 0.19 M0.6 13.77 C4.06 11.75, 6.47 8.77, 12.41 0.19 M2.96 17.15 C8.76 13.37, 11.2 8.64, 17.4 0.55 M2.96 17.15 C6.47 11.64, 11.24 7.63, 17.4 0.55 M7.95 17.51 C13.96 11.03, 20.35 5.24, 23.04 0.15 M7.95 17.51 C11.03 13.38, 16.39 9.14, 23.04 0.15 M13.59 17.12 C16.63 10.71, 23.08 5.04, 28.03 0.51 M13.59 17.12 C15.77 13.56, 19.95 10.85, 28.03 0.51 M18.58 17.48 C23.53 9.93, 27.98 2.66, 33.67 0.12 M18.58 17.48 C20.91 12.82, 24.69 9.76, 33.67 0.12 M24.22 17.08 C28.71 9.85, 34.59 5.89, 38.66 0.48 M24.22 17.08 C26.83 14.2, 31.4 9.9, 38.66 0.48 M29.21 17.44 C31.22 15.21, 33.21 11.95, 42.33 2.35 M29.21 17.44 C32.75 13.43, 37.26 8.13, 42.33 2.35 M34.85 17.05 C36.68 13.81, 40.33 11.37, 42.07 8.75 M34.85 17.05 C36.34 15.23, 38.33 13.84, 42.07 8.75" stroke="#a5d8ff" stroke-width="0.5" fill="none"></path><path d="M4.22 0 C13.96 -0.43, 23.81 1.42, 37.74 0 M4.22 0 C17.07 -0.62, 27.39 -0.09, 37.74 0 M37.74 0 C39.24 -1.54, 43 3.1, 41.96 4.22 M37.74 0 C42.47 0.23, 41.13 0.84, 41.96 4.22 M41.96 4.22 C41.68 8.12, 42.65 10.26, 41.96 12.65 M41.96 4.22 C42.33 7.69, 42.06 11.02, 41.96 12.65 M41.96 12.65 C43.02 14.84, 40.31 18.59, 37.74 16.87 M41.96 12.65 C41.38 13.72, 41.83 17.08, 37.74 16.87 M37.74 16.87 C28.38 14.68, 22.3 15.72, 4.22 16.87 M37.74 16.87 C30.01 17.62, 22.98 17.6, 4.22 16.87 M4.22 16.87 C1.96 18.38, -1.97 16.8, 0 12.65 M4.22 16.87 C2.59 16.17, 2.01 17.68, 0 12.65 M0 12.65 C0.25 10.12, -0.6 7.21, 0 4.22 M0 12.65 C0.14 10.79, 0.04 8.87, 0 4.22 M0 4.22 C0.28 2.62, -0.06 -0.55, 4.22 0 M0 4.22 C-2.02 -0.16, 1.69 -0.57, 4.22 0" stroke="#1971c2" stroke-width="1" fill="none"></path></g><g stroke-linecap="round" transform="translate(293.63193519827655 141.55776623033154) rotate(0 20.98093276636746 8.435634590593395)"><path d="M1.12 0.98 C1.12 0.98, 1.12 0.98, 1.12 0.98 M1.12 0.98 C1.12 0.98, 1.12 0.98, 1.12 0.98 M2.17 5.86 C3.52 5.12, 4.67 3.35, 6.11 1.34 M2.17 5.86 C3.33 4.64, 4.98 2.99, 6.11 1.34 M1.91 12.26 C3.64 10.61, 4.7 6.3, 11.1 1.7 M1.91 12.26 C4.54 10.22, 5.91 7.21, 11.1 1.7 M2.96 17.15 C6.07 14.21, 9.81 8.01, 16.74 1.3 M2.96 17.15 C7.8 11.8, 13.32 5.96, 16.74 1.3 M7.95 17.51 C13.06 13.54, 15.82 7.16, 21.73 1.66 M7.95 17.51 C13.9 12.17, 18.37 5.65, 21.73 1.66 M13.59 17.12 C16.56 12.59, 17.77 11.19, 26.71 2.02 M13.59 17.12 C19.03 12.21, 24.04 6.7, 26.71 2.02 M18.58 17.48 C19.64 12.36, 22.42 12.52, 32.36 1.63 M18.58 17.48 C23.66 11.45, 29.27 5.22, 32.36 1.63 M24.22 17.08 C28.31 13.13, 31.52 7.27, 37.34 1.99 M24.22 17.08 C27.82 13.93, 29.57 9.36, 37.34 1.99 M29.21 17.44 C32.37 12.91, 39.08 5.22, 42.33 2.35 M29.21 17.44 C32.86 13.09, 37.13 10.21, 42.33 2.35 M34.85 17.05 C36.91 15.47, 38.29 11.73, 42.07 8.75 M34.85 17.05 C37.44 14.85, 39.34 12.71, 42.07 8.75" stroke="#a5d8ff" stroke-width="0.5" fill="none"></path><path d="M4.22 0 C11.04 1.36, 22.45 -0.74, 37.74 0 M4.22 0 C15.31 0.25, 27.67 -0.63, 37.74 0 M37.74 0 C41.59 1.69, 43.63 1.61, 41.96 4.22 M37.74 0 C39.72 -0.56, 44.19 2.68, 41.96 4.22 M41.96 4.22 C42.57 5.42, 42.76 7.93, 41.96 12.65 M41.96 4.22 C42.14 7.44, 42.26 10.35, 41.96 12.65 M41.96 12.65 C41.72 17.18, 40.05 15.36, 37.74 16.87 M41.96 12.65 C43.23 15.67, 38.9 18.64, 37.74 16.87 M37.74 16.87 C30.5 15.7, 21.72 16.95, 4.22 16.87 M37.74 16.87 C26.26 17.8, 17.02 17.86, 4.22 16.87 M4.22 16.87 C-0.56 18.21, 1.03 14.86, 0 12.65 M4.22 16.87 C3.41 19.09, 1.48 15.08, 0 12.65 M0 12.65 C-0.64 10.44, -0.75 6.52, 0 4.22 M0 12.65 C-0.01 9.99, 0.04 7.95, 0 4.22 M0 4.22 C-1.46 0.86, -0.35 -1.36, 4.22 0 M0 4.22 C0.28 0.84, -0.87 -0.53, 4.22 0" stroke="#1971c2" stroke-width="1" fill="none"></path></g><g stroke-linecap="round" transform="translate(293.26898767175135 116.96941077755292) rotate(0 20.98093276636746 8.435634590593395)"><path d="M1.12 0.98 C1.12 0.98, 1.12 0.98, 1.12 0.98 M1.12 0.98 C1.12 0.98, 1.12 0.98, 1.12 0.98 M2.17 5.86 C3.92 4.21, 5.18 2.79, 6.11 1.34 M2.17 5.86 C3.78 4.38, 4.65 2.63, 6.11 1.34 M1.91 12.26 C3.7 7.42, 7.02 6.54, 11.1 1.7 M1.91 12.26 C5.26 7.99, 8.49 4.75, 11.1 1.7 M2.96 17.15 C7.57 10.75, 13.62 4.49, 16.74 1.3 M2.96 17.15 C6.93 13.1, 9.41 10.04, 16.74 1.3 M7.95 17.51 C11.22 12.33, 17.73 6.1, 21.73 1.66 M7.95 17.51 C12.71 11.85, 16.24 6.02, 21.73 1.66 M13.59 17.12 C14.96 14.28, 21.47 8.25, 26.71 2.02 M13.59 17.12 C18.1 13.22, 20.25 7.89, 26.71 2.02 M18.58 17.48 C20.18 15.26, 26.59 8.64, 32.36 1.63 M18.58 17.48 C22 13.39, 24.43 10.66, 32.36 1.63 M24.22 17.08 C26.07 13.35, 29.19 8.23, 37.34 1.99 M24.22 17.08 C28.43 10.52, 35.08 4.84, 37.34 1.99 M29.21 17.44 C34.01 11.13, 37.97 5.68, 42.33 2.35 M29.21 17.44 C34.7 13, 38.29 6.18, 42.33 2.35 M34.85 17.05 C36.03 14.2, 39.16 11.88, 42.07 8.75 M34.85 17.05 C37.12 15.14, 38.84 12.25, 42.07 8.75" stroke="#a5d8ff" stroke-width="0.5" fill="none"></path><path d="M4.22 0 C14.5 -1.05, 23.58 1.36, 37.74 0 M4.22 0 C12.21 -0.81, 22.04 0.81, 37.74 0 M37.74 0 C42.22 0.2, 41.23 0.92, 41.96 4.22 M37.74 0 C42.79 1.27, 40.14 0.5, 41.96 4.22 M41.96 4.22 C42.85 7.3, 42.63 11.13, 41.96 12.65 M41.96 4.22 C42.21 6.85, 41.93 10.1, 41.96 12.65 M41.96 12.65 C41.46 13.95, 41.66 17.05, 37.74 16.87 M41.96 12.65 C40.3 17.24, 38.51 14.89, 37.74 16.87 M37.74 16.87 C28.97 17.13, 24.23 15.05, 4.22 16.87 M37.74 16.87 C25.61 17.86, 11.94 17.77, 4.22 16.87 M4.22 16.87 C2.43 16.27, 1.74 17.39, 0 12.65 M4.22 16.87 C2.89 16.49, 1.06 16.11, 0 12.65 M0 12.65 C-0.67 9.29, 0.01 6.73, 0 4.22 M0 12.65 C0.06 10.49, -0.31 7.71, 0 4.22 M0 4.22 C-1.75 0.04, 1.65 -0.49, 4.22 0 M0 4.22 C-2.28 0.88, 2.51 1.92, 4.22 0" stroke="#1971c2" stroke-width="1" fill="none"></path></g><g stroke-linecap="round"><g transform="translate(362.7080541457308 66.99204144116499) rotate(0 -19.899457548659484 21.639725039650784)"><path d="M-0.5 0.71 C-4.58 1.96, -16.97 1.05, -23.71 8.17 C-30.46 15.29, -38.14 37.72, -40.95 43.41 M1.44 0.04 C-2.78 1.38, -17.48 1.98, -24.17 9.44 C-30.85 16.9, -35.9 39.21, -38.66 44.8" stroke="#1971c2" stroke-width="1" fill="none"></path></g><g transform="translate(362.7080541457308 66.99204144116499) rotate(0 -19.899457548659484 21.639725039650784)"><path d="M-38.81 25.92 C-37.52 34.26, -39.38 37.82, -38.66 44.8 M-38.81 25.92 C-38.4 32.59, -38.05 37.77, -38.66 44.8" stroke="#1971c2" stroke-width="1" fill="none"></path></g><g transform="translate(362.7080541457308 66.99204144116499) rotate(0 -19.899457548659484 21.639725039650784)"><path d="M-26.63 30.24 C-29.79 36.96, -36.07 38.96, -38.66 44.8 M-26.63 30.24 C-29.98 35.48, -33.43 39.31, -38.66 44.8" stroke="#1971c2" stroke-width="1" fill="none"></path></g></g><mask></mask><g transform="translate(292.6982420590721 206.4905753987078) rotate(0 24.052734375 9.85468776904412)"><text x="0" y="0" font-family="Cascadia, Segoe UI Emoji" font-size="16.424479615073526px" fill="#1e1e1e" text-anchor="start" style="white-space: pre;" direction="ltr" dominant-baseline="text-before-edge">Stack</text></g><g stroke-linecap="round"><g transform="translate(256.3096297948032 10.570668520033337) rotate(0 0.5374316221800655 117.1574080146942)"><path d="M-0.43 -0.57 C-0.17 38.63, 1.22 196.1, 1.53 235.07" stroke="#1e1e1e" stroke-width="1.5" fill="none" stroke-dasharray="8 9"></path></g></g><mask></mask></svg>