<svg version="1.1" xmlns="http://www.w3.org/2000/svg" viewBox="0 0 1163.834611025502 491.85523675053275" width="1163.834611025502" height="491.85523675053275">
  <!-- svg-source:excalidraw -->
  
  <defs>
    <style class="style-fonts">
      @font-face {
        font-family: "Virgil";
        src: url("https://excalidraw.com/Virgil.woff2");
      }
      @font-face {
        font-family: "Cascadia";
        src: url("https://excalidraw.com/Cascadia.woff2");
      }
      @font-face {
        font-family: "Assistant";
        src: url("https://excalidraw.com/Assistant-Regular.woff2");
      }
    </style>
    
  </defs>
  <rect x="0" y="0" width="1163.834611025502" height="491.85523675053275" fill="#ffffff"></rect><g stroke-opacity="0" fill-opacity="0" stroke-linecap="round" transform="translate(57.427855108866424 21.31455429399537) rotate(0 272.4466877627708 218.63617657260028)"><path d="M0 0 C138.64 0, 277.28 0, 544.89 0 M544.89 0 C544.89 170.47, 544.89 340.95, 544.89 437.27 M544.89 437.27 C435.16 437.27, 325.42 437.27, 0 437.27 M0 437.27 C0 337.75, 0 238.23, 0 0" stroke="#1e1e1e" stroke-width="1.5" fill="none" stroke-dasharray="8 9"></path></g><g stroke-opacity="0" fill-opacity="0" stroke-linecap="round" transform="translate(619.9241261088664 21.247734293995364) rotate(0 255.3513173581207 218.63617657260028)"><path d="M0 0 C158.9 0, 317.81 0, 510.7 0 M510.7 0 C510.7 157.4, 510.7 314.8, 510.7 437.27 M510.7 437.27 C352.29 437.27, 193.87 437.27, 0 437.27 M0 437.27 C0 279.88, 0 122.49, 0 0" stroke="#1e1e1e" stroke-width="1.5" fill="none" stroke-dasharray="8 9"></path></g><g stroke-linecap="round" transform="translate(170.59971446119584 111.154301874212) rotate(0 29.56964161324366 30.913704579211696)"><path d="M59.14 30.91 C59.14 32.7, 58.99 34.52, 58.69 36.28 C58.39 38.04, 57.94 39.81, 57.36 41.49 C56.77 43.17, 56.03 44.82, 55.18 46.37 C54.32 47.92, 53.32 49.41, 52.22 50.78 C51.12 52.16, 49.89 53.44, 48.58 54.59 C47.27 55.75, 45.84 56.79, 44.35 57.69 C42.87 58.58, 41.29 59.35, 39.68 59.96 C38.07 60.58, 36.39 61.05, 34.7 61.36 C33.02 61.67, 31.28 61.83, 29.57 61.83 C27.86 61.83, 26.12 61.67, 24.43 61.36 C22.75 61.05, 21.06 60.58, 19.46 59.96 C17.85 59.35, 16.27 58.58, 14.78 57.69 C13.3 56.79, 11.87 55.75, 10.56 54.59 C9.25 53.44, 8.02 52.16, 6.92 50.78 C5.82 49.41, 4.82 47.92, 3.96 46.37 C3.11 44.82, 2.37 43.17, 1.78 41.49 C1.2 39.81, 0.75 38.04, 0.45 36.28 C0.15 34.52, 0 32.7, 0 30.91 C0 29.12, 0.15 27.31, 0.45 25.55 C0.75 23.78, 1.2 22.02, 1.78 20.34 C2.37 18.66, 3.11 17.01, 3.96 15.46 C4.82 13.91, 5.82 12.41, 6.92 11.04 C8.02 9.67, 9.25 8.38, 10.56 7.23 C11.87 6.08, 13.3 5.04, 14.78 4.14 C16.27 3.25, 17.85 2.48, 19.46 1.86 C21.06 1.25, 22.75 0.78, 24.43 0.47 C26.12 0.16, 27.86 0, 29.57 0 C31.28 0, 33.02 0.16, 34.7 0.47 C36.39 0.78, 38.07 1.25, 39.68 1.86 C41.29 2.48, 42.87 3.25, 44.35 4.14 C45.84 5.04, 47.27 6.08, 48.58 7.23 C49.89 8.38, 51.12 9.67, 52.22 11.04 C53.32 12.41, 54.32 13.91, 55.18 15.46 C56.03 17.01, 56.77 18.66, 57.36 20.34 C57.94 22.02, 58.39 23.78, 58.69 25.55 C58.99 27.31, 59.06 30.02, 59.14 30.91 C59.21 31.81, 59.21 30.02, 59.14 30.91" stroke="#1e1e1e" stroke-width="2" fill="none"></path></g><g transform="translate(194.00264947245898 129.38798688205128) rotate(0 6.2578125 12.820729431814193)"><text x="6.2578125" y="0" font-family="Cascadia, Segoe UI Emoji" font-size="21.367882386356985px" fill="#1e1e1e" text-anchor="middle" style="white-space: pre;" direction="ltr" dominant-baseline="text-before-edge">1</text></g><g stroke-linecap="round" transform="translate(788.8234574611959 99.69946187421198) rotate(0 29.569641613243675 30.913704579211696)"><path d="M6.78 11.2 C6.78 11.2, 6.78 11.2, 6.78 11.2 M6.78 11.2 C6.78 11.2, 6.78 11.2, 6.78 11.2 M0.36 30.79 C10.12 19.55, 19.88 8.32, 26.6 0.6 M0.36 30.79 C7.43 22.65, 14.51 14.51, 26.6 0.6 M1.8 41.32 C9.14 32.87, 16.49 24.42, 36.57 1.32 M1.8 41.32 C15.66 25.37, 29.53 9.42, 36.57 1.32 M5.87 48.83 C14.37 39.05, 22.87 29.27, 44.58 4.3 M5.87 48.83 C20.79 31.67, 35.7 14.51, 44.58 4.3 M11.25 54.83 C21.43 43.13, 31.61 31.42, 50.62 9.55 M11.25 54.83 C20.68 43.99, 30.1 33.15, 50.62 9.55 M17.95 59.33 C30.36 45.04, 42.78 30.76, 56 15.55 M17.95 59.33 C26.05 50, 34.16 40.67, 56 15.55 M25.95 62.31 C36.58 50.08, 47.22 37.85, 58.76 24.57 M25.95 62.31 C38.59 47.77, 51.23 33.24, 58.76 24.57 M37.89 60.77 C44.65 53, 51.4 45.23, 58.89 36.62 M37.89 60.77 C45.16 52.4, 52.43 44.04, 58.89 36.62" stroke="#b2f2bb" stroke-width="1" fill="none"></path><path d="M59.14 30.91 C59.14 32.7, 58.99 34.52, 58.69 36.28 C58.39 38.04, 57.94 39.81, 57.36 41.49 C56.77 43.17, 56.03 44.82, 55.18 46.37 C54.32 47.92, 53.32 49.41, 52.22 50.78 C51.12 52.16, 49.89 53.44, 48.58 54.59 C47.27 55.75, 45.84 56.79, 44.35 57.69 C42.87 58.58, 41.29 59.35, 39.68 59.96 C38.07 60.58, 36.39 61.05, 34.7 61.36 C33.02 61.67, 31.28 61.83, 29.57 61.83 C27.86 61.83, 26.12 61.67, 24.43 61.36 C22.75 61.05, 21.06 60.58, 19.46 59.96 C17.85 59.35, 16.27 58.58, 14.78 57.69 C13.3 56.79, 11.87 55.75, 10.56 54.59 C9.25 53.44, 8.02 52.16, 6.92 50.78 C5.82 49.41, 4.82 47.92, 3.96 46.37 C3.11 44.82, 2.37 43.17, 1.78 41.49 C1.2 39.81, 0.75 38.04, 0.45 36.28 C0.15 34.52, 0 32.7, 0 30.91 C0 29.12, 0.15 27.31, 0.45 25.55 C0.75 23.78, 1.2 22.02, 1.78 20.34 C2.37 18.66, 3.11 17.01, 3.96 15.46 C4.82 13.91, 5.82 12.41, 6.92 11.04 C8.02 9.67, 9.25 8.38, 10.56 7.23 C11.87 6.08, 13.3 5.04, 14.78 4.14 C16.27 3.25, 17.85 2.48, 19.46 1.86 C21.06 1.25, 22.75 0.78, 24.43 0.47 C26.12 0.16, 27.86 0, 29.57 0 C31.28 0, 33.02 0.16, 34.7 0.47 C36.39 0.78, 38.07 1.25, 39.68 1.86 C41.29 2.48, 42.87 3.25, 44.35 4.14 C45.84 5.04, 47.27 6.08, 48.58 7.23 C49.89 8.38, 51.12 9.67, 52.22 11.04 C53.32 12.41, 54.32 13.91, 55.18 15.46 C56.03 17.01, 56.77 18.66, 57.36 20.34 C57.94 22.02, 58.39 23.78, 58.69 25.55 C58.99 27.31, 59.06 30.02, 59.14 30.91 C59.21 31.81, 59.21 30.02, 59.14 30.91" stroke="#2f9e44" stroke-width="2" fill="none"></path></g><g transform="translate(812.226392472459 117.93314688205126) rotate(0 6.2578125 12.820729431814193)"><text x="6.2578125" y="0" font-family="Cascadia, Segoe UI Emoji" font-size="21.367882386356985px" fill="#2f9e44" text-anchor="middle" style="white-space: pre;" direction="ltr" dominant-baseline="text-before-edge">1</text></g><g stroke-linecap="round" transform="translate(948.0982854611959 100.66231787421196) rotate(0 29.569641613243675 30.913704579211696)"><path d="M59.14 30.91 C59.14 32.7, 58.99 34.52, 58.69 36.28 C58.39 38.04, 57.94 39.81, 57.36 41.49 C56.77 43.17, 56.03 44.82, 55.18 46.37 C54.32 47.92, 53.32 49.41, 52.22 50.78 C51.12 52.16, 49.89 53.44, 48.58 54.59 C47.27 55.75, 45.84 56.79, 44.35 57.69 C42.87 58.58, 41.29 59.35, 39.68 59.96 C38.07 60.58, 36.39 61.05, 34.7 61.36 C33.02 61.67, 31.28 61.83, 29.57 61.83 C27.86 61.83, 26.12 61.67, 24.43 61.36 C22.75 61.05, 21.06 60.58, 19.46 59.96 C17.85 59.35, 16.27 58.58, 14.78 57.69 C13.3 56.79, 11.87 55.75, 10.56 54.59 C9.25 53.44, 8.02 52.16, 6.92 50.78 C5.82 49.41, 4.82 47.92, 3.96 46.37 C3.11 44.82, 2.37 43.17, 1.78 41.49 C1.2 39.81, 0.75 38.04, 0.45 36.28 C0.15 34.52, 0 32.7, 0 30.91 C0 29.12, 0.15 27.31, 0.45 25.55 C0.75 23.78, 1.2 22.02, 1.78 20.34 C2.37 18.66, 3.11 17.01, 3.96 15.46 C4.82 13.91, 5.82 12.41, 6.92 11.04 C8.02 9.67, 9.25 8.38, 10.56 7.23 C11.87 6.08, 13.3 5.04, 14.78 4.14 C16.27 3.25, 17.85 2.48, 19.46 1.86 C21.06 1.25, 22.75 0.78, 24.43 0.47 C26.12 0.16, 27.86 0, 29.57 0 C31.28 0, 33.02 0.16, 34.7 0.47 C36.39 0.78, 38.07 1.25, 39.68 1.86 C41.29 2.48, 42.87 3.25, 44.35 4.14 C45.84 5.04, 47.27 6.08, 48.58 7.23 C49.89 8.38, 51.12 9.67, 52.22 11.04 C53.32 12.41, 54.32 13.91, 55.18 15.46 C56.03 17.01, 56.77 18.66, 57.36 20.34 C57.94 22.02, 58.39 23.78, 58.69 25.55 C58.99 27.31, 59.06 30.02, 59.14 30.91 C59.21 31.81, 59.21 30.02, 59.14 30.91" stroke="#1e1e1e" stroke-width="2" fill="none"></path></g><g transform="translate(971.5012204724591 118.89600288205125) rotate(0 6.2578125 12.820729431814193)"><text x="6.2578125" y="0" font-family="Cascadia, Segoe UI Emoji" font-size="21.367882386356985px" fill="#1e1e1e" text-anchor="middle" style="white-space: pre;" direction="ltr" dominant-baseline="text-before-edge">2</text></g><g stroke-linecap="round" transform="translate(170.1862047275325 306.919751503033) rotate(0 29.56964161324366 30.913704579211696)"><path d="M59.14 30.91 C59.14 32.7, 58.99 34.52, 58.69 36.28 C58.39 38.04, 57.94 39.81, 57.36 41.49 C56.77 43.17, 56.03 44.82, 55.18 46.37 C54.32 47.92, 53.32 49.41, 52.22 50.78 C51.12 52.16, 49.89 53.44, 48.58 54.59 C47.27 55.75, 45.84 56.79, 44.35 57.69 C42.87 58.58, 41.29 59.35, 39.68 59.96 C38.07 60.58, 36.39 61.05, 34.7 61.36 C33.02 61.67, 31.28 61.83, 29.57 61.83 C27.86 61.83, 26.12 61.67, 24.43 61.36 C22.75 61.05, 21.06 60.58, 19.46 59.96 C17.85 59.35, 16.27 58.58, 14.78 57.69 C13.3 56.79, 11.87 55.75, 10.56 54.59 C9.25 53.44, 8.02 52.16, 6.92 50.78 C5.82 49.41, 4.82 47.92, 3.96 46.37 C3.11 44.82, 2.37 43.17, 1.78 41.49 C1.2 39.81, 0.75 38.04, 0.45 36.28 C0.15 34.52, 0 32.7, 0 30.91 C0 29.12, 0.15 27.31, 0.45 25.55 C0.75 23.78, 1.2 22.02, 1.78 20.34 C2.37 18.66, 3.11 17.01, 3.96 15.46 C4.82 13.91, 5.82 12.41, 6.92 11.04 C8.02 9.67, 9.25 8.38, 10.56 7.23 C11.87 6.08, 13.3 5.04, 14.78 4.14 C16.27 3.25, 17.85 2.48, 19.46 1.86 C21.06 1.25, 22.75 0.78, 24.43 0.47 C26.12 0.16, 27.86 0, 29.57 0 C31.28 0, 33.02 0.16, 34.7 0.47 C36.39 0.78, 38.07 1.25, 39.68 1.86 C41.29 2.48, 42.87 3.25, 44.35 4.14 C45.84 5.04, 47.27 6.08, 48.58 7.23 C49.89 8.38, 51.12 9.67, 52.22 11.04 C53.32 12.41, 54.32 13.91, 55.18 15.46 C56.03 17.01, 56.77 18.66, 57.36 20.34 C57.94 22.02, 58.39 23.78, 58.69 25.55 C58.99 27.31, 59.06 30.02, 59.14 30.91 C59.21 31.81, 59.21 30.02, 59.14 30.91" stroke="#1e1e1e" stroke-width="2" fill="none"></path></g><g transform="translate(193.58913973879564 325.15343651087227) rotate(0 6.2578125 12.820729431814193)"><text x="6.2578125" y="0" font-family="Cascadia, Segoe UI Emoji" font-size="21.367882386356985px" fill="#1e1e1e" text-anchor="middle" style="white-space: pre;" direction="ltr" dominant-baseline="text-before-edge">4</text></g><g stroke-linecap="round" transform="translate(788.8234567275325 245.06170350303296) rotate(0 29.569641613243675 30.913704579211696)"><path d="M59.14 30.91 C59.14 32.7, 58.99 34.52, 58.69 36.28 C58.39 38.04, 57.94 39.81, 57.36 41.49 C56.77 43.17, 56.03 44.82, 55.18 46.37 C54.32 47.92, 53.32 49.41, 52.22 50.78 C51.12 52.16, 49.89 53.44, 48.58 54.59 C47.27 55.75, 45.84 56.79, 44.35 57.69 C42.87 58.58, 41.29 59.35, 39.68 59.96 C38.07 60.58, 36.39 61.05, 34.7 61.36 C33.02 61.67, 31.28 61.83, 29.57 61.83 C27.86 61.83, 26.12 61.67, 24.43 61.36 C22.75 61.05, 21.06 60.58, 19.46 59.96 C17.85 59.35, 16.27 58.58, 14.78 57.69 C13.3 56.79, 11.87 55.75, 10.56 54.59 C9.25 53.44, 8.02 52.16, 6.92 50.78 C5.82 49.41, 4.82 47.92, 3.96 46.37 C3.11 44.82, 2.37 43.17, 1.78 41.49 C1.2 39.81, 0.75 38.04, 0.45 36.28 C0.15 34.52, 0 32.7, 0 30.91 C0 29.12, 0.15 27.31, 0.45 25.55 C0.75 23.78, 1.2 22.02, 1.78 20.34 C2.37 18.66, 3.11 17.01, 3.96 15.46 C4.82 13.91, 5.82 12.41, 6.92 11.04 C8.02 9.67, 9.25 8.38, 10.56 7.23 C11.87 6.08, 13.3 5.04, 14.78 4.14 C16.27 3.25, 17.85 2.48, 19.46 1.86 C21.06 1.25, 22.75 0.78, 24.43 0.47 C26.12 0.16, 27.86 0, 29.57 0 C31.28 0, 33.02 0.16, 34.7 0.47 C36.39 0.78, 38.07 1.25, 39.68 1.86 C41.29 2.48, 42.87 3.25, 44.35 4.14 C45.84 5.04, 47.27 6.08, 48.58 7.23 C49.89 8.38, 51.12 9.67, 52.22 11.04 C53.32 12.41, 54.32 13.91, 55.18 15.46 C56.03 17.01, 56.77 18.66, 57.36 20.34 C57.94 22.02, 58.39 23.78, 58.69 25.55 C58.99 27.31, 59.06 30.02, 59.14 30.91 C59.21 31.81, 59.21 30.02, 59.14 30.91" stroke="#1e1e1e" stroke-width="2" fill="none"></path></g><g transform="translate(812.2263917387957 263.2953885108723) rotate(0 6.2578125 12.820729431814193)"><text x="6.2578125" y="0" font-family="Cascadia, Segoe UI Emoji" font-size="21.367882386356985px" fill="#1e1e1e" text-anchor="middle" style="white-space: pre;" direction="ltr" dominant-baseline="text-before-edge">4</text></g><g stroke-linecap="round" transform="translate(430.4235968099585 306.919751503033) rotate(0 29.569641613243647 30.913704579211696)"><path d="M6.78 11.2 C6.78 11.2, 6.78 11.2, 6.78 11.2 M6.78 11.2 C6.78 11.2, 6.78 11.2, 6.78 11.2 M0.36 30.79 C10.11 19.57, 19.86 8.35, 26.6 0.6 M0.36 30.79 C7.74 22.29, 15.13 13.79, 26.6 0.6 M1.8 41.32 C14.94 26.2, 28.08 11.08, 36.57 1.32 M1.8 41.32 C9.91 31.99, 18.02 22.66, 36.57 1.32 M5.87 48.83 C14.36 39.06, 22.85 29.3, 44.58 4.3 M5.87 48.83 C17.46 35.5, 29.04 22.17, 44.58 4.3 M11.25 54.83 C25.66 38.26, 40.07 21.68, 50.62 9.55 M11.25 54.83 C23.46 40.79, 35.66 26.75, 50.62 9.55 M17.95 59.33 C29.02 46.58, 40.1 33.84, 56 15.55 M17.95 59.33 C26.42 49.58, 34.89 39.84, 56 15.55 M25.95 62.31 C36.98 49.63, 48 36.95, 58.76 24.57 M25.95 62.31 C32.69 54.56, 39.43 46.81, 58.76 24.57 M37.89 60.77 C43.7 54.09, 49.5 47.41, 58.89 36.62 M37.89 60.77 C42.56 55.4, 47.23 50.03, 58.89 36.62" stroke="#b2f2bb" stroke-width="1" fill="none"></path><path d="M59.14 30.91 C59.14 32.7, 58.99 34.52, 58.69 36.28 C58.39 38.04, 57.94 39.81, 57.36 41.49 C56.77 43.17, 56.03 44.82, 55.18 46.37 C54.32 47.92, 53.32 49.41, 52.22 50.78 C51.12 52.16, 49.89 53.44, 48.58 54.59 C47.27 55.75, 45.84 56.79, 44.35 57.69 C42.87 58.58, 41.29 59.35, 39.68 59.96 C38.07 60.58, 36.39 61.05, 34.7 61.36 C33.02 61.67, 31.28 61.83, 29.57 61.83 C27.86 61.83, 26.12 61.67, 24.43 61.36 C22.75 61.05, 21.06 60.58, 19.46 59.96 C17.85 59.35, 16.27 58.58, 14.78 57.69 C13.3 56.79, 11.87 55.75, 10.56 54.59 C9.25 53.44, 8.02 52.16, 6.92 50.78 C5.82 49.41, 4.82 47.92, 3.96 46.37 C3.11 44.82, 2.37 43.17, 1.78 41.49 C1.2 39.81, 0.75 38.04, 0.45 36.28 C0.15 34.52, 0 32.7, 0 30.91 C0 29.12, 0.15 27.31, 0.45 25.55 C0.75 23.78, 1.2 22.02, 1.78 20.34 C2.37 18.66, 3.11 17.01, 3.96 15.46 C4.82 13.91, 5.82 12.41, 6.92 11.04 C8.02 9.67, 9.25 8.38, 10.56 7.23 C11.87 6.08, 13.3 5.04, 14.78 4.14 C16.27 3.25, 17.85 2.48, 19.46 1.86 C21.06 1.25, 22.75 0.78, 24.43 0.47 C26.12 0.16, 27.86 0, 29.57 0 C31.28 0, 33.02 0.16, 34.7 0.47 C36.39 0.78, 38.07 1.25, 39.68 1.86 C41.29 2.48, 42.87 3.25, 44.35 4.14 C45.84 5.04, 47.27 6.08, 48.58 7.23 C49.89 8.38, 51.12 9.67, 52.22 11.04 C53.32 12.41, 54.32 13.91, 55.18 15.46 C56.03 17.01, 56.77 18.66, 57.36 20.34 C57.94 22.02, 58.39 23.78, 58.69 25.55 C58.99 27.31, 59.06 30.02, 59.14 30.91 C59.21 31.81, 59.21 30.02, 59.14 30.91" stroke="#2f9e44" stroke-width="2" fill="none"></path></g><g transform="translate(453.82653182122164 325.15343651087227) rotate(0 6.2578125 12.820729431814193)"><text x="6.2578125" y="0" font-family="Cascadia, Segoe UI Emoji" font-size="21.367882386356985px" fill="#2f9e44" text-anchor="middle" style="white-space: pre;" direction="ltr" dominant-baseline="text-before-edge">3</text></g><g stroke-linecap="round" transform="translate(430.21668702597907 111.154301874212) rotate(0 29.569641613243647 30.913704579211696)"><path d="M59.14 30.91 C59.14 32.7, 58.99 34.52, 58.69 36.28 C58.39 38.04, 57.94 39.81, 57.36 41.49 C56.77 43.17, 56.03 44.82, 55.18 46.37 C54.32 47.92, 53.32 49.41, 52.22 50.78 C51.12 52.16, 49.89 53.44, 48.58 54.59 C47.27 55.75, 45.84 56.79, 44.35 57.69 C42.87 58.58, 41.29 59.35, 39.68 59.96 C38.07 60.58, 36.39 61.05, 34.7 61.36 C33.02 61.67, 31.28 61.83, 29.57 61.83 C27.86 61.83, 26.12 61.67, 24.43 61.36 C22.75 61.05, 21.06 60.58, 19.46 59.96 C17.85 59.35, 16.27 58.58, 14.78 57.69 C13.3 56.79, 11.87 55.75, 10.56 54.59 C9.25 53.44, 8.02 52.16, 6.92 50.78 C5.82 49.41, 4.82 47.92, 3.96 46.37 C3.11 44.82, 2.37 43.17, 1.78 41.49 C1.2 39.81, 0.75 38.04, 0.45 36.28 C0.15 34.52, 0 32.7, 0 30.91 C0 29.12, 0.15 27.31, 0.45 25.55 C0.75 23.78, 1.2 22.02, 1.78 20.34 C2.37 18.66, 3.11 17.01, 3.96 15.46 C4.82 13.91, 5.82 12.41, 6.92 11.04 C8.02 9.67, 9.25 8.38, 10.56 7.23 C11.87 6.08, 13.3 5.04, 14.78 4.14 C16.27 3.25, 17.85 2.48, 19.46 1.86 C21.06 1.25, 22.75 0.78, 24.43 0.47 C26.12 0.16, 27.86 0, 29.57 0 C31.28 0, 33.02 0.16, 34.7 0.47 C36.39 0.78, 38.07 1.25, 39.68 1.86 C41.29 2.48, 42.87 3.25, 44.35 4.14 C45.84 5.04, 47.27 6.08, 48.58 7.23 C49.89 8.38, 51.12 9.67, 52.22 11.04 C53.32 12.41, 54.32 13.91, 55.18 15.46 C56.03 17.01, 56.77 18.66, 57.36 20.34 C57.94 22.02, 58.39 23.78, 58.69 25.55 C58.99 27.31, 59.06 30.02, 59.14 30.91 C59.21 31.81, 59.21 30.02, 59.14 30.91" stroke="#1e1e1e" stroke-width="2" fill="none"></path></g><g transform="translate(453.6196220372422 129.38798688205128) rotate(0 6.2578125 12.820729431814193)"><text x="6.2578125" y="0" font-family="Cascadia, Segoe UI Emoji" font-size="21.367882386356985px" fill="#1e1e1e" text-anchor="middle" style="white-space: pre;" direction="ltr" dominant-baseline="text-before-edge">2</text></g><g stroke-linecap="round"><g transform="translate(229.32552191140434 142.51601581968168) rotate(0 100.34192406742162 0.44802668558817516)"><path d="M0 0 C48.86 0.22, 97.72 0.44, 200.68 0.9 M0 0 C76.53 0.34, 153.06 0.68, 200.68 0.9" stroke="#1e1e1e" stroke-width="2" fill="none"></path></g></g><mask></mask><g stroke-linecap="round"><g transform="translate(200.16935610558954 172.77940318054775) rotate(0 -0.525621398453822 67.10450787175338)"><path d="M0 0 C-0.27 34.88, -0.55 69.76, -1.05 134.21 M0 0 C-0.22 28.45, -0.45 56.91, -1.05 134.21" stroke="#1e1e1e" stroke-width="2" fill="none"></path></g></g><mask></mask><g stroke-linecap="round"><g transform="translate(223.6302001774823 318.27713254317075) rotate(0 108.06331199304789 -76.5798271707111)"><path d="M0 0 C75.01 -53.15, 150.01 -106.31, 216.13 -153.16 M0 0 C59.54 -42.2, 119.09 -84.39, 216.13 -153.16" stroke="#1e1e1e" stroke-width="2" fill="none"></path></g></g><mask></mask><g transform="translate(89.02031654027671 79.82983314463971) rotate(0 37.56073075726814 12.820729431814186)"><text x="0" y="0" font-family="Cascadia, Segoe UI Emoji" font-size="21.367882386356985px" fill="#1971c2" text-anchor="start" style="white-space: pre;" direction="ltr" dominant-baseline="text-before-edge">Vertex</text></g><g transform="translate(704.4007425402766 67.64789814463973) rotate(0 37.56073075726812 12.820729431814186)"><text x="0" y="0" font-family="Cascadia, Segoe UI Emoji" font-size="21.367882386356985px" fill="#1971c2" text-anchor="start" style="white-space: pre;" direction="ltr" dominant-baseline="text-before-edge">Vertex</text></g><g transform="translate(378.1717227774487 411.8295610012732) rotate(0 93.90182689317035 12.820729431814186)"><text x="0" y="0" font-family="Cascadia, Segoe UI Emoji" font-size="21.367882386356985px" fill="#1971c2" text-anchor="start" style="white-space: pre;" direction="ltr" dominant-baseline="text-before-edge">Isloated Vertex</text></g><g transform="translate(320.543394881046 54.188374281011335) rotate(0 25.040487171512098 12.820729431814186)"><text x="0" y="0" font-family="Cascadia, Segoe UI Emoji" font-size="21.367882386356985px" fill="#1971c2" text-anchor="start" style="white-space: pre;" direction="ltr" dominant-baseline="text-before-edge">Edge</text></g><g transform="translate(872.480639881046 45.65519028101136) rotate(0 25.040487171512098 12.820729431814186)"><text x="0" y="0" font-family="Cascadia, Segoe UI Emoji" font-size="21.367882386356985px" fill="#1971c2" text-anchor="start" style="white-space: pre;" direction="ltr" dominant-baseline="text-before-edge">Edge</text></g><g transform="translate(1020.8804938810462 58.75263128101133) rotate(0 47.69821129797964 10.857998371953272)"><text x="0" y="0" font-family="Cascadia, Segoe UI Emoji" font-size="18.09666395325544px" fill="#1971c2" text-anchor="start" style="white-space: pre;" direction="ltr" dominant-baseline="text-before-edge">Self Loop</text></g><g stroke-linecap="round"><g transform="translate(131.8232113988416 106.70898734113214) rotate(0 16.179091963991013 17.92017387719909)"><path d="M0.65 -0.52 C1.68 5.11, -0.22 26.83, 5.05 32.84 C10.33 38.85, 27.75 35.13, 32.31 35.53 M-0.47 1.82 C0.6 7.17, -0.62 25.2, 4.71 31.01 C10.04 36.82, 26.86 35.85, 31.51 36.68" stroke="#1e1e1e" stroke-width="2" fill="none"></path></g><g transform="translate(131.8232113988416 106.70898734113214) rotate(0 16.179091963991013 17.92017387719909)"><path d="M17.72 40.6 C20 41.09, 24.16 38.83, 31.51 36.68 M17.72 40.6 C22.15 39.76, 24.61 38.51, 31.51 36.68" stroke="#1e1e1e" stroke-width="2" fill="none"></path></g><g transform="translate(131.8232113988416 106.70898734113214) rotate(0 16.179091963991013 17.92017387719909)"><path d="M18.43 30.82 C20.48 33.34, 24.49 33.12, 31.51 36.68 M18.43 30.82 C22.67 32.65, 24.93 34.08, 31.51 36.68" stroke="#1e1e1e" stroke-width="2" fill="none"></path></g></g><mask></mask><g stroke-linecap="round"><g transform="translate(747.2036373988416 94.52705234113216) rotate(0 16.179091963991027 17.92017387719909)"><path d="M-0.94 0.07 C-0.04 5.78, -0.8 27.61, 4.81 33.41 C10.41 39.21, 28.1 34.54, 32.71 34.84 M0.76 -0.94 C1.64 4.54, -0.9 25.79, 4.33 31.88 C9.56 37.98, 27.39 34.95, 32.13 35.64" stroke="#1e1e1e" stroke-width="2" fill="none"></path></g><g transform="translate(747.2036373988416 94.52705234113216) rotate(0 16.179091963991027 17.92017387719909)"><path d="M18.68 40.62 C22.14 40.56, 26.76 38.66, 32.13 35.64 M18.68 40.62 C21.96 39.28, 23.96 38.8, 32.13 35.64" stroke="#1e1e1e" stroke-width="2" fill="none"></path></g><g transform="translate(747.2036373988416 94.52705234113216) rotate(0 16.179091963991027 17.92017387719909)"><path d="M18.62 30.81 C22.03 33.2, 26.67 33.74, 32.13 35.64 M18.62 30.81 C21.92 31.6, 23.94 33.25, 32.13 35.64" stroke="#1e1e1e" stroke-width="2" fill="none"></path></g></g><mask></mask><g stroke-linecap="round"><g transform="translate(343.2783443790426 84.52822586523581) rotate(0 -0.1259811349934239 24.39634234395863)"><path d="M0 0 C-0.04 3.48, -0.21 12.75, -0.25 20.88 C-0.29 29.01, -0.24 44.14, -0.24 48.79 M0 0 C-0.04 3.48, -0.21 12.75, -0.25 20.88 C-0.29 29.01, -0.24 44.14, -0.24 48.79" stroke="#1e1e1e" stroke-width="2" fill="none"></path></g><g transform="translate(343.2783443790426 84.52822586523581) rotate(0 -0.1259811349934239 24.39634234395863)"><path d="M-5.03 35.69 C-3.53 39.8, -2.02 43.92, -0.24 48.79 M-5.03 35.69 C-3.18 40.75, -1.33 45.81, -0.24 48.79" stroke="#1e1e1e" stroke-width="2" fill="none"></path></g><g transform="translate(343.2783443790426 84.52822586523581) rotate(0 -0.1259811349934239 24.39634234395863)"><path d="M4.51 35.67 C3.02 39.79, 1.53 43.91, -0.24 48.79 M4.51 35.67 C2.68 40.74, 0.84 45.81, -0.24 48.79" stroke="#1e1e1e" stroke-width="2" fill="none"></path></g></g><mask></mask><g stroke-linecap="round"><g transform="translate(895.2155893790427 75.99504186523583) rotate(0 -0.1259811349934239 24.39634234395863)"><path d="M0 0 C-0.04 3.48, -0.21 12.75, -0.25 20.88 C-0.29 29.01, -0.24 44.14, -0.24 48.79 M0 0 C-0.04 3.48, -0.21 12.75, -0.25 20.88 C-0.29 29.01, -0.24 44.14, -0.24 48.79" stroke="#1e1e1e" stroke-width="2" fill="none"></path></g><g transform="translate(895.2155893790427 75.99504186523583) rotate(0 -0.1259811349934239 24.39634234395863)"><path d="M-5.03 35.69 C-3.89 38.83, -2.74 41.97, -0.24 48.79 M-5.03 35.69 C-3.19 40.73, -1.34 45.78, -0.24 48.79" stroke="#1e1e1e" stroke-width="2" fill="none"></path></g><g transform="translate(895.2155893790427 75.99504186523583) rotate(0 -0.1259811349934239 24.39634234395863)"><path d="M4.51 35.67 C3.37 38.81, 2.24 41.96, -0.24 48.79 M4.51 35.67 C2.68 40.72, 0.85 45.77, -0.24 48.79" stroke="#1e1e1e" stroke-width="2" fill="none"></path></g></g><mask></mask><g stroke-linecap="round"><g transform="translate(461.1035426272789 413.13110463112275) rotate(0 -0.19546901134066275 -18.632860082827293)"><path d="M0 0 C-0.05 -2.2, -0.21 -6.96, -0.27 -13.17 C-0.34 -19.38, -0.37 -33.25, -0.39 -37.27 M0 0 C-0.05 -2.2, -0.21 -6.96, -0.27 -13.17 C-0.34 -19.38, -0.37 -33.25, -0.39 -37.27" stroke="#1e1e1e" stroke-width="2" fill="none"></path></g><g transform="translate(461.1035426272789 413.13110463112275) rotate(0 -0.19546901134066275 -18.632860082827293)"><path d="M3.77 -25.96 C2.78 -28.65, 1.79 -31.34, -0.39 -37.27 M3.77 -25.96 C2.93 -28.24, 2.09 -30.53, -0.39 -37.27" stroke="#1e1e1e" stroke-width="2" fill="none"></path></g><g transform="translate(461.1035426272789 413.13110463112275) rotate(0 -0.19546901134066275 -18.632860082827293)"><path d="M-4.47 -25.93 C-3.5 -28.63, -2.53 -31.33, -0.39 -37.27 M-4.47 -25.93 C-3.64 -28.22, -2.82 -30.51, -0.39 -37.27" stroke="#1e1e1e" stroke-width="2" fill="none"></path></g></g><mask></mask><g stroke-linecap="round" transform="translate(57.427855488987184 394.49824470603903) rotate(0 122.23208239483199 32.044331465773766)"><path d="M0 0 C0 0, 0 0, 0 0 M0 0 C0 0, 0 0, 0 0 M0.13 12.04 C3.74 7.89, 7.35 3.74, 10.63 -0.03 M0.13 12.04 C2.59 9.21, 5.05 6.38, 10.63 -0.03 M0.27 24.08 C5.75 17.77, 11.24 11.46, 21.26 -0.07 M0.27 24.08 C8.56 14.54, 16.86 4.99, 21.26 -0.07 M-0.26 36.88 C11.28 23.6, 22.82 10.33, 31.89 -0.1 M-0.26 36.88 C9.83 25.28, 19.91 13.68, 31.89 -0.1 M-0.12 48.92 C15 31.52, 30.12 14.12, 42.52 -0.14 M-0.12 48.92 C14.23 32.41, 28.58 15.9, 42.52 -0.14 M0.01 60.96 C11.48 47.77, 22.94 34.58, 53.15 -0.17 M0.01 60.96 C18.1 40.14, 36.2 19.33, 53.15 -0.17 M7.36 64.7 C25.71 43.59, 44.06 22.48, 63.78 -0.21 M7.36 64.7 C25.23 44.14, 43.1 23.58, 63.78 -0.21 M17.99 64.66 C37.55 42.16, 57.12 19.65, 74.41 -0.24 M17.99 64.66 C32.39 48.1, 46.79 31.53, 74.41 -0.24 M28.62 64.63 C50.66 39.27, 72.71 13.91, 85.04 -0.28 M28.62 64.63 C47.17 43.28, 65.73 21.94, 85.04 -0.28 M39.25 64.59 C55.03 46.44, 70.82 28.28, 95.67 -0.31 M39.25 64.59 C60.58 40.05, 81.92 15.51, 95.67 -0.31 M49.88 64.56 C67.61 44.17, 85.34 23.77, 106.3 -0.34 M49.88 64.56 C66.54 45.39, 83.2 26.23, 106.3 -0.34 M60.51 64.53 C79.36 42.84, 98.2 21.16, 116.27 0.38 M60.51 64.53 C77.74 44.7, 94.97 24.88, 116.27 0.38 M71.14 64.49 C88.09 44.99, 105.04 25.49, 126.91 0.34 M71.14 64.49 C91.68 40.86, 112.22 17.23, 126.91 0.34 M81.77 64.46 C100.72 42.65, 119.68 20.85, 137.54 0.31 M81.77 64.46 C94.45 49.87, 107.14 35.27, 137.54 0.31 M92.4 64.42 C109.89 44.3, 127.39 24.18, 148.17 0.27 M92.4 64.42 C105.22 49.68, 118.04 34.93, 148.17 0.27 M103.03 64.39 C119.72 45.19, 136.41 25.99, 158.8 0.24 M103.03 64.39 C124.93 39.19, 146.83 14, 158.8 0.24 M113.66 64.35 C132.75 42.4, 151.83 20.44, 169.43 0.2 M113.66 64.35 C135.49 39.24, 157.32 14.13, 169.43 0.2 M123.63 65.07 C141.99 43.96, 160.34 22.84, 180.06 0.17 M123.63 65.07 C137.39 49.25, 151.14 33.43, 180.06 0.17 M134.26 65.04 C153.11 43.36, 171.95 21.68, 190.69 0.13 M134.26 65.04 C150.88 45.93, 167.49 26.82, 190.69 0.13 M144.89 65 C163.08 44.08, 181.27 23.16, 201.32 0.1 M144.89 65 C161.78 45.58, 178.66 26.16, 201.32 0.1 M155.52 64.97 C171.23 46.9, 186.94 28.83, 211.95 0.06 M155.52 64.97 C167.36 51.36, 179.19 37.74, 211.95 0.06 M166.15 64.94 C182.52 46.11, 198.89 27.28, 222.58 0.03 M166.15 64.94 C180.68 48.23, 195.2 31.52, 222.58 0.03 M176.78 64.9 C194.3 44.75, 211.82 24.6, 233.21 0 M176.78 64.9 C195.86 42.96, 214.93 21.02, 233.21 0 M187.41 64.87 C200.03 50.35, 212.65 35.84, 243.84 -0.04 M187.41 64.87 C204.13 45.64, 220.85 26.41, 243.84 -0.04 M198.05 64.83 C207.84 53.56, 217.64 42.29, 244.63 11.25 M198.05 64.83 C212.47 48.24, 226.9 31.64, 244.63 11.25 M208.68 64.8 C216.37 55.94, 224.07 47.09, 244.76 23.29 M208.68 64.8 C222.15 49.29, 235.63 33.78, 244.76 23.29 M219.31 64.76 C227.07 55.83, 234.83 46.9, 244.89 35.33 M219.31 64.76 C226.59 56.38, 233.88 48, 244.89 35.33 M229.94 64.73 C235.14 58.74, 240.34 52.76, 245.02 47.37 M229.94 64.73 C234.86 59.06, 239.79 53.39, 245.02 47.37 M240.57 64.69 C242.22 62.79, 243.88 60.88, 245.16 59.41 M240.57 64.69 C241.73 63.36, 242.89 62.02, 245.16 59.41" stroke="#b2f2bb" stroke-width="1" fill="none"></path><path d="M0 0 C88.54 0, 177.08 0, 244.46 0 M244.46 0 C244.46 19.65, 244.46 39.3, 244.46 64.09 M244.46 64.09 C163.03 64.09, 81.6 64.09, 0 64.09 M0 64.09 C0 48.61, 0 33.12, 0 0" stroke="#2f9e44" stroke-width="2.5" fill="none" stroke-dasharray="8 10"></path></g><g transform="translate(79.53493788381917 413.7218467399986) rotate(0 100.125 12.820729431814186)"><text x="100.125" y="0" font-family="Cascadia, Segoe UI Emoji" font-size="21.367882386356985px" fill="#2f9e44" text-anchor="middle" style="white-space: pre;" direction="ltr" dominant-baseline="text-before-edge">Undirected Graph</text></g><g stroke-linecap="round" transform="translate(619.9241264889872 394.431424706039) rotate(0 122.23208239483199 32.044331465773766)"><path d="M0 0 C0 0, 0 0, 0 0 M0 0 C0 0, 0 0, 0 0 M0.13 12.04 C4.19 7.37, 8.25 2.7, 10.63 -0.03 M0.13 12.04 C3.61 8.04, 7.08 4.05, 10.63 -0.03 M0.27 24.08 C7.34 15.95, 14.4 7.82, 21.26 -0.07 M0.27 24.08 C8.18 14.98, 16.09 5.88, 21.26 -0.07 M-0.26 36.88 C12.4 22.32, 25.05 7.76, 31.89 -0.1 M-0.26 36.88 C9.62 25.52, 19.49 14.16, 31.89 -0.1 M-0.12 48.92 C9.3 38.08, 18.72 27.24, 42.52 -0.14 M-0.12 48.92 C16.25 30.09, 32.62 11.25, 42.52 -0.14 M0.01 60.96 C11.43 47.82, 22.86 34.67, 53.15 -0.17 M0.01 60.96 C12.29 46.84, 24.57 32.71, 53.15 -0.17 M7.36 64.7 C29.35 39.41, 51.33 14.11, 63.78 -0.21 M7.36 64.7 C18.68 51.68, 30 38.65, 63.78 -0.21 M17.99 64.66 C38.35 41.25, 58.7 17.83, 74.41 -0.24 M17.99 64.66 C31.42 49.21, 44.86 33.76, 74.41 -0.24 M28.62 64.63 C41.61 49.68, 54.6 34.74, 85.04 -0.28 M28.62 64.63 C42.61 48.54, 56.6 32.44, 85.04 -0.28 M39.25 64.59 C60.17 40.53, 81.09 16.47, 95.67 -0.31 M39.25 64.59 C59.53 41.27, 79.8 17.95, 95.67 -0.31 M49.88 64.56 C67.36 44.45, 84.84 24.34, 106.3 -0.34 M49.88 64.56 C66.35 45.61, 82.82 26.67, 106.3 -0.34 M60.51 64.53 C78.04 44.36, 95.57 24.19, 116.27 0.38 M60.51 64.53 C72.84 50.34, 85.17 36.16, 116.27 0.38 M71.14 64.49 C86.48 46.85, 101.82 29.2, 126.91 0.34 M71.14 64.49 C90.33 42.42, 109.51 20.35, 126.91 0.34 M81.77 64.46 C97.98 45.81, 114.19 27.17, 137.54 0.31 M81.77 64.46 C101.01 42.33, 120.25 20.2, 137.54 0.31 M92.4 64.42 C112.05 41.81, 131.71 19.21, 148.17 0.27 M92.4 64.42 C112.53 41.26, 132.67 18.1, 148.17 0.27 M103.03 64.39 C121.35 43.32, 139.66 22.25, 158.8 0.24 M103.03 64.39 C116.85 48.49, 130.67 32.59, 158.8 0.24 M113.66 64.35 C127.49 48.44, 141.33 32.53, 169.43 0.2 M113.66 64.35 C132.9 42.22, 152.14 20.08, 169.43 0.2 M123.63 65.07 C139.78 46.5, 155.93 27.92, 180.06 0.17 M123.63 65.07 C142.93 42.88, 162.22 20.68, 180.06 0.17 M134.26 65.04 C148.24 48.96, 162.22 32.88, 190.69 0.13 M134.26 65.04 C148 49.24, 161.73 33.44, 190.69 0.13 M144.89 65 C164.76 42.15, 184.62 19.3, 201.32 0.1 M144.89 65 C158.15 49.76, 171.4 34.51, 201.32 0.1 M155.52 64.97 C173.41 44.39, 191.3 23.81, 211.95 0.06 M155.52 64.97 C169.56 48.82, 183.6 32.67, 211.95 0.06 M166.15 64.94 C185.56 42.62, 204.96 20.3, 222.58 0.03 M166.15 64.94 C179.1 50.04, 192.05 35.14, 222.58 0.03 M176.78 64.9 C188.13 51.85, 199.48 38.79, 233.21 0 M176.78 64.9 C193.67 45.48, 210.56 26.05, 233.21 0 M187.41 64.87 C199.22 51.29, 211.02 37.71, 243.84 -0.04 M187.41 64.87 C200.05 50.33, 212.68 35.8, 243.84 -0.04 M198.05 64.83 C213.18 47.43, 228.31 30.02, 244.63 11.25 M198.05 64.83 C215.66 44.57, 233.27 24.3, 244.63 11.25 M208.68 64.8 C220.41 51.3, 232.15 37.79, 244.76 23.29 M208.68 64.8 C216.31 56.01, 223.95 47.23, 244.76 23.29 M219.31 64.76 C226.8 56.15, 234.29 47.53, 244.89 35.33 M219.31 64.76 C224.78 58.46, 230.26 52.16, 244.89 35.33 M229.94 64.73 C235.96 57.8, 241.97 50.88, 245.02 47.37 M229.94 64.73 C235.69 58.11, 241.45 51.49, 245.02 47.37 M240.57 64.69 C242.35 62.64, 244.14 60.58, 245.16 59.41 M240.57 64.69 C242.32 62.68, 244.06 60.67, 245.16 59.41" stroke="#b2f2bb" stroke-width="1" fill="none"></path><path d="M0 0 C90.62 0, 181.25 0, 244.46 0 M244.46 0 C244.46 15.08, 244.46 30.15, 244.46 64.09 M244.46 64.09 C192.14 64.09, 139.82 64.09, 0 64.09 M0 64.09 C0 40.9, 0 17.71, 0 0" stroke="#2f9e44" stroke-width="2.5" fill="none" stroke-dasharray="8 10"></path></g><g transform="translate(654.5468338838192 413.6550267399986) rotate(0 87.609375 12.820729431814186)"><text x="87.609375" y="0" font-family="Cascadia, Segoe UI Emoji" font-size="21.367882386356985px" fill="#2f9e44" text-anchor="middle" style="white-space: pre;" direction="ltr" dominant-baseline="text-before-edge">Directed Graph</text></g><g stroke-linecap="round"><g transform="translate(848.1034163740744 130.8606597774265) rotate(0 49.48003703467191 0.44777618429121446)"><path d="M0 0 C16.91 0.24, 33.83 0.47, 64.03 0.9 M0 0 C22.73 0.32, 45.45 0.64, 64.03 0.9 M64.03 0.9 C73.04 0.9, 82.05 0.9, 98.96 0.9 M64.03 0.9 C72.52 0.9, 81.01 0.9, 98.96 0.9" stroke="#1e1e1e" stroke-width="2" fill="none"></path></g><g transform="translate(848.1034163740744 130.8606597774265) rotate(0 49.48003703467191 0.44777618429121446)"><path d="M82.55 6.87 C86.88 5.29, 91.22 3.71, 98.96 0.9 M82.55 6.87 C88.37 4.75, 94.2 2.63, 98.96 0.9" stroke="#1e1e1e" stroke-width="2" fill="none"></path></g><g transform="translate(848.1034163740744 130.8606597774265) rotate(0 49.48003703467191 0.44777618429121446)"><path d="M82.55 -5.08 C86.88 -3.5, 91.22 -1.92, 98.96 0.9 M82.55 -5.08 C88.37 -2.96, 94.2 -0.84, 98.96 0.9" stroke="#1e1e1e" stroke-width="2" fill="none"></path></g></g><mask></mask><g stroke-linecap="round"><g transform="translate(849.1379531231312 275.0798556974713) rotate(179.96452213407164 49.48029528561534 0.030708053543033742)"><path d="M0 0 C17.97 0.02, 35.93 0.03, 64.03 0.06 M0 0 C19.27 0.02, 38.54 0.04, 64.03 0.06 M64.03 0.06 C75.91 0.06, 87.78 0.06, 98.96 0.06 M64.03 0.06 C77.46 0.06, 90.89 0.06, 98.96 0.06" stroke="#2f9e44" stroke-width="2" fill="none"></path></g><g transform="translate(849.1379531231312 275.0798556974713) rotate(179.96452213407164 49.48029528561534 0.030708053543033742)"><path d="M82.55 6.03 C87.15 4.36, 91.76 2.68, 98.96 0.06 M82.55 6.03 C87.49 4.24, 92.43 2.44, 98.96 0.06" stroke="#2f9e44" stroke-width="2" fill="none"></path></g><g transform="translate(849.1379531231312 275.0798556974713) rotate(179.96452213407164 49.48029528561534 0.030708053543033742)"><path d="M82.55 -5.91 C87.15 -4.24, 91.76 -2.56, 98.96 0.06 M82.55 -5.91 C87.49 -4.11, 92.43 -2.32, 98.96 0.06" stroke="#2f9e44" stroke-width="2" fill="none"></path></g></g><mask></mask><g stroke-linecap="round"><g transform="translate(977.5127150959499 163.10102333025606) rotate(0 0.8166225680719208 40.503555135407495)"><path d="M0 0 C0.1 8.69, 0.2 17.38, 0.45 39.85 M0 0 C0.12 10.88, 0.24 21.75, 0.45 39.85 M0.45 39.85 C0.92 56.27, 1.39 72.69, 1.63 81.01 M0.45 39.85 C0.91 55.73, 1.36 71.6, 1.63 81.01" stroke="#1e1e1e" stroke-width="2" fill="none"></path></g><g transform="translate(977.5127150959499 163.10102333025606) rotate(0 0.8166225680719208 40.503555135407495)"><path d="M-5.96 61.87 C-4.31 66.05, -2.65 70.22, 1.63 81.01 M-5.96 61.87 C-3.89 67.1, -1.82 72.32, 1.63 81.01" stroke="#1e1e1e" stroke-width="2" fill="none"></path></g><g transform="translate(977.5127150959499 163.10102333025606) rotate(0 0.8166225680719208 40.503555135407495)"><path d="M8.11 61.47 C6.7 65.73, 5.29 69.99, 1.63 81.01 M8.11 61.47 C6.35 66.8, 4.58 72.13, 1.63 81.01" stroke="#1e1e1e" stroke-width="2" fill="none"></path></g></g><mask></mask><g stroke-linecap="round"><g transform="translate(819.3587389897718 162.48559599765383) rotate(179.89793019153646 -0.52189647836218 40.850933349107486)"><path d="M0 0 C-0.21 8.02, -0.43 16.04, -1.04 38.98 M0 0 C-0.24 8.78, -0.47 17.57, -1.04 38.98 M-1.04 38.98 C-0.79 54.28, -0.54 69.58, -0.34 81.7 M-1.04 38.98 C-0.77 55.56, -0.5 72.14, -0.34 81.7" stroke="#1e1e1e" stroke-width="2" fill="none"></path></g><g transform="translate(819.3587389897718 162.48559599765383) rotate(179.89793019153646 -0.52189647836218 40.850933349107486)"><path d="M-7.98 61.75 C-6.41 65.86, -4.83 69.96, -0.34 81.7 M-7.98 61.75 C-6.26 66.24, -4.54 70.74, -0.34 81.7" stroke="#1e1e1e" stroke-width="2" fill="none"></path></g><g transform="translate(819.3587389897718 162.48559599765383) rotate(179.89793019153646 -0.52189647836218 40.850933349107486)"><path d="M6.63 61.51 C5.2 65.66, 3.76 69.82, -0.34 81.7 M6.63 61.51 C5.06 66.06, 3.49 70.61, -0.34 81.7" stroke="#1e1e1e" stroke-width="2" fill="none"></path></g></g><mask></mask><g stroke-linecap="round"><g transform="translate(839.646597713642 152.45712821389753) rotate(0 57.8745293122912 51.138586035456214)"><path d="M0 0 C19.04 16.58, 38.08 33.16, 80.72 70.28 M0 0 C17.69 15.4, 35.37 30.8, 80.72 70.28 M80.72 70.28 C94.01 82.42, 107.31 94.56, 115.75 102.28 M80.72 70.28 C92.29 80.85, 103.87 91.43, 115.75 102.28" stroke="#2f9e44" stroke-width="2" fill="none"></path></g><g transform="translate(839.646597713642 152.45712821389753) rotate(0 57.8745293122912 51.138586035456214)"><path d="M93.82 93.23 C98.99 95.37, 104.16 97.5, 115.75 102.28 M93.82 93.23 C98.62 95.22, 103.43 97.2, 115.75 102.28" stroke="#2f9e44" stroke-width="2" fill="none"></path></g><g transform="translate(839.646597713642 152.45712821389753) rotate(0 57.8745293122912 51.138586035456214)"><path d="M104.76 81.25 C107.35 86.21, 109.94 91.17, 115.75 102.28 M104.76 81.25 C107.17 85.86, 109.58 90.47, 115.75 102.28" stroke="#2f9e44" stroke-width="2" fill="none"></path></g></g><mask></mask><g stroke-linecap="round" transform="translate(948.6147554611958 245.09234187421197) rotate(0 29.569641613243675 30.913704579211693)"><path d="M6.78 11.2 C6.78 11.2, 6.78 11.2, 6.78 11.2 M6.78 11.2 C6.78 11.2, 6.78 11.2, 6.78 11.2 M0.36 30.79 C9.04 20.79, 17.72 10.8, 26.6 0.6 M0.36 30.79 C8.89 20.97, 17.41 11.16, 26.6 0.6 M1.8 41.32 C10.87 30.89, 19.93 20.46, 36.57 1.32 M1.8 41.32 C14.5 26.71, 27.19 12.11, 36.57 1.32 M5.87 48.83 C19.98 32.6, 34.09 16.37, 44.58 4.3 M5.87 48.83 C15.81 37.39, 25.76 25.95, 44.58 4.3 M11.25 54.83 C26.1 37.76, 40.94 20.68, 50.62 9.55 M11.25 54.83 C22.02 42.45, 32.79 30.06, 50.62 9.55 M17.95 59.33 C28.43 47.26, 38.92 35.2, 56 15.55 M17.95 59.33 C32.84 42.2, 47.73 25.06, 56 15.55 M25.95 62.31 C34.62 52.34, 43.28 42.37, 58.76 24.57 M25.95 62.31 C37.59 48.92, 49.24 35.52, 58.76 24.57 M37.89 60.77 C43.31 54.54, 48.73 48.31, 58.89 36.62 M37.89 60.77 C43 54.9, 48.1 49.03, 58.89 36.62" stroke="#a5d8ff" stroke-width="1" fill="none"></path><path d="M59.14 30.91 C59.14 32.7, 58.99 34.52, 58.69 36.28 C58.39 38.04, 57.94 39.81, 57.36 41.49 C56.77 43.17, 56.03 44.82, 55.18 46.37 C54.32 47.92, 53.32 49.41, 52.22 50.78 C51.12 52.16, 49.89 53.44, 48.58 54.59 C47.27 55.75, 45.84 56.79, 44.35 57.69 C42.87 58.58, 41.29 59.35, 39.68 59.96 C38.07 60.58, 36.39 61.05, 34.7 61.36 C33.02 61.67, 31.28 61.83, 29.57 61.83 C27.86 61.83, 26.12 61.67, 24.43 61.36 C22.75 61.05, 21.06 60.58, 19.46 59.96 C17.85 59.35, 16.27 58.58, 14.78 57.69 C13.3 56.79, 11.87 55.75, 10.56 54.59 C9.25 53.44, 8.02 52.16, 6.92 50.78 C5.82 49.41, 4.82 47.92, 3.96 46.37 C3.11 44.82, 2.37 43.17, 1.78 41.49 C1.2 39.81, 0.75 38.04, 0.45 36.28 C0.15 34.52, 0 32.7, 0 30.91 C0 29.12, 0.15 27.31, 0.45 25.55 C0.75 23.78, 1.2 22.02, 1.78 20.34 C2.37 18.66, 3.11 17.01, 3.96 15.46 C4.82 13.91, 5.82 12.41, 6.92 11.04 C8.02 9.67, 9.25 8.38, 10.56 7.23 C11.87 6.08, 13.3 5.04, 14.78 4.14 C16.27 3.25, 17.85 2.48, 19.46 1.86 C21.06 1.25, 22.75 0.78, 24.43 0.47 C26.12 0.16, 27.86 0, 29.57 0 C31.28 0, 33.02 0.16, 34.7 0.47 C36.39 0.78, 38.07 1.25, 39.68 1.86 C41.29 2.48, 42.87 3.25, 44.35 4.14 C45.84 5.04, 47.27 6.08, 48.58 7.23 C49.89 8.38, 51.12 9.67, 52.22 11.04 C53.32 12.41, 54.32 13.91, 55.18 15.46 C56.03 17.01, 56.77 18.66, 57.36 20.34 C57.94 22.02, 58.39 23.78, 58.69 25.55 C58.99 27.31, 59.06 30.02, 59.14 30.91 C59.21 31.81, 59.21 30.02, 59.14 30.91" stroke="#1971c2" stroke-width="2" fill="none"></path></g><g transform="translate(972.017690472459 263.3260268820512) rotate(0 6.2578125 12.82072943181419)"><text x="6.2578125" y="0" font-family="Cascadia, Segoe UI Emoji" font-size="21.367882386356985px" fill="#1971c2" text-anchor="middle" style="white-space: pre;" direction="ltr" dominant-baseline="text-before-edge">3</text></g><g stroke-linecap="round"><g transform="translate(911.3431761653793 293.07425202129394) rotate(0 25.737445088996708 39.96058378238214)"><path d="M0 0 C4.66 7.37, 19.36 30.93, 27.94 44.25 C36.52 57.57, 47.55 73.98, 51.47 79.92 M0 0 C4.66 7.37, 19.36 30.93, 27.94 44.25 C36.52 57.57, 47.55 73.98, 51.47 79.92" stroke="#1e1e1e" stroke-width="2" fill="none"></path></g><g transform="translate(911.3431761653793 293.07425202129394) rotate(0 25.737445088996708 39.96058378238214)"><path d="M34.27 67.25 C40.85 72.09, 47.43 76.94, 51.47 79.92 M34.27 67.25 C38.55 70.39, 42.82 73.54, 51.47 79.92" stroke="#1e1e1e" stroke-width="2" fill="none"></path></g><g transform="translate(911.3431761653793 293.07425202129394) rotate(0 25.737445088996708 39.96058378238214)"><path d="M46.44 59.15 C48.37 67.09, 50.29 75.04, 51.47 79.92 M46.44 59.15 C47.69 64.31, 48.94 69.47, 51.47 79.92" stroke="#1e1e1e" stroke-width="2" fill="none"></path></g></g><mask></mask><g transform="translate(929.2968507522908 375.8653836662887) rotate(0 85.453125 10.938239852411243)"><text x="0" y="0" font-family="Cascadia, Segoe UI Emoji" font-size="18.230399754018748px" fill="#1971c2" text-anchor="start" style="white-space: pre;" direction="ltr" dominant-baseline="text-before-edge">Path from 1 to 3</text></g><g stroke-linecap="round"><g transform="translate(985.0470714803812 100.11168704428408) rotate(0 28.10383757350462 11.860788971478264)"><path d="M0 0 C9.37 -2.32, 52.46 -20.16, 56.21 -13.89 C59.95 -7.62, 28.08 29.03, 22.46 37.62 M0 0 C9.37 -2.32, 52.46 -20.16, 56.21 -13.89 C59.95 -7.62, 28.08 29.03, 22.46 37.62" stroke="#1e1e1e" stroke-width="2" fill="none"></path></g><g transform="translate(985.0470714803812 100.11168704428408) rotate(0 28.10383757350462 11.860788971478264)"><path d="M31.41 8.98 C28.73 17.56, 26.05 26.13, 22.46 37.62 M31.41 8.98 C29.07 16.46, 26.73 23.94, 22.46 37.62" stroke="#1e1e1e" stroke-width="2" fill="none"></path></g><g transform="translate(985.0470714803812 100.11168704428408) rotate(0 28.10383757350462 11.860788971478264)"><path d="M47.72 21.43 C40.15 26.28, 32.59 31.13, 22.46 37.62 M47.72 21.43 C41.12 25.66, 34.53 29.88, 22.46 37.62" stroke="#1e1e1e" stroke-width="2" fill="none"></path></g></g><mask></mask><g stroke-linecap="round"><g transform="translate(590.205993495462 29.97426565286034) rotate(0 3.1082383853739657 217.0592269217513)"><path d="M0 0 C1.04 72.35, 5.18 361.77, 6.22 434.12" stroke="#1e1e1e" stroke-width="2.5" fill="none" stroke-dasharray="8 10"></path></g></g><mask></mask><g stroke-opacity="0" fill-opacity="0" stroke-linecap="round" transform="translate(10 10) rotate(0 571.917305512751 235.92761837526638)"><path d="M0 0 C302.4 0, 604.81 0, 1143.83 0 M0 0 C413.47 0, 826.95 0, 1143.83 0 M1143.83 0 C1143.83 118.44, 1143.83 236.87, 1143.83 471.86 M1143.83 0 C1143.83 184.06, 1143.83 368.12, 1143.83 471.86 M1143.83 471.86 C875.26 471.86, 606.68 471.86, 0 471.86 M1143.83 471.86 C715.69 471.86, 287.54 471.86, 0 471.86 M0 471.86 C0 324.72, 0 177.59, 0 0 M0 471.86 C0 309.09, 0 146.33, 0 0" stroke="#1e1e1e" stroke-width="1" fill="none"></path></g></svg>