<svg version="1.1" xmlns="http://www.w3.org/2000/svg" viewBox="0 0 709.8837668161746 219.4195072486457" width="709.8837668161746" height="219.4195072486457">
  <!-- svg-source:excalidraw -->
  
  <defs>
    <style class="style-fonts">
      @font-face {
        font-family: "Virgil";
        src: url("https://excalidraw.com/Virgil.woff2");
      }
      @font-face {
        font-family: "Cascadia";
        src: url("https://excalidraw.com/Cascadia.woff2");
      }
      @font-face {
        font-family: "Assistant";
        src: url("https://excalidraw.com/Assistant-Regular.woff2");
      }
    </style>
    
  </defs>
  <rect x="0" y="0" width="709.8837668161746" height="219.4195072486457" fill="#ffffff"></rect><g stroke-opacity="0.9" fill-opacity="0.9" stroke-linecap="round" transform="translate(30.97842513407886 115.60194962254434) rotate(0 47.72017333415374 13.973321502279134)"><path d="M0 0 C36.56 0, 73.11 0, 95.44 0 M0 0 C24.09 0, 48.18 0, 95.44 0 M95.44 0 C95.44 8.37, 95.44 16.74, 95.44 27.95 M95.44 0 C95.44 6.55, 95.44 13.09, 95.44 27.95 M95.44 27.95 C62.91 27.95, 30.38 27.95, 0 27.95 M95.44 27.95 C65.74 27.95, 36.04 27.95, 0 27.95 M0 27.95 C0 17.41, 0 6.87, 0 0 M0 27.95 C0 17.17, 0 6.38, 0 0" stroke="#2f9e44" stroke-width="2" fill="none"></path></g><g stroke-opacity="0.9" fill-opacity="0.9" transform="translate(74.39488753073238 120.75723900300585) rotate(0 4.3037109375 8.818032121817652)"><text x="4.3037109375" y="0" font-family="Cascadia, Segoe UI Emoji" font-size="14.696720203029404px" fill="#2f9e44" text-anchor="middle" style="white-space: pre;" direction="ltr" dominant-baseline="text-before-edge">1</text></g><g stroke-opacity="0.9" fill-opacity="0.9" stroke-linecap="round" transform="translate(203.64585085799536 114.81670680144055) rotate(0 47.72017333415374 13.973321502279134)"><path d="M0 0 C31.17 0, 62.34 0, 95.44 0 M0 0 C36.83 0, 73.66 0, 95.44 0 M95.44 0 C95.44 9.57, 95.44 19.14, 95.44 27.95 M95.44 0 C95.44 9.73, 95.44 19.46, 95.44 27.95 M95.44 27.95 C63.26 27.95, 31.07 27.95, 0 27.95 M95.44 27.95 C72.33 27.95, 49.21 27.95, 0 27.95 M0 27.95 C0 20.22, 0 12.5, 0 0 M0 27.95 C0 19.66, 0 11.37, 0 0" stroke="#1e1e1e" stroke-width="2" fill="none"></path></g><g stroke-opacity="0.9" fill-opacity="0.9" transform="translate(238.45489137964887 119.97199618190206) rotate(0 12.9111328125 8.818032121817652)"><text x="12.9111328125" y="0" font-family="Cascadia, Segoe UI Emoji" font-size="14.696720203029404px" fill="#1e1e1e" text-anchor="middle" style="white-space: pre;" direction="ltr" dominant-baseline="text-before-edge">121</text></g><g stroke-opacity="0.9" fill-opacity="0.9" stroke-linecap="round" transform="translate(376.31327658191185 114.03146398033675) rotate(0 47.72017333415374 13.973321502279134)"><path d="M0 0 C35.32 0, 70.64 0, 95.44 0 M0 0 C36.98 0, 73.97 0, 95.44 0 M95.44 0 C95.44 5.69, 95.44 11.38, 95.44 27.95 M95.44 0 C95.44 8.99, 95.44 17.97, 95.44 27.95 M95.44 27.95 C59.48 27.95, 23.53 27.95, 0 27.95 M95.44 27.95 C72.2 27.95, 48.96 27.95, 0 27.95 M0 27.95 C0 18.07, 0 8.19, 0 0 M0 27.95 C0 19.84, 0 11.74, 0 0" stroke="#1e1e1e" stroke-width="2" fill="none"></path></g><g stroke-opacity="0.9" fill-opacity="0.9" transform="translate(415.42602804106536 119.18675336079826) rotate(0 8.607421875 8.818032121817652)"><text x="8.607421875" y="0" font-family="Cascadia, Segoe UI Emoji" font-size="14.696720203029404px" fill="#1e1e1e" text-anchor="middle" style="white-space: pre;" direction="ltr" dominant-baseline="text-before-edge">87</text></g><g stroke-opacity="0.9" fill-opacity="0.9" stroke-linecap="round" transform="translate(548.9807023058283 113.2462211592329) rotate(0 47.72017333415374 13.973321502279134)"><path d="M0 0 C24.49 0, 48.98 0, 95.44 0 M0 0 C30.23 0, 60.47 0, 95.44 0 M95.44 0 C95.44 7.75, 95.44 15.51, 95.44 27.95 M95.44 0 C95.44 8.17, 95.44 16.34, 95.44 27.95 M95.44 27.95 C63.4 27.95, 31.36 27.95, 0 27.95 M95.44 27.95 C75.92 27.95, 56.4 27.95, 0 27.95 M0 27.95 C0 20.44, 0 12.94, 0 0 M0 27.95 C0 21.75, 0 15.56, 0 0" stroke="#1e1e1e" stroke-width="2" fill="none"></path></g><g stroke-opacity="0.9" fill-opacity="0.9" transform="translate(588.0934537649819 118.40151053969441) rotate(0 8.607421875 8.818032121817652)"><text x="8.607421875" y="0" font-family="Cascadia, Segoe UI Emoji" font-size="14.696720203029404px" fill="#1e1e1e" text-anchor="middle" style="white-space: pre;" direction="ltr" dominant-baseline="text-before-edge">70</text></g><g stroke-opacity="0.9" fill-opacity="0.9" stroke-linecap="round" transform="translate(126.53019794055308 115.60194962254434) rotate(0 15.907365593848226 13.973321502279134)"><path d="M0 0 C0 0, 0 0, 0 0 M0 0 C0 0, 0 0, 0 0 M0.13 12.04 C2.88 8.88, 5.63 5.72, 10.63 -0.03 M0.13 12.04 C2.61 9.19, 5.08 6.35, 10.63 -0.03 M0.27 24.08 C5.72 17.81, 11.16 11.55, 21.26 -0.07 M0.27 24.08 C6.16 17.3, 12.05 10.53, 21.26 -0.07 M6.96 28.58 C12.8 21.86, 18.64 15.14, 31.89 -0.1 M6.96 28.58 C13.13 21.47, 19.31 14.37, 31.89 -0.1 M17.59 28.54 C21.56 23.97, 25.53 19.4, 32.68 11.18 M17.59 28.54 C21.33 24.24, 25.06 19.95, 32.68 11.18 M28.22 28.51 C29.37 27.18, 30.53 25.85, 32.81 23.22 M28.22 28.51 C29.57 26.96, 30.91 25.41, 32.81 23.22" stroke="#b2f2bb" stroke-width="1" fill="none"></path><path d="M0 0 C9.59 0, 19.18 0, 31.81 0 M0 0 C8.42 0, 16.84 0, 31.81 0 M31.81 0 C31.81 10.99, 31.81 21.98, 31.81 27.95 M31.81 0 C31.81 8.43, 31.81 16.87, 31.81 27.95 M31.81 27.95 C19.2 27.95, 6.59 27.95, 0 27.95 M31.81 27.95 C22.84 27.95, 13.87 27.95, 0 27.95 M0 27.95 C0 18.64, 0 9.33, 0 0 M0 27.95 C0 17.54, 0 7.14, 0 0" stroke="#2f9e44" stroke-width="2" fill="none"></path></g><g stroke-opacity="0.9" fill-opacity="0.9" stroke-linecap="round" transform="translate(299.1976236644696 114.81670680144055) rotate(0 15.907365593848226 13.973321502279134)"><path d="M0 0 C0 0, 0 0, 0 0 M0 0 C0 0, 0 0, 0 0 M0.13 12.04 C2.69 9.1, 5.25 6.15, 10.63 -0.03 M0.13 12.04 C3.18 8.53, 6.23 5.03, 10.63 -0.03 M0.27 24.08 C5.81 17.7, 11.36 11.32, 21.26 -0.07 M0.27 24.08 C4.96 18.68, 9.65 13.28, 21.26 -0.07 M6.96 28.58 C13.68 20.84, 20.4 13.11, 31.89 -0.1 M6.96 28.58 C12.39 22.33, 17.82 16.08, 31.89 -0.1 M17.59 28.54 C20.96 24.66, 24.33 20.79, 32.68 11.18 M17.59 28.54 C21.36 24.2, 25.13 19.87, 32.68 11.18 M28.22 28.51 C30 26.46, 31.79 24.41, 32.81 23.22 M28.22 28.51 C29.95 26.52, 31.67 24.53, 32.81 23.22" stroke="#1e1e1e" stroke-width="1" fill="none"></path><path d="M0 0 C10.21 0, 20.42 0, 31.81 0 M0 0 C10.6 0, 21.21 0, 31.81 0 M31.81 0 C31.81 10.24, 31.81 20.47, 31.81 27.95 M31.81 0 C31.81 8.79, 31.81 17.59, 31.81 27.95 M31.81 27.95 C22.91 27.95, 14.01 27.95, 0 27.95 M31.81 27.95 C24.77 27.95, 17.73 27.95, 0 27.95 M0 27.95 C0 19.26, 0 10.58, 0 0 M0 27.95 C0 19.68, 0 11.42, 0 0" stroke="#1e1e1e" stroke-width="2" fill="none"></path></g><g stroke-opacity="0.9" fill-opacity="0.9" stroke-linecap="round" transform="translate(471.86504938838607 114.03146398033675) rotate(0 15.907365593848226 13.973321502279134)"><path d="M0 0 C0 0, 0 0, 0 0 M0 0 C0 0, 0 0, 0 0 M0.13 12.04 C4.31 7.24, 8.48 2.44, 10.63 -0.03 M0.13 12.04 C3.32 8.38, 6.5 4.71, 10.63 -0.03 M0.27 24.08 C4.54 19.16, 8.82 14.24, 21.26 -0.07 M0.27 24.08 C8.46 14.65, 16.66 5.23, 21.26 -0.07 M6.96 28.58 C13.63 20.9, 20.3 13.23, 31.89 -0.1 M6.96 28.58 C13.58 20.96, 20.2 13.35, 31.89 -0.1 M17.59 28.54 C22.75 22.61, 27.9 16.68, 32.68 11.18 M17.59 28.54 C22.57 22.81, 27.55 17.09, 32.68 11.18 M28.22 28.51 C29.16 27.42, 30.1 26.34, 32.81 23.22 M28.22 28.51 C29.84 26.64, 31.47 24.77, 32.81 23.22" stroke="#1e1e1e" stroke-width="1" fill="none"></path><path d="M0 0 C11.46 0, 22.91 0, 31.81 0 M0 0 C11.9 0, 23.81 0, 31.81 0 M31.81 0 C31.81 9.09, 31.81 18.17, 31.81 27.95 M31.81 0 C31.81 6.58, 31.81 13.16, 31.81 27.95 M31.81 27.95 C24.28 27.95, 16.74 27.95, 0 27.95 M31.81 27.95 C25.16 27.95, 18.51 27.95, 0 27.95 M0 27.95 C0 20.15, 0 12.35, 0 0 M0 27.95 C0 21.29, 0 14.63, 0 0" stroke="#1e1e1e" stroke-width="2" fill="none"></path></g><g stroke-opacity="0.9" fill-opacity="0.9" stroke-linecap="round" transform="translate(644.5324751123026 113.2462211592329) rotate(0 15.907365593848226 13.973321502279134)"><path d="M0 0 C0 0, 0 0, 0 0 M0 0 C0 0, 0 0, 0 0 M0.13 12.04 C3.26 8.45, 6.38 4.85, 10.63 -0.03 M0.13 12.04 C2.24 9.61, 4.35 7.19, 10.63 -0.03 M0.27 24.08 C5.73 17.79, 11.2 11.51, 21.26 -0.07 M0.27 24.08 C8.4 14.73, 16.53 5.37, 21.26 -0.07 M6.96 28.58 C14.33 20.1, 21.7 11.62, 31.89 -0.1 M6.96 28.58 C14.87 19.48, 22.78 10.38, 31.89 -0.1 M17.59 28.54 C21.92 23.56, 26.25 18.58, 32.68 11.18 M17.59 28.54 C23.34 21.93, 29.08 15.32, 32.68 11.18 M28.22 28.51 C29.96 26.5, 31.7 24.5, 32.81 23.22 M28.22 28.51 C29.84 26.65, 31.45 24.79, 32.81 23.22" stroke="#1e1e1e" stroke-width="1" fill="none"></path><path d="M0 0 C9.38 0, 18.76 0, 31.81 0 M0 0 C12.44 0, 24.88 0, 31.81 0 M31.81 0 C31.81 8.79, 31.81 17.58, 31.81 27.95 M31.81 0 C31.81 7.26, 31.81 14.52, 31.81 27.95 M31.81 27.95 C23.76 27.95, 15.7 27.95, 0 27.95 M31.81 27.95 C19.51 27.95, 7.21 27.95, 0 27.95 M0 27.95 C0 18.04, 0 8.14, 0 0 M0 27.95 C0 18.84, 0 9.74, 0 0" stroke="#1e1e1e" stroke-width="2" fill="none"></path></g><g stroke-linecap="round"><g stroke-opacity="0.9" fill-opacity="0.9" transform="translate(158.05315670693017 129.1973569873818) rotate(0 21.443768162794413 -0.20366436196377435)"><path d="M0 0 C0.28 0, 0.57 0, 1.03 0 M0 0 C0.31 0, 0.62 0, 1.03 0 M1.03 0 C16.92 -0.15, 32.8 -0.31, 42.89 -0.41 M1.03 0 C11.92 -0.11, 22.81 -0.21, 42.89 -0.41" stroke="#1e1e1e" stroke-width="2" fill="none"></path></g><g stroke-opacity="0.9" fill-opacity="0.9" transform="translate(158.05315670693017 129.1973569873818) rotate(0 21.443768162794413 -0.20366436196377435)"><path d="M23.29 6.94 C28.69 4.92, 34.08 2.9, 42.89 -0.41 M23.29 6.94 C29.13 4.75, 34.97 2.56, 42.89 -0.41" stroke="#1e1e1e" stroke-width="2" fill="none"></path></g><g stroke-opacity="0.9" fill-opacity="0.9" transform="translate(158.05315670693017 129.1973569873818) rotate(0 21.443768162794413 -0.20366436196377435)"><path d="M23.15 -7.37 C28.59 -5.46, 34.02 -3.54, 42.89 -0.41 M23.15 -7.37 C29.03 -5.3, 34.91 -3.22, 42.89 -0.41" stroke="#1e1e1e" stroke-width="2" fill="none"></path></g></g><mask></mask><g stroke-linecap="round"><g stroke-opacity="0.9" fill-opacity="0.9" transform="translate(330.7205824308462 128.412114166278) rotate(0 21.443768162794413 -0.20366436196377435)"><path d="M0 0 C0.27 0, 0.55 0, 1.03 0 M0 0 C0.25 0, 0.51 0, 1.03 0 M1.03 0 C10.99 -0.1, 20.94 -0.19, 42.89 -0.41 M1.03 0 C16.15 -0.15, 31.26 -0.29, 42.89 -0.41" stroke="#1e1e1e" stroke-width="2" fill="none"></path></g><g stroke-opacity="0.9" fill-opacity="0.9" transform="translate(330.7205824308462 128.412114166278) rotate(0 21.443768162794413 -0.20366436196377435)"><path d="M23.29 6.94 C28.47 5, 33.64 3.06, 42.89 -0.41 M23.29 6.94 C28.09 5.14, 32.89 3.34, 42.89 -0.41" stroke="#1e1e1e" stroke-width="2" fill="none"></path></g><g stroke-opacity="0.9" fill-opacity="0.9" transform="translate(330.7205824308462 128.412114166278) rotate(0 21.443768162794413 -0.20366436196377435)"><path d="M23.15 -7.37 C28.36 -5.53, 33.57 -3.7, 42.89 -0.41 M23.15 -7.37 C27.98 -5.67, 32.82 -3.96, 42.89 -0.41" stroke="#1e1e1e" stroke-width="2" fill="none"></path></g></g><mask></mask><g stroke-linecap="round"><g stroke-opacity="0.9" fill-opacity="0.9" transform="translate(503.38800815476316 127.62687134517421) rotate(0 21.443768162794413 -0.20366436196377435)"><path d="M0 0 C0.26 0, 0.53 0, 1.03 0 M0 0 C0.26 0, 0.53 0, 1.03 0 M1.03 0 C13.94 -0.13, 26.85 -0.25, 42.89 -0.41 M1.03 0 C11.57 -0.1, 22.11 -0.21, 42.89 -0.41" stroke="#1e1e1e" stroke-width="2" fill="none"></path></g><g stroke-opacity="0.9" fill-opacity="0.9" transform="translate(503.38800815476316 127.62687134517421) rotate(0 21.443768162794413 -0.20366436196377435)"><path d="M23.29 6.94 C28.27 5.08, 33.24 3.21, 42.89 -0.41 M23.29 6.94 C28.31 5.06, 33.32 3.18, 42.89 -0.41" stroke="#1e1e1e" stroke-width="2" fill="none"></path></g><g stroke-opacity="0.9" fill-opacity="0.9" transform="translate(503.38800815476316 127.62687134517421) rotate(0 21.443768162794413 -0.20366436196377435)"><path d="M23.15 -7.37 C28.16 -5.61, 33.17 -3.84, 42.89 -0.41 M23.15 -7.37 C28.2 -5.59, 33.25 -3.81, 42.89 -0.41" stroke="#1e1e1e" stroke-width="2" fill="none"></path></g></g><mask></mask><g stroke-opacity="0.9" fill-opacity="0.9" transform="translate(67.63852055859297 83.7194401559816) rotate(0 18.75 9.599999999999994)"><text x="0" y="0" font-family="Cascadia, Segoe UI Emoji" font-size="16px" fill="#1971c2" text-anchor="start" style="white-space: pre;" direction="ltr" dominant-baseline="text-before-edge">Head</text></g><g stroke-opacity="0.9" fill-opacity="0.9" transform="translate(242.76003555859324 83.7194401559816) rotate(0 18.75 9.599999999999994)"><text x="0" y="0" font-family="Cascadia, Segoe UI Emoji" font-size="16px" fill="#1971c2" text-anchor="start" style="white-space: pre;" direction="ltr" dominant-baseline="text-before-edge">Node</text></g><g stroke-opacity="0.9" fill-opacity="0.9" transform="translate(387.490049558593 83.71944015598154) rotate(0 42.1875 9.599999999999994)"><text x="0" y="0" font-family="Cascadia, Segoe UI Emoji" font-size="16px" fill="#1971c2" text-anchor="start" style="white-space: pre;" direction="ltr" dominant-baseline="text-before-edge">Node.next</text></g><g stroke-opacity="0.9" fill-opacity="0.9" transform="translate(546.2755445585935 83.7194401559816) rotate(0 65.625 9.599999999999994)"><text x="0" y="0" font-family="Cascadia, Segoe UI Emoji" font-size="16px" fill="#1971c2" text-anchor="start" style="white-space: pre;" direction="ltr" dominant-baseline="text-before-edge">Node.next.next</text></g><g stroke-opacity="0.9" fill-opacity="0.9" transform="translate(36.64274743046326 174.96036871292898) rotate(0 18.75 9.599999999999994)"><text x="0" y="0" font-family="Cascadia, Segoe UI Emoji" font-size="16px" fill="#1e1e1e" text-anchor="start" style="white-space: pre;" direction="ltr" dominant-baseline="text-before-edge">Data</text></g><g stroke-linecap="round"><g transform="translate(54.776855110521865 174.8868387078669) rotate(0 0.3079460863229997 -11.700766465470537)"><path d="M0 0 C0.2 -7.45, 0.39 -14.89, 0.62 -23.4 M0 0 C0.19 -7.4, 0.39 -14.8, 0.62 -23.4" stroke="#1e1e1e" stroke-width="1" fill="none"></path></g><g transform="translate(54.776855110521865 174.8868387078669) rotate(0 0.3079460863229997 -11.700766465470537)"><path d="M4.33 -12.3 C3.15 -15.83, 1.97 -19.36, 0.62 -23.4 M4.33 -12.3 C3.15 -15.81, 1.98 -19.32, 0.62 -23.4" stroke="#1e1e1e" stroke-width="1" fill="none"></path></g><g transform="translate(54.776855110521865 174.8868387078669) rotate(0 0.3079460863229997 -11.700766465470537)"><path d="M-3.68 -12.51 C-2.31 -15.98, -0.94 -19.44, 0.62 -23.4 M-3.68 -12.51 C-2.32 -15.96, -0.96 -19.4, 0.62 -23.4" stroke="#1e1e1e" stroke-width="1" fill="none"></path></g></g><mask></mask><g transform="translate(120.84492894719824 174.96036917601714) rotate(0 18.75 9.599999999999994)"><text x="0" y="0" font-family="Cascadia, Segoe UI Emoji" font-size="16px" fill="#1e1e1e" text-anchor="start" style="white-space: pre;" direction="ltr" dominant-baseline="text-before-edge">Next</text></g><g stroke-linecap="round"><g transform="translate(142.62110227354924 174.88683914620367) rotate(0 -0.15074536044448905 -11.694765004305879)"><path d="M0 0 C-0.11 -8.38, -0.22 -16.76, -0.3 -23.39 M0 0 C-0.1 -8.05, -0.21 -16.1, -0.3 -23.39" stroke="#1e1e1e" stroke-width="1" fill="none"></path></g><g transform="translate(142.62110227354924 174.88683914620367) rotate(0 -0.15074536044448905 -11.694765004305879)"><path d="M3.84 -12.45 C2.36 -16.37, 0.87 -20.29, -0.3 -23.39 M3.84 -12.45 C2.42 -16.22, 0.99 -19.98, -0.3 -23.39" stroke="#1e1e1e" stroke-width="1" fill="none"></path></g><g transform="translate(142.62110227354924 174.88683914620367) rotate(0 -0.15074536044448905 -11.694765004305879)"><path d="M-4.16 -12.35 C-2.78 -16.3, -1.4 -20.26, -0.3 -23.39 M-4.16 -12.35 C-2.83 -16.15, -1.5 -19.95, -0.3 -23.39" stroke="#1e1e1e" stroke-width="1" fill="none"></path></g></g><mask></mask><g stroke-linecap="round" transform="translate(274.31910211420563 30.635880318838247) rotate(0 74.85717410569237 17)"><path d="M2.26 1.97 C2.26 1.97, 2.26 1.97, 2.26 1.97 M2.26 1.97 C2.26 1.97, 2.26 1.97, 2.26 1.97 M0.03 10.63 C3.51 6.63, 6.98 2.64, 9.22 0.06 M0.03 10.63 C2.72 7.54, 5.41 4.45, 9.22 0.06 M0.43 16.27 C5.1 10.9, 9.76 5.53, 14.2 0.42 M0.43 16.27 C3.86 12.33, 7.28 8.38, 14.2 0.42 M0.82 21.91 C7.84 13.85, 14.85 5.78, 19.85 0.03 M0.82 21.91 C8.18 13.45, 15.53 4.99, 19.85 0.03 M0.56 28.31 C10 17.45, 19.45 6.59, 24.83 0.39 M0.56 28.31 C8.61 19.05, 16.66 9.79, 24.83 0.39 M2.27 32.45 C9.45 24.18, 16.63 15.92, 29.82 0.75 M2.27 32.45 C12.35 20.85, 22.42 9.26, 29.82 0.75 M6.6 33.56 C14.33 24.66, 22.07 15.77, 35.46 0.35 M6.6 33.56 C17.92 20.54, 29.24 7.51, 35.46 0.35 M11.59 33.92 C20.34 23.85, 29.1 13.78, 40.45 0.71 M11.59 33.92 C17.4 27.23, 23.22 20.53, 40.45 0.71 M16.57 34.28 C26.96 22.33, 37.35 10.38, 46.1 0.32 M16.57 34.28 C23.57 26.23, 30.58 18.17, 46.1 0.32 M22.22 33.89 C30.17 24.74, 38.12 15.59, 51.08 0.68 M22.22 33.89 C29.75 25.22, 37.28 16.56, 51.08 0.68 M27.2 34.25 C35.97 24.16, 44.75 14.06, 56.73 0.28 M27.2 34.25 C36.61 23.43, 46.02 12.6, 56.73 0.28 M32.85 33.85 C43.98 21.05, 55.11 8.25, 61.71 0.65 M32.85 33.85 C38.79 27.01, 44.74 20.17, 61.71 0.65 M37.83 34.21 C47.85 22.69, 57.87 11.16, 67.36 0.25 M37.83 34.21 C44.74 26.27, 51.65 18.32, 67.36 0.25 M43.48 33.82 C54.21 21.47, 64.94 9.13, 72.34 0.61 M43.48 33.82 C51.98 24.04, 60.48 14.26, 72.34 0.61 M48.46 34.18 C60.1 20.79, 71.74 7.4, 77.99 0.22 M48.46 34.18 C55.13 26.5, 61.8 18.83, 77.99 0.22 M53.45 34.54 C59.41 27.68, 65.37 20.83, 82.97 0.58 M53.45 34.54 C61.69 25.06, 69.93 15.58, 82.97 0.58 M59.09 34.14 C69.63 22.03, 80.16 9.91, 88.62 0.18 M59.09 34.14 C67.43 24.55, 75.77 14.96, 88.62 0.18 M64.08 34.5 C75.1 21.82, 86.13 9.14, 93.6 0.54 M64.08 34.5 C73.18 24.04, 82.27 13.58, 93.6 0.54 M69.72 34.11 C75.69 27.25, 81.65 20.39, 99.25 0.15 M69.72 34.11 C76.72 26.06, 83.71 18.01, 99.25 0.15 M74.71 34.47 C81.02 27.21, 87.32 19.96, 104.23 0.51 M74.71 34.47 C81.35 26.83, 87.99 19.19, 104.23 0.51 M80.35 34.07 C88.75 24.42, 97.14 14.76, 109.88 0.11 M80.35 34.07 C88.27 24.97, 96.18 15.87, 109.88 0.11 M85.34 34.43 C96.54 21.55, 107.75 8.66, 114.86 0.47 M85.34 34.43 C93.26 25.32, 101.18 16.21, 114.86 0.47 M90.98 34.04 C98.01 25.95, 105.05 17.86, 120.51 0.08 M90.98 34.04 C102.78 20.47, 114.58 6.9, 120.51 0.08 M95.97 34.4 C106.53 22.26, 117.08 10.11, 125.49 0.44 M95.97 34.4 C106.97 21.75, 117.97 9.1, 125.49 0.44 M101.61 34.01 C109.8 24.59, 117.99 15.17, 131.14 0.04 M101.61 34.01 C107.54 27.18, 113.48 20.36, 131.14 0.04 M106.6 34.37 C117.35 22, 128.1 9.63, 136.12 0.4 M106.6 34.37 C114.48 25.3, 122.36 16.24, 136.12 0.4 M112.24 33.97 C120.97 23.93, 129.69 13.9, 141.77 0.01 M112.24 33.97 C120.7 24.24, 129.17 14.5, 141.77 0.01 M117.23 34.33 C124.3 26.19, 131.38 18.05, 146.1 1.12 M117.23 34.33 C128.09 21.84, 138.94 9.35, 146.1 1.12 M122.87 33.94 C132.48 22.89, 142.09 11.84, 149.12 3.75 M122.87 33.94 C128.56 27.4, 134.24 20.86, 149.12 3.75 M127.86 34.3 C136.25 24.64, 144.64 14.99, 150.17 8.64 M127.86 34.3 C135 26.08, 142.15 17.86, 150.17 8.64 M133.5 33.9 C137.47 29.34, 141.44 24.77, 149.9 15.03 M133.5 33.9 C140 26.43, 146.49 18.96, 149.9 15.03 M138.49 34.26 C142.54 29.61, 146.58 24.95, 149.64 21.43 M138.49 34.26 C140.88 31.51, 143.28 28.75, 149.64 21.43 M144.13 33.87 C145.48 32.32, 146.82 30.78, 149.38 27.83 M144.13 33.87 C146.1 31.6, 148.07 29.34, 149.38 27.83" stroke="#f8f0fc" stroke-width="0.5" fill="none"></path><path d="M8.5 0 C55.04 0, 101.57 0, 141.21 0 M8.5 0 C51.03 0, 93.57 0, 141.21 0 M141.21 0 C146.88 0, 149.71 2.83, 149.71 8.5 M141.21 0 C146.88 0, 149.71 2.83, 149.71 8.5 M149.71 8.5 C149.71 12.24, 149.71 15.98, 149.71 25.5 M149.71 8.5 C149.71 14.09, 149.71 19.68, 149.71 25.5 M149.71 25.5 C149.71 31.17, 146.88 34, 141.21 34 M149.71 25.5 C149.71 31.17, 146.88 34, 141.21 34 M141.21 34 C111.5 34, 81.78 34, 8.5 34 M141.21 34 C98.79 34, 56.37 34, 8.5 34 M8.5 34 C2.83 34, 0 31.17, 0 25.5 M8.5 34 C2.83 34, 0 31.17, 0 25.5 M0 25.5 C0 18.99, 0 12.49, 0 8.5 M0 25.5 C0 20.24, 0 14.97, 0 8.5 M0 8.5 C0 2.83, 2.83 0, 8.5 0 M0 8.5 C0 2.83, 2.83 0, 8.5 0" stroke="#9c36b5" stroke-width="1" fill="none"></path></g><g transform="translate(284.7231512198978 35.63588031883825) rotate(0 64.453125 12)"><text x="64.453125" y="0" font-family="Cascadia, Segoe UI Emoji" font-size="20px" fill="#9c36b5" text-anchor="middle" style="white-space: pre;" direction="ltr" dominant-baseline="text-before-edge">Linked List</text></g><g stroke-opacity="0" fill-opacity="0" stroke-linecap="round" transform="translate(10 10) rotate(0 344.9418834080873 99.70975362432284)"><path d="M0 0 C175.26 0, 350.53 0, 689.88 0 M0 0 C181.76 0, 363.53 0, 689.88 0 M689.88 0 C689.88 71.88, 689.88 143.76, 689.88 199.42 M689.88 0 C689.88 54.55, 689.88 109.1, 689.88 199.42 M689.88 199.42 C504.45 199.42, 319.01 199.42, 0 199.42 M689.88 199.42 C432.78 199.42, 175.67 199.42, 0 199.42 M0 199.42 C0 129.73, 0 60.04, 0 0 M0 199.42 C0 158.88, 0 118.34, 0 0" stroke="#1e1e1e" stroke-width="1" fill="none"></path></g></svg>