<svg version="1.1" xmlns="http://www.w3.org/2000/svg" viewBox="0 0 585.550209723393 302.83390264881155" width="1756.650629170179" height="908.5017079464346">
  <!-- svg-source:excalidraw -->
  
  <defs>
    <style class="style-fonts">
      @font-face {
        font-family: "Virgil";
        src: url("https://excalidraw.com/Virgil.woff2");
      }
      @font-face {
        font-family: "Cascadia";
        src: url("https://excalidraw.com/Cascadia.woff2");
      }
      @font-face {
        font-family: "Assistant";
        src: url("https://excalidraw.com/Assistant-Regular.woff2");
      }
    </style>
    
  </defs>
  <rect x="0" y="0" width="585.550209723393" height="302.83390264881155" fill="#ffffff"></rect><g stroke-linecap="round" transform="translate(134.8513802616726 10.000000000000028) rotate(0 23.900077874149247 23.197132041219945)"><path d="M5.32 8.6 C5.32 8.6, 5.32 8.6, 5.32 8.6 M5.32 8.6 C5.32 8.6, 5.32 8.6, 5.32 8.6 M1.12 19.53 C6.51 13.33, 11.9 7.13, 16.21 2.17 M1.12 19.53 C5.77 14.18, 10.42 8.83, 16.21 2.17 M0.86 25.92 C7.39 18.41, 13.93 10.89, 23.17 0.26 M0.86 25.92 C7.62 18.15, 14.38 10.37, 23.17 0.26 M1.25 31.57 C8.87 22.81, 16.48 14.05, 28.15 0.62 M1.25 31.57 C9.27 22.35, 17.28 13.13, 28.15 0.62 M3.62 34.95 C11.96 25.35, 20.3 15.76, 32.48 1.74 M3.62 34.95 C10.72 26.78, 17.82 18.61, 32.48 1.74 M5.98 38.32 C13.77 29.36, 21.57 20.39, 36.16 3.61 M5.98 38.32 C13.01 30.24, 20.04 22.15, 36.16 3.61 M9 40.95 C20.95 27.2, 32.9 13.45, 39.83 5.48 M9 40.95 C15.61 33.34, 22.22 25.74, 39.83 5.48 M12.02 43.57 C23.63 30.21, 35.24 16.85, 42.2 8.86 M12.02 43.57 C22.68 31.3, 33.35 19.04, 42.2 8.86 M15.69 45.44 C25.48 34.18, 35.27 22.92, 45.22 11.48 M15.69 45.44 C26.26 33.29, 36.82 21.14, 45.22 11.48 M20.02 46.56 C29.33 35.85, 38.64 25.14, 46.92 15.61 M20.02 46.56 C25.89 39.81, 31.76 33.06, 46.92 15.61 M25.67 46.16 C31.13 39.88, 36.6 33.59, 47.97 20.5 M25.67 46.16 C33.35 37.32, 41.04 28.48, 47.97 20.5 M31.97 45.01 C35.22 41.27, 38.47 37.53, 47.71 26.9 M31.97 45.01 C36.77 39.49, 41.57 33.97, 47.71 26.9" stroke="#a5d8ff" stroke-width="0.5" fill="none"></path><path d="M47.8 23.2 C47.8 24.54, 47.68 25.9, 47.44 27.23 C47.2 28.55, 46.83 29.87, 46.36 31.13 C45.89 32.39, 45.29 33.63, 44.6 34.8 C43.91 35.96, 43.1 37.08, 42.21 38.11 C41.32 39.14, 40.32 40.1, 39.26 40.97 C38.2 41.83, 37.05 42.62, 35.85 43.29 C34.65 43.96, 33.37 44.54, 32.07 45 C30.77 45.45, 29.41 45.81, 28.05 46.04 C26.69 46.28, 25.28 46.39, 23.9 46.39 C22.52 46.39, 21.11 46.28, 19.75 46.04 C18.39 45.81, 17.03 45.45, 15.73 45 C14.43 44.54, 13.15 43.96, 11.95 43.29 C10.75 42.62, 9.6 41.83, 8.54 40.97 C7.48 40.1, 6.48 39.14, 5.59 38.11 C4.7 37.08, 3.89 35.96, 3.2 34.8 C2.51 33.63, 1.91 32.39, 1.44 31.13 C0.97 29.87, 0.6 28.55, 0.36 27.23 C0.12 25.9, 0 24.54, 0 23.2 C0 21.85, 0.12 20.49, 0.36 19.17 C0.6 17.85, 0.97 16.52, 1.44 15.26 C1.91 14, 2.51 12.76, 3.2 11.6 C3.89 10.44, 4.7 9.31, 5.59 8.29 C6.48 7.26, 7.48 6.29, 8.54 5.43 C9.6 4.56, 10.75 3.78, 11.95 3.11 C13.15 2.44, 14.43 1.86, 15.73 1.4 C17.03 0.94, 18.39 0.59, 19.75 0.35 C21.11 0.12, 22.52 0, 23.9 0 C25.28 0, 26.69 0.12, 28.05 0.35 C29.41 0.59, 30.77 0.94, 32.07 1.4 C33.37 1.86, 34.65 2.44, 35.85 3.11 C37.05 3.78, 38.2 4.56, 39.26 5.43 C40.32 6.29, 41.32 7.26, 42.21 8.29 C43.1 9.31, 43.91 10.44, 44.6 11.6 C45.29 12.76, 45.89 14, 46.36 15.26 C46.83 16.52, 47.2 17.85, 47.44 19.17 C47.68 20.49, 47.74 22.53, 47.8 23.2 C47.86 23.87, 47.86 22.53, 47.8 23.2" stroke="#1971c2" stroke-width="1" fill="none"></path></g><g stroke-linecap="round" transform="translate(210.2106842395542 93.4035230553221) rotate(0 23.900077874149247 23.197132041219945)"><path d="M5.32 8.6 C5.32 8.6, 5.32 8.6, 5.32 8.6 M5.32 8.6 C5.32 8.6, 5.32 8.6, 5.32 8.6 M1.12 19.53 C4.78 15.32, 8.44 11.11, 16.21 2.17 M1.12 19.53 C5.91 14.02, 10.7 8.51, 16.21 2.17 M0.86 25.92 C8.86 16.72, 16.87 7.51, 23.17 0.26 M0.86 25.92 C6.72 19.18, 12.58 12.44, 23.17 0.26 M1.25 31.57 C9.1 22.54, 16.95 13.51, 28.15 0.62 M1.25 31.57 C7.43 24.46, 13.61 17.35, 28.15 0.62 M3.62 34.95 C10.67 26.83, 17.73 18.71, 32.48 1.74 M3.62 34.95 C14.04 22.96, 24.46 10.97, 32.48 1.74 M5.98 38.32 C13.34 29.86, 20.69 21.4, 36.16 3.61 M5.98 38.32 C14.86 28.11, 23.74 17.89, 36.16 3.61 M9 40.95 C15.26 33.74, 21.52 26.54, 39.83 5.48 M9 40.95 C18.24 30.32, 27.47 19.7, 39.83 5.48 M12.02 43.57 C23.63 30.22, 35.24 16.86, 42.2 8.86 M12.02 43.57 C18.56 36.04, 25.11 28.52, 42.2 8.86 M15.69 45.44 C23.43 36.54, 31.16 27.64, 45.22 11.48 M15.69 45.44 C27.31 32.08, 38.92 18.72, 45.22 11.48 M20.02 46.56 C30.31 34.72, 40.6 22.89, 46.92 15.61 M20.02 46.56 C25.99 39.69, 31.95 32.83, 46.92 15.61 M25.67 46.16 C30.79 40.27, 35.9 34.39, 47.97 20.5 M25.67 46.16 C31.84 39.07, 38 31.97, 47.97 20.5 M31.97 45.01 C36.47 39.84, 40.96 34.66, 47.71 26.9 M31.97 45.01 C35.94 40.44, 39.91 35.87, 47.71 26.9" stroke="#b2f2bb" stroke-width="0.5" fill="none"></path><path d="M47.8 23.2 C47.8 24.54, 47.68 25.9, 47.44 27.23 C47.2 28.55, 46.83 29.87, 46.36 31.13 C45.89 32.39, 45.29 33.63, 44.6 34.8 C43.91 35.96, 43.1 37.08, 42.21 38.11 C41.32 39.14, 40.32 40.1, 39.26 40.97 C38.2 41.83, 37.05 42.62, 35.85 43.29 C34.65 43.96, 33.37 44.54, 32.07 45 C30.77 45.45, 29.41 45.81, 28.05 46.04 C26.69 46.28, 25.28 46.39, 23.9 46.39 C22.52 46.39, 21.11 46.28, 19.75 46.04 C18.39 45.81, 17.03 45.45, 15.73 45 C14.43 44.54, 13.15 43.96, 11.95 43.29 C10.75 42.62, 9.6 41.83, 8.54 40.97 C7.48 40.1, 6.48 39.14, 5.59 38.11 C4.7 37.08, 3.89 35.96, 3.2 34.8 C2.51 33.63, 1.91 32.39, 1.44 31.13 C0.97 29.87, 0.6 28.55, 0.36 27.23 C0.12 25.9, 0 24.54, 0 23.2 C0 21.85, 0.12 20.49, 0.36 19.17 C0.6 17.85, 0.97 16.52, 1.44 15.26 C1.91 14, 2.51 12.76, 3.2 11.6 C3.89 10.44, 4.7 9.31, 5.59 8.29 C6.48 7.26, 7.48 6.29, 8.54 5.43 C9.6 4.56, 10.75 3.78, 11.95 3.11 C13.15 2.44, 14.43 1.86, 15.73 1.4 C17.03 0.94, 18.39 0.59, 19.75 0.35 C21.11 0.12, 22.52 0, 23.9 0 C25.28 0, 26.69 0.12, 28.05 0.35 C29.41 0.59, 30.77 0.94, 32.07 1.4 C33.37 1.86, 34.65 2.44, 35.85 3.11 C37.05 3.78, 38.2 4.56, 39.26 5.43 C40.32 6.29, 41.32 7.26, 42.21 8.29 C43.1 9.31, 43.91 10.44, 44.6 11.6 C45.29 12.76, 45.89 14, 46.36 15.26 C46.83 16.52, 47.2 17.85, 47.44 19.17 C47.68 20.49, 47.74 22.53, 47.8 23.2 C47.86 23.87, 47.86 22.53, 47.8 23.2" stroke="#2f9e44" stroke-width="1" fill="none"></path></g><g stroke-linecap="round" transform="translate(267.9733189196895 189.37622712170372) rotate(0 23.900077874149247 23.197132041219945)"><path d="M5.32 8.6 C5.32 8.6, 5.32 8.6, 5.32 8.6 M5.32 8.6 C5.32 8.6, 5.32 8.6, 5.32 8.6 M1.12 19.53 C6.6 13.22, 12.08 6.92, 16.21 2.17 M1.12 19.53 C6.52 13.32, 11.91 7.11, 16.21 2.17 M0.86 25.92 C8.64 16.97, 16.42 8.02, 23.17 0.26 M0.86 25.92 C8.09 17.61, 15.32 9.29, 23.17 0.26 M1.25 31.57 C8.4 23.35, 15.54 15.13, 28.15 0.62 M1.25 31.57 C8.31 23.46, 15.36 15.34, 28.15 0.62 M3.62 34.95 C9.47 28.21, 15.33 21.47, 32.48 1.74 M3.62 34.95 C13.64 23.42, 23.66 11.89, 32.48 1.74 M5.98 38.32 C16.14 26.64, 26.29 14.96, 36.16 3.61 M5.98 38.32 C17.64 24.91, 29.31 11.49, 36.16 3.61 M9 40.95 C21.06 27.07, 33.13 13.19, 39.83 5.48 M9 40.95 C20.03 28.26, 31.06 15.57, 39.83 5.48 M12.02 43.57 C21.16 33.05, 30.31 22.53, 42.2 8.86 M12.02 43.57 C22.46 31.57, 32.89 19.56, 42.2 8.86 M15.69 45.44 C24.01 35.88, 32.32 26.31, 45.22 11.48 M15.69 45.44 C23.98 35.91, 32.26 26.39, 45.22 11.48 M20.02 46.56 C27.38 38.1, 34.73 29.64, 46.92 15.61 M20.02 46.56 C27.4 38.07, 34.77 29.59, 46.92 15.61 M25.67 46.16 C30.64 40.44, 35.62 34.72, 47.97 20.5 M25.67 46.16 C33.67 36.96, 41.67 27.75, 47.97 20.5 M31.97 45.01 C37.27 38.91, 42.58 32.8, 47.71 26.9 M31.97 45.01 C35.49 40.96, 39.02 36.9, 47.71 26.9" stroke="#b2f2bb" stroke-width="0.5" fill="none"></path><path d="M47.8 23.2 C47.8 24.54, 47.68 25.9, 47.44 27.23 C47.2 28.55, 46.83 29.87, 46.36 31.13 C45.89 32.39, 45.29 33.63, 44.6 34.8 C43.91 35.96, 43.1 37.08, 42.21 38.11 C41.32 39.14, 40.32 40.1, 39.26 40.97 C38.2 41.83, 37.05 42.62, 35.85 43.29 C34.65 43.96, 33.37 44.54, 32.07 45 C30.77 45.45, 29.41 45.81, 28.05 46.04 C26.69 46.28, 25.28 46.39, 23.9 46.39 C22.52 46.39, 21.11 46.28, 19.75 46.04 C18.39 45.81, 17.03 45.45, 15.73 45 C14.43 44.54, 13.15 43.96, 11.95 43.29 C10.75 42.62, 9.6 41.83, 8.54 40.97 C7.48 40.1, 6.48 39.14, 5.59 38.11 C4.7 37.08, 3.89 35.96, 3.2 34.8 C2.51 33.63, 1.91 32.39, 1.44 31.13 C0.97 29.87, 0.6 28.55, 0.36 27.23 C0.12 25.9, 0 24.54, 0 23.2 C0 21.85, 0.12 20.49, 0.36 19.17 C0.6 17.85, 0.97 16.52, 1.44 15.26 C1.91 14, 2.51 12.76, 3.2 11.6 C3.89 10.44, 4.7 9.31, 5.59 8.29 C6.48 7.26, 7.48 6.29, 8.54 5.43 C9.6 4.56, 10.75 3.78, 11.95 3.11 C13.15 2.44, 14.43 1.86, 15.73 1.4 C17.03 0.94, 18.39 0.59, 19.75 0.35 C21.11 0.12, 22.52 0, 23.9 0 C25.28 0, 26.69 0.12, 28.05 0.35 C29.41 0.59, 30.77 0.94, 32.07 1.4 C33.37 1.86, 34.65 2.44, 35.85 3.11 C37.05 3.78, 38.2 4.56, 39.26 5.43 C40.32 6.29, 41.32 7.26, 42.21 8.29 C43.1 9.31, 43.91 10.44, 44.6 11.6 C45.29 12.76, 45.89 14, 46.36 15.26 C46.83 16.52, 47.2 17.85, 47.44 19.17 C47.68 20.49, 47.74 22.53, 47.8 23.2 C47.86 23.87, 47.86 22.53, 47.8 23.2" stroke="#2f9e44" stroke-width="1" fill="none"></path></g><g stroke-linecap="round" transform="translate(166.8624062626368 189.82366182781436) rotate(0 23.900077874149247 23.197132041219945)"><path d="M5.32 8.6 C5.32 8.6, 5.32 8.6, 5.32 8.6 M5.32 8.6 C5.32 8.6, 5.32 8.6, 5.32 8.6 M1.12 19.53 C5.58 14.4, 10.04 9.26, 16.21 2.17 M1.12 19.53 C6.02 13.89, 10.92 8.26, 16.21 2.17 M0.86 25.92 C9.47 16.01, 18.09 6.11, 23.17 0.26 M0.86 25.92 C6.17 19.81, 11.49 13.7, 23.17 0.26 M1.25 31.57 C7.27 24.64, 13.29 17.72, 28.15 0.62 M1.25 31.57 C11.5 19.78, 21.74 8, 28.15 0.62 M3.62 34.95 C11.66 25.69, 19.71 16.43, 32.48 1.74 M3.62 34.95 C12.5 24.73, 21.38 14.51, 32.48 1.74 M5.98 38.32 C15.16 27.77, 24.33 17.21, 36.16 3.61 M5.98 38.32 C14.23 28.83, 22.49 19.33, 36.16 3.61 M9 40.95 C17.4 31.28, 25.8 21.62, 39.83 5.48 M9 40.95 C18.06 30.53, 27.11 20.11, 39.83 5.48 M12.02 43.57 C21.5 32.67, 30.98 21.76, 42.2 8.86 M12.02 43.57 C18.29 36.35, 24.57 29.14, 42.2 8.86 M15.69 45.44 C23.2 36.81, 30.7 28.18, 45.22 11.48 M15.69 45.44 C25.79 33.83, 35.88 22.22, 45.22 11.48 M20.02 46.56 C29.45 35.72, 38.87 24.88, 46.92 15.61 M20.02 46.56 C29.99 35.1, 39.95 23.63, 46.92 15.61 M25.67 46.16 C30.79 40.27, 35.92 34.37, 47.97 20.5 M25.67 46.16 C34.13 36.43, 42.59 26.69, 47.97 20.5 M31.97 45.01 C35.55 40.89, 39.14 36.76, 47.71 26.9 M31.97 45.01 C37.14 39.06, 42.32 33.11, 47.71 26.9" stroke="#b2f2bb" stroke-width="0.5" fill="none"></path><path d="M47.8 23.2 C47.8 24.54, 47.68 25.9, 47.44 27.23 C47.2 28.55, 46.83 29.87, 46.36 31.13 C45.89 32.39, 45.29 33.63, 44.6 34.8 C43.91 35.96, 43.1 37.08, 42.21 38.11 C41.32 39.14, 40.32 40.1, 39.26 40.97 C38.2 41.83, 37.05 42.62, 35.85 43.29 C34.65 43.96, 33.37 44.54, 32.07 45 C30.77 45.45, 29.41 45.81, 28.05 46.04 C26.69 46.28, 25.28 46.39, 23.9 46.39 C22.52 46.39, 21.11 46.28, 19.75 46.04 C18.39 45.81, 17.03 45.45, 15.73 45 C14.43 44.54, 13.15 43.96, 11.95 43.29 C10.75 42.62, 9.6 41.83, 8.54 40.97 C7.48 40.1, 6.48 39.14, 5.59 38.11 C4.7 37.08, 3.89 35.96, 3.2 34.8 C2.51 33.63, 1.91 32.39, 1.44 31.13 C0.97 29.87, 0.6 28.55, 0.36 27.23 C0.12 25.9, 0 24.54, 0 23.2 C0 21.85, 0.12 20.49, 0.36 19.17 C0.6 17.85, 0.97 16.52, 1.44 15.26 C1.91 14, 2.51 12.76, 3.2 11.6 C3.89 10.44, 4.7 9.31, 5.59 8.29 C6.48 7.26, 7.48 6.29, 8.54 5.43 C9.6 4.56, 10.75 3.78, 11.95 3.11 C13.15 2.44, 14.43 1.86, 15.73 1.4 C17.03 0.94, 18.39 0.59, 19.75 0.35 C21.11 0.12, 22.52 0, 23.9 0 C25.28 0, 26.69 0.12, 28.05 0.35 C29.41 0.59, 30.77 0.94, 32.07 1.4 C33.37 1.86, 34.65 2.44, 35.85 3.11 C37.05 3.78, 38.2 4.56, 39.26 5.43 C40.32 6.29, 41.32 7.26, 42.21 8.29 C43.1 9.31, 43.91 10.44, 44.6 11.6 C45.29 12.76, 45.89 14, 46.36 15.26 C46.83 16.52, 47.2 17.85, 47.44 19.17 C47.68 20.49, 47.74 22.53, 47.8 23.2 C47.86 23.87, 47.86 22.53, 47.8 23.2" stroke="#2f9e44" stroke-width="1" fill="none"></path></g><g stroke-linecap="round" transform="translate(62.900804912943386 101.44783802741975) rotate(0 23.900077874149247 23.197132041219945)"><path d="M5.32 8.6 C5.32 8.6, 5.32 8.6, 5.32 8.6 M5.32 8.6 C5.32 8.6, 5.32 8.6, 5.32 8.6 M1.12 19.53 C5.53 14.45, 9.94 9.38, 16.21 2.17 M1.12 19.53 C5.68 14.28, 10.23 9.04, 16.21 2.17 M0.86 25.92 C7.94 17.78, 15.02 9.63, 23.17 0.26 M0.86 25.92 C6.88 19, 12.9 12.07, 23.17 0.26 M1.25 31.57 C8.09 23.7, 14.93 15.84, 28.15 0.62 M1.25 31.57 C9.04 22.61, 16.83 13.65, 28.15 0.62 M3.62 34.95 C12.42 24.82, 21.21 14.7, 32.48 1.74 M3.62 34.95 C11.46 25.93, 19.29 16.91, 32.48 1.74 M5.98 38.32 C17.42 25.16, 28.87 11.99, 36.16 3.61 M5.98 38.32 C12.04 31.35, 18.11 24.37, 36.16 3.61 M9 40.95 C16.16 32.71, 23.33 24.47, 39.83 5.48 M9 40.95 C21.3 26.8, 33.59 12.66, 39.83 5.48 M12.02 43.57 C18.09 36.58, 24.17 29.6, 42.2 8.86 M12.02 43.57 C23.64 30.2, 35.27 16.83, 42.2 8.86 M15.69 45.44 C25.83 33.78, 35.96 22.12, 45.22 11.48 M15.69 45.44 C25.77 33.85, 35.85 22.26, 45.22 11.48 M20.02 46.56 C30.06 35.01, 40.09 23.47, 46.92 15.61 M20.02 46.56 C30.04 35.03, 40.06 23.51, 46.92 15.61 M25.67 46.16 C34.59 35.9, 43.51 25.64, 47.97 20.5 M25.67 46.16 C33.92 36.67, 42.17 27.18, 47.97 20.5 M31.97 45.01 C36.15 40.2, 40.34 35.38, 47.71 26.9 M31.97 45.01 C36.28 40.05, 40.6 35.08, 47.71 26.9" stroke="#a5d8ff" stroke-width="0.5" fill="none"></path><path d="M47.8 23.2 C47.8 24.54, 47.68 25.9, 47.44 27.23 C47.2 28.55, 46.83 29.87, 46.36 31.13 C45.89 32.39, 45.29 33.63, 44.6 34.8 C43.91 35.96, 43.1 37.08, 42.21 38.11 C41.32 39.14, 40.32 40.1, 39.26 40.97 C38.2 41.83, 37.05 42.62, 35.85 43.29 C34.65 43.96, 33.37 44.54, 32.07 45 C30.77 45.45, 29.41 45.81, 28.05 46.04 C26.69 46.28, 25.28 46.39, 23.9 46.39 C22.52 46.39, 21.11 46.28, 19.75 46.04 C18.39 45.81, 17.03 45.45, 15.73 45 C14.43 44.54, 13.15 43.96, 11.95 43.29 C10.75 42.62, 9.6 41.83, 8.54 40.97 C7.48 40.1, 6.48 39.14, 5.59 38.11 C4.7 37.08, 3.89 35.96, 3.2 34.8 C2.51 33.63, 1.91 32.39, 1.44 31.13 C0.97 29.87, 0.6 28.55, 0.36 27.23 C0.12 25.9, 0 24.54, 0 23.2 C0 21.85, 0.12 20.49, 0.36 19.17 C0.6 17.85, 0.97 16.52, 1.44 15.26 C1.91 14, 2.51 12.76, 3.2 11.6 C3.89 10.44, 4.7 9.31, 5.59 8.29 C6.48 7.26, 7.48 6.29, 8.54 5.43 C9.6 4.56, 10.75 3.78, 11.95 3.11 C13.15 2.44, 14.43 1.86, 15.73 1.4 C17.03 0.94, 18.39 0.59, 19.75 0.35 C21.11 0.12, 22.52 0, 23.9 0 C25.28 0, 26.69 0.12, 28.05 0.35 C29.41 0.59, 30.77 0.94, 32.07 1.4 C33.37 1.86, 34.65 2.44, 35.85 3.11 C37.05 3.78, 38.2 4.56, 39.26 5.43 C40.32 6.29, 41.32 7.26, 42.21 8.29 C43.1 9.31, 43.91 10.44, 44.6 11.6 C45.29 12.76, 45.89 14, 46.36 15.26 C46.83 16.52, 47.2 17.85, 47.44 19.17 C47.68 20.49, 47.74 22.53, 47.8 23.2 C47.86 23.87, 47.86 22.53, 47.8 23.2" stroke="#1971c2" stroke-width="1" fill="none"></path></g><g stroke-linecap="round" transform="translate(106.08327093891694 190.38181683791012) rotate(0 23.900077874149247 23.197132041219945)"><path d="M5.32 8.6 C5.32 8.6, 5.32 8.6, 5.32 8.6 M5.32 8.6 C5.32 8.6, 5.32 8.6, 5.32 8.6 M1.12 19.53 C4.17 16.01, 7.23 12.5, 16.21 2.17 M1.12 19.53 C6.74 13.07, 12.35 6.61, 16.21 2.17 M0.86 25.92 C7.65 18.11, 14.44 10.3, 23.17 0.26 M0.86 25.92 C8.88 16.69, 16.91 7.46, 23.17 0.26 M1.25 31.57 C9.13 22.51, 17.01 13.44, 28.15 0.62 M1.25 31.57 C9.02 22.63, 16.78 13.7, 28.15 0.62 M3.62 34.95 C11.14 26.29, 18.66 17.64, 32.48 1.74 M3.62 34.95 C14.42 22.52, 25.22 10.1, 32.48 1.74 M5.98 38.32 C18.04 24.45, 30.09 10.59, 36.16 3.61 M5.98 38.32 C13.57 29.59, 21.17 20.86, 36.16 3.61 M9 40.95 C17.1 31.63, 25.21 22.3, 39.83 5.48 M9 40.95 C18.67 29.82, 28.34 18.7, 39.83 5.48 M12.02 43.57 C18.88 35.67, 25.75 27.77, 42.2 8.86 M12.02 43.57 C19.5 34.97, 26.98 26.36, 42.2 8.86 M15.69 45.44 C26.23 33.32, 36.77 21.19, 45.22 11.48 M15.69 45.44 C26.75 32.72, 37.81 20, 45.22 11.48 M20.02 46.56 C27.11 38.41, 34.19 30.26, 46.92 15.61 M20.02 46.56 C30.34 34.69, 40.65 22.83, 46.92 15.61 M25.67 46.16 C33.92 36.67, 42.18 27.17, 47.97 20.5 M25.67 46.16 C31.73 39.18, 37.8 32.2, 47.97 20.5 M31.97 45.01 C37.86 38.23, 43.76 31.44, 47.71 26.9 M31.97 45.01 C36.42 39.89, 40.87 34.78, 47.71 26.9" stroke="#a5d8ff" stroke-width="0.5" fill="none"></path><path d="M47.8 23.2 C47.8 24.54, 47.68 25.9, 47.44 27.23 C47.2 28.55, 46.83 29.87, 46.36 31.13 C45.89 32.39, 45.29 33.63, 44.6 34.8 C43.91 35.96, 43.1 37.08, 42.21 38.11 C41.32 39.14, 40.32 40.1, 39.26 40.97 C38.2 41.83, 37.05 42.62, 35.85 43.29 C34.65 43.96, 33.37 44.54, 32.07 45 C30.77 45.45, 29.41 45.81, 28.05 46.04 C26.69 46.28, 25.28 46.39, 23.9 46.39 C22.52 46.39, 21.11 46.28, 19.75 46.04 C18.39 45.81, 17.03 45.45, 15.73 45 C14.43 44.54, 13.15 43.96, 11.95 43.29 C10.75 42.62, 9.6 41.83, 8.54 40.97 C7.48 40.1, 6.48 39.14, 5.59 38.11 C4.7 37.08, 3.89 35.96, 3.2 34.8 C2.51 33.63, 1.91 32.39, 1.44 31.13 C0.97 29.87, 0.6 28.55, 0.36 27.23 C0.12 25.9, 0 24.54, 0 23.2 C0 21.85, 0.12 20.49, 0.36 19.17 C0.6 17.85, 0.97 16.52, 1.44 15.26 C1.91 14, 2.51 12.76, 3.2 11.6 C3.89 10.44, 4.7 9.31, 5.59 8.29 C6.48 7.26, 7.48 6.29, 8.54 5.43 C9.6 4.56, 10.75 3.78, 11.95 3.11 C13.15 2.44, 14.43 1.86, 15.73 1.4 C17.03 0.94, 18.39 0.59, 19.75 0.35 C21.11 0.12, 22.52 0, 23.9 0 C25.28 0, 26.69 0.12, 28.05 0.35 C29.41 0.59, 30.77 0.94, 32.07 1.4 C33.37 1.86, 34.65 2.44, 35.85 3.11 C37.05 3.78, 38.2 4.56, 39.26 5.43 C40.32 6.29, 41.32 7.26, 42.21 8.29 C43.1 9.31, 43.91 10.44, 44.6 11.6 C45.29 12.76, 45.89 14, 46.36 15.26 C46.83 16.52, 47.2 17.85, 47.44 19.17 C47.68 20.49, 47.74 22.53, 47.8 23.2 C47.86 23.87, 47.86 22.53, 47.8 23.2" stroke="#1971c2" stroke-width="1" fill="none"></path></g><g stroke-linecap="round" transform="translate(10 188.31546904281603) rotate(0 23.900077874149247 23.197132041219945)"><path d="M5.32 8.6 C5.32 8.6, 5.32 8.6, 5.32 8.6 M5.32 8.6 C5.32 8.6, 5.32 8.6, 5.32 8.6 M1.12 19.53 C6.77 13.03, 12.41 6.53, 16.21 2.17 M1.12 19.53 C5.45 14.54, 9.78 9.56, 16.21 2.17 M0.86 25.92 C6.2 19.78, 11.54 13.64, 23.17 0.26 M0.86 25.92 C9.33 16.18, 17.79 6.44, 23.17 0.26 M1.25 31.57 C9.05 22.6, 16.85 13.63, 28.15 0.62 M1.25 31.57 C10.26 21.2, 19.27 10.84, 28.15 0.62 M3.62 34.95 C13.61 23.45, 23.6 11.95, 32.48 1.74 M3.62 34.95 C9.5 28.18, 15.38 21.42, 32.48 1.74 M5.98 38.32 C12.09 31.29, 18.2 24.26, 36.16 3.61 M5.98 38.32 C17.49 25.09, 28.99 11.85, 36.16 3.61 M9 40.95 C17.92 30.69, 26.84 20.42, 39.83 5.48 M9 40.95 C19.66 28.69, 30.31 16.43, 39.83 5.48 M12.02 43.57 C22.16 31.91, 32.3 20.24, 42.2 8.86 M12.02 43.57 C23.92 29.88, 35.82 16.19, 42.2 8.86 M15.69 45.44 C22.58 37.52, 29.47 29.6, 45.22 11.48 M15.69 45.44 C26.99 32.44, 38.3 19.44, 45.22 11.48 M20.02 46.56 C27.97 37.41, 35.92 28.27, 46.92 15.61 M20.02 46.56 C27.05 38.48, 34.07 30.4, 46.92 15.61 M25.67 46.16 C32.89 37.85, 40.11 29.55, 47.97 20.5 M25.67 46.16 C30.39 40.73, 35.12 35.29, 47.97 20.5 M31.97 45.01 C36.18 40.17, 40.39 35.32, 47.71 26.9 M31.97 45.01 C38.07 38, 44.17 30.98, 47.71 26.9" stroke="#a5d8ff" stroke-width="0.5" fill="none"></path><path d="M47.8 23.2 C47.8 24.54, 47.68 25.9, 47.44 27.23 C47.2 28.55, 46.83 29.87, 46.36 31.13 C45.89 32.39, 45.29 33.63, 44.6 34.8 C43.91 35.96, 43.1 37.08, 42.21 38.11 C41.32 39.14, 40.32 40.1, 39.26 40.97 C38.2 41.83, 37.05 42.62, 35.85 43.29 C34.65 43.96, 33.37 44.54, 32.07 45 C30.77 45.45, 29.41 45.81, 28.05 46.04 C26.69 46.28, 25.28 46.39, 23.9 46.39 C22.52 46.39, 21.11 46.28, 19.75 46.04 C18.39 45.81, 17.03 45.45, 15.73 45 C14.43 44.54, 13.15 43.96, 11.95 43.29 C10.75 42.62, 9.6 41.83, 8.54 40.97 C7.48 40.1, 6.48 39.14, 5.59 38.11 C4.7 37.08, 3.89 35.96, 3.2 34.8 C2.51 33.63, 1.91 32.39, 1.44 31.13 C0.97 29.87, 0.6 28.55, 0.36 27.23 C0.12 25.9, 0 24.54, 0 23.2 C0 21.85, 0.12 20.49, 0.36 19.17 C0.6 17.85, 0.97 16.52, 1.44 15.26 C1.91 14, 2.51 12.76, 3.2 11.6 C3.89 10.44, 4.7 9.31, 5.59 8.29 C6.48 7.26, 7.48 6.29, 8.54 5.43 C9.6 4.56, 10.75 3.78, 11.95 3.11 C13.15 2.44, 14.43 1.86, 15.73 1.4 C17.03 0.94, 18.39 0.59, 19.75 0.35 C21.11 0.12, 22.52 0, 23.9 0 C25.28 0, 26.69 0.12, 28.05 0.35 C29.41 0.59, 30.77 0.94, 32.07 1.4 C33.37 1.86, 34.65 2.44, 35.85 3.11 C37.05 3.78, 38.2 4.56, 39.26 5.43 C40.32 6.29, 41.32 7.26, 42.21 8.29 C43.1 9.31, 43.91 10.44, 44.6 11.6 C45.29 12.76, 45.89 14, 46.36 15.26 C46.83 16.52, 47.2 17.85, 47.44 19.17 C47.68 20.49, 47.74 22.53, 47.8 23.2 C47.86 23.87, 47.86 22.53, 47.8 23.2" stroke="#1971c2" stroke-width="1" fill="none"></path></g><g stroke-linecap="round"><g transform="translate(136.63667491120304 65.29731185951944) rotate(0 -13.72503706456564 16.263899786774935)"><path d="M0 0 C-4.58 5.42, -22.88 27.11, -27.45 32.53 M0 0 C-4.58 5.42, -22.88 27.11, -27.45 32.53" stroke="#1971c2" stroke-width="1" fill="none"></path></g><g transform="translate(136.63667491120304 65.29731185951944) rotate(0 -13.72503706456564 16.263899786774935)"><path d="M-20.12 12.55 C-21.86 17.31, -23.61 22.07, -27.45 32.53 M-20.12 12.55 C-22.72 19.64, -25.32 26.73, -27.45 32.53" stroke="#1971c2" stroke-width="1" fill="none"></path></g><g transform="translate(136.63667491120304 65.29731185951944) rotate(0 -13.72503706456564 16.263899786774935)"><path d="M-8.99 21.94 C-13.39 24.46, -17.79 26.98, -27.45 32.53 M-8.99 21.94 C-15.54 25.7, -22.09 29.45, -27.45 32.53" stroke="#1971c2" stroke-width="1" fill="none"></path></g></g><mask></mask><g stroke-linecap="round"><g transform="translate(66.03115726932265 150.05404003790994) rotate(0 -11.831410839194177 17.460633711885432)"><path d="M0 0 C-3.94 5.82, -19.72 29.1, -23.66 34.92 M0 0 C-3.94 5.82, -19.72 29.1, -23.66 34.92" stroke="#1971c2" stroke-width="1" fill="none"></path></g><g transform="translate(66.03115726932265 150.05404003790994) rotate(0 -11.831410839194177 17.460633711885432)"><path d="M-18.52 14.47 C-20.28 21.49, -22.05 28.51, -23.66 34.92 M-18.52 14.47 C-20.21 21.18, -21.89 27.89, -23.66 34.92" stroke="#1971c2" stroke-width="1" fill="none"></path></g><g transform="translate(66.03115726932265 150.05404003790994) rotate(0 -11.831410839194177 17.460633711885432)"><path d="M-6.57 22.56 C-12.44 26.8, -18.3 31.04, -23.66 34.92 M-6.57 22.56 C-12.18 26.62, -17.79 30.67, -23.66 34.92" stroke="#1971c2" stroke-width="1" fill="none"></path></g></g><mask></mask><g stroke-linecap="round"><g transform="translate(104.05779268711831 152.10184607473528) rotate(0 9.118165978469733 15.81696666263084)"><path d="M0 0 C3.04 5.27, 15.2 26.36, 18.24 31.63 M0 0 C3.04 5.27, 15.2 26.36, 18.24 31.63" stroke="#1971c2" stroke-width="1" fill="none"></path></g><g transform="translate(104.05779268711831 152.10184607473528) rotate(0 9.118165978469733 15.81696666263084)"><path d="M4.26 19.89 C7.75 22.83, 11.25 25.77, 18.24 31.63 M4.26 19.89 C7.89 22.94, 11.53 26, 18.24 31.63" stroke="#1971c2" stroke-width="1" fill="none"></path></g><g transform="translate(104.05779268711831 152.10184607473528) rotate(0 9.118165978469733 15.81696666263084)"><path d="M15.08 13.65 C15.87 18.15, 16.66 22.65, 18.24 31.63 M15.08 13.65 C15.9 18.33, 16.72 23, 18.24 31.63" stroke="#1971c2" stroke-width="1" fill="none"></path></g></g><mask></mask><g stroke-linecap="round"><g transform="translate(181.67835980012114 61.03582223226296) rotate(0 12.17030317600802 14.143892840387899)"><path d="M0 0 C4.06 4.71, 20.28 23.57, 24.34 28.29 M0 0 C4.06 4.71, 20.28 23.57, 24.34 28.29" stroke="#1971c2" stroke-width="1" fill="none"></path></g><g transform="translate(181.67835980012114 61.03582223226296) rotate(0 12.17030317600802 14.143892840387899)"><path d="M8.07 19.16 C12.95 21.9, 17.84 24.64, 24.34 28.29 M8.07 19.16 C11.78 21.24, 15.49 23.32, 24.34 28.29" stroke="#1971c2" stroke-width="1" fill="none"></path></g><g transform="translate(181.67835980012114 61.03582223226296) rotate(0 12.17030317600802 14.143892840387899)"><path d="M17.74 10.83 C19.72 16.07, 21.7 21.31, 24.34 28.29 M17.74 10.83 C19.25 14.81, 20.75 18.79, 24.34 28.29" stroke="#1971c2" stroke-width="1" fill="none"></path></g></g><mask></mask><g stroke-linecap="round"><g transform="translate(252.18116532478234 142.9518449661594) rotate(0 13.897473605058622 19.60076653946175)"><path d="M0 0 C4.63 6.53, 23.16 32.67, 27.79 39.2 M0 0 C4.63 6.53, 23.16 32.67, 27.79 39.2" stroke="#2f9e44" stroke-width="1" fill="none"></path></g><g transform="translate(252.18116532478234 142.9518449661594) rotate(0 13.897473605058622 19.60076653946175)"><path d="M8.03 25.54 C14.7 30.15, 21.38 34.76, 27.79 39.2 M8.03 25.54 C14.56 30.05, 21.08 34.56, 27.79 39.2" stroke="#2f9e44" stroke-width="1" fill="none"></path></g><g transform="translate(252.18116532478234 142.9518449661594) rotate(0 13.897473605058622 19.60076653946175)"><path d="M21.44 16.03 C23.59 23.85, 25.73 31.68, 27.79 39.2 M21.44 16.03 C23.54 23.68, 25.64 31.33, 27.79 39.2" stroke="#2f9e44" stroke-width="1" fill="none"></path></g></g><mask></mask><g stroke-linecap="round"><g transform="translate(217.90357615450375 143.8214420290974) rotate(0 -11.02868323806615 17.613889337679097)"><path d="M0 0 C-3.68 5.87, -18.38 29.36, -22.06 35.23 M0 0 C-3.68 5.87, -18.38 29.36, -22.06 35.23" stroke="#2f9e44" stroke-width="1" fill="none"></path></g><g transform="translate(217.90357615450375 143.8214420290974) rotate(0 -11.02868323806615 17.613889337679097)"><path d="M-17.72 14.9 C-19.21 21.88, -20.7 28.86, -22.06 35.23 M-17.72 14.9 C-19.43 22.93, -21.14 30.95, -22.06 35.23" stroke="#2f9e44" stroke-width="1" fill="none"></path></g><g transform="translate(217.90357615450375 143.8214420290974) rotate(0 -11.02868323806615 17.613889337679097)"><path d="M-5.67 22.45 C-11.3 26.84, -16.93 31.23, -22.06 35.23 M-5.67 22.45 C-12.14 27.49, -18.61 32.54, -22.06 35.23" stroke="#2f9e44" stroke-width="1" fill="none"></path></g></g><mask></mask><g transform="translate(130.6047103024648 256.7436153545205) rotate(0 32.59198760986328 17.5)"><text x="0" y="0" font-family="Virgil, Segoe UI Emoji" font-size="28px" fill="#1e1e1e" text-anchor="start" style="white-space: pre;" direction="ltr" dominant-baseline="text-before-edge">Tree</text></g><g stroke-linecap="round" transform="translate(520.2035619424478 24.398274803041232) rotate(0 27.309189974691435 25.856594708659706)"><path d="M54.62 25.86 C54.62 27.35, 54.48 28.87, 54.2 30.35 C53.93 31.82, 53.51 33.29, 52.97 34.7 C52.43 36.11, 51.75 37.49, 50.96 38.78 C50.17 40.08, 49.25 41.33, 48.23 42.48 C47.21 43.62, 46.07 44.7, 44.86 45.66 C43.65 46.63, 42.33 47.5, 40.96 48.25 C39.59 49, 38.13 49.64, 36.65 50.15 C35.16 50.67, 33.61 51.06, 32.05 51.32 C30.49 51.58, 28.89 51.71, 27.31 51.71 C25.73 51.71, 24.12 51.58, 22.57 51.32 C21.01 51.06, 19.45 50.67, 17.97 50.15 C16.48 49.64, 15.02 49, 13.65 48.25 C12.29 47.5, 10.97 46.63, 9.76 45.66 C8.54 44.7, 7.41 43.62, 6.39 42.48 C5.37 41.33, 4.45 40.08, 3.66 38.78 C2.87 37.49, 2.19 36.11, 1.65 34.7 C1.11 33.29, 0.69 31.82, 0.41 30.35 C0.14 28.87, 0 27.35, 0 25.86 C0 24.36, 0.14 22.84, 0.41 21.37 C0.69 19.89, 1.11 18.42, 1.65 17.01 C2.19 15.61, 2.87 14.22, 3.66 12.93 C4.45 11.63, 5.37 10.38, 6.39 9.24 C7.41 8.09, 8.54 7.01, 9.76 6.05 C10.97 5.09, 12.29 4.21, 13.65 3.46 C15.02 2.72, 16.48 2.07, 17.97 1.56 C19.45 1.05, 21.01 0.65, 22.57 0.39 C24.12 0.13, 25.73 0, 27.31 0 C28.89 0, 30.49 0.13, 32.05 0.39 C33.61 0.65, 35.16 1.05, 36.65 1.56 C38.13 2.07, 39.59 2.72, 40.96 3.46 C42.33 4.21, 43.65 5.09, 44.86 6.05 C46.07 7.01, 47.21 8.09, 48.23 9.24 C49.25 10.38, 50.17 11.63, 50.96 12.93 C51.75 14.22, 52.43 15.61, 52.97 17.01 C53.51 18.42, 53.93 19.89, 54.2 21.37 C54.48 22.84, 54.55 25.11, 54.62 25.86 C54.69 26.6, 54.69 25.11, 54.62 25.86" stroke="#e03131" stroke-width="1" fill="none"></path></g><g stroke-linecap="round" transform="translate(363.56540643175595 180.363297396001) rotate(0 27.309189974691435 25.856594708659706)"><path d="M54.62 25.86 C54.62 27.35, 54.48 28.87, 54.2 30.35 C53.93 31.82, 53.51 33.29, 52.97 34.7 C52.43 36.11, 51.75 37.49, 50.96 38.78 C50.17 40.08, 49.25 41.33, 48.23 42.48 C47.21 43.62, 46.07 44.7, 44.86 45.66 C43.65 46.63, 42.33 47.5, 40.96 48.25 C39.59 49, 38.13 49.64, 36.65 50.15 C35.16 50.67, 33.61 51.06, 32.05 51.32 C30.49 51.58, 28.89 51.71, 27.31 51.71 C25.73 51.71, 24.12 51.58, 22.57 51.32 C21.01 51.06, 19.45 50.67, 17.97 50.15 C16.48 49.64, 15.02 49, 13.65 48.25 C12.29 47.5, 10.97 46.63, 9.76 45.66 C8.54 44.7, 7.41 43.62, 6.39 42.48 C5.37 41.33, 4.45 40.08, 3.66 38.78 C2.87 37.49, 2.19 36.11, 1.65 34.7 C1.11 33.29, 0.69 31.82, 0.41 30.35 C0.14 28.87, 0 27.35, 0 25.86 C0 24.36, 0.14 22.84, 0.41 21.37 C0.69 19.89, 1.11 18.42, 1.65 17.01 C2.19 15.61, 2.87 14.22, 3.66 12.93 C4.45 11.63, 5.37 10.38, 6.39 9.24 C7.41 8.09, 8.54 7.01, 9.76 6.05 C10.97 5.09, 12.29 4.21, 13.65 3.46 C15.02 2.72, 16.48 2.07, 17.97 1.56 C19.45 1.05, 21.01 0.65, 22.57 0.39 C24.12 0.13, 25.73 0, 27.31 0 C28.89 0, 30.49 0.13, 32.05 0.39 C33.61 0.65, 35.16 1.05, 36.65 1.56 C38.13 2.07, 39.59 2.72, 40.96 3.46 C42.33 4.21, 43.65 5.09, 44.86 6.05 C46.07 7.01, 47.21 8.09, 48.23 9.24 C49.25 10.38, 50.17 11.63, 50.96 12.93 C51.75 14.22, 52.43 15.61, 52.97 17.01 C53.51 18.42, 53.93 19.89, 54.2 21.37 C54.48 22.84, 54.55 25.11, 54.62 25.86 C54.69 26.6, 54.69 25.11, 54.62 25.86" stroke="#e03131" stroke-width="1" fill="none"></path></g><g stroke-linecap="round" transform="translate(519.9891371053272 179.90450065465708) rotate(0 27.309189974691435 25.856594708659706)"><path d="M54.62 25.86 C54.62 27.35, 54.48 28.87, 54.2 30.35 C53.93 31.82, 53.51 33.29, 52.97 34.7 C52.43 36.11, 51.75 37.49, 50.96 38.78 C50.17 40.08, 49.25 41.33, 48.23 42.48 C47.21 43.62, 46.07 44.7, 44.86 45.66 C43.65 46.63, 42.33 47.5, 40.96 48.25 C39.59 49, 38.13 49.64, 36.65 50.15 C35.16 50.67, 33.61 51.06, 32.05 51.32 C30.49 51.58, 28.89 51.71, 27.31 51.71 C25.73 51.71, 24.12 51.58, 22.57 51.32 C21.01 51.06, 19.45 50.67, 17.97 50.15 C16.48 49.64, 15.02 49, 13.65 48.25 C12.29 47.5, 10.97 46.63, 9.76 45.66 C8.54 44.7, 7.41 43.62, 6.39 42.48 C5.37 41.33, 4.45 40.08, 3.66 38.78 C2.87 37.49, 2.19 36.11, 1.65 34.7 C1.11 33.29, 0.69 31.82, 0.41 30.35 C0.14 28.87, 0 27.35, 0 25.86 C0 24.36, 0.14 22.84, 0.41 21.37 C0.69 19.89, 1.11 18.42, 1.65 17.01 C2.19 15.61, 2.87 14.22, 3.66 12.93 C4.45 11.63, 5.37 10.38, 6.39 9.24 C7.41 8.09, 8.54 7.01, 9.76 6.05 C10.97 5.09, 12.29 4.21, 13.65 3.46 C15.02 2.72, 16.48 2.07, 17.97 1.56 C19.45 1.05, 21.01 0.65, 22.57 0.39 C24.12 0.13, 25.73 0, 27.31 0 C28.89 0, 30.49 0.13, 32.05 0.39 C33.61 0.65, 35.16 1.05, 36.65 1.56 C38.13 2.07, 39.59 2.72, 40.96 3.46 C42.33 4.21, 43.65 5.09, 44.86 6.05 C46.07 7.01, 47.21 8.09, 48.23 9.24 C49.25 10.38, 50.17 11.63, 50.96 12.93 C51.75 14.22, 52.43 15.61, 52.97 17.01 C53.51 18.42, 53.93 19.89, 54.2 21.37 C54.48 22.84, 54.55 25.11, 54.62 25.86 C54.69 26.6, 54.69 25.11, 54.62 25.86" stroke="#e03131" stroke-width="1" fill="none"></path></g><g stroke-linecap="round"><g stroke-opacity="0.8" fill-opacity="0.8" transform="translate(523.689879241655 65.65261206605933) rotate(0 -58.846356811267015 60.02916923291138)"><path d="M0.26 0.47 C-19.03 20.15, -97.51 99.19, -116.73 118.94 M-1.07 -0.33 C-20.46 19.46, -98.93 100.3, -117.95 120.39" stroke="#1971c2" stroke-width="1" fill="none"></path></g></g><mask></mask><g stroke-linecap="round"><g stroke-opacity="0.8" fill-opacity="0.8" transform="translate(519.6225238360348 206.84702194709956) rotate(0 -50.04397646114785 -0.01638375414668758)"><path d="M-1.15 -1.07 C-18.03 -0.88, -83.34 0.93, -100.11 1.04 M0.45 0.98 C-16.6 0.82, -83.32 -0.75, -100.54 -0.84" stroke="#1971c2" stroke-width="1" fill="none"></path></g></g><mask></mask><g stroke-linecap="round"><g stroke-opacity="0.7" fill-opacity="0.7" transform="translate(547.5127962475044 179.537876302774) rotate(0 0.8175602485780473 -51.60898608503909)"><path d="M0.75 0.99 C1.08 -16.03, 1.93 -85.13, 1.94 -102.35 M-0.31 0.46 C-0.07 -16.9, 1.37 -86.74, 1.41 -104.21" stroke="#1971c2" stroke-width="1" fill="none"></path></g></g><mask></mask><g transform="translate(537.0539330106121 27.884603184840955) rotate(0 10.79061486773844 20.222297282588208)"><text x="0" y="0" font-family="Virgil, Segoe UI Emoji" font-size="32.35567565214114px" fill="#1e1e1e" text-anchor="start" style="white-space: pre;" direction="ltr" dominant-baseline="text-before-edge">a</text></g><g transform="translate(542.9866219353571 186.63266360552737) rotate(0 8.216896057128906 20.22229728258821)"><text x="0" y="0" font-family="Virgil, Segoe UI Emoji" font-size="32.35567565214114px" fill="#1e1e1e" text-anchor="start" style="white-space: pre;" direction="ltr" dominant-baseline="text-before-edge">b</text></g><g transform="translate(382.15880315842605 182.6874609042434) rotate(0 8.119842529296875 20.22229728258821)"><text x="0" y="0" font-family="Virgil, Segoe UI Emoji" font-size="32.35567565214114px" fill="#1e1e1e" text-anchor="start" style="white-space: pre;" direction="ltr" dominant-baseline="text-before-edge">c</text></g><g transform="translate(442.92429686967444 91.21866555632971) rotate(0 9.067142753871849 15.918447303435883)"><text x="0" y="0" font-family="Virgil, Segoe UI Emoji" font-size="25.469515685497417px" fill="#1e1e1e" text-anchor="start" style="white-space: pre;" direction="ltr" dominant-baseline="text-before-edge">2</text></g><g transform="translate(559.2558219060102 118.65009689609005) rotate(0 8.147193908691406 15.918447303435883)"><text x="0" y="0" font-family="Virgil, Segoe UI Emoji" font-size="25.469515685497417px" fill="#1e1e1e" text-anchor="start" style="white-space: pre;" direction="ltr" dominant-baseline="text-before-edge">6</text></g><g transform="translate(464.08637308249945 214.06400628455586) rotate(0 8.147193908691406 15.918447303435883)"><text x="0" y="0" font-family="Virgil, Segoe UI Emoji" font-size="25.469515685497417px" fill="#1e1e1e" text-anchor="start" style="white-space: pre;" direction="ltr" dominant-baseline="text-before-edge">4</text></g><g transform="translate(431.8843955263701 257.83390264881155) rotate(0 40.22197723388672 17.5)"><text x="0" y="0" font-family="Virgil, Segoe UI Emoji" font-size="28px" fill="#1e1e1e" text-anchor="start" style="white-space: pre;" direction="ltr" dominant-baseline="text-before-edge">Graph</text></g></svg>