<svg version="1.1" xmlns="http://www.w3.org/2000/svg" viewBox="0 0 513.2739319908233 232.29696325740596" width="1026.5478639816465" height="464.5939265148119">
  <!-- svg-source:excalidraw -->
  
  <defs>
    <style class="style-fonts">
      @font-face {
        font-family: "Virgil";
        src: url("https://excalidraw.com/Virgil.woff2");
      }
      @font-face {
        font-family: "Cascadia";
        src: url("https://excalidraw.com/Cascadia.woff2");
      }
      @font-face {
        font-family: "Assistant";
        src: url("https://excalidraw.com/Assistant-Regular.woff2");
      }
    </style>
    
  </defs>
  <rect x="0" y="0" width="513.2739319908233" height="232.29696325740596" fill="#ffffff"></rect><g stroke-linecap="round" transform="translate(85.98736172079907 104.52379343744468) rotate(0 15.640164772479238 18.384065265231882)"><path d="M2.08 1.81 C2.08 1.81, 2.08 1.81, 2.08 1.81 M2.08 1.81 C2.08 1.81, 2.08 1.81, 2.08 1.81 M1.16 8.96 C2.89 6.98, 4.62 4.99, 8.38 0.66 M1.16 8.96 C3.84 5.89, 6.51 2.81, 8.38 0.66 M0.9 15.36 C4.52 11.2, 8.13 7.05, 13.37 1.02 M0.9 15.36 C4.66 11.03, 8.43 6.71, 13.37 1.02 M0.64 21.76 C5.62 16.03, 10.6 10.3, 19.01 0.63 M0.64 21.76 C5.84 15.77, 11.05 9.79, 19.01 0.63 M1.04 27.4 C9.6 17.55, 18.16 7.7, 24 0.99 M1.04 27.4 C9.68 17.45, 18.33 7.5, 24 0.99 M1.43 33.04 C9.62 23.62, 17.81 14.2, 28.98 1.35 M1.43 33.04 C8.35 25.08, 15.27 17.12, 28.98 1.35 M3.79 36.42 C12.59 26.3, 21.39 16.18, 31.35 4.72 M3.79 36.42 C12.64 26.24, 21.49 16.07, 31.35 4.72 M8.78 36.78 C16.61 27.78, 24.44 18.77, 31.09 11.12 M8.78 36.78 C15.09 29.52, 21.4 22.26, 31.09 11.12 M14.42 36.39 C17.88 32.41, 21.35 28.42, 31.48 16.77 M14.42 36.39 C18.74 31.42, 23.07 26.45, 31.48 16.77 M19.41 36.75 C22.49 33.21, 25.57 29.66, 31.88 22.41 M19.41 36.75 C23.23 32.36, 27.04 27.97, 31.88 22.41 M25.05 36.35 C26.88 34.25, 28.71 32.14, 31.61 28.81 M25.05 36.35 C26.43 34.77, 27.81 33.18, 31.61 28.81 M1.72 34.61 C1.72 34.61, 1.72 34.61, 1.72 34.61 M1.72 34.61 C1.72 34.61, 1.72 34.61, 1.72 34.61 M9.62 36.18 C6.15 33.16, 2.67 30.13, 0.57 28.31 M9.62 36.18 C6.47 33.44, 3.32 30.7, 0.57 28.31 M15.27 35.79 C10.53 31.67, 5.8 27.55, 0.93 23.32 M15.27 35.79 C11.95 32.9, 8.63 30.02, 0.93 23.32 M21.67 36.05 C14.57 29.88, 7.48 23.72, 0.53 17.68 M21.67 36.05 C14.47 29.79, 7.27 23.53, 0.53 17.68 M27.31 35.65 C20.63 29.85, 13.96 24.05, 0.89 12.69 M27.31 35.65 C17.21 26.88, 7.12 18.1, 0.89 12.69 M30.69 33.29 C20.65 24.56, 10.61 15.83, 0.5 7.05 M30.69 33.29 C19.16 23.27, 7.64 13.25, 0.5 7.05 M31.8 28.96 C23.11 21.4, 14.41 13.84, 1.61 2.72 M31.8 28.96 C25.08 23.12, 18.36 17.27, 1.61 2.72 M31.41 23.32 C22.02 15.16, 12.64 7, 4.99 0.35 M31.41 23.32 C21.29 14.52, 11.17 5.72, 4.99 0.35 M31.01 17.67 C23.47 11.11, 15.92 4.55, 9.88 -0.7 M31.01 17.67 C25.22 12.64, 19.44 7.61, 9.88 -0.7 M31.37 12.69 C25.86 7.9, 20.35 3.11, 16.28 -0.44 M31.37 12.69 C25.7 7.76, 20.03 2.83, 16.28 -0.44 M30.98 7.04 C27.97 4.43, 24.97 1.82, 22.68 -0.17 M30.98 7.04 C27.85 4.33, 24.73 1.61, 22.68 -0.17" stroke="#a5d8ff" stroke-width="0.5" fill="none"></path><path d="M7.82 0 C13.71 0, 19.6 0, 23.46 0 M7.82 0 C13.65 0, 19.48 0, 23.46 0 M23.46 0 C28.67 0, 31.28 2.61, 31.28 7.82 M23.46 0 C28.67 0, 31.28 2.61, 31.28 7.82 M31.28 7.82 C31.28 12.85, 31.28 17.89, 31.28 28.95 M31.28 7.82 C31.28 14.27, 31.28 20.73, 31.28 28.95 M31.28 28.95 C31.28 34.16, 28.67 36.77, 23.46 36.77 M31.28 28.95 C31.28 34.16, 28.67 36.77, 23.46 36.77 M23.46 36.77 C18.66 36.77, 13.86 36.77, 7.82 36.77 M23.46 36.77 C20.08 36.77, 16.7 36.77, 7.82 36.77 M7.82 36.77 C2.61 36.77, 0 34.16, 0 28.95 M7.82 36.77 C2.61 36.77, 0 34.16, 0 28.95 M0 28.95 C0 22.15, 0 15.35, 0 7.82 M0 28.95 C0 22.18, 0 15.41, 0 7.82 M0 7.82 C0 2.61, 2.61 0, 7.82 0 M0 7.82 C0 2.61, 2.61 0, 7.82 0" stroke="#1971c2" stroke-width="1" fill="none"></path></g><g transform="translate(92.25252649327831 113.30785870267655) rotate(0 9.375 9.599999999999994)"><text x="9.375" y="0" font-family="Cascadia, Segoe UI Emoji" font-size="16px" fill="#1971c2" text-anchor="middle" style="white-space: pre;" direction="ltr" dominant-baseline="text-before-edge">33</text></g><g stroke-linecap="round" transform="translate(43.73639072079959 166.2341064374447) rotate(0 15.640164772479238 18.384065265231868)"><path d="M2.08 1.81 C2.08 1.81, 2.08 1.81, 2.08 1.81 M2.08 1.81 C2.08 1.81, 2.08 1.81, 2.08 1.81 M1.16 8.96 C2.69 7.2, 4.22 5.45, 8.38 0.66 M1.16 8.96 C2.91 6.96, 4.65 4.95, 8.38 0.66 M0.9 15.36 C3.59 12.27, 6.27 9.18, 13.37 1.02 M0.9 15.36 C3.49 12.38, 6.08 9.4, 13.37 1.02 M0.64 21.76 C6.89 14.57, 13.13 7.39, 19.01 0.63 M0.64 21.76 C4.91 16.85, 9.17 11.95, 19.01 0.63 M1.04 27.4 C6.62 20.97, 12.21 14.54, 24 0.99 M1.04 27.4 C8.57 18.73, 16.11 10.06, 24 0.99 M1.43 33.04 C11.28 21.72, 21.12 10.39, 28.98 1.35 M1.43 33.04 C8.42 25, 15.42 16.95, 28.98 1.35 M3.79 36.42 C13.43 25.33, 23.07 14.24, 31.35 4.72 M3.79 36.42 C10.66 28.52, 17.53 20.62, 31.35 4.72 M8.78 36.78 C17.43 26.83, 26.08 16.88, 31.09 11.12 M8.78 36.78 C17.15 27.16, 25.51 17.54, 31.09 11.12 M14.42 36.39 C21.23 28.55, 28.05 20.72, 31.48 16.77 M14.42 36.39 C18.66 31.51, 22.9 26.63, 31.48 16.77 M19.41 36.75 C23.6 31.92, 27.8 27.1, 31.88 22.41 M19.41 36.75 C24.18 31.26, 28.95 25.77, 31.88 22.41 M25.05 36.35 C26.61 34.56, 28.17 32.77, 31.61 28.81 M25.05 36.35 C27.17 33.92, 29.28 31.49, 31.61 28.81 M1.72 34.61 C1.72 34.61, 1.72 34.61, 1.72 34.61 M1.72 34.61 C1.72 34.61, 1.72 34.61, 1.72 34.61 M9.62 36.18 C6.98 33.88, 4.34 31.59, 0.57 28.31 M9.62 36.18 C6.13 33.14, 2.63 30.1, 0.57 28.31 M15.27 35.79 C10.74 31.85, 6.22 27.92, 0.93 23.32 M15.27 35.79 C9.54 30.81, 3.81 25.82, 0.93 23.32 M21.67 36.05 C13.85 29.25, 6.03 22.46, 0.53 17.68 M21.67 36.05 C15.89 31.03, 10.12 26.01, 0.53 17.68 M27.31 35.65 C20.38 29.63, 13.44 23.6, 0.89 12.69 M27.31 35.65 C17.37 27.01, 7.42 18.37, 0.89 12.69 M30.69 33.29 C22.78 26.42, 14.88 19.55, 0.5 7.05 M30.69 33.29 C20.53 24.46, 10.37 15.63, 0.5 7.05 M31.8 28.96 C20.91 19.49, 10.02 10.02, 1.61 2.72 M31.8 28.96 C20.47 19.11, 9.14 9.26, 1.61 2.72 M31.41 23.32 C22.47 15.55, 13.54 7.78, 4.99 0.35 M31.41 23.32 C24.87 17.63, 18.33 11.95, 4.99 0.35 M31.01 17.67 C26.32 13.59, 21.63 9.51, 9.88 -0.7 M31.01 17.67 C23.04 10.74, 15.07 3.82, 9.88 -0.7 M31.37 12.69 C26.07 8.08, 20.77 3.47, 16.28 -0.44 M31.37 12.69 C25.39 7.49, 19.41 2.29, 16.28 -0.44 M30.98 7.04 C29 5.32, 27.01 3.6, 22.68 -0.17 M30.98 7.04 C28.64 5.01, 26.31 2.98, 22.68 -0.17" stroke="#a5d8ff" stroke-width="0.5" fill="none"></path><path d="M7.82 0 C12.21 0, 16.59 0, 23.46 0 M7.82 0 C11.9 0, 15.97 0, 23.46 0 M23.46 0 C28.67 0, 31.28 2.61, 31.28 7.82 M23.46 0 C28.67 0, 31.28 2.61, 31.28 7.82 M31.28 7.82 C31.28 14.65, 31.28 21.47, 31.28 28.95 M31.28 7.82 C31.28 14.21, 31.28 20.6, 31.28 28.95 M31.28 28.95 C31.28 34.16, 28.67 36.77, 23.46 36.77 M31.28 28.95 C31.28 34.16, 28.67 36.77, 23.46 36.77 M23.46 36.77 C19.94 36.77, 16.43 36.77, 7.82 36.77 M23.46 36.77 C17.9 36.77, 12.35 36.77, 7.82 36.77 M7.82 36.77 C2.61 36.77, 0 34.16, 0 28.95 M7.82 36.77 C2.61 36.77, 0 34.16, 0 28.95 M0 28.95 C0 21.02, 0 13.08, 0 7.82 M0 28.95 C0 23.08, 0 17.22, 0 7.82 M0 7.82 C0 2.61, 2.61 0, 7.82 0 M0 7.82 C0 2.61, 2.61 0, 7.82 0" stroke="#1971c2" stroke-width="1" fill="none"></path></g><g transform="translate(50.00155549327883 175.01817170267654) rotate(0 9.375 9.599999999999994)"><text x="9.375" y="0" font-family="Cascadia, Segoe UI Emoji" font-size="16px" fill="#1971c2" text-anchor="middle" style="white-space: pre;" direction="ltr" dominant-baseline="text-before-edge">10</text></g><g stroke-linecap="round" transform="translate(117.26769172079685 104.52379343744471) rotate(0 15.640164772479238 18.384065265231868)"><path d="M7.82 0 C11.83 0, 15.84 0, 23.46 0 M7.82 0 C12.33 0, 16.85 0, 23.46 0 M23.46 0 C28.67 0, 31.28 2.61, 31.28 7.82 M23.46 0 C28.67 0, 31.28 2.61, 31.28 7.82 M31.28 7.82 C31.28 13.26, 31.28 18.7, 31.28 28.95 M31.28 7.82 C31.28 12.25, 31.28 16.68, 31.28 28.95 M31.28 28.95 C31.28 34.16, 28.67 36.77, 23.46 36.77 M31.28 28.95 C31.28 34.16, 28.67 36.77, 23.46 36.77 M23.46 36.77 C19.84 36.77, 16.21 36.77, 7.82 36.77 M23.46 36.77 C18.95 36.77, 14.44 36.77, 7.82 36.77 M7.82 36.77 C2.61 36.77, 0 34.16, 0 28.95 M7.82 36.77 C2.61 36.77, 0 34.16, 0 28.95 M0 28.95 C0 23.43, 0 17.9, 0 7.82 M0 28.95 C0 22.41, 0 15.87, 0 7.82 M0 7.82 C0 2.61, 2.61 0, 7.82 0 M0 7.82 C0 2.61, 2.61 0, 7.82 0" stroke="#1971c2" stroke-width="1" fill="none"></path></g><g transform="translate(123.53285649327609 113.30785870267658) rotate(0 9.375 9.600000000000009)"><text x="9.375" y="0" font-family="Cascadia, Segoe UI Emoji" font-size="16px" fill="#1971c2" text-anchor="middle" style="white-space: pre;" direction="ltr" dominant-baseline="text-before-edge">21</text></g><g stroke-linecap="round" transform="translate(148.5480217207978 104.52379343744445) rotate(0 15.640164772479238 18.384065265231882)"><path d="M7.82 0 C11.96 0, 16.1 0, 23.46 0 M7.82 0 C13.5 0, 19.18 0, 23.46 0 M23.46 0 C28.67 0, 31.28 2.61, 31.28 7.82 M23.46 0 C28.67 0, 31.28 2.61, 31.28 7.82 M31.28 7.82 C31.28 16.18, 31.28 24.54, 31.28 28.95 M31.28 7.82 C31.28 13.5, 31.28 19.18, 31.28 28.95 M31.28 28.95 C31.28 34.16, 28.67 36.77, 23.46 36.77 M31.28 28.95 C31.28 34.16, 28.67 36.77, 23.46 36.77 M23.46 36.77 C17.22 36.77, 10.98 36.77, 7.82 36.77 M23.46 36.77 C19.49 36.77, 15.52 36.77, 7.82 36.77 M7.82 36.77 C2.61 36.77, 0 34.16, 0 28.95 M7.82 36.77 C2.61 36.77, 0 34.16, 0 28.95 M0 28.95 C0 21.56, 0 14.17, 0 7.82 M0 28.95 C0 24.26, 0 19.56, 0 7.82 M0 7.82 C0 2.61, 2.61 0, 7.82 0 M0 7.82 C0 2.61, 2.61 0, 7.82 0" stroke="#1971c2" stroke-width="1" fill="none"></path></g><g transform="translate(154.81318649327704 113.30785870267633) rotate(0 9.375 9.599999999999994)"><text x="9.375" y="0" font-family="Cascadia, Segoe UI Emoji" font-size="16px" fill="#1971c2" text-anchor="middle" style="white-space: pre;" direction="ltr" dominant-baseline="text-before-edge">54</text></g><g stroke-linecap="round" transform="translate(179.82835172079967 104.52379343744445) rotate(0 15.640164772479238 18.384065265231882)"><path d="M7.82 0 C13.73 0, 19.65 0, 23.46 0 M7.82 0 C11.18 0, 14.55 0, 23.46 0 M23.46 0 C28.67 0, 31.28 2.61, 31.28 7.82 M23.46 0 C28.67 0, 31.28 2.61, 31.28 7.82 M31.28 7.82 C31.28 13.66, 31.28 19.51, 31.28 28.95 M31.28 7.82 C31.28 14.25, 31.28 20.68, 31.28 28.95 M31.28 28.95 C31.28 34.16, 28.67 36.77, 23.46 36.77 M31.28 28.95 C31.28 34.16, 28.67 36.77, 23.46 36.77 M23.46 36.77 C17.53 36.77, 11.6 36.77, 7.82 36.77 M23.46 36.77 C19.76 36.77, 16.05 36.77, 7.82 36.77 M7.82 36.77 C2.61 36.77, 0 34.16, 0 28.95 M7.82 36.77 C2.61 36.77, 0 34.16, 0 28.95 M0 28.95 C0 24.63, 0 20.32, 0 7.82 M0 28.95 C0 20.79, 0 12.64, 0 7.82 M0 7.82 C0 2.61, 2.61 0, 7.82 0 M0 7.82 C0 2.61, 2.61 0, 7.82 0" stroke="#1971c2" stroke-width="1" fill="none"></path></g><g transform="translate(186.0935164932789 113.30785870267633) rotate(0 9.375 9.599999999999994)"><text x="9.375" y="0" font-family="Cascadia, Segoe UI Emoji" font-size="16px" fill="#1971c2" text-anchor="middle" style="white-space: pre;" direction="ltr" dominant-baseline="text-before-edge">10</text></g><g stroke-linecap="round" transform="translate(211.10868172079972 104.52379343744445) rotate(0 15.640164772479238 18.384065265231882)"><path d="M7.82 0 C12.4 0, 16.99 0, 23.46 0 M7.82 0 C11.4 0, 14.98 0, 23.46 0 M23.46 0 C28.67 0, 31.28 2.61, 31.28 7.82 M23.46 0 C28.67 0, 31.28 2.61, 31.28 7.82 M31.28 7.82 C31.28 16.13, 31.28 24.44, 31.28 28.95 M31.28 7.82 C31.28 15.86, 31.28 23.91, 31.28 28.95 M31.28 28.95 C31.28 34.16, 28.67 36.77, 23.46 36.77 M31.28 28.95 C31.28 34.16, 28.67 36.77, 23.46 36.77 M23.46 36.77 C19.46 36.77, 15.47 36.77, 7.82 36.77 M23.46 36.77 C19.73 36.77, 16 36.77, 7.82 36.77 M7.82 36.77 C2.61 36.77, 0 34.16, 0 28.95 M7.82 36.77 C2.61 36.77, 0 34.16, 0 28.95 M0 28.95 C0 23.46, 0 17.96, 0 7.82 M0 28.95 C0 22.58, 0 16.2, 0 7.82 M0 7.82 C0 2.61, 2.61 0, 7.82 0 M0 7.82 C0 2.61, 2.61 0, 7.82 0" stroke="#1971c2" stroke-width="1" fill="none"></path></g><g transform="translate(222.06134649327896 113.30785870267633) rotate(0 4.6875 9.599999999999994)"><text x="4.6875" y="0" font-family="Cascadia, Segoe UI Emoji" font-size="16px" fill="#1971c2" text-anchor="middle" style="white-space: pre;" direction="ltr" dominant-baseline="text-before-edge">4</text></g><g stroke-linecap="round" transform="translate(242.38901172079977 104.52379343744443) rotate(0 15.640164772479238 18.384065265231868)"><path d="M7.82 0 C11.41 0, 15 0, 23.46 0 M7.82 0 C11.81 0, 15.79 0, 23.46 0 M23.46 0 C28.67 0, 31.28 2.61, 31.28 7.82 M23.46 0 C28.67 0, 31.28 2.61, 31.28 7.82 M31.28 7.82 C31.28 13.7, 31.28 19.59, 31.28 28.95 M31.28 7.82 C31.28 13.5, 31.28 19.17, 31.28 28.95 M31.28 28.95 C31.28 34.16, 28.67 36.77, 23.46 36.77 M31.28 28.95 C31.28 34.16, 28.67 36.77, 23.46 36.77 M23.46 36.77 C18.25 36.77, 13.05 36.77, 7.82 36.77 M23.46 36.77 C18.8 36.77, 14.14 36.77, 7.82 36.77 M7.82 36.77 C2.61 36.77, 0 34.16, 0 28.95 M7.82 36.77 C2.61 36.77, 0 34.16, 0 28.95 M0 28.95 C0 23.84, 0 18.72, 0 7.82 M0 28.95 C0 23.17, 0 17.39, 0 7.82 M0 7.82 C0 2.61, 2.61 0, 7.82 0 M0 7.82 C0 2.61, 2.61 0, 7.82 0" stroke="#1971c2" stroke-width="1" fill="none"></path></g><g transform="translate(248.654176493279 113.3078587026763) rotate(0 9.375 9.600000000000009)"><text x="9.375" y="0" font-family="Cascadia, Segoe UI Emoji" font-size="16px" fill="#1971c2" text-anchor="middle" style="white-space: pre;" direction="ltr" dominant-baseline="text-before-edge">85</text></g><g stroke-linecap="round" transform="translate(273.6693417207998 104.5237934374444) rotate(0 15.640164772479238 18.384065265231854)"><path d="M2.08 1.81 C2.08 1.81, 2.08 1.81, 2.08 1.81 M2.08 1.81 C2.08 1.81, 2.08 1.81, 2.08 1.81 M1.16 8.96 C3.81 5.92, 6.45 2.88, 8.38 0.66 M1.16 8.96 C3.95 5.75, 6.74 2.54, 8.38 0.66 M0.9 15.36 C5.07 10.56, 9.24 5.77, 13.37 1.02 M0.9 15.36 C4.68 11.01, 8.46 6.66, 13.37 1.02 M0.64 21.76 C4.37 17.46, 8.1 13.17, 19.01 0.63 M0.64 21.76 C4.46 17.36, 8.29 12.96, 19.01 0.63 M1.04 27.4 C6.95 20.6, 12.86 13.8, 24 0.99 M1.04 27.4 C8.18 19.18, 15.33 10.96, 24 0.99 M1.43 33.04 C7.69 25.85, 13.95 18.65, 28.98 1.35 M1.43 33.04 C11.31 21.68, 21.19 10.32, 28.98 1.35 M3.79 36.42 C9.98 29.31, 16.16 22.2, 31.35 4.72 M3.79 36.42 C11.92 27.07, 20.06 17.71, 31.35 4.72 M8.78 36.78 C15.06 29.56, 21.34 22.34, 31.09 11.12 M8.78 36.78 C16.08 28.39, 23.38 19.99, 31.09 11.12 M14.42 36.39 C19.33 30.74, 24.24 25.09, 31.48 16.77 M14.42 36.39 C20.99 28.83, 27.56 21.27, 31.48 16.77 M19.41 36.75 C23.5 32.04, 27.59 27.34, 31.88 22.41 M19.41 36.75 C24.21 31.22, 29.01 25.7, 31.88 22.41 M25.05 36.35 C26.49 34.7, 27.93 33.04, 31.61 28.81 M25.05 36.35 C26.97 34.14, 28.89 31.93, 31.61 28.81 M1.72 34.61 C1.72 34.61, 1.72 34.61, 1.72 34.61 M1.72 34.61 C1.72 34.61, 1.72 34.61, 1.72 34.61 M9.62 36.18 C6.83 33.75, 4.03 31.32, 0.57 28.31 M9.62 36.18 C6.81 33.74, 4 31.29, 0.57 28.31 M15.27 35.79 C11.82 32.79, 8.37 29.79, 0.93 23.32 M15.27 35.79 C10.13 31.32, 5 26.86, 0.93 23.32 M21.67 36.05 C13.95 29.34, 6.23 22.63, 0.53 17.68 M21.67 36.05 C15.06 30.31, 8.46 24.56, 0.53 17.68 M27.31 35.65 C21.39 30.51, 15.47 25.36, 0.89 12.69 M27.31 35.65 C18.83 28.28, 10.36 20.92, 0.89 12.69 M30.69 33.29 C21.14 24.99, 11.6 16.7, 0.5 7.05 M30.69 33.29 C20.01 24, 9.32 14.72, 0.5 7.05 M31.8 28.96 C24.7 22.78, 17.59 16.6, 1.61 2.72 M31.8 28.96 C23.7 21.91, 15.59 14.86, 1.61 2.72 M31.41 23.32 C25.91 18.54, 20.41 13.76, 4.99 0.35 M31.41 23.32 C24.25 17.1, 17.1 10.88, 4.99 0.35 M31.01 17.67 C26.14 13.44, 21.27 9.2, 9.88 -0.7 M31.01 17.67 C23.02 10.73, 15.03 3.78, 9.88 -0.7 M31.37 12.69 C28.26 9.98, 25.15 7.27, 16.28 -0.44 M31.37 12.69 C27.13 8.99, 22.88 5.3, 16.28 -0.44 M30.98 7.04 C28.62 4.99, 26.27 2.95, 22.68 -0.17 M30.98 7.04 C29.25 5.54, 27.53 4.04, 22.68 -0.17" stroke="#a5d8ff" stroke-width="0.5" fill="none"></path><path d="M7.82 0 C13.71 0, 19.6 0, 23.46 0 M7.82 0 C12.95 0, 18.08 0, 23.46 0 M23.46 0 C28.67 0, 31.28 2.61, 31.28 7.82 M23.46 0 C28.67 0, 31.28 2.61, 31.28 7.82 M31.28 7.82 C31.28 16.19, 31.28 24.56, 31.28 28.95 M31.28 7.82 C31.28 12.72, 31.28 17.62, 31.28 28.95 M31.28 28.95 C31.28 34.16, 28.67 36.77, 23.46 36.77 M31.28 28.95 C31.28 34.16, 28.67 36.77, 23.46 36.77 M23.46 36.77 C17.76 36.77, 12.06 36.77, 7.82 36.77 M23.46 36.77 C17.81 36.77, 12.17 36.77, 7.82 36.77 M7.82 36.77 C2.61 36.77, 0 34.16, 0 28.95 M7.82 36.77 C2.61 36.77, 0 34.16, 0 28.95 M0 28.95 C0 20.5, 0 12.05, 0 7.82 M0 28.95 C0 23.1, 0 17.24, 0 7.82 M0 7.82 C0 2.61, 2.61 0, 7.82 0 M0 7.82 C0 2.61, 2.61 0, 7.82 0" stroke="#1971c2" stroke-width="1" fill="none"></path></g><g transform="translate(284.62200649327906 113.30785870267627) rotate(0 4.6875 9.599999999999994)"><text x="4.6875" y="0" font-family="Cascadia, Segoe UI Emoji" font-size="16px" fill="#1971c2" text-anchor="middle" style="white-space: pre;" direction="ltr" dominant-baseline="text-before-edge">6</text></g><g stroke-linecap="round" transform="translate(315.12279272079877 50.21593443744439) rotate(0 15.640164772479238 18.384065265231868)"><path d="M2.08 1.81 C2.08 1.81, 2.08 1.81, 2.08 1.81 M2.08 1.81 C2.08 1.81, 2.08 1.81, 2.08 1.81 M1.16 8.96 C3.95 5.76, 6.73 2.56, 8.38 0.66 M1.16 8.96 C3.6 6.16, 6.04 3.36, 8.38 0.66 M0.9 15.36 C4.92 10.73, 8.94 6.11, 13.37 1.02 M0.9 15.36 C4.72 10.97, 8.54 6.58, 13.37 1.02 M0.64 21.76 C6.67 14.82, 12.7 7.89, 19.01 0.63 M0.64 21.76 C5.65 16, 10.66 10.23, 19.01 0.63 M1.04 27.4 C9.95 17.14, 18.87 6.89, 24 0.99 M1.04 27.4 C8.69 18.59, 16.35 9.78, 24 0.99 M1.43 33.04 C11.31 21.68, 21.19 10.32, 28.98 1.35 M1.43 33.04 C9.61 23.64, 17.78 14.23, 28.98 1.35 M3.79 36.42 C12.11 26.85, 20.43 17.28, 31.35 4.72 M3.79 36.42 C13.27 25.52, 22.74 14.63, 31.35 4.72 M8.78 36.78 C13.83 30.97, 18.88 25.17, 31.09 11.12 M8.78 36.78 C15.31 29.27, 21.85 21.75, 31.09 11.12 M14.42 36.39 C18.22 32.03, 22.01 27.66, 31.48 16.77 M14.42 36.39 C18.87 31.27, 23.32 26.15, 31.48 16.77 M19.41 36.75 C24.4 31.01, 29.38 25.28, 31.88 22.41 M19.41 36.75 C23.47 32.08, 27.53 27.4, 31.88 22.41 M25.05 36.35 C26.54 34.64, 28.03 32.92, 31.61 28.81 M25.05 36.35 C27.61 33.41, 30.17 30.47, 31.61 28.81 M1.72 34.61 C1.72 34.61, 1.72 34.61, 1.72 34.61 M1.72 34.61 C1.72 34.61, 1.72 34.61, 1.72 34.61 M9.62 36.18 C6.79 33.72, 3.96 31.25, 0.57 28.31 M9.62 36.18 C7.66 34.47, 5.69 32.76, 0.57 28.31 M15.27 35.79 C10.52 31.66, 5.76 27.52, 0.93 23.32 M15.27 35.79 C11.45 32.46, 7.63 29.14, 0.93 23.32 M21.67 36.05 C13.33 28.8, 5 21.56, 0.53 17.68 M21.67 36.05 C17.21 32.17, 12.75 28.3, 0.53 17.68 M27.31 35.65 C21.51 30.62, 15.72 25.58, 0.89 12.69 M27.31 35.65 C21.78 30.84, 16.24 26.03, 0.89 12.69 M30.69 33.29 C21.45 25.26, 12.22 17.24, 0.5 7.05 M30.69 33.29 C24.06 27.53, 17.43 21.77, 0.5 7.05 M31.8 28.96 C23.54 21.78, 15.28 14.6, 1.61 2.72 M31.8 28.96 C23.96 22.14, 16.11 15.32, 1.61 2.72 M31.41 23.32 C20.85 14.14, 10.29 4.95, 4.99 0.35 M31.41 23.32 C24.19 17.04, 16.97 10.77, 4.99 0.35 M31.01 17.67 C23.48 11.13, 15.95 4.58, 9.88 -0.7 M31.01 17.67 C22.8 10.53, 14.59 3.4, 9.88 -0.7 M31.37 12.69 C26.13 8.12, 20.88 3.56, 16.28 -0.44 M31.37 12.69 C25.58 7.65, 19.79 2.62, 16.28 -0.44 M30.98 7.04 C28.92 5.25, 26.86 3.46, 22.68 -0.17 M30.98 7.04 C28.09 4.53, 25.21 2.03, 22.68 -0.17" stroke="#a5d8ff" stroke-width="0.5" fill="none"></path><path d="M7.82 0 C14.03 0, 20.25 0, 23.46 0 M7.82 0 C11.41 0, 15 0, 23.46 0 M23.46 0 C28.67 0, 31.28 2.61, 31.28 7.82 M23.46 0 C28.67 0, 31.28 2.61, 31.28 7.82 M31.28 7.82 C31.28 12.8, 31.28 17.78, 31.28 28.95 M31.28 7.82 C31.28 14.7, 31.28 21.58, 31.28 28.95 M31.28 28.95 C31.28 34.16, 28.67 36.77, 23.46 36.77 M31.28 28.95 C31.28 34.16, 28.67 36.77, 23.46 36.77 M23.46 36.77 C19.69 36.77, 15.92 36.77, 7.82 36.77 M23.46 36.77 C17.73 36.77, 12 36.77, 7.82 36.77 M7.82 36.77 C2.61 36.77, 0 34.16, 0 28.95 M7.82 36.77 C2.61 36.77, 0 34.16, 0 28.95 M0 28.95 C0 21.35, 0 13.75, 0 7.82 M0 28.95 C0 24.25, 0 19.56, 0 7.82 M0 7.82 C0 2.61, 2.61 0, 7.82 0 M0 7.82 C0 2.61, 2.61 0, 7.82 0" stroke="#1971c2" stroke-width="1" fill="none"></path></g><g transform="translate(321.387957493278 58.99999970267626) rotate(0 9.375 9.599999999999994)"><text x="9.375" y="0" font-family="Cascadia, Segoe UI Emoji" font-size="16px" fill="#1971c2" text-anchor="middle" style="white-space: pre;" direction="ltr" dominant-baseline="text-before-edge">35</text></g><g transform="translate(158.39724746913362 33.72311757248872) rotate(0 29.296875 12)"><text x="0" y="0" font-family="Cascadia, Segoe UI Emoji" font-size="20px" fill="#1e1e1e" text-anchor="start" style="white-space: pre;" direction="ltr" dominant-baseline="text-before-edge">Queue</text></g><g stroke-linecap="round"><g transform="translate(81.42901232251961 128.8772658220349) rotate(0 -9.89425140700564 16.42788740935211)"><path d="M0 0 C-2.79 0.87, -13.45 -0.28, -16.74 5.2 C-20.04 10.67, -19.28 28.25, -19.79 32.86 M0 0 C-2.79 0.87, -13.45 -0.28, -16.74 5.2 C-20.04 10.67, -19.28 28.25, -19.79 32.86" stroke="#e03131" stroke-width="1" fill="none"></path></g><g transform="translate(81.42901232251961 128.8772658220349) rotate(0 -9.89425140700564 16.42788740935211)"><path d="M-24.06 19.62 C-22.74 23.7, -21.42 27.79, -19.79 32.86 M-24.06 19.62 C-22.84 23.4, -21.62 27.19, -19.79 32.86" stroke="#e03131" stroke-width="1" fill="none"></path></g><g transform="translate(81.42901232251961 128.8772658220349) rotate(0 -9.89425140700564 16.42788740935211)"><path d="M-14.55 19.97 C-16.17 23.95, -17.79 27.93, -19.79 32.86 M-14.55 19.97 C-16.05 23.65, -17.55 27.34, -19.79 32.86" stroke="#e03131" stroke-width="1" fill="none"></path></g></g><mask></mask><g transform="translate(69.67276599999877 85.90875154868709) rotate(0 31.954760668616245 6.544334984932604)"><text x="0" y="0" font-family="Cascadia, Segoe UI Emoji" font-size="10.907224974887676px" fill="#e8590c" text-anchor="start" style="white-space: pre;" direction="ltr" dominant-baseline="text-before-edge">Front/Head</text></g><g transform="translate(249.7649249999995 148.64437054868702) rotate(0 44.70703125 6.544334984932618)"><text x="0" y="0" font-family="Cascadia, Segoe UI Emoji" font-size="10.907224974887676px" fill="#e8590c" text-anchor="start" style="white-space: pre;" direction="ltr" dominant-baseline="text-before-edge">Back/Tail/Rear</text></g><g transform="translate(339.1789869999998 103.36837854868708) rotate(0 22.353515625 6.544334984932604)"><text x="0" y="0" font-family="Cascadia, Segoe UI Emoji" font-size="10.907224974887676px" fill="#1e1e1e" text-anchor="start" style="white-space: pre;" direction="ltr" dominant-baseline="text-before-edge">Enqueue</text></g><g transform="translate(10 134.747588548687) rotate(0 22.353515625 6.544334984932618)"><text x="0" y="0" font-family="Cascadia, Segoe UI Emoji" font-size="10.907224974887676px" fill="#1e1e1e" text-anchor="start" style="white-space: pre;" direction="ltr" dominant-baseline="text-before-edge">Dequeue</text></g><g stroke-linecap="round"><g transform="translate(332.6420862131995 94.15547777731237) rotate(0 -10.699339603114822 15.757235544043652)"><path d="M0 0 C-0.32 4.28, 1.62 20.43, -1.95 25.68 C-5.51 30.93, -18.16 30.54, -21.4 31.51 M0 0 C-0.32 4.28, 1.62 20.43, -1.95 25.68 C-5.51 30.93, -18.16 30.54, -21.4 31.51" stroke="#e03131" stroke-width="1" fill="none"></path></g><g transform="translate(332.6420862131995 94.15547777731237) rotate(0 -10.699339603114822 15.757235544043652)"><path d="M-12.43 26.75 C-15.14 28.19, -17.85 29.63, -21.4 31.51 M-12.43 26.75 C-14.43 27.81, -16.42 28.87, -21.4 31.51" stroke="#e03131" stroke-width="1" fill="none"></path></g><g transform="translate(332.6420862131995 94.15547777731237) rotate(0 -10.699339603114822 15.757235544043652)"><path d="M-11.47 33.63 C-14.47 32.99, -17.47 32.35, -21.4 31.51 M-11.47 33.63 C-13.68 33.16, -15.89 32.69, -21.4 31.51" stroke="#e03131" stroke-width="1" fill="none"></path></g></g><mask></mask><g stroke-linecap="round"><g transform="translate(393.8827410128665 10) rotate(0 1.8513521015261176 106.14848162870298)"><path d="M0 0 C0.62 35.38, 3.09 176.91, 3.7 212.3" stroke="#1e1e1e" stroke-width="1.5" fill="none" stroke-dasharray="8 9"></path></g></g><mask></mask><g transform="translate(409.5239319908228 14.523117658127035) rotate(0 46.875 9.599999999999994)"><text x="0" y="0" font-family="Cascadia, Segoe UI Emoji" font-size="16px" fill="#1e1e1e" text-anchor="start" style="white-space: pre;" direction="ltr" dominant-baseline="text-before-edge">enqueue();</text></g><g transform="translate(409.52393199082326 50.215934658127054) rotate(0 46.875 9.599999999999994)"><text x="0" y="0" font-family="Cascadia, Segoe UI Emoji" font-size="16px" fill="#1e1e1e" text-anchor="start" style="white-space: pre;" direction="ltr" dominant-baseline="text-before-edge">dequeue();</text></g><g transform="translate(409.52393199082326 85.90875165812702) rotate(0 46.875 9.599999999999994)"><text x="0" y="0" font-family="Cascadia, Segoe UI Emoji" font-size="16px" fill="#1e1e1e" text-anchor="start" style="white-space: pre;" direction="ltr" dominant-baseline="text-before-edge">isEmpty();</text></g><g transform="translate(414.21143199082326 122.90785865812703) rotate(0 42.1875 9.599999999999994)"><text x="0" y="0" font-family="Cascadia, Segoe UI Emoji" font-size="16px" fill="#1e1e1e" text-anchor="start" style="white-space: pre;" direction="ltr" dominant-baseline="text-before-edge">isFull();</text></g><g transform="translate(414.21143199082326 159.906965658127) rotate(0 37.5 9.599999999999994)"><text x="0" y="0" font-family="Cascadia, Segoe UI Emoji" font-size="16px" fill="#1e1e1e" text-anchor="start" style="white-space: pre;" direction="ltr" dominant-baseline="text-before-edge">front();</text></g><g transform="translate(414.21143199082326 196.906072658127) rotate(0 32.8125 9.599999999999994)"><text x="0" y="0" font-family="Cascadia, Segoe UI Emoji" font-size="16px" fill="#1e1e1e" text-anchor="start" style="white-space: pre;" direction="ltr" dominant-baseline="text-before-edge">rear();</text></g></svg>