<svg version="1.1" xmlns="http://www.w3.org/2000/svg" viewBox="0 0 533.1493591021581 315.9280438924302" width="533.1493591021581" height="315.9280438924302">
  <!-- svg-source:excalidraw -->
  
  <defs>
    <style class="style-fonts">
      @font-face {
        font-family: "Virgil";
        src: url("https://excalidraw.com/Virgil.woff2");
      }
      @font-face {
        font-family: "Cascadia";
        src: url("https://excalidraw.com/Cascadia.woff2");
      }
      @font-face {
        font-family: "Assistant";
        src: url("https://excalidraw.com/Assistant-Regular.woff2");
      }
    </style>
    
  </defs>
  <rect x="0" y="0" width="533.1493591021581" height="315.9280438924302" fill="#ffffff"></rect><g stroke-linecap="round" transform="translate(144.70750777868398 251.09225460183646) rotate(0 44.57703604244443 13.905785864572314)"><path d="M1.85 1.61 C1.85 1.61, 1.85 1.61, 1.85 1.61 M1.85 1.61 C1.85 1.61, 1.85 1.61, 1.85 1.61 M0.93 8.76 C3.03 6.35, 5.12 3.94, 8.15 0.46 M0.93 8.76 C3.26 6.08, 5.6 3.4, 8.15 0.46 M0.67 15.16 C5.78 9.29, 10.88 3.41, 13.79 0.06 M0.67 15.16 C5.05 10.13, 9.42 5.09, 13.79 0.06 M1.07 20.8 C5.34 15.89, 9.61 10.98, 18.78 0.43 M1.07 20.8 C4.66 16.67, 8.25 12.53, 18.78 0.43 M1.46 26.45 C6.69 20.43, 11.92 14.42, 24.42 0.03 M1.46 26.45 C10.4 16.16, 19.33 5.88, 24.42 0.03 M5.79 27.56 C11.24 21.29, 16.69 15.02, 29.41 0.39 M5.79 27.56 C11.22 21.31, 16.66 15.06, 29.41 0.39 M10.78 27.92 C20.41 16.84, 30.05 5.76, 35.05 0 M10.78 27.92 C18.73 18.78, 26.68 9.63, 35.05 0 M16.42 27.53 C21.24 21.98, 26.06 16.44, 40.04 0.36 M16.42 27.53 C21.91 21.21, 27.4 14.9, 40.04 0.36 M21.41 27.89 C26.76 21.72, 32.12 15.56, 45.03 0.72 M21.41 27.89 C26.81 21.67, 32.21 15.46, 45.03 0.72 M27.05 27.49 C31.81 22.01, 36.57 16.54, 50.67 0.32 M27.05 27.49 C32.19 21.58, 37.33 15.66, 50.67 0.32 M32.04 27.85 C41.32 17.17, 50.6 6.5, 55.66 0.68 M32.04 27.85 C39.19 19.63, 46.34 11.4, 55.66 0.68 M37.03 28.21 C43.31 20.98, 49.59 13.76, 61.3 0.29 M37.03 28.21 C43.66 20.58, 50.29 12.95, 61.3 0.29 M42.67 27.82 C47.78 21.94, 52.88 16.07, 66.29 0.65 M42.67 27.82 C51.87 17.24, 61.07 6.65, 66.29 0.65 M47.66 28.18 C55.11 19.61, 62.55 11.04, 71.93 0.25 M47.66 28.18 C54.12 20.74, 60.58 13.3, 71.93 0.25 M53.3 27.78 C61.87 17.93, 70.44 8.07, 76.92 0.61 M53.3 27.78 C59.4 20.77, 65.5 13.75, 76.92 0.61 M58.29 28.14 C64.89 20.55, 71.49 12.95, 82.56 0.22 M58.29 28.14 C66.62 18.55, 74.96 8.96, 82.56 0.22 M63.93 27.75 C71.83 18.66, 79.73 9.57, 86.89 1.33 M63.93 27.75 C71 19.61, 78.08 11.47, 86.89 1.33 M68.92 28.11 C76.56 19.32, 84.2 10.53, 89.25 4.71 M68.92 28.11 C73.62 22.7, 78.32 17.29, 89.25 4.71 M73.9 28.47 C77.32 24.54, 80.73 20.62, 89.65 10.35 M73.9 28.47 C78.12 23.61, 82.34 18.76, 89.65 10.35 M79.55 28.07 C81.86 25.41, 84.17 22.75, 89.39 16.75 M79.55 28.07 C82.85 24.28, 86.15 20.48, 89.39 16.75 M85.19 27.68 C86.3 26.4, 87.42 25.12, 89.13 23.15 M85.19 27.68 C86.36 26.34, 87.52 25, 89.13 23.15" stroke="#a5d8ff" stroke-width="0.5" fill="none"></path><path d="M6.95 0 C22.19 0, 37.43 0, 82.2 0 M6.95 0 C30.46 0, 53.96 0, 82.2 0 M82.2 0 C86.84 0, 89.15 2.32, 89.15 6.95 M82.2 0 C86.84 0, 89.15 2.32, 89.15 6.95 M89.15 6.95 C89.15 11.81, 89.15 16.66, 89.15 20.86 M89.15 6.95 C89.15 10.7, 89.15 14.46, 89.15 20.86 M89.15 20.86 C89.15 25.49, 86.84 27.81, 82.2 27.81 M89.15 20.86 C89.15 25.49, 86.84 27.81, 82.2 27.81 M82.2 27.81 C59.51 27.81, 36.82 27.81, 6.95 27.81 M82.2 27.81 C66.99 27.81, 51.77 27.81, 6.95 27.81 M6.95 27.81 C2.32 27.81, 0 25.49, 0 20.86 M6.95 27.81 C2.32 27.81, 0 25.49, 0 20.86 M0 20.86 C0 15.64, 0 10.43, 0 6.95 M0 20.86 C0 15.78, 0 10.69, 0 6.95 M0 6.95 C0 2.32, 2.32 0, 6.95 0 M0 6.95 C0 2.32, 2.32 0, 6.95 0" stroke="#343a40" stroke-width="1" fill="none"></path></g><g stroke-linecap="round" transform="translate(144.70750777868398 213.23792860183647) rotate(0 44.57703604244489 13.905785864572314)"><path d="M1.85 1.61 C1.85 1.61, 1.85 1.61, 1.85 1.61 M1.85 1.61 C1.85 1.61, 1.85 1.61, 1.85 1.61 M0.93 8.76 C3.7 5.58, 6.46 2.4, 8.15 0.46 M0.93 8.76 C3.43 5.89, 5.93 3.02, 8.15 0.46 M0.67 15.16 C5.6 9.48, 10.54 3.81, 13.79 0.06 M0.67 15.16 C5.9 9.15, 11.12 3.14, 13.79 0.06 M1.07 20.8 C4.65 16.68, 8.24 12.55, 18.78 0.43 M1.07 20.8 C4.81 16.49, 8.56 12.18, 18.78 0.43 M1.46 26.45 C9.79 16.86, 18.12 7.28, 24.42 0.03 M1.46 26.45 C6.6 20.53, 11.74 14.62, 24.42 0.03 M5.79 27.56 C12.05 20.36, 18.3 13.17, 29.41 0.39 M5.79 27.56 C11.93 20.5, 18.07 13.44, 29.41 0.39 M10.78 27.92 C18.29 19.27, 25.81 10.63, 35.05 0 M10.78 27.92 C18 19.61, 25.22 11.31, 35.05 0 M16.42 27.53 C22.9 20.07, 29.38 12.62, 40.04 0.36 M16.42 27.53 C24.29 18.48, 32.15 9.43, 40.04 0.36 M21.41 27.89 C30.81 17.08, 40.2 6.27, 45.03 0.72 M21.41 27.89 C29.59 18.47, 37.77 9.06, 45.03 0.72 M27.05 27.49 C35.66 17.59, 44.26 7.69, 50.67 0.32 M27.05 27.49 C35.74 17.49, 44.43 7.5, 50.67 0.32 M32.04 27.85 C41.21 17.3, 50.38 6.76, 55.66 0.68 M32.04 27.85 C37.78 21.25, 43.51 14.65, 55.66 0.68 M37.03 28.21 C46.69 17.1, 56.35 5.98, 61.3 0.29 M37.03 28.21 C44.25 19.9, 51.47 11.6, 61.3 0.29 M42.67 27.82 C50.26 19.09, 57.84 10.36, 66.29 0.65 M42.67 27.82 C49.86 19.54, 57.06 11.26, 66.29 0.65 M47.66 28.18 C54.17 20.69, 60.68 13.2, 71.93 0.25 M47.66 28.18 C56.14 18.42, 64.62 8.66, 71.93 0.25 M53.3 27.78 C58.42 21.89, 63.55 15.99, 76.92 0.61 M53.3 27.78 C62.62 17.06, 71.94 6.34, 76.92 0.61 M58.29 28.14 C67.93 17.04, 77.58 5.95, 82.56 0.22 M58.29 28.14 C66.7 18.46, 75.12 8.77, 82.56 0.22 M63.93 27.75 C72.55 17.83, 81.17 7.91, 86.89 1.33 M63.93 27.75 C69.01 21.9, 74.09 16.06, 86.89 1.33 M68.92 28.11 C73.75 22.54, 78.59 16.98, 89.25 4.71 M68.92 28.11 C73.15 23.24, 77.39 18.37, 89.25 4.71 M73.9 28.47 C78.25 23.46, 82.6 18.46, 89.65 10.35 M73.9 28.47 C77.65 24.15, 81.4 19.84, 89.65 10.35 M79.55 28.07 C83.2 23.87, 86.86 19.66, 89.39 16.75 M79.55 28.07 C81.98 25.27, 84.42 22.47, 89.39 16.75 M85.19 27.68 C86.29 26.42, 87.38 25.16, 89.13 23.15 M85.19 27.68 C86.54 26.12, 87.9 24.56, 89.13 23.15" stroke="#a5d8ff" stroke-width="0.5" fill="none"></path><path d="M6.95 0 C35.04 0, 63.14 0, 82.2 0 M6.95 0 C22.17 0, 37.38 0, 82.2 0 M82.2 0 C86.84 0, 89.15 2.32, 89.15 6.95 M82.2 0 C86.84 0, 89.15 2.32, 89.15 6.95 M89.15 6.95 C89.15 11.17, 89.15 15.38, 89.15 20.86 M89.15 6.95 C89.15 11.33, 89.15 15.72, 89.15 20.86 M89.15 20.86 C89.15 25.49, 86.84 27.81, 82.2 27.81 M89.15 20.86 C89.15 25.49, 86.84 27.81, 82.2 27.81 M82.2 27.81 C64.03 27.81, 45.85 27.81, 6.95 27.81 M82.2 27.81 C53.04 27.81, 23.88 27.81, 6.95 27.81 M6.95 27.81 C2.32 27.81, 0 25.49, 0 20.86 M6.95 27.81 C2.32 27.81, 0 25.49, 0 20.86 M0 20.86 C0 17.43, 0 14, 0 6.95 M0 20.86 C0 17.36, 0 13.85, 0 6.95 M0 6.95 C0 2.32, 2.32 0, 6.95 0 M0 6.95 C0 2.32, 2.32 0, 6.95 0" stroke="#343a40" stroke-width="1" fill="none"></path></g><g stroke-linecap="round" transform="translate(144.70750777868398 175.3836026018365) rotate(0 44.57703604244489 13.905785864572314)"><path d="M1.85 1.61 C1.85 1.61, 1.85 1.61, 1.85 1.61 M1.85 1.61 C1.85 1.61, 1.85 1.61, 1.85 1.61 M0.93 8.76 C2.72 6.7, 4.52 4.64, 8.15 0.46 M0.93 8.76 C3.72 5.55, 6.51 2.34, 8.15 0.46 M0.67 15.16 C5.46 9.65, 10.24 4.15, 13.79 0.06 M0.67 15.16 C4.26 11.03, 7.85 6.91, 13.79 0.06 M1.07 20.8 C6.16 14.94, 11.26 9.08, 18.78 0.43 M1.07 20.8 C5.12 16.14, 9.18 11.47, 18.78 0.43 M1.46 26.45 C9.5 17.2, 17.53 7.96, 24.42 0.03 M1.46 26.45 C9.9 16.74, 18.34 7.03, 24.42 0.03 M5.79 27.56 C11.54 20.94, 17.29 14.33, 29.41 0.39 M5.79 27.56 C12.27 20.1, 18.76 12.65, 29.41 0.39 M10.78 27.92 C17.7 19.96, 24.63 11.99, 35.05 0 M10.78 27.92 C17.81 19.83, 24.84 11.74, 35.05 0 M16.42 27.53 C25.44 17.15, 34.47 6.77, 40.04 0.36 M16.42 27.53 C23.33 19.57, 30.25 11.62, 40.04 0.36 M21.41 27.89 C28.42 19.82, 35.44 11.75, 45.03 0.72 M21.41 27.89 C30.54 17.38, 39.67 6.88, 45.03 0.72 M27.05 27.49 C32.12 21.66, 37.19 15.83, 50.67 0.32 M27.05 27.49 C33.73 19.81, 40.4 12.13, 50.67 0.32 M32.04 27.85 C36.92 22.24, 41.8 16.62, 55.66 0.68 M32.04 27.85 C41.12 17.4, 50.21 6.95, 55.66 0.68 M37.03 28.21 C46.69 17.1, 56.35 5.99, 61.3 0.29 M37.03 28.21 C46.09 17.79, 55.15 7.37, 61.3 0.29 M42.67 27.82 C48.14 21.53, 53.6 15.24, 66.29 0.65 M42.67 27.82 C49.52 19.93, 56.37 12.05, 66.29 0.65 M47.66 28.18 C53.34 21.63, 59.03 15.09, 71.93 0.25 M47.66 28.18 C55.49 19.16, 63.33 10.15, 71.93 0.25 M53.3 27.78 C59.99 20.08, 66.68 12.38, 76.92 0.61 M53.3 27.78 C60.12 19.94, 66.94 12.1, 76.92 0.61 M58.29 28.14 C67.29 17.79, 76.29 7.43, 82.56 0.22 M58.29 28.14 C63.62 22.01, 68.94 15.88, 82.56 0.22 M63.93 27.75 C70.13 20.62, 76.33 13.48, 86.89 1.33 M63.93 27.75 C69.58 21.25, 75.22 14.76, 86.89 1.33 M68.92 28.11 C75.03 21.08, 81.14 14.05, 89.25 4.71 M68.92 28.11 C76.67 19.19, 84.43 10.27, 89.25 4.71 M73.9 28.47 C80.11 21.33, 86.32 14.19, 89.65 10.35 M73.9 28.47 C77.16 24.72, 80.42 20.97, 89.65 10.35 M79.55 28.07 C82.12 25.12, 84.69 22.16, 89.39 16.75 M79.55 28.07 C82.06 25.18, 84.58 22.29, 89.39 16.75 M85.19 27.68 C86.19 26.53, 87.19 25.38, 89.13 23.15 M85.19 27.68 C86.36 26.34, 87.53 24.99, 89.13 23.15" stroke="#a5d8ff" stroke-width="0.5" fill="none"></path><path d="M6.95 0 C35.51 0, 64.06 0, 82.2 0 M6.95 0 C32.64 0, 58.32 0, 82.2 0 M82.2 0 C86.84 0, 89.15 2.32, 89.15 6.95 M82.2 0 C86.84 0, 89.15 2.32, 89.15 6.95 M89.15 6.95 C89.15 10.74, 89.15 14.53, 89.15 20.86 M89.15 6.95 C89.15 10.39, 89.15 13.82, 89.15 20.86 M89.15 20.86 C89.15 25.49, 86.84 27.81, 82.2 27.81 M89.15 20.86 C89.15 25.49, 86.84 27.81, 82.2 27.81 M82.2 27.81 C55.27 27.81, 28.34 27.81, 6.95 27.81 M82.2 27.81 C56.04 27.81, 29.87 27.81, 6.95 27.81 M6.95 27.81 C2.32 27.81, 0 25.49, 0 20.86 M6.95 27.81 C2.32 27.81, 0 25.49, 0 20.86 M0 20.86 C0 15.94, 0 11.01, 0 6.95 M0 20.86 C0 15.49, 0 10.11, 0 6.95 M0 6.95 C0 2.32, 2.32 0, 6.95 0 M0 6.95 C0 2.32, 2.32 0, 6.95 0" stroke="#343a40" stroke-width="1" fill="none"></path></g><g stroke-linecap="round" transform="translate(144.70750777868398 137.3288116018365) rotate(0 44.57703604244489 13.905785864572316)"><path d="M1.85 1.61 C1.85 1.61, 1.85 1.61, 1.85 1.61 M1.85 1.61 C1.85 1.61, 1.85 1.61, 1.85 1.61 M0.93 8.76 C2.9 6.49, 4.88 4.23, 8.15 0.46 M0.93 8.76 C3.54 5.76, 6.15 2.76, 8.15 0.46 M0.67 15.16 C4.88 10.32, 9.08 5.49, 13.79 0.06 M0.67 15.16 C4.25 11.04, 7.83 6.93, 13.79 0.06 M1.07 20.8 C4.72 16.6, 8.38 12.39, 18.78 0.43 M1.07 20.8 C7.19 13.76, 13.3 6.72, 18.78 0.43 M1.46 26.45 C8.9 17.89, 16.34 9.33, 24.42 0.03 M1.46 26.45 C7.23 19.8, 13.01 13.16, 24.42 0.03 M5.79 27.56 C13.25 18.98, 20.7 10.41, 29.41 0.39 M5.79 27.56 C15.06 16.9, 24.33 6.24, 29.41 0.39 M10.78 27.92 C16.59 21.24, 22.39 14.56, 35.05 0 M10.78 27.92 C17.69 19.97, 24.6 12.02, 35.05 0 M16.42 27.53 C21.94 21.18, 27.45 14.84, 40.04 0.36 M16.42 27.53 C22.16 20.92, 27.9 14.32, 40.04 0.36 M21.41 27.89 C28.11 20.17, 34.82 12.46, 45.03 0.72 M21.41 27.89 C30.04 17.96, 38.67 8.03, 45.03 0.72 M27.05 27.49 C33.85 19.67, 40.64 11.85, 50.67 0.32 M27.05 27.49 C32.18 21.59, 37.31 15.69, 50.67 0.32 M32.04 27.85 C37.25 21.85, 42.47 15.86, 55.66 0.68 M32.04 27.85 C37.14 21.98, 42.24 16.11, 55.66 0.68 M37.03 28.21 C41.92 22.58, 46.81 16.95, 61.3 0.29 M37.03 28.21 C44.68 19.41, 52.33 10.61, 61.3 0.29 M42.67 27.82 C48.77 20.8, 54.87 13.78, 66.29 0.65 M42.67 27.82 C51.85 17.25, 61.04 6.69, 66.29 0.65 M47.66 28.18 C57.21 17.19, 66.76 6.2, 71.93 0.25 M47.66 28.18 C55.33 19.34, 63.01 10.51, 71.93 0.25 M53.3 27.78 C61.57 18.27, 69.84 8.75, 76.92 0.61 M53.3 27.78 C61.94 17.84, 70.58 7.9, 76.92 0.61 M58.29 28.14 C65.02 20.4, 71.75 12.66, 82.56 0.22 M58.29 28.14 C65.08 20.33, 71.87 12.51, 82.56 0.22 M63.93 27.75 C70.71 19.95, 77.49 12.15, 86.89 1.33 M63.93 27.75 C69.87 20.92, 75.8 14.09, 86.89 1.33 M68.92 28.11 C76.28 19.64, 83.64 11.17, 89.25 4.71 M68.92 28.11 C73.9 22.38, 78.88 16.65, 89.25 4.71 M73.9 28.47 C77.65 24.16, 81.4 19.85, 89.65 10.35 M73.9 28.47 C78.76 22.88, 83.61 17.3, 89.65 10.35 M79.55 28.07 C83.01 24.09, 86.48 20.1, 89.39 16.75 M79.55 28.07 C82.79 24.34, 86.04 20.61, 89.39 16.75 M85.19 27.68 C86.64 26.01, 88.08 24.35, 89.13 23.15 M85.19 27.68 C86.71 25.93, 88.23 24.18, 89.13 23.15" stroke="#a5d8ff" stroke-width="0.5" fill="none"></path><path d="M6.95 0 C22.05 0, 37.15 0, 82.2 0 M6.95 0 C30.19 0, 53.44 0, 82.2 0 M82.2 0 C86.84 0, 89.15 2.32, 89.15 6.95 M82.2 0 C86.84 0, 89.15 2.32, 89.15 6.95 M89.15 6.95 C89.15 12.22, 89.15 17.49, 89.15 20.86 M89.15 6.95 C89.15 11.34, 89.15 15.73, 89.15 20.86 M89.15 20.86 C89.15 25.49, 86.84 27.81, 82.2 27.81 M89.15 20.86 C89.15 25.49, 86.84 27.81, 82.2 27.81 M82.2 27.81 C52.8 27.81, 23.4 27.81, 6.95 27.81 M82.2 27.81 C60.44 27.81, 38.69 27.81, 6.95 27.81 M6.95 27.81 C2.32 27.81, 0 25.49, 0 20.86 M6.95 27.81 C2.32 27.81, 0 25.49, 0 20.86 M0 20.86 C0 15.91, 0 10.96, 0 6.95 M0 20.86 C0 18, 0 15.14, 0 6.95 M0 6.95 C0 2.32, 2.32 0, 6.95 0 M0 6.95 C0 2.32, 2.32 0, 6.95 0" stroke="#343a40" stroke-width="1" fill="none"></path></g><g stroke-linecap="round" transform="translate(127.25444530733421 30.08788793921127) rotate(0 62.03009811544416 132.55393019588496)"><path d="M31.02 0 C49.22 0, 67.43 0, 93.05 0 M31.02 0 C52.84 0, 74.66 0, 93.05 0 M93.05 0 C113.72 0, 124.06 10.34, 124.06 31.02 M93.05 0 C113.72 0, 124.06 10.34, 124.06 31.02 M124.06 31.02 C124.06 93.51, 124.06 156.01, 124.06 234.09 M124.06 31.02 C124.06 88.16, 124.06 145.3, 124.06 234.09 M124.06 234.09 C124.06 254.77, 113.72 265.11, 93.05 265.11 M124.06 234.09 C124.06 254.77, 113.72 265.11, 93.05 265.11 M93.05 265.11 C73.01 265.11, 52.97 265.11, 31.02 265.11 M93.05 265.11 C68.87 265.11, 44.69 265.11, 31.02 265.11 M31.02 265.11 C10.34 265.11, 0 254.77, 0 234.09 M31.02 265.11 C10.34 265.11, 0 254.77, 0 234.09 M0 234.09 C0 172.05, 0 110.01, 0 31.02 M0 234.09 C0 184.67, 0 135.26, 0 31.02 M0 31.02 C0 10.34, 10.34 0, 31.02 0 M0 31.02 C0 10.34, 10.34 0, 31.02 0" stroke="#343a40" stroke-width="1" fill="none"></path></g><g stroke-linecap="round" transform="translate(142.2264617912042 -84.16823088822221) rotate(270.1184727867301 23.223044754186503 132.55393019588496)"><path d="M11.61 0 C19.12 0, 26.64 0, 34.83 0 C42.58 0, 46.45 3.87, 46.45 11.61 C46.45 66.46, 46.45 121.31, 46.45 253.5 C46.45 261.24, 42.58 265.11, 34.83 265.11 C28.85 265.11, 22.87 265.11, 11.61 265.11 C3.87 265.11, 0 261.24, 0 253.5 C0 172.26, 0 91.03, 0 11.61 C0 3.87, 3.87 0, 11.61 0" stroke="none" stroke-width="0" fill="#ffffff"></path><path d="M11.61 0 C19.31 0, 27.02 0, 34.83 0 M11.61 0 C18.31 0, 25.01 0, 34.83 0 M34.83 0 C42.58 0, 46.45 3.87, 46.45 11.61 M34.83 0 C42.58 0, 46.45 3.87, 46.45 11.61 M46.45 11.61 C46.45 92.26, 46.45 172.92, 46.45 253.5 M46.45 11.61 C46.45 69.92, 46.45 128.23, 46.45 253.5 M46.45 253.5 C46.45 261.24, 42.58 265.11, 34.83 265.11 M46.45 253.5 C46.45 261.24, 42.58 265.11, 34.83 265.11 M34.83 265.11 C26.93 265.11, 19.03 265.11, 11.61 265.11 M34.83 265.11 C29.32 265.11, 23.8 265.11, 11.61 265.11 M11.61 265.11 C3.87 265.11, 0 261.24, 0 253.5 M11.61 265.11 C3.87 265.11, 0 261.24, 0 253.5 M0 253.5 C0 192.45, 0 131.4, 0 11.61 M0 253.5 C0 171.25, 0 89.01, 0 11.61 M0 11.61 C0 3.87, 3.87 0, 11.61 0 M0 11.61 C0 3.87, 3.87 0, 11.61 0" stroke="transparent" stroke-width="1" fill="none"></path></g><g transform="translate(23.47284074084473 158.5836026590472) rotate(0 41.015625 16.8)"><text x="0" y="0" font-family="Cascadia, Segoe UI Emoji" font-size="28px" fill="#1e1e1e" text-anchor="start" style="white-space: pre;" direction="ltr" dominant-baseline="text-before-edge">Stack</text></g><g transform="translate(303.3028889375746 115.08559268023927) rotate(0 17.578125 12)"><text x="0" y="0" font-family="Cascadia, Segoe UI Emoji" font-size="20px" fill="#1971c2" text-anchor="start" style="white-space: pre;" direction="ltr" dominant-baseline="text-before-edge">Top</text></g><g stroke-linecap="round"><g transform="translate(241.01740607530792 115.12443766332937) rotate(0 27.389131249149614 5.007136771068467)"><path d="M-0.83 -1.02 C3.89 -0.34, 18.97 2.57, 28.29 4.36 C37.6 6.16, 50.54 9.01, 55.08 9.76 M0.93 1.06 C5.51 1.33, 18.53 0.71, 27.45 2.35 C36.38 4, 49.69 9.78, 54.47 10.94" stroke="#1e1e1e" stroke-width="1" fill="none"></path></g></g><mask></mask><g transform="translate(53.25149196520579 10.000000000000028) rotate(0 23.4375 12)"><text x="0" y="0" font-family="Cascadia, Segoe UI Emoji" font-size="20px" fill="#1971c2" text-anchor="start" style="white-space: pre;" direction="ltr" dominant-baseline="text-before-edge">Push</text></g><g transform="translate(289.2197849652075 10) rotate(0 17.578125 12)"><text x="0" y="0" font-family="Cascadia, Segoe UI Emoji" font-size="20px" fill="#1971c2" text-anchor="start" style="white-space: pre;" direction="ltr" dominant-baseline="text-before-edge">Pop</text></g><g stroke-linecap="round"><g stroke-opacity="0.9" fill-opacity="0.9" transform="translate(367.73549589753475 17.199999908192552) rotate(0 0.12959091629863906 135.89150360423594)"><path d="M0 0 C0.04 45.3, 0.22 226.49, 0.26 271.78" stroke="#1e1e1e" stroke-width="2.5" fill="none" stroke-dasharray="8 10"></path></g></g><mask></mask><g transform="translate(383.291072354893 17.20000068068032) rotate(0 65.625 16.799999999999997)"><text x="0" y="0" font-family="Cascadia, Segoe UI Emoji" font-size="28px" fill="#2f9e44" text-anchor="start" style="white-space: pre;" direction="ltr" dominant-baseline="text-before-edge">push()  </text></g><g transform="translate(386.78151435489235 67.80987468068031) rotate(0 41.015625 16.799999999999997)"><text x="0" y="0" font-family="Cascadia, Segoe UI Emoji" font-size="28px" fill="#2f9e44" text-anchor="start" style="white-space: pre;" direction="ltr" dominant-baseline="text-before-edge">pop()</text></g><g transform="translate(386.7815143548951 115.08559268068036) rotate(0 41.015625 16.800000000000004)"><text x="0" y="0" font-family="Cascadia, Segoe UI Emoji" font-size="28px" fill="#1e1e1e" text-anchor="start" style="white-space: pre;" direction="ltr" dominant-baseline="text-before-edge">top()</text></g><g transform="translate(386.78151435489235 162.36131068068036) rotate(0 49.21875 16.8)"><text x="0" y="0" font-family="Cascadia, Segoe UI Emoji" font-size="28px" fill="#1e1e1e" text-anchor="start" style="white-space: pre;" direction="ltr" dominant-baseline="text-before-edge">size()</text></g><g transform="translate(386.78151435489235 209.63702868068034) rotate(0 57.421875 16.8)"><text x="0" y="0" font-family="Cascadia, Segoe UI Emoji" font-size="28px" fill="#1e1e1e" text-anchor="start" style="white-space: pre;" direction="ltr" dominant-baseline="text-before-edge">empty()</text></g><g stroke-opacity="0" fill-opacity="0" stroke-linecap="round" transform="translate(10 10.603868330981044) rotate(0 256.57467955107904 147.66208778072456)"><path d="M32 0 C167.4 0, 302.8 0, 481.15 0 M481.15 0 C502.48 0, 513.15 10.67, 513.15 32 M513.15 32 C513.15 111.71, 513.15 191.43, 513.15 263.32 M513.15 263.32 C513.15 284.66, 502.48 295.32, 481.15 295.32 M481.15 295.32 C317.01 295.32, 152.88 295.32, 32 295.32 M32 295.32 C10.67 295.32, 0 284.66, 0 263.32 M0 263.32 C0 181.72, 0 100.12, 0 32 M0 32 C0 10.67, 10.67 0, 32 0" stroke="#1e1e1e" stroke-width="2.5" fill="none" stroke-dasharray="8 10"></path></g><g stroke-linecap="round" transform="translate(32.11195562690227 39.99830231038058) rotate(0 44.57703604244489 13.905785864572309)"><path d="M1.85 1.61 C1.85 1.61, 1.85 1.61, 1.85 1.61 M1.85 1.61 C1.85 1.61, 1.85 1.61, 1.85 1.61 M0.93 8.76 C3.55 5.76, 6.16 2.75, 8.15 0.46 M0.93 8.76 C3.75 5.52, 6.57 2.27, 8.15 0.46 M0.67 15.16 C5.04 10.14, 9.41 5.11, 13.79 0.06 M0.67 15.16 C3.37 12.06, 6.07 8.95, 13.79 0.06 M1.07 20.8 C8.07 12.75, 15.07 4.7, 18.78 0.43 M1.07 20.8 C5.45 15.76, 9.84 10.71, 18.78 0.43 M1.46 26.45 C6.54 20.6, 11.62 14.76, 24.42 0.03 M1.46 26.45 C6.37 20.8, 11.28 15.15, 24.42 0.03 M5.79 27.56 C11.66 20.81, 17.53 14.06, 29.41 0.39 M5.79 27.56 C14.44 17.62, 23.08 7.67, 29.41 0.39 M10.78 27.92 C19.16 18.27, 27.55 8.63, 35.05 0 M10.78 27.92 C15.98 21.94, 21.18 15.96, 35.05 0 M16.42 27.53 C25.33 17.28, 34.23 7.04, 40.04 0.36 M16.42 27.53 C23.55 19.33, 30.67 11.13, 40.04 0.36 M21.41 27.89 C27.8 20.53, 34.19 13.18, 45.03 0.72 M21.41 27.89 C28.24 20.03, 35.07 12.17, 45.03 0.72 M27.05 27.49 C36.06 17.13, 45.06 6.77, 50.67 0.32 M27.05 27.49 C35.07 18.27, 43.09 9.04, 50.67 0.32 M32.04 27.85 C40.48 18.14, 48.93 8.42, 55.66 0.68 M32.04 27.85 C36.8 22.38, 41.55 16.91, 55.66 0.68 M37.03 28.21 C44.48 19.64, 51.94 11.06, 61.3 0.29 M37.03 28.21 C46.6 17.2, 56.17 6.19, 61.3 0.29 M42.67 27.82 C48.86 20.69, 55.06 13.57, 66.29 0.65 M42.67 27.82 C49.58 19.86, 56.5 11.91, 66.29 0.65 M47.66 28.18 C56.05 18.53, 64.44 8.87, 71.93 0.25 M47.66 28.18 C55.19 19.51, 62.73 10.84, 71.93 0.25 M53.3 27.78 C58.87 21.37, 64.44 14.96, 76.92 0.61 M53.3 27.78 C62.39 17.32, 71.49 6.86, 76.92 0.61 M58.29 28.14 C66.38 18.84, 74.47 9.53, 82.56 0.22 M58.29 28.14 C67.08 18.03, 75.86 7.92, 82.56 0.22 M63.93 27.75 C69.1 21.8, 74.27 15.85, 86.89 1.33 M63.93 27.75 C70.35 20.36, 76.77 12.97, 86.89 1.33 M68.92 28.11 C74.04 22.21, 79.16 16.32, 89.25 4.71 M68.92 28.11 C76.09 19.85, 83.27 11.6, 89.25 4.71 M73.9 28.47 C79.76 21.73, 85.62 14.99, 89.65 10.35 M73.9 28.47 C77.96 23.8, 82.02 19.13, 89.65 10.35 M79.55 28.07 C82.78 24.35, 86.01 20.64, 89.39 16.75 M79.55 28.07 C82.66 24.49, 85.77 20.91, 89.39 16.75 M85.19 27.68 C86.42 26.26, 87.66 24.84, 89.13 23.15 M85.19 27.68 C86.69 25.96, 88.18 24.23, 89.13 23.15" stroke="#b2f2bb" stroke-width="0.5" fill="none"></path><path d="M6.95 0 C27.57 0, 48.19 0, 82.2 0 M6.95 0 C28.01 0, 49.07 0, 82.2 0 M82.2 0 C86.84 0, 89.15 2.32, 89.15 6.95 M82.2 0 C86.84 0, 89.15 2.32, 89.15 6.95 M89.15 6.95 C89.15 10.42, 89.15 13.88, 89.15 20.86 M89.15 6.95 C89.15 11.08, 89.15 15.2, 89.15 20.86 M89.15 20.86 C89.15 25.49, 86.84 27.81, 82.2 27.81 M89.15 20.86 C89.15 25.49, 86.84 27.81, 82.2 27.81 M82.2 27.81 C53.69 27.81, 25.19 27.81, 6.95 27.81 M82.2 27.81 C55.96 27.81, 29.72 27.81, 6.95 27.81 M6.95 27.81 C2.32 27.81, 0 25.49, 0 20.86 M6.95 27.81 C2.32 27.81, 0 25.49, 0 20.86 M0 20.86 C0 17.96, 0 15.06, 0 6.95 M0 20.86 C0 17.23, 0 13.6, 0 6.95 M0 6.95 C0 2.32, 2.32 0, 6.95 0 M0 6.95 C0 2.32, 2.32 0, 6.95 0" stroke="#2f9e44" stroke-width="1" fill="none"></path></g><g stroke-linecap="round" transform="translate(144.70750762690204 99.27402031038059) rotate(0 44.57703604244489 13.905785864572316)"><path d="M1.85 1.61 C1.85 1.61, 1.85 1.61, 1.85 1.61 M1.85 1.61 C1.85 1.61, 1.85 1.61, 1.85 1.61 M0.93 8.76 C2.99 6.4, 5.04 4.04, 8.15 0.46 M0.93 8.76 C2.97 6.42, 5 4.08, 8.15 0.46 M0.67 15.16 C5.57 9.53, 10.47 3.89, 13.79 0.06 M0.67 15.16 C4.51 10.74, 8.35 6.33, 13.79 0.06 M1.07 20.8 C6.1 15.02, 11.12 9.23, 18.78 0.43 M1.07 20.8 C7.45 13.46, 13.83 6.11, 18.78 0.43 M1.46 26.45 C6.85 20.25, 12.24 14.05, 24.42 0.03 M1.46 26.45 C7.07 19.99, 12.69 13.53, 24.42 0.03 M5.79 27.56 C11.65 20.82, 17.52 14.07, 29.41 0.39 M5.79 27.56 C11.55 20.93, 17.32 14.3, 29.41 0.39 M10.78 27.92 C18.96 18.51, 27.14 9.1, 35.05 0 M10.78 27.92 C17.19 20.54, 23.6 13.17, 35.05 0 M16.42 27.53 C25.55 17.02, 34.69 6.51, 40.04 0.36 M16.42 27.53 C25.44 17.16, 34.45 6.79, 40.04 0.36 M21.41 27.89 C29.48 18.6, 37.55 9.32, 45.03 0.72 M21.41 27.89 C28.74 19.45, 36.08 11.01, 45.03 0.72 M27.05 27.49 C33.86 19.66, 40.67 11.83, 50.67 0.32 M27.05 27.49 C35.73 17.51, 44.41 7.52, 50.67 0.32 M32.04 27.85 C37.71 21.33, 43.38 14.81, 55.66 0.68 M32.04 27.85 C40.02 18.67, 48.01 9.48, 55.66 0.68 M37.03 28.21 C42.4 22.02, 47.78 15.84, 61.3 0.29 M37.03 28.21 C42.88 21.47, 48.74 14.73, 61.3 0.29 M42.67 27.82 C48.65 20.94, 54.63 14.06, 66.29 0.65 M42.67 27.82 C52.03 17.04, 61.4 6.27, 66.29 0.65 M47.66 28.18 C53.36 21.62, 59.06 15.05, 71.93 0.25 M47.66 28.18 C57.07 17.35, 66.49 6.51, 71.93 0.25 M53.3 27.78 C61.13 18.77, 68.96 9.76, 76.92 0.61 M53.3 27.78 C61.11 18.79, 68.93 9.8, 76.92 0.61 M58.29 28.14 C64.51 20.98, 70.73 13.82, 82.56 0.22 M58.29 28.14 C64.05 21.51, 69.81 14.88, 82.56 0.22 M63.93 27.75 C69.8 20.99, 75.67 14.24, 86.89 1.33 M63.93 27.75 C70.39 20.31, 76.86 12.87, 86.89 1.33 M68.92 28.11 C76.92 18.9, 84.92 9.69, 89.25 4.71 M68.92 28.11 C76.35 19.56, 83.78 11.01, 89.25 4.71 M73.9 28.47 C79.19 22.39, 84.47 16.31, 89.65 10.35 M73.9 28.47 C79.95 21.51, 86 14.55, 89.65 10.35 M79.55 28.07 C81.85 25.43, 84.15 22.78, 89.39 16.75 M79.55 28.07 C83.41 23.63, 87.27 19.18, 89.39 16.75 M85.19 27.68 C86.41 26.27, 87.64 24.86, 89.13 23.15 M85.19 27.68 C86.25 26.46, 87.31 25.23, 89.13 23.15" stroke="#b2f2bb" stroke-width="0.5" fill="none"></path><path d="M6.95 0 C29.29 0, 51.63 0, 82.2 0 M6.95 0 C24.08 0, 41.21 0, 82.2 0 M82.2 0 C86.84 0, 89.15 2.32, 89.15 6.95 M82.2 0 C86.84 0, 89.15 2.32, 89.15 6.95 M89.15 6.95 C89.15 11.15, 89.15 15.35, 89.15 20.86 M89.15 6.95 C89.15 10.53, 89.15 14.1, 89.15 20.86 M89.15 20.86 C89.15 25.49, 86.84 27.81, 82.2 27.81 M89.15 20.86 C89.15 25.49, 86.84 27.81, 82.2 27.81 M82.2 27.81 C55.85 27.81, 29.5 27.81, 6.95 27.81 M82.2 27.81 C54.61 27.81, 27.03 27.81, 6.95 27.81 M6.95 27.81 C2.32 27.81, 0 25.49, 0 20.86 M6.95 27.81 C2.32 27.81, 0 25.49, 0 20.86 M0 20.86 C0 16.37, 0 11.88, 0 6.95 M0 20.86 C0 17.93, 0 15, 0 6.95 M0 6.95 C0 2.32, 2.32 0, 6.95 0 M0 6.95 C0 2.32, 2.32 0, 6.95 0" stroke="#2f9e44" stroke-width="1" fill="none"></path></g><g stroke-linecap="round" transform="translate(262.2208736269022 39.99830231038058) rotate(0 44.57703604244489 13.905785864572309)"><path d="M1.85 1.61 C1.85 1.61, 1.85 1.61, 1.85 1.61 M1.85 1.61 C1.85 1.61, 1.85 1.61, 1.85 1.61 M0.93 8.76 C2.82 6.59, 4.7 4.43, 8.15 0.46 M0.93 8.76 C2.88 6.52, 4.83 4.28, 8.15 0.46 M0.67 15.16 C3.6 11.79, 6.53 8.42, 13.79 0.06 M0.67 15.16 C3.71 11.66, 6.75 8.16, 13.79 0.06 M1.07 20.8 C6.32 14.75, 11.58 8.71, 18.78 0.43 M1.07 20.8 C6.59 14.45, 12.11 8.09, 18.78 0.43 M1.46 26.45 C8.19 18.71, 14.91 10.97, 24.42 0.03 M1.46 26.45 C10.38 16.18, 19.31 5.92, 24.42 0.03 M5.79 27.56 C10.57 22.07, 15.34 16.57, 29.41 0.39 M5.79 27.56 C13.01 19.25, 20.24 10.94, 29.41 0.39 M10.78 27.92 C20 17.31, 29.22 6.7, 35.05 0 M10.78 27.92 C18.99 18.48, 27.19 9.04, 35.05 0 M16.42 27.53 C21.85 21.28, 27.29 15.03, 40.04 0.36 M16.42 27.53 C24.85 17.83, 33.28 8.13, 40.04 0.36 M21.41 27.89 C30.61 17.3, 39.81 6.72, 45.03 0.72 M21.41 27.89 C28.39 19.85, 35.38 11.81, 45.03 0.72 M27.05 27.49 C32.08 21.7, 37.12 15.91, 50.67 0.32 M27.05 27.49 C34.51 18.91, 41.97 10.32, 50.67 0.32 M32.04 27.85 C40.47 18.15, 48.9 8.46, 55.66 0.68 M32.04 27.85 C38.47 20.46, 44.9 13.06, 55.66 0.68 M37.03 28.21 C43.43 20.85, 49.83 13.48, 61.3 0.29 M37.03 28.21 C43.79 20.44, 50.55 12.66, 61.3 0.29 M42.67 27.82 C50.86 18.4, 59.05 8.98, 66.29 0.65 M42.67 27.82 C51.49 17.67, 60.3 7.53, 66.29 0.65 M47.66 28.18 C54.31 20.53, 60.96 12.87, 71.93 0.25 M47.66 28.18 C54.59 20.2, 61.53 12.22, 71.93 0.25 M53.3 27.78 C61.64 18.18, 69.99 8.59, 76.92 0.61 M53.3 27.78 C60.4 19.62, 67.5 11.45, 76.92 0.61 M58.29 28.14 C63.52 22.12, 68.76 16.1, 82.56 0.22 M58.29 28.14 C63.73 21.88, 69.17 15.62, 82.56 0.22 M63.93 27.75 C68.54 22.45, 73.15 17.14, 86.89 1.33 M63.93 27.75 C69.68 21.13, 75.43 14.52, 86.89 1.33 M68.92 28.11 C73.8 22.49, 78.69 16.87, 89.25 4.71 M68.92 28.11 C75.54 20.49, 82.16 12.87, 89.25 4.71 M73.9 28.47 C77.73 24.07, 81.55 19.67, 89.65 10.35 M73.9 28.47 C77.29 24.58, 80.67 20.69, 89.65 10.35 M79.55 28.07 C83.27 23.79, 87 19.5, 89.39 16.75 M79.55 28.07 C82.17 25.05, 84.8 22.03, 89.39 16.75 M85.19 27.68 C86.23 26.49, 87.26 25.29, 89.13 23.15 M85.19 27.68 C86.3 26.41, 87.4 25.13, 89.13 23.15" stroke="#ffc9c9" stroke-width="0.5" fill="none"></path><path d="M6.95 0 C26.09 0, 45.23 0, 82.2 0 M6.95 0 C25.17 0, 43.39 0, 82.2 0 M82.2 0 C86.84 0, 89.15 2.32, 89.15 6.95 M82.2 0 C86.84 0, 89.15 2.32, 89.15 6.95 M89.15 6.95 C89.15 10.09, 89.15 13.23, 89.15 20.86 M89.15 6.95 C89.15 12.1, 89.15 17.25, 89.15 20.86 M89.15 20.86 C89.15 25.49, 86.84 27.81, 82.2 27.81 M89.15 20.86 C89.15 25.49, 86.84 27.81, 82.2 27.81 M82.2 27.81 C66.44 27.81, 50.67 27.81, 6.95 27.81 M82.2 27.81 C57.74 27.81, 33.28 27.81, 6.95 27.81 M6.95 27.81 C2.32 27.81, 0 25.49, 0 20.86 M6.95 27.81 C2.32 27.81, 0 25.49, 0 20.86 M0 20.86 C0 16.3, 0 11.75, 0 6.95 M0 20.86 C0 16.92, 0 12.98, 0 6.95 M0 6.95 C0 2.32, 2.32 0, 6.95 0 M0 6.95 C0 2.32, 2.32 0, 6.95 0" stroke="#e03131" stroke-width="1" fill="none"></path></g><g stroke-linecap="round"><g stroke-opacity="0.9" fill-opacity="0.9" transform="translate(131.81065632795435 51.19593458099956) rotate(0 18.28919652983768 17.261721593953325)"><path d="M0 0 C5.21 0.75, 25.14 -1.23, 31.24 4.52 C37.33 10.27, 35.69 29.52, 36.58 34.52 M0 0 C5.21 0.75, 25.14 -1.23, 31.24 4.52 C37.33 10.27, 35.69 29.52, 36.58 34.52" stroke="#1e1e1e" stroke-width="2" fill="none"></path></g><g stroke-opacity="0.9" fill-opacity="0.9" transform="translate(131.81065632795435 51.19593458099956) rotate(0 18.28919652983768 17.261721593953325)"><path d="M30.63 20.49 C32.74 25.47, 34.85 30.45, 36.58 34.52 M30.63 20.49 C32.92 25.89, 35.21 31.29, 36.58 34.52" stroke="#1e1e1e" stroke-width="2" fill="none"></path></g><g stroke-opacity="0.9" fill-opacity="0.9" transform="translate(131.81065632795435 51.19593458099956) rotate(0 18.28919652983768 17.261721593953325)"><path d="M41.04 19.95 C39.46 25.12, 37.87 30.29, 36.58 34.52 M41.04 19.95 C39.32 25.56, 37.61 31.16, 36.58 34.52" stroke="#1e1e1e" stroke-width="2" fill="none"></path></g></g><mask></mask><g stroke-linecap="round"><g stroke-opacity="0.9" fill-opacity="0.9" transform="translate(216.88624884659475 88.20881176890623) rotate(0 17.47369641546402 -17.231885829263305)"><path d="M0 0 C1.71 -4.59, 4.46 -21.79, 10.29 -27.54 C16.11 -33.28, 30.84 -33.31, 34.95 -34.46 M0 0 C1.71 -4.59, 4.46 -21.79, 10.29 -27.54 C16.11 -33.28, 30.84 -33.31, 34.95 -34.46" stroke="#1e1e1e" stroke-width="2" fill="none"></path></g><g stroke-opacity="0.9" fill-opacity="0.9" transform="translate(216.88624884659475 88.20881176890623) rotate(0 17.47369641546402 -17.231885829263305)"><path d="M23.71 -28.32 C27.38 -30.33, 31.06 -32.34, 34.95 -34.46 M23.71 -28.32 C27.77 -30.54, 31.84 -32.76, 34.95 -34.46" stroke="#1e1e1e" stroke-width="2" fill="none"></path></g><g stroke-opacity="0.9" fill-opacity="0.9" transform="translate(216.88624884659475 88.20881176890623) rotate(0 17.47369641546402 -17.231885829263305)"><path d="M22.39 -36.98 C26.5 -36.16, 30.6 -35.33, 34.95 -34.46 M22.39 -36.98 C26.93 -36.07, 31.47 -35.16, 34.95 -34.46" stroke="#1e1e1e" stroke-width="2" fill="none"></path></g></g><mask></mask></svg>