<svg version="1.1" xmlns="http://www.w3.org/2000/svg" viewBox="0 0 643.1400437333205 456.02197970023167" width="643.1400437333205" height="456.02197970023167">
  <!-- svg-source:excalidraw -->
  
  <defs>
    <style class="style-fonts">
      @font-face {
        font-family: "Virgil";
        src: url("https://excalidraw.com/Virgil.woff2");
      }
      @font-face {
        font-family: "Cascadia";
        src: url("https://excalidraw.com/Cascadia.woff2");
      }
      @font-face {
        font-family: "Assistant";
        src: url("https://excalidraw.com/Assistant-Regular.woff2");
      }
    </style>
    
  </defs>
  <rect x="0" y="0" width="643.1400437333205" height="456.02197970023167" fill="#ffffff"></rect><g stroke-linecap="round" transform="translate(175.09823096551827 337.94171060431086) rotate(0 57.02072424108928 17.998618383927397)"><path d="M2.4 2.08 C2.4 2.08, 2.4 2.08, 2.4 2.08 M2.4 2.08 C2.4 2.08, 2.4 2.08, 2.4 2.08 M0.17 10.74 C2.83 7.68, 5.5 4.61, 9.35 0.18 M0.17 10.74 C3.13 7.33, 6.1 3.92, 9.35 0.18 M0.56 16.39 C5.92 10.22, 11.28 4.05, 14.34 0.54 M0.56 16.39 C5.15 11.1, 9.75 5.82, 14.34 0.54 M0.3 22.79 C5.04 17.33, 9.79 11.87, 19.98 0.14 M0.3 22.79 C4.29 18.19, 8.29 13.6, 19.98 0.14 M0.69 28.43 C6.22 22.07, 11.75 15.71, 24.97 0.5 M0.69 28.43 C10.14 17.56, 19.59 6.69, 24.97 0.5 M1.74 33.32 C8.4 25.66, 15.06 18, 30.61 0.11 M1.74 33.32 C8.38 25.68, 15.02 18.04, 30.61 0.11 M5.42 35.19 C17.4 21.41, 29.37 7.63, 35.6 0.47 M5.42 35.19 C15.3 23.82, 25.19 12.45, 35.6 0.47 M9.75 36.3 C16.18 28.91, 22.6 21.52, 41.24 0.07 M9.75 36.3 C17.07 27.88, 24.39 19.46, 41.24 0.07 M14.74 36.66 C21.88 28.45, 29.02 20.23, 46.23 0.43 M14.74 36.66 C21.94 28.38, 29.14 20.09, 46.23 0.43 M20.38 36.27 C26.73 28.96, 33.07 21.66, 51.87 0.04 M20.38 36.27 C27.24 28.38, 34.09 20.49, 51.87 0.04 M25.37 36.63 C37.74 22.39, 50.12 8.16, 56.86 0.4 M25.37 36.63 C34.9 25.66, 44.43 14.69, 56.86 0.4 M31.01 36.23 C39.16 26.86, 47.31 17.48, 62.5 0.01 M31.01 36.23 C39.62 26.33, 48.22 16.43, 62.5 0.01 M36 36.59 C42.81 28.76, 49.62 20.92, 67.49 0.37 M36 36.59 C48.26 22.48, 60.53 8.37, 67.49 0.37 M41.64 36.2 C51.3 25.08, 60.97 13.96, 73.13 -0.03 M41.64 36.2 C50.03 26.55, 58.41 16.9, 73.13 -0.03 M46.63 36.56 C58.05 23.41, 69.48 10.27, 78.12 0.33 M46.63 36.56 C54.76 27.2, 62.89 17.85, 78.12 0.33 M52.27 36.16 C60.84 26.31, 69.4 16.46, 83.76 -0.06 M52.27 36.16 C63.08 23.72, 73.9 11.28, 83.76 -0.06 M57.26 36.52 C68.09 24.06, 78.93 11.6, 88.75 0.3 M57.26 36.52 C66.96 25.36, 76.66 14.2, 88.75 0.3 M62.9 36.13 C74.73 22.52, 86.57 8.9, 94.39 -0.1 M62.9 36.13 C70.18 27.76, 77.46 19.38, 94.39 -0.1 M67.89 36.49 C74.71 28.64, 81.54 20.79, 99.38 0.26 M67.89 36.49 C76.33 26.78, 84.76 17.07, 99.38 0.26 M72.87 36.85 C80.28 28.33, 87.68 19.82, 104.37 0.62 M72.87 36.85 C83.44 24.69, 94.01 12.54, 104.37 0.62 M78.52 36.45 C87.24 26.42, 95.97 16.38, 109.35 0.98 M78.52 36.45 C87.65 25.95, 96.78 15.44, 109.35 0.98 M83.5 36.81 C93.96 24.78, 104.42 12.75, 112.37 3.61 M83.5 36.81 C90.5 28.76, 97.5 20.71, 112.37 3.61 M89.15 36.42 C98.87 25.23, 108.6 14.04, 114.08 7.74 M89.15 36.42 C96.15 28.36, 103.16 20.3, 114.08 7.74 M94.13 36.78 C99.35 30.78, 104.56 24.79, 113.82 14.14 M94.13 36.78 C98.41 31.86, 102.69 26.94, 113.82 14.14 M99.78 36.39 C103.11 32.55, 106.44 28.72, 114.21 19.78 M99.78 36.39 C104.69 30.74, 109.6 25.09, 114.21 19.78 M105.42 35.99 C108.37 32.6, 111.31 29.21, 113.95 26.18 M105.42 35.99 C108.03 32.99, 110.63 30, 113.95 26.18" stroke="#a5d8ff" stroke-width="0.5" fill="none"></path><path d="M9 0 C28.45 0, 47.9 0, 105.04 0 M9 0 C39 0, 69 0, 105.04 0 M105.04 0 C111.04 0, 114.04 3, 114.04 9 M105.04 0 C111.04 0, 114.04 3, 114.04 9 M114.04 9 C114.04 15.28, 114.04 21.57, 114.04 27 M114.04 9 C114.04 13.85, 114.04 18.71, 114.04 27 M114.04 27 C114.04 33, 111.04 36, 105.04 36 M114.04 27 C114.04 33, 111.04 36, 105.04 36 M105.04 36 C76.08 36, 47.12 36, 9 36 M105.04 36 C85.62 36, 66.2 36, 9 36 M9 36 C3 36, 0 33, 0 27 M9 36 C3 36, 0 33, 0 27 M0 27 C0 20.25, 0 13.49, 0 9 M0 27 C0 20.42, 0 13.84, 0 9 M0 9 C0 3, 3 0, 9 0 M0 9 C0 3, 3 0, 9 0" stroke="#343a40" stroke-width="1" fill="none"></path></g><g stroke-linecap="round" transform="translate(175.09823096551827 292.36377060431084) rotate(0 57.02072424108928 17.998618383927397)"><path d="M2.4 2.08 C2.4 2.08, 2.4 2.08, 2.4 2.08 M2.4 2.08 C2.4 2.08, 2.4 2.08, 2.4 2.08 M0.17 10.74 C2.83 7.68, 5.49 4.62, 9.35 0.18 M0.17 10.74 C3.11 7.36, 6.05 3.98, 9.35 0.18 M0.56 16.39 C4.94 11.35, 9.31 6.32, 14.34 0.54 M0.56 16.39 C4.2 12.2, 7.83 8.02, 14.34 0.54 M0.3 22.79 C4.68 17.75, 9.05 12.72, 19.98 0.14 M0.3 22.79 C4.52 17.93, 8.74 13.07, 19.98 0.14 M0.69 28.43 C6 22.32, 11.31 16.21, 24.97 0.5 M0.69 28.43 C6 22.32, 11.31 16.22, 24.97 0.5 M1.74 33.32 C8.31 25.76, 14.88 18.2, 30.61 0.11 M1.74 33.32 C10.3 23.47, 18.87 13.62, 30.61 0.11 M5.42 35.19 C12.7 26.81, 19.98 18.43, 35.6 0.47 M5.42 35.19 C12.27 27.31, 19.11 19.43, 35.6 0.47 M9.75 36.3 C22.02 22.19, 34.29 8.07, 41.24 0.07 M9.75 36.3 C17.01 27.95, 24.26 19.61, 41.24 0.07 M14.74 36.66 C24.34 25.62, 33.93 14.58, 46.23 0.43 M14.74 36.66 C25.92 23.8, 37.1 10.94, 46.23 0.43 M20.38 36.27 C32.59 22.22, 44.81 8.16, 51.87 0.04 M20.38 36.27 C31.71 23.24, 43.04 10.2, 51.87 0.04 M25.37 36.63 C37.14 23.09, 48.91 9.55, 56.86 0.4 M25.37 36.63 C34.79 25.79, 44.2 14.96, 56.86 0.4 M31.01 36.23 C43.52 21.85, 56.02 7.46, 62.5 0.01 M31.01 36.23 C37.55 28.71, 44.09 21.18, 62.5 0.01 M36 36.59 C47.27 23.62, 58.55 10.65, 67.49 0.37 M36 36.59 C44.96 26.28, 53.92 15.97, 67.49 0.37 M41.64 36.2 C53.84 22.16, 66.04 8.13, 73.13 -0.03 M41.64 36.2 C53.53 22.52, 65.41 8.85, 73.13 -0.03 M46.63 36.56 C53.33 28.85, 60.03 21.14, 78.12 0.33 M46.63 36.56 C58.19 23.26, 69.74 9.96, 78.12 0.33 M52.27 36.16 C59.33 28.05, 66.38 19.93, 83.76 -0.06 M52.27 36.16 C60.19 27.05, 68.12 17.93, 83.76 -0.06 M57.26 36.52 C64.77 27.88, 72.29 19.23, 88.75 0.3 M57.26 36.52 C67.69 24.52, 78.13 12.52, 88.75 0.3 M62.9 36.13 C74.48 22.8, 86.06 9.48, 94.39 -0.1 M62.9 36.13 C72.11 25.53, 81.33 14.93, 94.39 -0.1 M67.89 36.49 C79.9 22.67, 91.91 8.85, 99.38 0.26 M67.89 36.49 C80.24 22.28, 92.59 8.07, 99.38 0.26 M72.87 36.85 C84.67 23.28, 96.46 9.71, 104.37 0.62 M72.87 36.85 C83.66 24.44, 94.44 12.04, 104.37 0.62 M78.52 36.45 C88.76 24.67, 99 12.89, 109.35 0.98 M78.52 36.45 C87.59 26.02, 96.66 15.58, 109.35 0.98 M83.5 36.81 C94.92 23.68, 106.34 10.54, 112.37 3.61 M83.5 36.81 C92.82 26.09, 102.14 15.37, 112.37 3.61 M89.15 36.42 C94.82 29.9, 100.49 23.38, 114.08 7.74 M89.15 36.42 C94.42 30.36, 99.69 24.3, 114.08 7.74 M94.13 36.78 C99.6 30.49, 105.06 24.21, 113.82 14.14 M94.13 36.78 C100.73 29.19, 107.34 21.59, 113.82 14.14 M99.78 36.39 C104.81 30.59, 109.85 24.8, 114.21 19.78 M99.78 36.39 C103.35 32.28, 106.92 28.17, 114.21 19.78 M105.42 35.99 C107.66 33.42, 109.9 30.84, 113.95 26.18 M105.42 35.99 C108.5 32.45, 111.58 28.91, 113.95 26.18" stroke="#a5d8ff" stroke-width="0.5" fill="none"></path><path d="M9 0 C29.5 0, 50.01 0, 105.04 0 M9 0 C33.06 0, 57.11 0, 105.04 0 M105.04 0 C111.04 0, 114.04 3, 114.04 9 M105.04 0 C111.04 0, 114.04 3, 114.04 9 M114.04 9 C114.04 13.61, 114.04 18.21, 114.04 27 M114.04 9 C114.04 14.01, 114.04 19.03, 114.04 27 M114.04 27 C114.04 33, 111.04 36, 105.04 36 M114.04 27 C114.04 33, 111.04 36, 105.04 36 M105.04 36 C77.72 36, 50.4 36, 9 36 M105.04 36 C80.39 36, 55.74 36, 9 36 M9 36 C3 36, 0 33, 0 27 M9 36 C3 36, 0 33, 0 27 M0 27 C0 21.4, 0 15.8, 0 9 M0 27 C0 20.63, 0 14.27, 0 9 M0 9 C0 3, 3 0, 9 0 M0 9 C0 3, 3 0, 9 0" stroke="#343a40" stroke-width="1" fill="none"></path></g><g stroke-linecap="round" transform="translate(175.09823096551736 246.78583060431083) rotate(0 57.02072424108928 17.998618383927397)"><path d="M2.4 2.08 C2.4 2.08, 2.4 2.08, 2.4 2.08 M2.4 2.08 C2.4 2.08, 2.4 2.08, 2.4 2.08 M0.17 10.74 C2.35 8.23, 4.54 5.72, 9.35 0.18 M0.17 10.74 C2.37 8.2, 4.58 5.66, 9.35 0.18 M0.56 16.39 C5.19 11.06, 9.82 5.73, 14.34 0.54 M0.56 16.39 C5.65 10.53, 10.74 4.67, 14.34 0.54 M0.3 22.79 C7.21 14.84, 14.12 6.89, 19.98 0.14 M0.3 22.79 C5.86 16.39, 11.41 10, 19.98 0.14 M0.69 28.43 C9.37 18.45, 18.05 8.46, 24.97 0.5 M0.69 28.43 C7.85 20.19, 15.02 11.95, 24.97 0.5 M1.74 33.32 C12.78 20.63, 23.81 7.93, 30.61 0.11 M1.74 33.32 C12.34 21.13, 22.93 8.94, 30.61 0.11 M5.42 35.19 C14.11 25.19, 22.8 15.19, 35.6 0.47 M5.42 35.19 C13.47 25.92, 21.52 16.66, 35.6 0.47 M9.75 36.3 C21.04 23.31, 32.33 10.32, 41.24 0.07 M9.75 36.3 C17.24 27.68, 24.73 19.07, 41.24 0.07 M14.74 36.66 C26.78 22.81, 38.82 8.96, 46.23 0.43 M14.74 36.66 C26.19 23.49, 37.64 10.31, 46.23 0.43 M20.38 36.27 C27.85 27.67, 35.32 19.08, 51.87 0.04 M20.38 36.27 C27.74 27.8, 35.11 19.32, 51.87 0.04 M25.37 36.63 C37.17 23.05, 48.96 9.48, 56.86 0.4 M25.37 36.63 C35.11 25.42, 44.86 14.2, 56.86 0.4 M31.01 36.23 C37.45 28.82, 43.89 21.42, 62.5 0.01 M31.01 36.23 C43.26 22.14, 55.51 8.05, 62.5 0.01 M36 36.59 C47.93 22.87, 59.86 9.14, 67.49 0.37 M36 36.59 C47.76 23.06, 59.52 9.53, 67.49 0.37 M41.64 36.2 C53.51 22.54, 65.38 8.89, 73.13 -0.03 M41.64 36.2 C52.12 24.14, 62.59 12.09, 73.13 -0.03 M46.63 36.56 C58.87 22.48, 71.11 8.39, 78.12 0.33 M46.63 36.56 C55.14 26.77, 63.65 16.97, 78.12 0.33 M52.27 36.16 C61.73 25.29, 71.18 14.41, 83.76 -0.06 M52.27 36.16 C64.54 22.04, 76.82 7.92, 83.76 -0.06 M57.26 36.52 C69.14 22.85, 81.03 9.18, 88.75 0.3 M57.26 36.52 C65.44 27.11, 73.62 17.7, 88.75 0.3 M62.9 36.13 C70.78 27.06, 78.67 17.99, 94.39 -0.1 M62.9 36.13 C71.72 25.98, 80.55 15.83, 94.39 -0.1 M67.89 36.49 C80.42 22.07, 92.95 7.65, 99.38 0.26 M67.89 36.49 C75.67 27.53, 83.45 18.58, 99.38 0.26 M72.87 36.85 C83.34 24.81, 93.81 12.76, 104.37 0.62 M72.87 36.85 C79.78 28.9, 86.69 20.96, 104.37 0.62 M78.52 36.45 C87.25 26.41, 95.98 16.37, 109.35 0.98 M78.52 36.45 C87.24 26.42, 95.97 16.38, 109.35 0.98 M83.5 36.81 C94.52 24.14, 105.53 11.47, 112.37 3.61 M83.5 36.81 C89.79 29.58, 96.08 22.35, 112.37 3.61 M89.15 36.42 C97.76 26.52, 106.36 16.62, 114.08 7.74 M89.15 36.42 C95.7 28.88, 102.26 21.34, 114.08 7.74 M94.13 36.78 C99.3 30.84, 104.47 24.89, 113.82 14.14 M94.13 36.78 C101.65 28.14, 109.16 19.49, 113.82 14.14 M99.78 36.39 C103.77 31.8, 107.76 27.21, 114.21 19.78 M99.78 36.39 C103.07 32.6, 106.37 28.81, 114.21 19.78 M105.42 35.99 C108.57 32.36, 111.72 28.74, 113.95 26.18 M105.42 35.99 C107.23 33.91, 109.04 31.82, 113.95 26.18" stroke="#a5d8ff" stroke-width="0.5" fill="none"></path><path d="M9 0 C30.79 0, 52.58 0, 105.04 0 M9 0 C35.17 0, 61.33 0, 105.04 0 M105.04 0 C111.04 0, 114.04 3, 114.04 9 M105.04 0 C111.04 0, 114.04 3, 114.04 9 M114.04 9 C114.04 14.56, 114.04 20.12, 114.04 27 M114.04 9 C114.04 13.82, 114.04 18.64, 114.04 27 M114.04 27 C114.04 33, 111.04 36, 105.04 36 M114.04 27 C114.04 33, 111.04 36, 105.04 36 M105.04 36 C74.29 36, 43.53 36, 9 36 M105.04 36 C74.53 36, 44.02 36, 9 36 M9 36 C3 36, 0 33, 0 27 M9 36 C3 36, 0 33, 0 27 M0 27 C0 21.39, 0 15.79, 0 9 M0 27 C0 22.9, 0 18.8, 0 9 M0 9 C0 3, 3 0, 9 0 M0 9 C0 3, 3 0, 9 0" stroke="#343a40" stroke-width="1" fill="none"></path></g><g stroke-linecap="round" transform="translate(175.09823096551645 199.65465360431082) rotate(0 57.02072419864544 17.998618383927393)"><path d="M2.4 2.08 C2.4 2.08, 2.4 2.08, 2.4 2.08 M2.4 2.08 C2.4 2.08, 2.4 2.08, 2.4 2.08 M0.17 10.74 C3.31 7.13, 6.45 3.52, 9.35 0.18 M0.17 10.74 C3.61 6.78, 7.05 2.82, 9.35 0.18 M0.56 16.39 C4.68 11.65, 8.8 6.91, 14.34 0.54 M0.56 16.39 C3.92 12.53, 7.27 8.67, 14.34 0.54 M0.3 22.79 C4.58 17.86, 8.86 12.94, 19.98 0.14 M0.3 22.79 C6.31 15.87, 12.33 8.95, 19.98 0.14 M0.69 28.43 C10.12 17.59, 19.54 6.74, 24.97 0.5 M0.69 28.43 C5.83 22.52, 10.96 16.62, 24.97 0.5 M1.74 33.32 C11.95 21.58, 22.16 9.84, 30.61 0.11 M1.74 33.32 C11.99 21.53, 22.24 9.73, 30.61 0.11 M5.42 35.19 C17.25 21.58, 29.07 7.97, 35.6 0.47 M5.42 35.19 C12.64 26.87, 19.87 18.56, 35.6 0.47 M9.75 36.3 C19.27 25.34, 28.8 14.39, 41.24 0.07 M9.75 36.3 C20.52 23.91, 31.29 11.52, 41.24 0.07 M14.74 36.66 C23.85 26.18, 32.96 15.7, 46.23 0.43 M14.74 36.66 C23.59 26.48, 32.44 16.3, 46.23 0.43 M20.38 36.27 C31.28 23.73, 42.18 11.19, 51.87 0.04 M20.38 36.27 C29.21 26.11, 38.03 15.96, 51.87 0.04 M25.37 36.63 C36.07 24.31, 46.78 12, 56.86 0.4 M25.37 36.63 C35.93 24.48, 46.49 12.33, 56.86 0.4 M31.01 36.23 C43.48 21.88, 55.96 7.53, 62.5 0.01 M31.01 36.23 C39.79 26.13, 48.57 16.03, 62.5 0.01 M36 36.59 C48.04 22.74, 60.09 8.88, 67.49 0.37 M36 36.59 C46.91 24.04, 57.82 11.49, 67.49 0.37 M41.64 36.2 C50.89 25.56, 60.14 14.92, 73.13 -0.03 M41.64 36.2 C49.27 27.42, 56.89 18.65, 73.13 -0.03 M46.63 36.56 C57.2 24.4, 67.77 12.24, 78.12 0.33 M46.63 36.56 C56.2 25.54, 65.78 14.53, 78.12 0.33 M52.27 36.16 C62.03 24.94, 71.79 13.71, 83.76 -0.06 M52.27 36.16 C63.92 22.76, 75.57 9.36, 83.76 -0.06 M57.26 36.52 C66.64 25.73, 76.02 14.94, 88.75 0.3 M57.26 36.52 C68.06 24.1, 78.86 11.67, 88.75 0.3 M62.9 36.13 C70.63 27.24, 78.35 18.35, 94.39 -0.1 M62.9 36.13 C71 26.81, 79.11 17.48, 94.39 -0.1 M67.89 36.49 C75.66 27.54, 83.44 18.6, 99.38 0.26 M67.89 36.49 C75.56 27.66, 83.23 18.84, 99.38 0.26 M72.87 36.85 C83.28 24.88, 93.68 12.91, 104.37 0.62 M72.87 36.85 C85.3 22.55, 97.73 8.26, 104.37 0.62 M78.52 36.45 C89.02 24.37, 99.53 12.28, 109.35 0.98 M78.52 36.45 C88.73 24.71, 98.94 12.96, 109.35 0.98 M83.5 36.81 C92.89 26.02, 102.27 15.23, 112.37 3.61 M83.5 36.81 C91.22 27.93, 98.94 19.05, 112.37 3.61 M89.15 36.42 C94.55 30.21, 99.95 24, 114.08 7.74 M89.15 36.42 C98.54 25.62, 107.93 14.82, 114.08 7.74 M94.13 36.78 C98.45 31.82, 102.76 26.86, 113.82 14.14 M94.13 36.78 C99.19 30.97, 104.24 25.15, 113.82 14.14 M99.78 36.39 C103.98 31.55, 108.19 26.71, 114.21 19.78 M99.78 36.39 C104.05 31.47, 108.33 26.55, 114.21 19.78 M105.42 35.99 C108.25 32.73, 111.08 29.48, 113.95 26.18 M105.42 35.99 C108.31 32.66, 111.2 29.34, 113.95 26.18" stroke="#b2f2bb" stroke-width="0.5" fill="none"></path><path d="M9 0 C36.42 0, 63.85 0, 105.04 0 M9 0 C29.08 0, 49.16 0, 105.04 0 M105.04 0 C111.04 0, 114.04 3, 114.04 9 M105.04 0 C111.04 0, 114.04 3, 114.04 9 M114.04 9 C114.04 12.93, 114.04 16.87, 114.04 27 M114.04 9 C114.04 13.1, 114.04 17.19, 114.04 27 M114.04 27 C114.04 33, 111.04 36, 105.04 36 M114.04 27 C114.04 33, 111.04 36, 105.04 36 M105.04 36 C70.07 36, 35.1 36, 9 36 M105.04 36 C80.11 36, 55.18 36, 9 36 M9 36 C3 36, 0 33, 0 27 M9 36 C3 36, 0 33, 0 27 M0 27 C0 20.68, 0 14.36, 0 9 M0 27 C0 21.92, 0 16.83, 0 9 M0 9 C0 3, 3 0, 9 0 M0 9 C0 3, 3 0, 9 0" stroke="#2f9e44" stroke-width="1" fill="none"></path></g><g stroke-linecap="round" transform="translate(152.28994154676457 128.41742398039577) rotate(0 79.8290139375249 132.55393019588496)"><path d="M32 0 C60.08 0, 88.15 0, 127.66 0 M32 0 C65.65 0, 99.31 0, 127.66 0 M127.66 0 C148.99 0, 159.66 10.67, 159.66 32 M127.66 0 C148.99 0, 159.66 10.67, 159.66 32 M159.66 32 C159.66 93.89, 159.66 155.78, 159.66 233.11 M159.66 32 C159.66 88.59, 159.66 145.17, 159.66 233.11 M159.66 233.11 C159.66 254.44, 148.99 265.11, 127.66 265.11 M159.66 233.11 C159.66 254.44, 148.99 265.11, 127.66 265.11 M127.66 265.11 C96.76 265.11, 65.86 265.11, 32 265.11 M127.66 265.11 C90.37 265.11, 53.08 265.11, 32 265.11 M32 265.11 C10.67 265.11, 0 254.44, 0 233.11 M32 265.11 C10.67 265.11, 0 254.44, 0 233.11 M0 233.11 C0 171.67, 0 110.23, 0 32 M0 233.11 C0 184.17, 0 135.23, 0 32 M0 32 C0 10.67, 10.67 0, 32 0 M0 32 C0 10.67, 10.67 0, 32 0" stroke="#343a40" stroke-width="1" fill="none"></path></g><g stroke-linecap="round" transform="translate(142.28994154676366 -42.45100001960424) rotate(270.1184727867301 79.8290139375249 132.55393019588496)"><path d="M32 0 C62.95 0, 93.89 0, 127.66 0 C148.99 0, 159.66 10.67, 159.66 32 C159.66 77.6, 159.66 123.21, 159.66 233.11 C159.66 254.44, 148.99 265.11, 127.66 265.11 C103.01 265.11, 78.37 265.11, 32 265.11 C10.67 265.11, 0 254.44, 0 233.11 C0 165.57, 0 98.03, 0 32 C0 10.67, 10.67 0, 32 0" stroke="none" stroke-width="0" fill="#ffffff"></path><path d="M32 0 C63.73 0, 95.45 0, 127.66 0 M32 0 C59.59 0, 87.18 0, 127.66 0 M127.66 0 C148.99 0, 159.66 10.67, 159.66 32 M127.66 0 C148.99 0, 159.66 10.67, 159.66 32 M159.66 32 C159.66 99.06, 159.66 166.11, 159.66 233.11 M159.66 32 C159.66 80.48, 159.66 128.96, 159.66 233.11 M159.66 233.11 C159.66 254.44, 148.99 265.11, 127.66 265.11 M159.66 233.11 C159.66 254.44, 148.99 265.11, 127.66 265.11 M127.66 265.11 C95.11 265.11, 62.56 265.11, 32 265.11 M127.66 265.11 C104.93 265.11, 82.2 265.11, 32 265.11 M32 265.11 C10.67 265.11, 0 254.44, 0 233.11 M32 265.11 C10.67 265.11, 0 254.44, 0 233.11 M0 233.11 C0 182.35, 0 131.59, 0 32 M0 233.11 C0 164.73, 0 96.35, 0 32 M0 32 C0 10.67, 10.67 0, 32 0 M0 32 C0 10.67, 10.67 0, 32 0" stroke="transparent" stroke-width="1" fill="none"></path></g><g stroke-linecap="round" transform="translate(38.24849296551656 86.52307960431082) rotate(0 57.02072424108928 21.799999999999997)"><path d="M2.9 2.52 C2.9 2.52, 2.9 2.52, 2.9 2.52 M2.9 2.52 C2.9 2.52, 2.9 2.52, 2.9 2.52 M0.67 11.18 C3.7 7.7, 6.73 4.21, 9.86 0.62 M0.67 11.18 C4.03 7.32, 7.39 3.46, 9.86 0.62 M0.41 17.58 C6.15 10.97, 11.9 4.37, 15.5 0.22 M0.41 17.58 C4.91 12.41, 9.41 7.23, 15.5 0.22 M0.8 23.22 C7.96 15, 15.11 6.77, 20.49 0.58 M0.8 23.22 C6.52 16.65, 12.23 10.08, 20.49 0.58 M0.54 29.62 C9.28 19.57, 18.02 9.52, 26.13 0.19 M0.54 29.62 C5.75 23.63, 10.96 17.64, 26.13 0.19 M0.94 35.27 C10.33 24.46, 19.73 13.65, 31.12 0.55 M0.94 35.27 C8.86 26.15, 16.78 17.04, 31.12 0.55 M2.64 39.4 C12.43 28.15, 22.21 16.89, 36.76 0.15 M2.64 39.4 C10.11 30.81, 17.57 22.23, 36.76 0.15 M5.01 42.78 C15.43 30.79, 25.85 18.8, 41.75 0.51 M5.01 42.78 C13.02 33.57, 21.02 24.35, 41.75 0.51 M9.99 43.14 C17.62 34.37, 25.25 25.59, 47.39 0.12 M9.99 43.14 C23.63 27.46, 37.26 11.78, 47.39 0.12 M14.98 43.5 C23.22 34.03, 31.45 24.55, 52.38 0.48 M14.98 43.5 C29.48 26.82, 43.97 10.15, 52.38 0.48 M19.97 43.86 C29.86 32.48, 39.76 21.09, 58.02 0.09 M19.97 43.86 C27.84 34.8, 35.72 25.74, 58.02 0.09 M25.61 43.46 C40.21 26.67, 54.81 9.88, 63.01 0.45 M25.61 43.46 C40.49 26.35, 55.37 9.23, 63.01 0.45 M30.6 43.82 C42.08 30.61, 53.57 17.4, 68.65 0.05 M30.6 43.82 C44.2 28.18, 57.8 12.53, 68.65 0.05 M36.24 43.43 C47.21 30.82, 58.17 18.2, 73.64 0.41 M36.24 43.43 C50.08 27.51, 63.93 11.58, 73.64 0.41 M41.23 43.79 C54.53 28.49, 67.84 13.18, 78.62 0.77 M41.23 43.79 C55.18 27.75, 69.12 11.7, 78.62 0.77 M46.87 43.4 C60.24 28.01, 73.61 12.63, 84.27 0.38 M46.87 43.4 C55.15 33.87, 63.44 24.34, 84.27 0.38 M51.86 43.76 C64.12 29.65, 76.39 15.54, 89.25 0.74 M51.86 43.76 C61.41 32.77, 70.96 21.78, 89.25 0.74 M57.5 43.36 C66.55 32.96, 75.59 22.55, 94.9 0.34 M57.5 43.36 C71.11 27.7, 84.73 12.04, 94.9 0.34 M62.49 43.72 C73.87 30.63, 85.24 17.55, 99.88 0.7 M62.49 43.72 C75.66 28.57, 88.83 13.42, 99.88 0.7 M68.13 43.33 C80.63 28.94, 93.13 14.56, 105.53 0.31 M68.13 43.33 C75.81 34.49, 83.49 25.65, 105.53 0.31 M73.12 43.69 C82.14 33.31, 91.17 22.92, 109.2 2.18 M73.12 43.69 C82.36 33.06, 91.59 22.43, 109.2 2.18 M78.76 43.29 C87.22 33.57, 95.67 23.84, 112.22 4.8 M78.76 43.29 C87.07 33.73, 95.39 24.17, 112.22 4.8 M83.75 43.65 C93.13 32.86, 102.5 22.08, 113.93 8.94 M83.75 43.65 C92.95 33.07, 102.15 22.48, 113.93 8.94 M89.39 43.26 C97.98 33.37, 106.57 23.49, 114.32 14.58 M89.39 43.26 C99.15 32.04, 108.9 20.82, 114.32 14.58 M94.38 43.62 C100.7 36.34, 107.03 29.07, 114.72 20.22 M94.38 43.62 C100.12 37.01, 105.86 30.41, 114.72 20.22 M99.37 43.98 C105.21 37.26, 111.05 30.53, 114.46 26.62 M99.37 43.98 C102.8 40.03, 106.23 36.08, 114.46 26.62 M105.01 43.58 C107.36 40.88, 109.7 38.18, 114.19 33.02 M105.01 43.58 C107.92 40.24, 110.83 36.89, 114.19 33.02" stroke="#a5d8ff" stroke-width="0.5" fill="none"></path><path d="M10.9 0 C46.95 0, 82.99 0, 103.14 0 M10.9 0 C38.96 0, 67.01 0, 103.14 0 M103.14 0 C110.41 0, 114.04 3.63, 114.04 10.9 M103.14 0 C110.41 0, 114.04 3.63, 114.04 10.9 M114.04 10.9 C114.04 19.17, 114.04 27.45, 114.04 32.7 M114.04 10.9 C114.04 17.25, 114.04 23.59, 114.04 32.7 M114.04 32.7 C114.04 39.97, 110.41 43.6, 103.14 43.6 M114.04 32.7 C114.04 39.97, 110.41 43.6, 103.14 43.6 M103.14 43.6 C77.52 43.6, 51.91 43.6, 10.9 43.6 M103.14 43.6 C80.75 43.6, 58.36 43.6, 10.9 43.6 M10.9 43.6 C3.63 43.6, 0 39.97, 0 32.7 M10.9 43.6 C3.63 43.6, 0 39.97, 0 32.7 M0 32.7 C0 26.5, 0 20.29, 0 10.9 M0 32.7 C0 24.25, 0 15.81, 0 10.9 M0 10.9 C0 3.63, 3.63 0, 10.9 0 M0 10.9 C0 3.63, 3.63 0, 10.9 0" stroke="#343a40" stroke-width="1" fill="none"></path></g><g stroke-opacity="0.8" fill-opacity="0.8" stroke-linecap="round" transform="translate(311.94796896551816 86.52307960431082) rotate(0 57.02072424108928 21.799999999999997)"><path d="M2.9 2.52 C2.9 2.52, 2.9 2.52, 2.9 2.52 M2.9 2.52 C2.9 2.52, 2.9 2.52, 2.9 2.52 M0.67 11.18 C4.17 7.16, 7.66 3.14, 9.86 0.62 M0.67 11.18 C3.08 8.41, 5.49 5.64, 9.86 0.62 M0.41 17.58 C5.39 11.86, 10.36 6.13, 15.5 0.22 M0.41 17.58 C4.59 12.77, 8.78 7.96, 15.5 0.22 M0.8 23.22 C6.17 17.06, 11.53 10.89, 20.49 0.58 M0.8 23.22 C6.56 16.6, 12.32 9.98, 20.49 0.58 M0.54 29.62 C7.12 22.05, 13.7 14.48, 26.13 0.19 M0.54 29.62 C9.51 19.31, 18.47 9, 26.13 0.19 M0.94 35.27 C10.14 24.68, 19.34 14.1, 31.12 0.55 M0.94 35.27 C11.53 23.08, 22.13 10.89, 31.12 0.55 M2.64 39.4 C11.96 28.69, 21.27 17.97, 36.76 0.15 M2.64 39.4 C14.16 26.16, 25.67 12.91, 36.76 0.15 M5.01 42.78 C13.17 33.38, 21.34 23.99, 41.75 0.51 M5.01 42.78 C15.26 30.98, 25.52 19.19, 41.75 0.51 M9.99 43.14 C20.53 31.02, 31.06 18.9, 47.39 0.12 M9.99 43.14 C23.34 27.78, 36.7 12.42, 47.39 0.12 M14.98 43.5 C23 34.28, 31.01 25.06, 52.38 0.48 M14.98 43.5 C27.98 28.55, 40.98 13.59, 52.38 0.48 M19.97 43.86 C30.74 31.47, 41.5 19.09, 58.02 0.09 M19.97 43.86 C31.67 30.4, 43.36 16.95, 58.02 0.09 M25.61 43.46 C33.68 34.18, 41.75 24.9, 63.01 0.45 M25.61 43.46 C38.97 28.1, 52.33 12.73, 63.01 0.45 M30.6 43.82 C40.95 31.92, 51.29 20.02, 68.65 0.05 M30.6 43.82 C44.55 27.78, 58.5 11.73, 68.65 0.05 M36.24 43.43 C43.98 34.52, 51.73 25.62, 73.64 0.41 M36.24 43.43 C48.89 28.88, 61.54 14.32, 73.64 0.41 M41.23 43.79 C53.9 29.21, 66.58 14.63, 78.62 0.77 M41.23 43.79 C52.16 31.21, 63.1 18.63, 78.62 0.77 M46.87 43.4 C58.59 29.91, 70.31 16.43, 84.27 0.38 M46.87 43.4 C56.25 32.6, 65.64 21.81, 84.27 0.38 M51.86 43.76 C65.68 27.85, 79.5 11.95, 89.25 0.74 M51.86 43.76 C63.9 29.9, 75.95 16.04, 89.25 0.74 M57.5 43.36 C68.94 30.2, 80.37 17.05, 94.9 0.34 M57.5 43.36 C68.15 31.11, 78.8 18.86, 94.9 0.34 M62.49 43.72 C75.39 28.88, 88.29 14.04, 99.88 0.7 M62.49 43.72 C72.69 31.99, 82.89 20.26, 99.88 0.7 M68.13 43.33 C79.36 30.4, 90.6 17.48, 105.53 0.31 M68.13 43.33 C81.56 27.87, 95 12.42, 105.53 0.31 M73.12 43.69 C81.83 33.67, 90.53 23.66, 109.2 2.18 M73.12 43.69 C81.82 33.68, 90.52 23.67, 109.2 2.18 M78.76 43.29 C87.41 33.34, 96.06 23.39, 112.22 4.8 M78.76 43.29 C86.24 34.69, 93.71 26.09, 112.22 4.8 M83.75 43.65 C93.71 32.19, 103.68 20.73, 113.93 8.94 M83.75 43.65 C92.91 33.11, 102.08 22.57, 113.93 8.94 M89.39 43.26 C96.55 35.02, 103.71 26.79, 114.32 14.58 M89.39 43.26 C98.27 33.04, 107.15 22.83, 114.32 14.58 M94.38 43.62 C100.04 37.1, 105.71 30.58, 114.72 20.22 M94.38 43.62 C98.78 38.55, 103.18 33.49, 114.72 20.22 M99.37 43.98 C104.47 38.11, 109.57 32.24, 114.46 26.62 M99.37 43.98 C103.38 39.36, 107.39 34.75, 114.46 26.62 M105.01 43.58 C107.29 40.96, 109.58 38.33, 114.19 33.02 M105.01 43.58 C107.91 40.25, 110.8 36.92, 114.19 33.02" stroke="#ffc9c9" stroke-width="0.5" fill="none"></path><path d="M10.9 0 C39.92 0, 68.93 0, 103.14 0 M10.9 0 C33.73 0, 56.55 0, 103.14 0 M103.14 0 C110.41 0, 114.04 3.63, 114.04 10.9 M103.14 0 C110.41 0, 114.04 3.63, 114.04 10.9 M114.04 10.9 C114.04 19.19, 114.04 27.47, 114.04 32.7 M114.04 10.9 C114.04 17.51, 114.04 24.12, 114.04 32.7 M114.04 32.7 C114.04 39.97, 110.41 43.6, 103.14 43.6 M114.04 32.7 C114.04 39.97, 110.41 43.6, 103.14 43.6 M103.14 43.6 C75.4 43.6, 47.66 43.6, 10.9 43.6 M103.14 43.6 C68.32 43.6, 33.51 43.6, 10.9 43.6 M10.9 43.6 C3.63 43.6, 0 39.97, 0 32.7 M10.9 43.6 C3.63 43.6, 0 39.97, 0 32.7 M0 32.7 C0 27.53, 0 22.36, 0 10.9 M0 32.7 C0 24.22, 0 15.74, 0 10.9 M0 10.9 C0 3.63, 3.63 0, 10.9 0 M0 10.9 C0 3.63, 3.63 0, 10.9 0" stroke="#e03131" stroke-width="1" fill="none"></path></g><g stroke-linecap="round"><g transform="translate(164.32267793923984 113.1316962149541) rotate(0 21.056201330922704 34.40664632923685)"><path d="M0 0 C5.89 3.83, 28.33 11.53, 35.35 23 C42.37 34.47, 40.99 61.18, 42.11 68.81 M0 0 C5.89 3.83, 28.33 11.53, 35.35 23 C42.37 34.47, 40.99 61.18, 42.11 68.81" stroke="#1e1e1e" stroke-width="2" fill="none"></path></g><g transform="translate(164.32267793923984 113.1316962149541) rotate(0 21.056201330922704 34.40664632923685)"><path d="M32.97 47.54 C35.15 52.6, 37.32 57.67, 42.11 68.81 M32.97 47.54 C35.19 52.72, 37.42 57.9, 42.11 68.81" stroke="#1e1e1e" stroke-width="2" fill="none"></path></g><g transform="translate(164.32267793923984 113.1316962149541) rotate(0 21.056201330922704 34.40664632923685)"><path d="M48.78 46.64 C47.19 51.92, 45.61 57.2, 42.11 68.81 M48.78 46.64 C47.16 52.04, 45.54 57.44, 42.11 68.81" stroke="#1e1e1e" stroke-width="2" fill="none"></path></g></g><mask></mask><g transform="translate(187.4397343249684 412.4219797002317) rotate(0 41.015625 16.799999999999997)"><text x="0" y="0" font-family="Cascadia, Segoe UI Emoji" font-size="28px" fill="#1e1e1e" text-anchor="start" style="white-space: pre;" direction="ltr" dominant-baseline="text-before-edge">Stack</text></g><g transform="translate(357.6447025216985 196.79796572142376) rotate(0 24.609375 16.799999999999997)"><text x="0" y="0" font-family="Cascadia, Segoe UI Emoji" font-size="28px" fill="#1e1e1e" text-anchor="start" style="white-space: pre;" direction="ltr" dominant-baseline="text-before-edge">Top</text></g><g stroke-linecap="round"><g transform="translate(298.7013186594322 215.85404270451392) rotate(0 29.361536463405173 -0.8015031253864677)"><path d="M-0.83 -1.02 C9 -1.3, 48.97 -1.25, 58.94 -1.39" stroke="#1e1e1e" stroke-width="2.5" fill="none" stroke-dasharray="1.5 8"></path></g></g><mask></mask><g transform="translate(56.58774354932939 41.81645304118456) rotate(0 32.8125 16.799999999999997)"><text x="0" y="0" font-family="Cascadia, Segoe UI Emoji" font-size="28px" fill="#1e1e1e" text-anchor="start" style="white-space: pre;" direction="ltr" dominant-baseline="text-before-edge">Push</text></g><g transform="translate(344.3593185493319 41.81645304118456) rotate(0 24.609375 16.799999999999997)"><text x="0" y="0" font-family="Cascadia, Segoe UI Emoji" font-size="28px" fill="#1e1e1e" text-anchor="start" style="white-space: pre;" direction="ltr" dominant-baseline="text-before-edge">Pop</text></g><g stroke-linecap="round"><g transform="translate(257.01868181896407 181.69522587733587) rotate(0 20.42406355434332 -31.821996587535637)"><path d="M0 0 C1.32 -7.82, 1.12 -36.34, 7.93 -46.94 C14.73 -57.55, 35.36 -60.86, 40.85 -63.64 M0 0 C1.32 -7.82, 1.12 -36.34, 7.93 -46.94 C14.73 -57.55, 35.36 -60.86, 40.85 -63.64" stroke="#1e1e1e" stroke-width="2" fill="none"></path></g><g transform="translate(257.01868181896407 181.69522587733587) rotate(0 20.42406355434332 -31.821996587535637)"><path d="M26.49 -52.04 C31.96 -56.46, 37.42 -60.88, 40.85 -63.64 M26.49 -52.04 C30.28 -55.1, 34.06 -58.16, 40.85 -63.64" stroke="#1e1e1e" stroke-width="2" fill="none"></path></g><g transform="translate(257.01868181896407 181.69522587733587) rotate(0 20.42406355434332 -31.821996587535637)"><path d="M22.39 -63.98 C29.42 -63.85, 36.45 -63.73, 40.85 -63.64 M22.39 -63.98 C27.26 -63.89, 32.13 -63.8, 40.85 -63.64" stroke="#1e1e1e" stroke-width="2" fill="none"></path></g></g><mask></mask><g stroke-linecap="round"><g stroke-opacity="0.8" fill-opacity="0.8" transform="translate(441.0967244845697 54.09755115992033) rotate(0 -0.686934076072248 181.00990675982155)"><path d="M0 0 C-0.23 60.34, -1.14 301.68, -1.37 362.02" stroke="#1e1e1e" stroke-width="2.5" fill="none" stroke-dasharray="8 10"></path></g></g><mask></mask><g transform="translate(464.45284993901623 58.6164537218649) rotate(0 73.828125 16.799999999999997)"><text x="0" y="0" font-family="Cascadia, Segoe UI Emoji" font-size="28px" fill="#1e1e1e" text-anchor="start" style="white-space: pre;" direction="ltr" dominant-baseline="text-before-edge">Functions</text></g><g transform="translate(464.45284993901714 124.34404072186481) rotate(0 65.625 16.799999999999997)"><text x="0" y="0" font-family="Cascadia, Segoe UI Emoji" font-size="28px" fill="#1e1e1e" text-anchor="start" style="white-space: pre;" direction="ltr" dominant-baseline="text-before-edge">push()  </text></g><g transform="translate(464.45284993901623 179.99796572186483) rotate(0 41.015625 16.799999999999997)"><text x="0" y="0" font-family="Cascadia, Segoe UI Emoji" font-size="28px" fill="#1e1e1e" text-anchor="start" style="white-space: pre;" direction="ltr" dominant-baseline="text-before-edge">pop()</text></g><g transform="translate(464.45284993901714 235.65189072186485) rotate(0 41.015625 16.8)"><text x="0" y="0" font-family="Cascadia, Segoe UI Emoji" font-size="28px" fill="#1e1e1e" text-anchor="start" style="white-space: pre;" direction="ltr" dominant-baseline="text-before-edge">top()</text></g><g transform="translate(464.45284993901623 294.76100772186487) rotate(0 49.21875 16.8)"><text x="0" y="0" font-family="Cascadia, Segoe UI Emoji" font-size="28px" fill="#1e1e1e" text-anchor="start" style="white-space: pre;" direction="ltr" dominant-baseline="text-before-edge">size()</text></g><g transform="translate(464.45284993901623 353.87012472186484) rotate(0 57.421875 16.8)"><text x="0" y="0" font-family="Cascadia, Segoe UI Emoji" font-size="28px" fill="#1e1e1e" text-anchor="start" style="white-space: pre;" direction="ltr" dominant-baseline="text-before-edge">empty()</text></g><g stroke-opacity="0" fill-opacity="0" stroke-linecap="round" transform="translate(10 28.68186653661388) rotate(0 311.5700218666602 208.67005641777587)"><path d="M32 0 C200.56 0, 369.12 0, 591.14 0 M591.14 0 C612.47 0, 623.14 10.67, 623.14 32 M623.14 32 C623.14 153.76, 623.14 275.52, 623.14 385.34 M623.14 385.34 C623.14 406.67, 612.47 417.34, 591.14 417.34 M591.14 417.34 C386.81 417.34, 182.48 417.34, 32 417.34 M32 417.34 C10.67 417.34, 0 406.67, 0 385.34 M0 385.34 C0 260.69, 0 136.05, 0 32 M0 32 C0 10.67, 10.67 0, 32 0" stroke="#1e1e1e" stroke-width="2.5" fill="none" stroke-dasharray="8 10"></path></g></svg>