<svg version="1.1" xmlns="http://www.w3.org/2000/svg" viewBox="0 0 424.2314133521995 276.0866635031367" width="1272.6942400565986" height="828.2599905094102">
  <!-- svg-source:excalidraw -->
  
  <defs>
    <style class="style-fonts">
      @font-face {
        font-family: "Virgil";
        src: url("https://excalidraw.com/Virgil.woff2");
      }
      @font-face {
        font-family: "Cascadia";
        src: url("https://excalidraw.com/Cascadia.woff2");
      }
      @font-face {
        font-family: "Assistant";
        src: url("https://excalidraw.com/Assistant-Regular.woff2");
      }
    </style>
    
  </defs>
  <rect x="0" y="0" width="424.2314133521995" height="276.0866635031367" fill="#ffffff"></rect><g transform="translate(186.81291964851152 30.98094826258125) rotate(0 29.423919677734375 13.872881879096923)"><text x="0" y="0" font-family="Virgil, Segoe UI Emoji" font-size="22.196611006555095px" fill="#1e1e1e" text-anchor="start" style="white-space: pre;" direction="ltr" dominant-baseline="text-before-edge">Array</text></g><g stroke-opacity="0.7" fill-opacity="0.7" stroke-linecap="round" transform="translate(49.67836432384502 113.37123995677086) rotate(0 24.49722166250831 25.40450010353345)"><path d="M2.04 4.42 C2.04 4.42, 2.04 4.42, 2.04 4.42 M2.04 4.42 C2.04 4.42, 2.04 4.42, 2.04 4.42 M1.78 10.82 C4.19 8.92, 4.56 6.07, 7.68 4.03 M1.78 10.82 C3.19 9.33, 5.21 7.08, 7.68 4.03 M1.52 17.22 C6.65 10.32, 11.87 8.35, 14.64 2.12 M1.52 17.22 C6.91 12, 11.02 5, 14.64 2.12 M1.91 22.86 C6.51 15.64, 12.92 9.92, 19.62 2.48 M1.91 22.86 C5.81 18.46, 9.13 13, 19.62 2.48 M1.65 29.26 C5.18 22.07, 12.75 16.42, 25.27 2.09 M1.65 29.26 C8.87 20.56, 15.62 12.22, 25.27 2.09 M1.39 35.66 C7.37 26.5, 15.36 18.88, 30.25 2.45 M1.39 35.66 C8.35 26.68, 17.7 17.06, 30.25 2.45 M2.44 40.54 C10.5 33.95, 15.58 23.9, 35.9 2.05 M2.44 40.54 C9.16 31.27, 16.83 22.94, 35.9 2.05 M2.18 46.94 C16.85 30.14, 29.5 16.71, 41.54 1.66 M2.18 46.94 C13.45 34.23, 23.79 22.25, 41.54 1.66 M5.19 49.57 C17.73 31.85, 35.82 14.82, 45.87 2.77 M5.19 49.57 C21.48 31.33, 36.31 15.42, 45.87 2.77 M9.53 50.68 C19.34 38.29, 28.16 28.49, 48.23 6.15 M9.53 50.68 C16.85 41.05, 26.11 32.66, 48.23 6.15 M14.51 51.04 C26.55 35.73, 39.99 19.37, 49.28 11.04 M14.51 51.04 C21.26 42.04, 28.27 34.23, 49.28 11.04 M20.16 50.65 C29.12 38.88, 42.28 25.77, 51.65 14.42 M20.16 50.65 C27.5 40.87, 35.38 31.47, 51.65 14.42 M25.14 51.01 C34.92 40.81, 40.56 32.37, 51.39 20.82 M25.14 51.01 C33.84 40.31, 42.04 30.9, 51.39 20.82 M30.79 50.61 C34.03 43.89, 40.77 40.52, 51.78 26.46 M30.79 50.61 C38.42 42.31, 46.9 31.95, 51.78 26.46 M35.77 50.97 C43.32 44.88, 47.61 36.28, 51.52 32.86 M35.77 50.97 C40.97 44.27, 47.07 38.51, 51.52 32.86 M39.45 52.84 C43.08 49.85, 47.47 43.89, 49.29 41.52 M39.45 52.84 C42.13 49.52, 45.53 45.26, 49.29 41.52" stroke="#a5d8ff" stroke-width="0.5" fill="none"></path><path d="M12.25 0 C17.28 0.97, 21.85 1.03, 36.75 0 M12.25 0 C17.54 -0.94, 22.65 -0.46, 36.75 0 M36.75 0 C44.38 -1.3, 48.92 2.29, 48.99 12.25 M36.75 0 C45.57 1.11, 49.77 3.04, 48.99 12.25 M48.99 12.25 C50.93 21.85, 49.5 28.83, 48.99 38.56 M48.99 12.25 C48.35 21.32, 49.23 29.43, 48.99 38.56 M48.99 38.56 C48.33 46.81, 43.77 48.96, 36.75 50.81 M48.99 38.56 C49.33 47.91, 46.51 52.22, 36.75 50.81 M36.75 50.81 C26.9 50.47, 21.09 49.4, 12.25 50.81 M36.75 50.81 C27.69 51.98, 17.96 51.97, 12.25 50.81 M12.25 50.81 C5.27 51.21, 1 44.79, 0 38.56 M12.25 50.81 C5.94 51.46, -2.28 44.47, 0 38.56 M0 38.56 C-0.17 31.99, -0.33 26.68, 0 12.25 M0 38.56 C0.32 31.28, -0.19 22.22, 0 12.25 M0 12.25 C0.31 4.71, 5.79 -1.27, 12.25 0 M0 12.25 C-2.07 6.29, 4.96 -0.93, 12.25 0" stroke="#1971c2" stroke-width="1" fill="none"></path></g><g stroke-opacity="0.7" fill-opacity="0.7" stroke-linecap="round" transform="translate(118.24564254614597 113.37124065881255) rotate(0 24.49722166250831 25.40450010353345)"><path d="M2.04 4.42 C2.04 4.42, 2.04 4.42, 2.04 4.42 M2.04 4.42 C2.04 4.42, 2.04 4.42, 2.04 4.42 M0.46 12.33 C5.38 9.08, 7.78 4.18, 10.31 1.01 M0.46 12.33 C3.08 9.61, 6.07 6.61, 10.31 1.01 M0.2 18.73 C5.43 9.97, 11.8 5.45, 16.6 -0.14 M0.2 18.73 C2.97 15.17, 8.74 10.04, 16.6 -0.14 M-0.06 25.12 C7.54 18.73, 14.91 9.07, 21.59 0.22 M-0.06 25.12 C6.48 18.1, 13.49 9.85, 21.59 0.22 M0.34 30.77 C10.62 18.98, 17.84 10.16, 26.58 0.58 M0.34 30.77 C5.75 23.34, 13.78 16.22, 26.58 0.58 M0.07 37.17 C6.5 29.59, 16.17 18.95, 32.22 0.18 M0.07 37.17 C11.47 25.24, 22.25 12.32, 32.22 0.18 M1.13 42.05 C8.27 32.76, 17.6 20.56, 37.21 0.54 M1.13 42.05 C14.13 25.75, 28.03 12.2, 37.21 0.54 M2.18 46.94 C14.2 31.3, 28.06 16.28, 42.2 0.9 M2.18 46.94 C17.82 30.23, 32.08 14.09, 42.2 0.9 M5.19 49.57 C14.14 40.9, 23.46 28.03, 45.87 2.77 M5.19 49.57 C12.87 40.64, 22.76 30.61, 45.87 2.77 M9.53 50.68 C20.52 40.15, 29.82 29.04, 48.23 6.15 M9.53 50.68 C21.8 35.3, 35.89 21.93, 48.23 6.15 M14.51 51.04 C29.25 37.98, 40.02 22.13, 49.28 11.04 M14.51 51.04 C26.28 36.09, 39.2 21.95, 49.28 11.04 M20.16 50.65 C26.71 42.43, 29.77 38.15, 49.02 17.44 M20.16 50.65 C31.25 37.05, 41.96 25.7, 49.02 17.44 M25.14 51.01 C33.35 42.77, 38.59 35.05, 49.42 23.08 M25.14 51.01 C30.12 45.05, 34.71 39.2, 49.42 23.08 M30.79 50.61 C37.51 42.48, 43.35 39.66, 49.16 29.48 M30.79 50.61 C34.72 44.82, 39.1 39.7, 49.16 29.48 M35.77 50.97 C41.3 47.66, 43.31 43, 48.89 35.88 M35.77 50.97 C38.95 46.27, 43.96 40.75, 48.89 35.88 M42.07 49.82 C45.14 46.19, 47.67 45.02, 49.29 41.52 M42.07 49.82 C43.66 48.63, 44.8 46.1, 49.29 41.52" stroke="#a5d8ff" stroke-width="0.5" fill="none"></path><path d="M12.25 0 C16.18 -1.78, 21.11 -1.24, 36.75 0 M12.25 0 C19.68 0.18, 29.16 -0.37, 36.75 0 M36.75 0 C43.93 0.32, 49.66 3.1, 48.99 12.25 M36.75 0 C43.55 -1.17, 46.91 4.77, 48.99 12.25 M48.99 12.25 C48.73 18.98, 50.25 29.96, 48.99 38.56 M48.99 12.25 C48.66 18.13, 49.2 24.32, 48.99 38.56 M48.99 38.56 C47.34 45.53, 43.39 49.22, 36.75 50.81 M48.99 38.56 C49.74 47.06, 46.74 50.44, 36.75 50.81 M36.75 50.81 C30.6 50.18, 25.88 49.23, 12.25 50.81 M36.75 50.81 C28.07 50.87, 20.95 50.92, 12.25 50.81 M12.25 50.81 C3.32 49.71, -0.32 46.33, 0 38.56 M12.25 50.81 C5.67 52.56, -0.23 46.77, 0 38.56 M0 38.56 C-0.81 31.54, -0.43 24.57, 0 12.25 M0 38.56 C-0.06 32.71, -0.49 26.82, 0 12.25 M0 12.25 C-0.82 4.71, 3.42 0.92, 12.25 0 M0 12.25 C-0.15 5.33, 6.08 2.17, 12.25 0" stroke="#1971c2" stroke-width="1" fill="none"></path></g><g stroke-opacity="0.7" fill-opacity="0.7" stroke-linecap="round" transform="translate(186.81291954614517 113.37124065881278) rotate(0 24.49722166250831 25.40450010353345)"><path d="M2.04 4.42 C2.04 4.42, 2.04 4.42, 2.04 4.42 M2.04 4.42 C2.04 4.42, 2.04 4.42, 2.04 4.42 M0.46 12.33 C5.53 9.31, 6.2 5.16, 10.31 1.01 M0.46 12.33 C2.97 8.65, 6.1 5.22, 10.31 1.01 M0.2 18.73 C6.22 12.49, 8.54 5.25, 16.6 -0.14 M0.2 18.73 C5.37 11.86, 12.88 4.28, 16.6 -0.14 M-0.06 25.12 C7.49 13.97, 18 5.79, 21.59 0.22 M-0.06 25.12 C4.83 19.89, 8.67 14, 21.59 0.22 M0.34 30.77 C4.65 26.45, 11.62 20.24, 26.58 0.58 M0.34 30.77 C5.63 23.71, 12.82 17.12, 26.58 0.58 M0.07 37.17 C6.89 26.67, 16.94 19.65, 32.22 0.18 M0.07 37.17 C10.1 25.67, 22.14 13.23, 32.22 0.18 M1.13 42.05 C15.03 30.54, 26.26 15.47, 37.21 0.54 M1.13 42.05 C10.03 31.14, 21.13 20.08, 37.21 0.54 M2.18 46.94 C18.17 31.95, 30.49 14.57, 42.2 0.9 M2.18 46.94 C13.9 34.17, 25.47 21.17, 42.2 0.9 M5.19 49.57 C16.12 34.37, 26.69 22.13, 45.87 2.77 M5.19 49.57 C20.58 32.57, 33.86 16.38, 45.87 2.77 M9.53 50.68 C15.68 40.21, 24.7 31.1, 48.23 6.15 M9.53 50.68 C21.99 37.45, 32.45 23.62, 48.23 6.15 M14.51 51.04 C26.96 36.32, 41.69 22.42, 49.28 11.04 M14.51 51.04 C28.22 37.09, 40.11 20.59, 49.28 11.04 M20.16 50.65 C26.62 42.26, 34.75 36.47, 49.02 17.44 M20.16 50.65 C31.08 36.57, 42.69 25.28, 49.02 17.44 M25.14 51.01 C29.02 46.31, 34.82 36.83, 49.42 23.08 M25.14 51.01 C34.79 41.09, 41.86 30.91, 49.42 23.08 M30.79 50.61 C37.6 41.19, 42.75 37.74, 49.16 29.48 M30.79 50.61 C37.76 42.41, 43.95 34.98, 49.16 29.48 M35.77 50.97 C39.76 49.56, 41.34 45.78, 48.89 35.88 M35.77 50.97 C39.68 46.09, 45.41 40.03, 48.89 35.88 M42.07 49.82 C43.01 48.19, 46.34 45.79, 49.29 41.52 M42.07 49.82 C44.82 46.86, 46.45 43.73, 49.29 41.52" stroke="#a5d8ff" stroke-width="0.5" fill="none"></path><path d="M12.25 0 C20.3 -0.14, 24.9 -1.03, 36.75 0 M12.25 0 C21.63 -0.6, 31.5 0.79, 36.75 0 M36.75 0 C44.86 0.31, 48.52 3.83, 48.99 12.25 M36.75 0 C47.13 0.11, 47.09 4.68, 48.99 12.25 M48.99 12.25 C49.03 19.26, 50.42 22.2, 48.99 38.56 M48.99 12.25 C49.25 21.58, 48.4 33.6, 48.99 38.56 M48.99 38.56 C49.36 47.94, 43.38 50.65, 36.75 50.81 M48.99 38.56 C47.19 47.46, 44.82 52.12, 36.75 50.81 M36.75 50.81 C27.97 50.69, 19.14 48.9, 12.25 50.81 M36.75 50.81 C27.58 51.7, 17.2 51.13, 12.25 50.81 M12.25 50.81 C3.08 51.66, 1.29 44.99, 0 38.56 M12.25 50.81 C3.67 50.3, 1.1 48.93, 0 38.56 M0 38.56 C-1.99 32.91, -0.62 23.35, 0 12.25 M0 38.56 C0.14 32.15, 0.38 24.29, 0 12.25 M0 12.25 C1.95 2.45, 4.24 -0.01, 12.25 0 M0 12.25 C-2.27 5.7, 4.63 0.81, 12.25 0" stroke="#1971c2" stroke-width="1" fill="none"></path></g><g stroke-opacity="0.7" fill-opacity="0.7" stroke-linecap="round" transform="translate(255.48516854614445 113.37123965881273) rotate(0 24.49722166250831 25.404500103533422)"><path d="M2.04 4.42 C2.04 4.42, 2.04 4.42, 2.04 4.42 M2.04 4.42 C2.04 4.42, 2.04 4.42, 2.04 4.42 M0.46 12.33 C4.11 9.92, 5.7 7.27, 10.31 1.01 M0.46 12.33 C3.01 10.19, 3.85 7.67, 10.31 1.01 M0.2 18.73 C4.79 15.55, 10.56 9.25, 16.6 -0.14 M0.2 18.73 C5.22 14.13, 9.02 9.27, 16.6 -0.14 M-0.06 25.12 C5.27 18.05, 11.75 10.39, 21.59 0.22 M-0.06 25.12 C6.46 16.99, 14.39 8.03, 21.59 0.22 M0.34 30.77 C6.92 21.65, 14.57 14.55, 26.58 0.58 M0.34 30.77 C8.06 22.13, 14.58 13.26, 26.58 0.58 M0.07 37.17 C14.11 21.36, 24.26 6.77, 32.22 0.18 M0.07 37.17 C9.68 27.5, 17.56 17.09, 32.22 0.18 M1.13 42.05 C9.7 31.08, 16.8 25.59, 37.21 0.54 M1.13 42.05 C8.3 33.95, 17.26 25.33, 37.21 0.54 M2.18 46.94 C11.35 37.34, 21.68 22.75, 42.2 0.9 M2.18 46.94 C14.49 30.96, 29.06 16.3, 42.2 0.9 M5.19 49.57 C21.98 31.81, 35.56 16.46, 45.87 2.77 M5.19 49.57 C16.23 37.64, 26.13 25.43, 45.87 2.77 M9.53 50.68 C22.34 39.75, 32.57 23.97, 48.23 6.15 M9.53 50.68 C19.59 37.66, 31.46 24.9, 48.23 6.15 M14.51 51.04 C19.52 42.83, 29.38 35.63, 49.28 11.04 M14.51 51.04 C26.89 36.61, 39.33 24.03, 49.28 11.04 M20.16 50.65 C30.57 42.29, 36.05 30.49, 49.02 17.44 M20.16 50.65 C29.31 41.66, 36.57 30.17, 49.02 17.44 M25.14 51.01 C34.3 40.76, 43.46 27.76, 49.42 23.08 M25.14 51.01 C31.93 41.99, 41.2 33.74, 49.42 23.08 M30.79 50.61 C37.52 44.66, 41.94 38.38, 49.16 29.48 M30.79 50.61 C38.6 42.76, 45.87 34.56, 49.16 29.48 M35.77 50.97 C39.78 46.28, 46.47 41.9, 48.89 35.88 M35.77 50.97 C40.6 45.7, 43.43 42.5, 48.89 35.88 M42.07 49.82 C44.34 46.43, 46.17 44.9, 49.29 41.52 M42.07 49.82 C44.33 47.5, 47.42 43.82, 49.29 41.52" stroke="#a5d8ff" stroke-width="0.5" fill="none"></path><path d="M12.25 0 C20.06 -1.09, 28.72 -0.58, 36.75 0 M12.25 0 C18.09 0, 23.47 0.77, 36.75 0 M36.75 0 C46.5 0.25, 47.36 2.39, 48.99 12.25 M36.75 0 C42.69 1.11, 47.78 3.15, 48.99 12.25 M48.99 12.25 C50.03 19.98, 48.19 22.92, 48.99 38.56 M48.99 12.25 C49.33 19.99, 48.91 26.75, 48.99 38.56 M48.99 38.56 C50.61 45.27, 44.62 50.21, 36.75 50.81 M48.99 38.56 C49.76 48.82, 43.63 50.53, 36.75 50.81 M36.75 50.81 C31.35 50.43, 22.28 49.26, 12.25 50.81 M36.75 50.81 C29.59 51.36, 23.13 50.62, 12.25 50.81 M12.25 50.81 C4.77 51.18, 1.58 47.07, 0 38.56 M12.25 50.81 C5.24 52.54, -1.46 46.19, 0 38.56 M0 38.56 C-2 27.16, 1.28 20.73, 0 12.25 M0 38.56 C-0.26 29.49, -0.1 21.87, 0 12.25 M0 12.25 C1.57 5.48, 4.41 1.35, 12.25 0 M0 12.25 C-1.44 2.95, 3.18 -1.64, 12.25 0" stroke="#1971c2" stroke-width="1" fill="none"></path></g><g stroke-opacity="0.7" fill-opacity="0.7" stroke-linecap="round" transform="translate(324.15741754614373 113.37123965881273) rotate(0 24.49722166250831 25.404500103533422)"><path d="M2.04 4.42 C2.04 4.42, 2.04 4.42, 2.04 4.42 M2.04 4.42 C2.04 4.42, 2.04 4.42, 2.04 4.42 M0.46 12.33 C3.07 8.44, 6.79 6.45, 10.31 1.01 M0.46 12.33 C3.41 8.41, 7.51 4.06, 10.31 1.01 M0.2 18.73 C6.41 11.66, 14.03 3.26, 16.6 -0.14 M0.2 18.73 C4.93 14.26, 8.84 8, 16.6 -0.14 M-0.06 25.12 C4.59 19.13, 11.33 12.83, 21.59 0.22 M-0.06 25.12 C8.8 15.87, 16.33 6.51, 21.59 0.22 M0.34 30.77 C12.36 17.56, 19.57 5.67, 26.58 0.58 M0.34 30.77 C8.51 21.92, 17.3 11.31, 26.58 0.58 M0.07 37.17 C7.65 24.44, 19.03 16.61, 32.22 0.18 M0.07 37.17 C9.65 26.68, 19.07 14.2, 32.22 0.18 M1.13 42.05 C7.28 35.74, 16.49 25.69, 37.21 0.54 M1.13 42.05 C11.76 29.62, 23.93 15.79, 37.21 0.54 M2.18 46.94 C15.82 32.86, 27.98 15.56, 42.2 0.9 M2.18 46.94 C11.5 37.41, 20.08 27.57, 42.2 0.9 M5.19 49.57 C11.94 41, 21.37 31.62, 45.87 2.77 M5.19 49.57 C16.95 36.74, 26.81 25.56, 45.87 2.77 M9.53 50.68 C21.61 36.54, 31.21 25.24, 48.23 6.15 M9.53 50.68 C21.05 38.26, 33.6 24.54, 48.23 6.15 M14.51 51.04 C27.06 38.71, 37.15 25.99, 49.28 11.04 M14.51 51.04 C24.85 40.33, 32.66 29.95, 49.28 11.04 M20.16 50.65 C29.29 39.71, 40.23 28.34, 49.02 17.44 M20.16 50.65 C26.48 43.76, 32.6 37.51, 49.02 17.44 M25.14 51.01 C32.33 40.3, 41.88 29.83, 49.42 23.08 M25.14 51.01 C35.18 39.34, 43.27 30.05, 49.42 23.08 M30.79 50.61 C37.88 42.25, 42.52 36.22, 49.16 29.48 M30.79 50.61 C36.48 44, 41.64 36.95, 49.16 29.48 M35.77 50.97 C41.79 46.96, 44.19 40.44, 48.89 35.88 M35.77 50.97 C38.88 47.47, 42.46 44.28, 48.89 35.88 M42.07 49.82 C44 47.26, 45.62 46.52, 49.29 41.52 M42.07 49.82 C45.06 46.3, 47.82 44.06, 49.29 41.52" stroke="#a5d8ff" stroke-width="0.5" fill="none"></path><path d="M12.25 0 C18.3 -2.09, 22.94 1.21, 36.75 0 M12.25 0 C16.75 0.59, 23.31 0.55, 36.75 0 M36.75 0 C43.81 -1.17, 50.44 3.19, 48.99 12.25 M36.75 0 C47.18 -0.43, 47.45 4.74, 48.99 12.25 M48.99 12.25 C47.41 21.63, 48.35 29.78, 48.99 38.56 M48.99 12.25 C48.75 19.59, 49.58 25.88, 48.99 38.56 M48.99 38.56 C49.51 48.53, 46.21 51.86, 36.75 50.81 M48.99 38.56 C49.11 47.64, 44.44 50.36, 36.75 50.81 M36.75 50.81 C29.3 49.41, 19.03 52.25, 12.25 50.81 M36.75 50.81 C30.07 50.84, 23.28 51.13, 12.25 50.81 M12.25 50.81 C4.33 48.91, -0.06 47.64, 0 38.56 M12.25 50.81 C5.06 51.9, 1.01 47.17, 0 38.56 M0 38.56 C1.83 29.55, 1.31 18.97, 0 12.25 M0 38.56 C-0.23 28.29, -0.08 18.22, 0 12.25 M0 12.25 C1.21 5.96, 2.62 -1.33, 12.25 0 M0 12.25 C1.94 3.64, 2.43 -0.26, 12.25 0" stroke="#1971c2" stroke-width="1" fill="none"></path></g><g transform="translate(62.9855147403141 74.65960097373284) rotate(0 9.631996154785156 17.5)"><text x="0" y="0" font-family="Virgil, Segoe UI Emoji" font-size="28px" fill="#1e1e1e" text-anchor="start" style="white-space: pre;" direction="ltr" dominant-baseline="text-before-edge">0</text></g><g transform="translate(131.44782096261497 74.65960167577458) rotate(0 3.7939987182617188 17.5)"><text x="0" y="0" font-family="Virgil, Segoe UI Emoji" font-size="28px" fill="#1e1e1e" text-anchor="start" style="white-space: pre;" direction="ltr" dominant-baseline="text-before-edge">1</text></g><g transform="translate(200.12006996261425 74.65960067577464) rotate(0 9.967994689941406 17.5)"><text x="0" y="0" font-family="Virgil, Segoe UI Emoji" font-size="28px" fill="#1e1e1e" text-anchor="start" style="white-space: pre;" direction="ltr" dominant-baseline="text-before-edge">2</text></g><g transform="translate(268.79231896261354 74.6596006757747) rotate(0 9.53399658203125 17.5)"><text x="0" y="0" font-family="Virgil, Segoe UI Emoji" font-size="28px" fill="#1e1e1e" text-anchor="start" style="white-space: pre;" direction="ltr" dominant-baseline="text-before-edge">3</text></g><g transform="translate(337.4645679626128 74.6596006757747) rotate(0 8.959999084472656 17.5)"><text x="0" y="0" font-family="Virgil, Segoe UI Emoji" font-size="28px" fill="#1e1e1e" text-anchor="start" style="white-space: pre;" direction="ltr" dominant-baseline="text-before-edge">4</text></g><g stroke-linecap="round"><g transform="translate(49.67836438254017 193.55116649170395) rotate(0 163.40058967929508 1.0500104207860659)"><path d="M-0.4 -1.13 C54.19 -1.13, 273.42 0.73, 327.82 1.09 M1.6 0.89 C56.09 1.53, 272.92 1.95, 327.4 2.09" stroke="#1e1e1e" stroke-width="1" fill="none"></path></g></g><mask></mask><g stroke-linecap="round"><g stroke-opacity="0.8" fill-opacity="0.8" transform="translate(49.28197839715813 173.4398066506534) rotate(0 -0.24977270182353095 18.982653878293036)"><path d="M0.05 0.13 C0 6.45, -0.55 31.31, -0.55 37.57 M-0.59 -0.28 C-0.69 6.13, -1.11 31.66, -1.01 38.07" stroke="#1e1e1e" stroke-width="1" fill="none"></path></g></g><mask></mask><g stroke-linecap="round"><g stroke-opacity="0.8" fill-opacity="0.8" transform="translate(377.99388939715755 175.05145765065333) rotate(0 0.36645195594246616 18.520473631236428)"><path d="M0.08 0.15 C0.12 6.34, 0.54 30.46, 0.57 36.62 M-0.54 -0.25 C-0.61 6.05, -0.26 30.78, 0.05 37.1" stroke="#1e1e1e" stroke-width="1" fill="none"></path></g></g><mask></mask><g transform="translate(159.07713803148545 204.89948284973354) rotate(0 50.674928735767026 12.882590681483748)"><text x="0" y="0" font-family="Virgil, Segoe UI Emoji" font-size="20.61214509037398px" fill="#1e1e1e" text-anchor="start" style="white-space: pre;" direction="ltr" dominant-baseline="text-before-edge">Fixed Size</text></g><g stroke-opacity="0" fill-opacity="0" stroke-linecap="round" transform="translate(10 10) rotate(0 202.11570667609976 128.04333175156836)"><path d="M32 0 C163.67 -1.99, 292.88 -3.14, 372.23 0 M32 0 C127.08 -1.68, 221.88 -1.49, 372.23 0 M372.23 0 C392.64 -1.6, 402.25 9.05, 404.23 32 M372.23 0 C392.35 -0.06, 402.28 8.52, 404.23 32 M404.23 32 C402.42 79.09, 400.9 122.19, 404.23 224.09 M404.23 32 C406 109.42, 405.2 185.12, 404.23 224.09 M404.23 224.09 C403.73 244.47, 393.26 255.69, 372.23 256.09 M404.23 224.09 C405.38 244.6, 395.39 254.1, 372.23 256.09 M372.23 256.09 C302.41 253.51, 231.82 253.79, 32 256.09 M372.23 256.09 C237.16 256.67, 102.11 256.9, 32 256.09 M32 256.09 C9.83 255.37, -0.03 243.86, 0 224.09 M32 256.09 C12.88 257.21, -0.36 247.08, 0 224.09 M0 224.09 C-1.16 179.24, -0.37 135.91, 0 32 M0 224.09 C-1.13 163.49, 0.4 101.9, 0 32 M0 32 C-0.93 11.38, 11.84 -0.93, 32 0 M0 32 C-0.46 12.4, 11 -2.03, 32 0" stroke="#1971c2" stroke-width="1" fill="none"></path></g></svg>