<svg version="1.1" xmlns="http://www.w3.org/2000/svg" viewBox="0 0 541.0246606688502 243.02648893335964" width="541.0246606688502" height="243.02648893335964">
  <!-- svg-source:excalidraw -->
  
  <defs>
    <style class="style-fonts">
      @font-face {
        font-family: "Virgil";
        src: url("https://excalidraw.com/Virgil.woff2");
      }
      @font-face {
        font-family: "Cascadia";
        src: url("https://excalidraw.com/Cascadia.woff2");
      }
      @font-face {
        font-family: "Assistant";
        src: url("https://excalidraw.com/Assistant-Regular.woff2");
      }
    </style>
    
  </defs>
  <rect x="0" y="0" width="541.0246606688502" height="243.02648893335964" fill="#ffffff"></rect><g stroke-linecap="round" transform="translate(102.24695412832261 41.15337211425947) rotate(359.8657848032177 14.616706948154956 15.456311739028848)"><path d="M15.37 -0.06 C18.33 -0.25, 22.43 1.4, 24.66 3.56 C26.89 5.72, 28.28 9.54, 28.76 12.9 C29.23 16.26, 29.09 20.84, 27.53 23.71 C25.97 26.58, 22.5 29.12, 19.39 30.12 C16.28 31.12, 11.85 30.88, 8.87 29.69 C5.89 28.5, 2.88 25.9, 1.51 23 C0.14 20.1, 0 15.6, 0.64 12.29 C1.29 8.98, 2.83 5.21, 5.38 3.15 C7.93 1.09, 14.17 0.41, 15.96 -0.05 C17.75 -0.51, 16.21 0.1, 16.12 0.39 M18.18 -0.22 C21.07 0.36, 23.71 3.49, 25.65 6.12 C27.59 8.74, 29.76 12.27, 29.8 15.54 C29.85 18.8, 28.04 23.18, 25.92 25.71 C23.8 28.23, 20.12 30.11, 17.07 30.69 C14.01 31.27, 10.31 30.9, 7.58 29.19 C4.85 27.48, 1.76 23.67, 0.69 20.44 C-0.37 17.21, 0.04 12.91, 1.2 9.79 C2.36 6.67, 4.98 3.26, 7.65 1.74 C10.32 0.21, 15.47 0.92, 17.23 0.65 C19 0.38, 18.21 -0.19, 18.24 0.1" stroke="#000000" stroke-width="2" fill="none"></path></g><g stroke-linecap="round" transform="translate(47.35662319327275 113.37370466993201) rotate(359.8657848032177 14.616706948154956 14.121225356692065)"><path d="M16.36 -0.29 C19.23 -0.23, 22.51 1.68, 24.73 3.92 C26.95 6.16, 29.34 10.1, 29.67 13.16 C29.99 16.23, 28.64 19.91, 26.68 22.33 C24.73 24.74, 21.02 26.88, 17.92 27.67 C14.81 28.46, 10.78 28.36, 8.07 27.07 C5.36 25.77, 2.93 22.74, 1.65 19.92 C0.37 17.1, -0.46 13.07, 0.36 10.15 C1.18 7.23, 3.87 4.05, 6.59 2.38 C9.31 0.71, 14.86 0.42, 16.68 0.15 C18.5 -0.13, 17.44 0.49, 17.51 0.72 M11.32 0.47 C14.21 -0.25, 19.36 -0.09, 22.25 1.32 C25.14 2.74, 27.57 6.07, 28.67 8.95 C29.77 11.84, 29.8 15.64, 28.84 18.62 C27.87 21.59, 25.61 25.21, 22.86 26.82 C20.11 28.42, 15.52 28.8, 12.34 28.25 C9.16 27.7, 5.83 25.83, 3.76 23.51 C1.69 21.19, 0.08 17.31, -0.08 14.32 C-0.23 11.33, 0.75 8.01, 2.84 5.58 C4.93 3.15, 10.95 0.48, 12.46 -0.27 C13.98 -1.01, 11.94 0.67, 11.92 1.1" stroke="#000000" stroke-width="2" fill="none"></path></g><g stroke-linecap="round" transform="translate(19.95375983623444 183.55599219173564) rotate(359.8657848032177 14.616706948154956 14.121225356692065)"><path d="M13.83 -0.31 C16.82 -0.5, 21.58 1.23, 24.13 3.16 C26.67 5.08, 28.6 8.3, 29.1 11.22 C29.61 14.14, 28.71 17.96, 27.16 20.66 C25.61 23.37, 22.6 26.3, 19.81 27.44 C17.01 28.58, 13.36 28.51, 10.4 27.5 C7.43 26.49, 3.69 23.96, 2.02 21.38 C0.35 18.8, -0.05 14.98, 0.39 12.01 C0.82 9.04, 2.22 5.55, 4.63 3.57 C7.04 1.58, 12.88 0.66, 14.83 0.11 C16.79 -0.43, 16.39 0.01, 16.35 0.29 M12.51 -0.19 C15.55 -0.94, 19.52 0.2, 22.22 1.75 C24.91 3.3, 27.54 6.14, 28.69 9.09 C29.83 12.04, 30.2 16.53, 29.09 19.43 C27.98 22.32, 24.81 25, 22.03 26.45 C19.24 27.91, 15.47 28.69, 12.37 28.15 C9.28 27.61, 5.57 25.48, 3.44 23.22 C1.31 20.96, -0.49 17.68, -0.4 14.58 C-0.3 11.48, 1.93 6.92, 4 4.62 C6.06 2.32, 10.63 1.37, 12 0.79 C13.38 0.21, 12.13 1.06, 12.25 1.15" stroke="#2f9e44" stroke-width="2" fill="none"></path></g><g stroke-linecap="round" transform="translate(73.01362113114055 183.65871112277097) rotate(359.8657848032177 14.616706948154956 14.121225356692065)"><path d="M12.5 0.36 C15.48 -0.28, 19.48 0.4, 22.06 1.86 C24.64 3.32, 26.98 6.24, 27.99 9.11 C29 11.99, 29.07 16.25, 28.13 19.11 C27.18 21.97, 25.01 24.83, 22.31 26.29 C19.62 27.74, 15.06 28.38, 11.96 27.86 C8.85 27.33, 5.72 25.43, 3.69 23.14 C1.66 20.86, -0.15 17.13, -0.24 14.14 C-0.33 11.15, 0.92 7.54, 3.16 5.19 C5.4 2.84, 11.51 0.81, 13.17 0.06 C14.83 -0.69, 13.23 0.5, 13.13 0.69 M16.01 -0.04 C18.96 0.03, 22.82 1.66, 25.12 3.87 C27.43 6.08, 29.57 10.16, 29.83 13.21 C30.1 16.26, 28.56 19.73, 26.73 22.16 C24.9 24.59, 21.85 26.98, 18.84 27.78 C15.82 28.58, 11.59 28.14, 8.63 26.95 C5.68 25.77, 2.36 23.46, 1.1 20.67 C-0.15 17.88, 0.27 13.11, 1.1 10.22 C1.92 7.32, 3.6 4.87, 6.06 3.28 C8.52 1.68, 14.18 1.21, 15.86 0.66 C17.54 0.11, 16.25 -0.13, 16.12 -0.02" stroke="#2f9e44" stroke-width="2" fill="none"></path></g><g stroke-linecap="round"><g transform="translate(55.23001447479669 141.08909540216717) rotate(0 -8.057537482703651 21.084502665684113)"><path d="M0.91 0.25 C-1.66 7.55, -12.19 35.93, -15.17 42.97 M-0.07 -0.67 C-2.75 6.37, -13.21 33.83, -15.62 41.26" stroke="#000000" stroke-width="1" fill="none"></path></g></g><mask></mask><g stroke-linecap="round"><g transform="translate(68.66931933653427 141.1546679210773) rotate(0 8.215907347862526 20.852018692267194)"><path d="M-0.87 0.29 C1.82 7.05, 14.13 34.36, 17.1 41.34 M0.87 -0.6 C3.39 6.26, 13.91 35.9, 16.5 42.69" stroke="#000000" stroke-width="1" fill="none"></path></g></g><mask></mask><g stroke-linecap="round" transform="translate(154.50246704278152 113.37370466993201) rotate(359.8657848032177 14.616706948154956 14.121225356692065)"><path d="M14.31 0.21 C17.4 0.03, 21.89 1.35, 24.31 3.23 C26.73 5.1, 28.29 8.46, 28.83 11.43 C29.37 14.4, 29.11 18.38, 27.54 21.04 C25.98 23.69, 22.45 26.26, 19.43 27.34 C16.42 28.42, 12.29 28.54, 9.45 27.52 C6.61 26.49, 4.01 23.75, 2.4 21.18 C0.8 18.61, -0.58 15.12, -0.18 12.1 C0.22 9.07, 2.2 4.98, 4.8 3.03 C7.41 1.08, 13.62 0.8, 15.44 0.4 C17.27 0, 15.79 0.42, 15.75 0.63 M14.27 0.18 C17.15 -0.15, 21.48 1.35, 23.91 3.2 C26.35 5.05, 28.35 8.27, 28.87 11.28 C29.39 14.28, 28.42 18.65, 27.04 21.23 C25.65 23.81, 23.43 25.61, 20.59 26.75 C17.75 27.88, 13.03 28.83, 9.99 28.05 C6.96 27.27, 3.94 24.81, 2.39 22.08 C0.85 19.34, 0.36 14.76, 0.72 11.64 C1.09 8.53, 2.27 5.37, 4.57 3.41 C6.88 1.45, 12.9 0.44, 14.55 -0.12 C16.19 -0.68, 14.57 -0.2, 14.43 0.05" stroke="#000000" stroke-width="2" fill="none"></path></g><g stroke-linecap="round" transform="translate(124.94042161329253 183.62447138089544) rotate(359.8657848032177 14.616706948154956 14.121225356692065)"><path d="M14.01 -0.01 C16.98 -0.44, 20.59 0.78, 23.09 2.56 C25.6 4.34, 28.32 7.72, 29.05 10.68 C29.78 13.64, 28.94 17.6, 27.48 20.35 C26.01 23.09, 23.02 25.95, 20.27 27.16 C17.51 28.37, 13.96 28.43, 10.93 27.62 C7.9 26.82, 3.94 24.89, 2.07 22.33 C0.2 19.77, -0.71 15.27, -0.28 12.26 C0.15 9.26, 2.31 6.29, 4.65 4.3 C6.99 2.3, 12.13 0.92, 13.74 0.29 C15.35 -0.33, 14.29 0.28, 14.34 0.54 M17.73 0.39 C20.67 0.75, 24.16 2.87, 26.01 5.28 C27.86 7.7, 28.8 11.91, 28.83 14.86 C28.86 17.81, 28.21 20.68, 26.2 22.98 C24.2 25.28, 19.97 28.02, 16.8 28.65 C13.63 29.28, 9.79 28.5, 7.2 26.76 C4.62 25.03, 2.39 21.22, 1.29 18.22 C0.19 15.23, -0.48 11.58, 0.63 8.8 C1.74 6.03, 5.09 3.02, 7.94 1.56 C10.78 0.1, 16.21 0.23, 17.7 0.06 C19.19 -0.11, 16.92 0.2, 16.88 0.53" stroke="#2f9e44" stroke-width="2" fill="none"></path></g><g stroke-linecap="round" transform="translate(183.7358006721065 182.60700427555707) rotate(359.8657848032177 14.616706948154956 14.121225356692065)"><path d="M15.95 -0.11 C18.91 0, 23.18 2, 25.35 4.2 C27.52 6.4, 28.81 10.03, 28.95 13.09 C29.1 16.14, 27.96 20.07, 26.23 22.51 C24.5 24.96, 21.65 26.99, 18.59 27.77 C15.52 28.55, 10.79 28.56, 7.84 27.19 C4.89 25.83, 2.09 22.33, 0.9 19.57 C-0.29 16.81, -0.18 13.45, 0.69 10.63 C1.57 7.82, 3.51 4.42, 6.14 2.71 C8.77 1, 14.69 0.68, 16.47 0.38 C18.25 0.08, 16.77 0.72, 16.82 0.91 M15.4 -0.06 C18.29 -0.03, 21.86 2.17, 24.26 4.18 C26.66 6.18, 29.37 8.92, 29.81 11.96 C30.25 15.01, 28.69 19.73, 26.89 22.45 C25.1 25.17, 21.99 27.56, 19.06 28.28 C16.14 29, 12.35 28.07, 9.37 26.75 C6.38 25.43, 2.59 23.02, 1.14 20.35 C-0.31 17.68, -0.17 13.69, 0.65 10.72 C1.46 7.76, 3.66 4.34, 6.02 2.55 C8.39 0.76, 13.23 0.3, 14.84 -0.01 C16.44 -0.32, 15.6 0.36, 15.65 0.7" stroke="#2f9e44" stroke-width="2" fill="none"></path></g><g stroke-linecap="round"><g transform="translate(161.97435816595544 140.89551090605505) rotate(0 -8.689294268358026 21.2540252969153)"><path d="M0.52 0.49 C-2.64 7.79, -15.3 36.5, -18.28 43.42 M-0.67 -0.3 C-3.51 6.7, -13.13 34.55, -16.04 41.78" stroke="#000000" stroke-width="1" fill="none"></path></g></g><mask></mask><g stroke-linecap="round"><g transform="translate(176.33557448069746 140.50394564669625) rotate(0 9.467820213264076 20.802366502515156)"><path d="M-0.58 0.59 C2.63 7.49, 16.07 33.88, 19.32 40.89 M1.32 -0.15 C4.4 6.94, 15.77 35.23, 18.57 42.05" stroke="#000000" stroke-width="1" fill="none"></path></g></g><mask></mask><g stroke-linecap="round"><g transform="translate(105.77499927500185 66.33563565449282) rotate(0 -17.986122789095134 23.8700838162398)"><path d="M0 0 C-6 7.96, -29.98 39.78, -35.97 47.74 M0 0 C-6 7.96, -29.98 39.78, -35.97 47.74" stroke="#000000" stroke-width="1" fill="none"></path></g></g><mask></mask><g stroke-linecap="round"><g transform="translate(126.48095667173811 68.70987818517472) rotate(0 16.486958337912142 23.004430901853)"><path d="M0 0 C5.5 7.67, 27.48 38.34, 32.97 46.01 M0 0 C5.5 7.67, 27.48 38.34, 32.97 46.01" stroke="#000000" stroke-width="1" fill="none"></path></g></g><mask></mask><g transform="translate(183.73584060758276 40.97652472060122) rotate(0 23.4375 12)"><text x="0" y="0" font-family="Cascadia, Segoe UI Emoji" font-size="20px" fill="#e8590c" text-anchor="start" style="white-space: pre;" direction="ltr" dominant-baseline="text-before-edge">Root</text></g><g transform="translate(253.2517366075831 183.5560307206012) rotate(0 35.15625 12)"><text x="0" y="0" font-family="Cascadia, Segoe UI Emoji" font-size="20px" fill="#1971c2" text-anchor="start" style="white-space: pre;" direction="ltr" dominant-baseline="text-before-edge">Leaves</text></g><g stroke-linecap="round"><g transform="translate(140.34383037336715 52.97652450738883) rotate(0 17.51066531842241 0.08844540558283143)"><path d="M0 0 C7.32 0.04, 14.63 0.07, 35.02 0.18" stroke="#1e1e1e" stroke-width="1.5" fill="none" stroke-dasharray="1.5 7"></path></g></g><mask></mask><g stroke-linecap="round"><g transform="translate(222.38146410085687 196.76246869192858) rotate(0 14.163850324314922 0)"><path d="M0 0 C6.05 0, 12.1 0, 28.33 0" stroke="#1e1e1e" stroke-width="1.5" fill="none" stroke-dasharray="1.5 7"></path></g></g><mask></mask><g stroke-opacity="0" fill-opacity="0" stroke-linecap="round" transform="translate(10 10) rotate(0 260.5123303344251 111.51324446667982)"><path d="M0 0 C151.78 1.79, 303.15 1.63, 521.02 0 M0 0 C150.26 1.64, 299.65 1.74, 521.02 0 M521.02 0 C522.13 89.3, 523.4 176.46, 521.02 223.03 M521.02 0 C520.75 50.66, 520.06 100.3, 521.02 223.03 M521.02 223.03 C318.56 224.3, 116.84 224.3, 0 223.03 M521.02 223.03 C397.36 224.07, 273.52 224.21, 0 223.03 M0 223.03 C-1.03 149.12, -0.04 77.16, 0 0 M0 223.03 C-1.19 133.81, -0.16 45.15, 0 0" stroke="#1e1e1e" stroke-width="1" fill="none"></path></g><g stroke-linecap="round"><g transform="translate(327.81748366852935 23.270758292987807) rotate(0 1.3644581895719057 98.24248610804827)"><path d="M0 0 C0.99 71.6, 1.99 143.21, 2.73 196.48" stroke="#1e1e1e" stroke-width="1.5" fill="none" stroke-dasharray="8 9"></path></g></g><mask></mask><g transform="translate(372.39044425629845 21.776525342334025) rotate(0 51.5625 9.600000000000023)"><text x="0" y="0" font-family="Cascadia, Segoe UI Emoji" font-size="16px" fill="#1971c2" text-anchor="start" style="white-space: pre;" direction="ltr" dominant-baseline="text-before-edge">Operations:</text></g><g transform="translate(351.7468431592788 56.575443974527616) rotate(0 79.6875 9.599999999999994)"><text x="0" y="0" font-family="Cascadia, Segoe UI Emoji" font-size="16px" fill="#1e1e1e" text-anchor="start" style="white-space: pre;" direction="ltr" dominant-baseline="text-before-edge">Insert an Element</text></g><g transform="translate(351.74684315927834 82.1143089745276) rotate(0 79.6875 9.599999999999994)"><text x="0" y="0" font-family="Cascadia, Segoe UI Emoji" font-size="16px" fill="#1e1e1e" text-anchor="start" style="white-space: pre;" direction="ltr" dominant-baseline="text-before-edge">Remove an Element</text></g><g transform="translate(351.74684315927834 108.32916997452759) rotate(0 79.6875 9.599999999999994)"><text x="0" y="0" font-family="Cascadia, Segoe UI Emoji" font-size="16px" fill="#1e1e1e" text-anchor="start" style="white-space: pre;" direction="ltr" dominant-baseline="text-before-edge">Search an Element</text></g><g transform="translate(351.7468431592779 138.56617097452755) rotate(0 79.6875 9.599999999999994)"><text x="0" y="0" font-family="Cascadia, Segoe UI Emoji" font-size="16px" fill="#1e1e1e" text-anchor="start" style="white-space: pre;" direction="ltr" dominant-baseline="text-before-edge">Delete an Element</text></g><g transform="translate(347.5178431592781 165.1163089745275) rotate(0 89.0625 9.599999999999994)"><text x="0" y="0" font-family="Cascadia, Segoe UI Emoji" font-size="16px" fill="#1e1e1e" text-anchor="start" style="white-space: pre;" direction="ltr" dominant-baseline="text-before-edge">Traverse an Element</text></g></svg>