<svg xmlns="http://www.w3.org/2000/svg" width="1754.685" height="796.658" version="1.1" viewBox="0 0 584.895 265.553"><defs><style class="style-fonts">@font-face{font-family:&quot;Virgil&quot;;src:url(https://excalidraw.com/Virgil.woff2)}@font-face{font-family:&quot;Cascadia&quot;;src:url(https://excalidraw.com/Cascadia.woff2)}@font-face{font-family:&quot;Assistant&quot;;src:url(https://excalidraw.com/Assistant-Regular.woff2)}</style></defs><rect width="584.895" height="265.553" x="0" y="0" fill="#fff"/><g stroke-linecap="round"><path fill="none" stroke="#a5d8ff" stroke-width=".5" d="M2.08 1.81 C2.08 1.81, 2.08 1.81, 2.08 1.81 M2.08 1.81 C2.08 1.81, 2.08 1.81, 2.08 1.81 M1.16 8.96 C2.79 7.09, 4.42 5.22, 8.38 0.66 M1.16 8.96 C3.18 6.64, 5.2 4.32, 8.38 0.66 M0.9 15.36 C3.47 12.41, 6.04 9.45, 13.37 1.02 M0.9 15.36 C4.62 11.09, 8.33 6.82, 13.37 1.02 M0.64 21.76 C6.75 14.73, 12.85 7.71, 19.01 0.63 M0.64 21.76 C5.88 15.73, 11.11 9.71, 19.01 0.63 M1.04 27.4 C8.76 18.51, 16.49 9.62, 24 0.99 M1.04 27.4 C10.04 17.04, 19.04 6.69, 24 0.99 M1.43 33.04 C9.68 23.55, 17.94 14.05, 28.98 1.35 M1.43 33.04 C10.8 22.26, 20.18 11.48, 28.98 1.35 M3.79 36.42 C12.43 26.48, 21.07 16.55, 31.35 4.72 M3.79 36.42 C13.66 25.08, 23.52 13.73, 31.35 4.72 M8.78 36.78 C16.47 27.94, 24.15 19.1, 31.09 11.12 M8.78 36.78 C15.9 28.59, 23.02 20.41, 31.09 11.12 M14.42 36.39 C19.46 30.6, 24.49 24.81, 31.48 16.77 M14.42 36.39 C19.19 30.9, 23.96 25.42, 31.48 16.77 M19.41 36.75 C22.73 32.93, 26.05 29.11, 31.88 22.41 M19.41 36.75 C22.09 33.66, 24.77 30.58, 31.88 22.41 M25.05 36.35 C26.5 34.69, 27.95 33.02, 31.61 28.81 M25.05 36.35 C27.41 33.64, 29.77 30.93, 31.61 28.81" transform="translate(31.432727409383915 143.93140753693717) rotate(0 15.640164772479238 18.384065265231868)"/><path fill="none" stroke="#1971c2" stroke-width="1" d="M7.82 0 C13.38 0, 18.94 0, 23.46 0 M7.82 0 C12.15 0, 16.48 0, 23.46 0 M23.46 0 C28.67 0, 31.28 2.61, 31.28 7.82 M23.46 0 C28.67 0, 31.28 2.61, 31.28 7.82 M31.28 7.82 C31.28 12.87, 31.28 17.91, 31.28 28.95 M31.28 7.82 C31.28 15.54, 31.28 23.27, 31.28 28.95 M31.28 28.95 C31.28 34.16, 28.67 36.77, 23.46 36.77 M31.28 28.95 C31.28 34.16, 28.67 36.77, 23.46 36.77 M23.46 36.77 C17.59 36.77, 11.71 36.77, 7.82 36.77 M23.46 36.77 C18.04 36.77, 12.62 36.77, 7.82 36.77 M7.82 36.77 C2.61 36.77, 0 34.16, 0 28.95 M7.82 36.77 C2.61 36.77, 0 34.16, 0 28.95 M0 28.95 C0 24.7, 0 20.44, 0 7.82 M0 28.95 C0 22.73, 0 16.51, 0 7.82 M0 7.82 C0 2.61, 2.61 0, 7.82 0 M0 7.82 C0 2.61, 2.61 0, 7.82 0" transform="translate(31.432727409383915 143.93140753693717) rotate(0 15.640164772479238 18.384065265231868)"/></g><g><text x="9.375" y="0" fill="#1971c2" direction="ltr" dominant-baseline="text-before-edge" font-family="Cascadia, Segoe UI Emoji" font-size="16" text-anchor="middle" style="white-space:pre" transform="translate(37.6978921818627 152.71547280216907) rotate(0 9.375 9.600000000000023)">33</text></g><g stroke-linecap="round"><path fill="none" stroke="#a5d8ff" stroke-width=".5" d="M2.08 1.81 C2.08 1.81, 2.08 1.81, 2.08 1.81 M2.08 1.81 C2.08 1.81, 2.08 1.81, 2.08 1.81 M1.16 8.96 C3.63 6.13, 6.09 3.3, 8.38 0.66 M1.16 8.96 C3.05 6.8, 4.93 4.63, 8.38 0.66 M0.9 15.36 C4.7 10.99, 8.5 6.62, 13.37 1.02 M0.9 15.36 C4.98 10.67, 9.06 5.98, 13.37 1.02 M0.64 21.76 C6.92 14.53, 13.2 7.31, 19.01 0.63 M0.64 21.76 C7.56 13.8, 14.47 5.85, 19.01 0.63 M1.04 27.4 C8.25 19.1, 15.46 10.8, 24 0.99 M1.04 27.4 C6.03 21.66, 11.02 15.92, 24 0.99 M1.43 33.04 C11.85 21.06, 22.27 9.07, 28.98 1.35 M1.43 33.04 C10.91 22.13, 20.4 11.23, 28.98 1.35 M3.79 36.42 C12.68 26.2, 21.56 15.98, 31.35 4.72 M3.79 36.42 C9.32 30.07, 14.84 23.71, 31.35 4.72 M8.78 36.78 C15.6 28.93, 22.43 21.08, 31.09 11.12 M8.78 36.78 C14.15 30.6, 19.53 24.42, 31.09 11.12 M14.42 36.39 C21.16 28.64, 27.89 20.9, 31.48 16.77 M14.42 36.39 C21.15 28.65, 27.87 20.92, 31.48 16.77 M19.41 36.75 C23.15 32.45, 26.88 28.15, 31.88 22.41 M19.41 36.75 C23.46 32.09, 27.52 27.42, 31.88 22.41 M25.05 36.35 C27.12 33.98, 29.18 31.6, 31.61 28.81 M25.05 36.35 C27.01 34.11, 28.96 31.86, 31.61 28.81" transform="translate(76.9588664093817 143.93140753693717) rotate(0 15.640164772479238 18.384065265231868)"/><path fill="none" stroke="#1971c2" stroke-width="1" d="M7.82 0 C11.46 0, 15.11 0, 23.46 0 M7.82 0 C12.51 0, 17.21 0, 23.46 0 M23.46 0 C28.67 0, 31.28 2.61, 31.28 7.82 M23.46 0 C28.67 0, 31.28 2.61, 31.28 7.82 M31.28 7.82 C31.28 16.03, 31.28 24.24, 31.28 28.95 M31.28 7.82 C31.28 12.68, 31.28 17.54, 31.28 28.95 M31.28 28.95 C31.28 34.16, 28.67 36.77, 23.46 36.77 M31.28 28.95 C31.28 34.16, 28.67 36.77, 23.46 36.77 M23.46 36.77 C18.24 36.77, 13.02 36.77, 7.82 36.77 M23.46 36.77 C18.28 36.77, 13.1 36.77, 7.82 36.77 M7.82 36.77 C2.61 36.77, 0 34.16, 0 28.95 M7.82 36.77 C2.61 36.77, 0 34.16, 0 28.95 M0 28.95 C0 22.2, 0 15.45, 0 7.82 M0 28.95 C0 22.45, 0 15.96, 0 7.82 M0 7.82 C0 2.61, 2.61 0, 7.82 0 M0 7.82 C0 2.61, 2.61 0, 7.82 0" transform="translate(76.9588664093817 143.93140753693717) rotate(0 15.640164772479238 18.384065265231868)"/></g><g><text x="9.375" y="0" fill="#1971c2" direction="ltr" dominant-baseline="text-before-edge" font-family="Cascadia, Segoe UI Emoji" font-size="16" text-anchor="middle" style="white-space:pre" transform="translate(83.22403118186048 152.71547280216907) rotate(0 9.375 9.600000000000023)">21</text></g><g stroke-linecap="round"><path fill="none" stroke="#a5d8ff" stroke-width=".5" d="M2.08 1.81 C2.08 1.81, 2.08 1.81, 2.08 1.81 M2.08 1.81 C2.08 1.81, 2.08 1.81, 2.08 1.81 M1.16 8.96 C2.71 7.18, 4.27 5.39, 8.38 0.66 M1.16 8.96 C3.22 6.59, 5.28 4.22, 8.38 0.66 M0.9 15.36 C3.86 11.96, 6.81 8.56, 13.37 1.02 M0.9 15.36 C5.42 10.16, 9.95 4.96, 13.37 1.02 M0.64 21.76 C7.59 13.76, 14.55 5.76, 19.01 0.63 M0.64 21.76 C7.83 13.49, 15.02 5.22, 19.01 0.63 M1.04 27.4 C9.18 18.03, 17.33 8.66, 24 0.99 M1.04 27.4 C7.07 20.45, 13.11 13.51, 24 0.99 M1.43 33.04 C9.72 23.5, 18.02 13.96, 28.98 1.35 M1.43 33.04 C7.79 25.72, 14.16 18.41, 28.98 1.35 M3.79 36.42 C12.34 26.6, 20.88 16.77, 31.35 4.72 M3.79 36.42 C14.05 24.63, 24.3 12.83, 31.35 4.72 M8.78 36.78 C17.02 27.3, 25.26 17.82, 31.09 11.12 M8.78 36.78 C14.35 30.37, 19.93 23.96, 31.09 11.12 M14.42 36.39 C19.53 30.52, 24.63 24.64, 31.48 16.77 M14.42 36.39 C20.84 29, 27.27 21.61, 31.48 16.77 M19.41 36.75 C23.02 32.6, 26.63 28.45, 31.88 22.41 M19.41 36.75 C22.84 32.8, 26.27 28.85, 31.88 22.41 M25.05 36.35 C26.61 34.56, 28.17 32.77, 31.61 28.81 M25.05 36.35 C27.31 33.76, 29.56 31.16, 31.61 28.81" transform="translate(122.48500540938312 143.93140753693694) rotate(0 15.640164772479238 18.384065265231868)"/><path fill="none" stroke="#1971c2" stroke-width="1" d="M7.82 0 C12.64 0, 17.45 0, 23.46 0 M7.82 0 C12.29 0, 16.76 0, 23.46 0 M23.46 0 C28.67 0, 31.28 2.61, 31.28 7.82 M23.46 0 C28.67 0, 31.28 2.61, 31.28 7.82 M31.28 7.82 C31.28 15.88, 31.28 23.94, 31.28 28.95 M31.28 7.82 C31.28 15.33, 31.28 22.84, 31.28 28.95 M31.28 28.95 C31.28 34.16, 28.67 36.77, 23.46 36.77 M31.28 28.95 C31.28 34.16, 28.67 36.77, 23.46 36.77 M23.46 36.77 C18.37 36.77, 13.29 36.77, 7.82 36.77 M23.46 36.77 C18.36 36.77, 13.25 36.77, 7.82 36.77 M7.82 36.77 C2.61 36.77, 0 34.16, 0 28.95 M7.82 36.77 C2.61 36.77, 0 34.16, 0 28.95 M0 28.95 C0 22.95, 0 16.95, 0 7.82 M0 28.95 C0 22.7, 0 16.45, 0 7.82 M0 7.82 C0 2.61, 2.61 0, 7.82 0 M0 7.82 C0 2.61, 2.61 0, 7.82 0" transform="translate(122.48500540938312 143.93140753693694) rotate(0 15.640164772479238 18.384065265231868)"/></g><g><text x="9.375" y="0" fill="#1971c2" direction="ltr" dominant-baseline="text-before-edge" font-family="Cascadia, Segoe UI Emoji" font-size="16" text-anchor="middle" style="white-space:pre" transform="translate(128.7501701818619 152.71547280216885) rotate(0 9.375 9.600000000000023)">54</text></g><g stroke-linecap="round"><path fill="none" stroke="#a5d8ff" stroke-width=".5" d="M2.08 1.81 C2.08 1.81, 2.08 1.81, 2.08 1.81 M2.08 1.81 C2.08 1.81, 2.08 1.81, 2.08 1.81 M1.16 8.96 C3.75 5.99, 6.34 3.01, 8.38 0.66 M1.16 8.96 C3.8 5.92, 6.45 2.89, 8.38 0.66 M0.9 15.36 C3.65 12.2, 6.39 9.05, 13.37 1.02 M0.9 15.36 C5.76 9.77, 10.62 4.18, 13.37 1.02 M0.64 21.76 C7.1 14.33, 13.56 6.9, 19.01 0.63 M0.64 21.76 C7.13 14.29, 13.62 6.83, 19.01 0.63 M1.04 27.4 C7.28 20.21, 13.53 13.02, 24 0.99 M1.04 27.4 C7.51 19.96, 13.98 12.51, 24 0.99 M1.43 33.04 C8.2 25.25, 14.98 17.46, 28.98 1.35 M1.43 33.04 C7.96 25.53, 14.5 18.01, 28.98 1.35 M3.79 36.42 C9.83 29.47, 15.87 22.52, 31.35 4.72 M3.79 36.42 C14.26 24.38, 24.73 12.34, 31.35 4.72 M8.78 36.78 C16.79 27.57, 24.8 18.36, 31.09 11.12 M8.78 36.78 C13.95 30.83, 19.13 24.88, 31.09 11.12 M14.42 36.39 C21.06 28.75, 27.69 21.12, 31.48 16.77 M14.42 36.39 C20.21 29.74, 25.99 23.08, 31.48 16.77 M19.41 36.75 C23.5 32.04, 27.59 27.33, 31.88 22.41 M19.41 36.75 C23.57 31.97, 27.72 27.19, 31.88 22.41 M25.05 36.35 C26.55 34.63, 28.04 32.91, 31.61 28.81 M25.05 36.35 C27.65 33.37, 30.25 30.38, 31.61 28.81" transform="translate(168.44444140938413 143.93140753693694) rotate(0 15.640164772479238 18.384065265231868)"/><path fill="none" stroke="#1971c2" stroke-width="1" d="M7.82 0 C13.61 0, 19.4 0, 23.46 0 M7.82 0 C11.98 0, 16.13 0, 23.46 0 M23.46 0 C28.67 0, 31.28 2.61, 31.28 7.82 M23.46 0 C28.67 0, 31.28 2.61, 31.28 7.82 M31.28 7.82 C31.28 13.9, 31.28 19.97, 31.28 28.95 M31.28 7.82 C31.28 14.15, 31.28 20.48, 31.28 28.95 M31.28 28.95 C31.28 34.16, 28.67 36.77, 23.46 36.77 M31.28 28.95 C31.28 34.16, 28.67 36.77, 23.46 36.77 M23.46 36.77 C19.59 36.77, 15.72 36.77, 7.82 36.77 M23.46 36.77 C17.23 36.77, 11 36.77, 7.82 36.77 M7.82 36.77 C2.61 36.77, 0 34.16, 0 28.95 M7.82 36.77 C2.61 36.77, 0 34.16, 0 28.95 M0 28.95 C0 23.89, 0 18.83, 0 7.82 M0 28.95 C0 22.58, 0 16.2, 0 7.82 M0 7.82 C0 2.61, 2.61 0, 7.82 0 M0 7.82 C0 2.61, 2.61 0, 7.82 0" transform="translate(168.44444140938413 143.93140753693694) rotate(0 15.640164772479238 18.384065265231868)"/></g><g><text x="4.688" y="0" fill="#1971c2" direction="ltr" dominant-baseline="text-before-edge" font-family="Cascadia, Segoe UI Emoji" font-size="16" text-anchor="middle" style="white-space:pre" transform="translate(179.3971061818629 152.71547280216885) rotate(0 4.6875 9.600000000000023)">1</text></g><g stroke-linecap="round"><path fill="none" stroke="#a5d8ff" stroke-width=".5" d="M2.08 1.81 C2.08 1.81, 2.08 1.81, 2.08 1.81 M2.08 1.81 C2.08 1.81, 2.08 1.81, 2.08 1.81 M1.16 8.96 C4.02 5.67, 6.88 2.39, 8.38 0.66 M1.16 8.96 C3.02 6.83, 4.88 4.69, 8.38 0.66 M0.9 15.36 C3.95 11.86, 6.99 8.35, 13.37 1.02 M0.9 15.36 C5.24 10.37, 9.57 5.39, 13.37 1.02 M0.64 21.76 C6.47 15.06, 12.29 8.35, 19.01 0.63 M0.64 21.76 C5.9 15.71, 11.15 9.66, 19.01 0.63 M1.04 27.4 C7.65 19.8, 14.26 12.19, 24 0.99 M1.04 27.4 C7.51 19.95, 13.98 12.51, 24 0.99 M1.43 33.04 C9.69 23.55, 17.94 14.05, 28.98 1.35 M1.43 33.04 C8.47 24.95, 15.5 16.86, 28.98 1.35 M3.79 36.42 C12.14 26.82, 20.48 17.22, 31.35 4.72 M3.79 36.42 C12.08 26.9, 20.36 17.37, 31.35 4.72 M8.78 36.78 C17.55 26.7, 26.31 16.61, 31.09 11.12 M8.78 36.78 C16.55 27.85, 24.32 18.91, 31.09 11.12 M14.42 36.39 C20.36 29.56, 26.3 22.73, 31.48 16.77 M14.42 36.39 C18.31 31.92, 22.19 27.45, 31.48 16.77 M19.41 36.75 C23.97 31.5, 28.53 26.26, 31.88 22.41 M19.41 36.75 C23.52 32.02, 27.62 27.3, 31.88 22.41 M25.05 36.35 C26.37 34.84, 27.69 33.32, 31.61 28.81 M25.05 36.35 C26.81 34.33, 28.57 32.3, 31.61 28.81" transform="translate(233.87101140938375 80.48766553693673) rotate(0 15.640164772479238 18.384065265231868)"/><path fill="none" stroke="#1971c2" stroke-width="1" d="M7.82 0 C13.55 0, 19.28 0, 23.46 0 M7.82 0 C12.86 0, 17.9 0, 23.46 0 M23.46 0 C28.67 0, 31.28 2.61, 31.28 7.82 M23.46 0 C28.67 0, 31.28 2.61, 31.28 7.82 M31.28 7.82 C31.28 15.35, 31.28 22.88, 31.28 28.95 M31.28 7.82 C31.28 16.12, 31.28 24.42, 31.28 28.95 M31.28 28.95 C31.28 34.16, 28.67 36.77, 23.46 36.77 M31.28 28.95 C31.28 34.16, 28.67 36.77, 23.46 36.77 M23.46 36.77 C17.93 36.77, 12.4 36.77, 7.82 36.77 M23.46 36.77 C19.96 36.77, 16.46 36.77, 7.82 36.77 M7.82 36.77 C2.61 36.77, 0 34.16, 0 28.95 M7.82 36.77 C2.61 36.77, 0 34.16, 0 28.95 M0 28.95 C0 21.72, 0 14.5, 0 7.82 M0 28.95 C0 23.7, 0 18.45, 0 7.82 M0 7.82 C0 2.61, 2.61 0, 7.82 0 M0 7.82 C0 2.61, 2.61 0, 7.82 0" transform="translate(233.87101140938375 80.48766553693673) rotate(0 15.640164772479238 18.384065265231868)"/></g><g><text x="9.375" y="0" fill="#1971c2" direction="ltr" dominant-baseline="text-before-edge" font-family="Cascadia, Segoe UI Emoji" font-size="16" text-anchor="middle" style="white-space:pre" transform="translate(240.13617618186254 89.27173080216858) rotate(0 9.375 9.599999999999994)">22</text></g><g><text x="0" y="0" fill="#1e1e1e" direction="ltr" dominant-baseline="text-before-edge" font-family="Virgil, Segoe UI Emoji" font-size="21.34" text-anchor="start" style="white-space:pre" transform="translate(39.73176743192289 117.25579593758874) rotate(0 7.341125341676161 13.337805727373592)">0</text></g><g><text x="0" y="0" fill="#1e1e1e" direction="ltr" dominant-baseline="text-before-edge" font-family="Virgil, Segoe UI Emoji" font-size="21.34" text-anchor="start" style="white-space:pre" transform="translate(85.4023374319213 117.25579593758863) rotate(0 2.8915634155273438 13.337805727373535)">1</text></g><g><text x="0" y="0" fill="#1e1e1e" direction="ltr" dominant-baseline="text-before-edge" font-family="Virgil, Segoe UI Emoji" font-size="21.34" text-anchor="start" style="white-space:pre" transform="translate(131.0729094319222 117.25579593758852) rotate(0 7.597038269042969 13.337805727373535)">2</text></g><g><text x="0" y="0" fill="#1e1e1e" direction="ltr" dominant-baseline="text-before-edge" font-family="Virgil, Segoe UI Emoji" font-size="21.34" text-anchor="start" style="white-space:pre" transform="translate(176.7434814319231 117.2557959375884) rotate(0 7.266265869140625 13.337805727373535)">3</text></g><g><text x="0" y="0" fill="#1e1e1e" direction="ltr" dominant-baseline="text-before-edge" font-family="Virgil, Segoe UI Emoji" font-size="21.34" text-anchor="start" style="white-space:pre" transform="translate(242.17005143192273 53.812053937588246) rotate(0 6.82879638671875 13.337805727373564)">4</text></g><g stroke-linecap="round"><g><path fill="none" stroke="#1e1e1e" stroke-width="1" d="M1.1 -0.84 C-0.04 3.77, -0.26 21.83, -5.64 27.8 C-11.01 33.77, -26.98 33.43, -31.16 34.98 M0.22 1.33 C-0.66 6.1, 1.34 23.46, -3.48 29.18 C-8.3 34.91, -24.16 34.69, -28.69 35.67" transform="translate(244.6924896272012 126.50602608891501) rotate(0 -15.171135605673953 18.08827524085521)"/></g><g><path fill="none" stroke="#1e1e1e" stroke-width="1" d="M-16.61 29.63 C-22.36 30.96, -26.55 33.64, -28.69 35.67 M-16.61 29.63 C-18.7 30.55, -21.67 32.35, -28.69 35.67" transform="translate(244.6924896272012 126.50602608891501) rotate(0 -15.171135605673953 18.08827524085521)"/></g><g><path fill="none" stroke="#1e1e1e" stroke-width="1" d="M-15.56 38.81 C-21.74 36.49, -26.35 35.51, -28.69 35.67 M-15.56 38.81 C-17.83 37.89, -21.01 37.86, -28.69 35.67" transform="translate(244.6924896272012 126.50602608891501) rotate(0 -15.171135605673953 18.08827524085521)"/></g></g><g><text x="0" y="0" fill="#1e1e1e" direction="ltr" dominant-baseline="text-before-edge" font-family="Cascadia, Segoe UI Emoji" font-size="22.72" text-anchor="start" style="white-space:pre" transform="translate(92.59903115771704 26.54749980732413) rotate(0 39.93831112692487 13.63227686465703)">Vector</text></g><g><text x="0" y="0" fill="#1e1e1e" direction="ltr" dominant-baseline="text-before-edge" font-family="Cascadia, Segoe UI Emoji" font-size="16" text-anchor="start" style="white-space:pre" transform="translate(84.19790915771773 79.67173080732437) rotate(0 23.4375 9.599999999999994)">Index</text></g><g stroke-linecap="round"><g><path fill="none" stroke="#1e1e1e" stroke-dasharray="8 9" stroke-width="1.5" d="M0.28 0.03 C0.59 33.25, 1.03 165.83, 1 198.78" transform="translate(275.8464060811493 33.47265597188658) rotate(0 0.5374316221800655 99.01795782723266)"/></g></g><g><text x="0" y="0" fill="#1e1e1e" direction="ltr" dominant-baseline="text-before-edge" font-family="Cascadia, Segoe UI Emoji" font-size="16" text-anchor="start" style="white-space:pre" transform="translate(299.1093318288804 44.19360139562076) rotate(0 60.9375 9.599999999999994)">vector&lt;int&gt;v;</text></g><g><text x="0" y="0" fill="#2f9e44" direction="ltr" dominant-baseline="text-before-edge" font-family="Cascadia, Segoe UI Emoji" font-size="16" text-anchor="start" style="white-space:pre" transform="translate(299.10933124593794 80.48766588816227) rotate(0 75 9.599999999999994)">v.push_back(10);</text></g><g><text x="0" y="0" fill="#1971c2" direction="ltr" dominant-baseline="text-before-edge" font-family="Cascadia, Segoe UI Emoji" font-size="16" text-anchor="start" style="white-space:pre" transform="translate(299.10933178835967 124.73140726945394) rotate(0 60.9375 9.600000000000023)">v.pop_back();</text></g><g><text x="0" y="0" fill="#1e1e1e" direction="ltr" dominant-baseline="text-before-edge" font-family="Cascadia, Segoe UI Emoji" font-size="16" text-anchor="start" style="white-space:pre" transform="translate(299.1093308936852 167.6061569856638) rotate(0 126.5625 28.80000000000001)">sort(v.begin(),v.end());</text><text x="0" y="38.4" fill="#1e1e1e" direction="ltr" dominant-baseline="text-before-edge" font-family="Cascadia, Segoe UI Emoji" font-size="16" text-anchor="start" style="white-space:pre" transform="translate(299.1093308936852 167.6061569856638) rotate(0 126.5625 28.80000000000001)">reverse(v.begin(),v.end());</text></g><g stroke-linecap="round"><g><path fill="none" stroke="#1971c2" stroke-width="1" d="M0.15 0.71 C-2.52 1.44, -13.65 2.96, -18.21 6.26 C-22.77 9.55, -25.9 17.91, -27.2 20.48 M-3.21 -1.37 C-6.13 -0.37, -16.6 5.67, -20.88 9.66 C-25.15 13.65, -28.24 20.18, -28.86 22.55" transform="translate(79.55710002766773 90.08766606608822) rotate(0 -13.729708904750623 11.19064410144702)"/></g><g><path fill="none" stroke="#1971c2" stroke-width="1" d="M-28.19 12.71 C-28.86 15.47, -29.9 18.33, -29.34 21.42 M-29.36 13.24 C-29.63 16.76, -28.63 18.47, -28.12 22.05" transform="translate(79.55710002766773 90.08766606608822) rotate(0 -13.729708904750623 11.19064410144702)"/></g><g><path fill="none" stroke="#1971c2" stroke-width="1" d="M-22.25 15.01 C-24.27 17.28, -26.62 19.62, -29.34 21.42 M-23.42 15.55 C-25.35 18.44, -26.03 19.51, -28.12 22.05" transform="translate(79.55710002766773 90.08766606608822) rotate(0 -13.729708904750623 11.19064410144702)"/></g></g><g><text x="0" y="0" fill="#1971c2" direction="ltr" dominant-baseline="text-before-edge" font-family="Cascadia, Segoe UI Emoji" font-size="16" text-anchor="start" style="white-space:pre" transform="translate(88.29390143024011 195.04630604162628) rotate(0 23.4375 9.600000000000023)">Value</text></g><g stroke-linecap="round"><g><path fill="none" stroke="#2f9e44" stroke-width="1" d="M0 0 C-3.01 -0.35, -13.53 1.18, -18.09 -2.11 C-22.65 -5.4, -25.81 -16.78, -27.35 -19.71 M0 0 C-3.01 -0.35, -13.53 1.18, -18.09 -2.11 C-22.65 -5.4, -25.81 -16.78, -27.35 -19.71" transform="translate(85.99786577882423 204.87363077169334) rotate(0 -13.67652858786687 -9.857285559662557)"/></g><g><path fill="none" stroke="#2f9e44" stroke-width="1" d="M-20.68 -12.34 C-22.89 -14.78, -25.09 -17.22, -27.35 -19.71 M-20.68 -12.34 C-22.03 -13.83, -23.37 -15.32, -27.35 -19.71" transform="translate(85.99786577882423 204.87363077169334) rotate(0 -13.67652858786687 -9.857285559662557)"/></g><g><path fill="none" stroke="#2f9e44" stroke-width="1" d="M-26.98 -9.77 C-27.1 -13.06, -27.23 -16.35, -27.35 -19.71 M-26.98 -9.77 C-27.06 -11.78, -27.13 -13.79, -27.35 -19.71" transform="translate(85.99786577882423 204.87363077169334) rotate(0 -13.67652858786687 -9.857285559662557)"/></g></g><g fill-opacity="0" stroke-linecap="round" stroke-opacity="0"><path fill="none" stroke="#1e1e1e" stroke-width="1" d="M32 0 C217.71 0, 403.42 0, 532.9 0 M32 0 C192.91 0, 353.82 0, 532.9 0 M532.9 0 C554.23 0, 564.9 10.67, 564.9 32 M532.9 0 C554.23 0, 564.9 10.67, 564.9 32 M564.9 32 C564.9 102.28, 564.9 172.55, 564.9 213.55 M564.9 32 C564.9 82.35, 564.9 132.69, 564.9 213.55 M564.9 213.55 C564.9 234.89, 554.23 245.55, 532.9 245.55 M564.9 213.55 C564.9 234.89, 554.23 245.55, 532.9 245.55 M532.9 245.55 C419.03 245.55, 305.17 245.55, 32 245.55 M532.9 245.55 C407.55 245.55, 282.2 245.55, 32 245.55 M32 245.55 C10.67 245.55, 0 234.89, 0 213.55 M32 245.55 C10.67 245.55, 0 234.89, 0 213.55 M0 213.55 C0 145.62, 0 77.68, 0 32 M0 213.55 C0 155.8, 0 98.06, 0 32 M0 32 C0 10.67, 10.67 0, 32 0 M0 32 C0 10.67, 10.67 0, 32 0" transform="translate(10 10) rotate(0 282.4475151433121 122.77632755838027)"/></g></svg>